<svg width="341" height="347" viewBox="0 0 341 347" fill="none" xmlns="http://www.w3.org/2000/svg">
    <path fill-rule="evenodd" clip-rule="evenodd"
          d="M0.5 8.00001C0.5 3.58173 4.08172 0 8.5 0H332.5C336.918 0 340.5 3.58172 340.5 8V101C334.977 101 330.5 105.477 330.5 111C330.5 116.523 334.977 121 340.5 121V339C340.5 343.418 336.918 347 332.5 347H8.5C4.08172 347 0.5 343.418 0.5 339V121C6.02285 121 10.5 116.523 10.5 111C10.5 105.477 6.02285 101 0.5 101V8.00001Z"
          fill="#0990E0"/>
    <path fill-rule="evenodd" clip-rule="evenodd"
          d="M0.5 8.00001C0.5 3.58173 4.08172 0 8.5 0H332.5C336.918 0 340.5 3.58172 340.5 8V101C334.977 101 330.5 105.477 330.5 111C330.5 116.523 334.977 121 340.5 121V339C340.5 343.418 336.918 347 332.5 347H8.5C4.08172 347 0.5 343.418 0.5 339V121C6.02285 121 10.5 116.523 10.5 111C10.5 105.477 6.02285 101 0.5 101V8.00001Z"
          fill="#25A5F0"/>
    <path fill-rule="evenodd" clip-rule="evenodd"
          d="M0.5 8.00001C0.5 3.58173 4.08172 0 8.5 0H332.5C336.918 0 340.5 3.58172 340.5 8V101C334.977 101 330.5 105.477 330.5 111C330.5 116.523 334.977 121 340.5 121V339C340.5 343.418 336.918 347 332.5 347H8.5C4.08172 347 0.5 343.418 0.5 339V121C6.02285 121 10.5 116.523 10.5 111C10.5 105.477 6.02285 101 0.5 101V8.00001Z"
          fill="white"/>
    <path d="M15.5797 111H327" stroke="#A1A6AA" stroke-opacity="0.616587" stroke-width="1.99533"
          stroke-dasharray="3.98 2.49"/>
</svg>
