<svg width="340" height="318" viewBox="0 0 340 318" fill="none" xmlns="http://www.w3.org/2000/svg">
    <path fill-rule="evenodd" clip-rule="evenodd"
          d="M0 7.99999C0 3.58172 3.58172 0 8 0H332C336.418 0 340 3.58172 340 8V101C334.477 101 330 105.477 330 111C330 116.523 334.477 121 340 121V310C340 314.418 336.418 318 332 318H8C3.58172 318 0 314.418 0 310V121C5.52285 121 10 116.523 10 111C10 105.477 5.52285 101 0 101V7.99999Z"
          fill="#0990E0"/>
    <path fill-rule="evenodd" clip-rule="evenodd"
          d="M0 7.99999C0 3.58172 3.58172 0 8 0H332C336.418 0 340 3.58172 340 8V101C334.477 101 330 105.477 330 111C330 116.523 334.477 121 340 121V310C340 314.418 336.418 318 332 318H8C3.58172 318 0 314.418 0 310V121C5.52285 121 10 116.523 10 111C10 105.477 5.52285 101 0 101V7.99999Z"
          fill="#25A5F0"/>
    <path fill-rule="evenodd" clip-rule="evenodd"
          d="M0 7.99999C0 3.58172 3.58172 0 8 0H332C336.418 0 340 3.58172 340 8V101C334.477 101 330 105.477 330 111C330 116.523 334.477 121 340 121V310C340 314.418 336.418 318 332 318H8C3.58172 318 0 314.418 0 310V121C5.52285 121 10 116.523 10 111C10 105.477 5.52285 101 0 101V7.99999Z"
          fill="white"/>
</svg>
