<svg width="162" height="54" viewBox="0 0 162 54" fill="none" xmlns="http://www.w3.org/2000/svg">
<g id="appstore-rus">
<rect id="Rectangle 17 Copy" width="162" height="54" rx="3" fill="#28323E"/>
<g id="logo">
<g id="_Group_3">
<path id="_Path_" d="M34.4206 26.1756C34.4512 23.794 35.6998 21.5942 37.7288 20.3467C36.443 18.5103 34.3665 17.3878 32.1258 17.3177C29.7684 17.0702 27.483 18.7283 26.2817 18.7283C25.0571 18.7283 23.2075 17.3422 21.2158 17.3832C18.5953 17.4679 16.2114 18.9217 14.9365 21.2127C12.2215 25.9134 14.2466 32.8219 16.8474 36.6216C18.1487 38.4823 19.6694 40.5606 21.6593 40.4869C23.6066 40.4061 24.3338 39.2452 26.6843 39.2452C29.013 39.2452 29.6953 40.4869 31.7256 40.44C33.8151 40.4061 35.1315 38.5712 36.3871 36.6929C37.3221 35.3672 38.0415 33.9019 38.5188 32.3515C36.0371 31.3019 34.4234 28.8702 34.4206 26.1756Z" fill="white"/>
<path id="_Path_2" d="M30.5857 14.8187C31.725 13.451 32.2863 11.6931 32.1504 9.91833C30.4098 10.1011 28.802 10.933 27.6474 12.2482C26.5072 13.5458 25.9296 15.2434 26.0418 16.9671C27.8056 16.9853 29.4804 16.1934 30.5857 14.8187Z" fill="white"/>
</g>
</g>
<path id="&#208;&#151;&#208;&#176;&#208;&#179;&#209;&#128;&#209;&#131;&#208;&#183;&#208;&#184;&#209;&#130;&#208;&#181;&#208;&#178;" fill-rule="evenodd" clip-rule="evenodd" d="M54.6381 10.5297C54.6381 10.02 54.4524 9.61456 54.0811 9.31354C53.7097 9.01251 53.1879 8.862 52.5155 8.862C51.953 8.862 51.4817 9.01691 51.1016 9.32672C50.7214 9.63654 50.5314 10.02 50.5314 10.477H49.2657C49.2657 9.96722 49.4053 9.51019 49.6843 9.1059C49.9634 8.7016 50.3534 8.38629 50.8544 8.15997C51.3553 7.93365 51.9091 7.8205 52.5155 7.8205C53.5878 7.8205 54.4205 8.06109 55.0138 8.5423C55.6071 9.0235 55.9037 9.69256 55.9037 10.5495C55.9037 10.9933 55.7675 11.3976 55.495 11.7624C55.2225 12.1271 54.8424 12.415 54.3546 12.6259C55.484 13.0038 56.0487 13.7531 56.0487 14.8737C56.0487 15.7351 55.7279 16.4184 55.0863 16.9238C54.4447 17.4291 53.5878 17.6818 52.5155 17.6818C51.8783 17.6818 51.2993 17.5687 50.7786 17.3423C50.2578 17.116 49.8524 16.7941 49.5624 16.3766C49.2723 15.9592 49.1273 15.4626 49.1273 14.8869H50.3929C50.3929 15.3923 50.5929 15.813 50.9928 16.1492C51.3927 16.4854 51.9003 16.6535 52.5155 16.6535C53.2054 16.6535 53.7559 16.4931 54.1667 16.1723C54.5776 15.8515 54.7831 15.4274 54.7831 14.9001C54.7831 13.7751 54.0866 13.2016 52.6935 13.1796H51.507V12.1381H52.6869C53.3285 12.1249 53.8141 11.9799 54.1437 11.7031C54.4733 11.4262 54.6381 11.0351 54.6381 10.5297ZM61.9352 17.55C61.8649 17.4094 61.8077 17.1589 61.7638 16.7985C61.1969 17.3874 60.5201 17.6818 59.7335 17.6818C59.0304 17.6818 58.4536 17.483 58.0032 17.0853C57.5527 16.6876 57.3275 16.1833 57.3275 15.5725C57.3275 14.8298 57.6099 14.253 58.1746 13.8421C58.7393 13.4312 59.5336 13.2258 60.5575 13.2258H61.744V12.6655C61.744 12.2392 61.6166 11.8997 61.3617 11.647C61.1068 11.3944 60.7311 11.268 60.2345 11.268C59.7994 11.268 59.4347 11.3779 59.1403 11.5976C58.8458 11.8173 58.6986 12.0832 58.6986 12.3952H57.4725C57.4725 12.0393 57.5989 11.6954 57.8516 11.3636C58.1042 11.0318 58.447 10.7692 58.8799 10.5759C59.3127 10.3825 59.7884 10.2858 60.307 10.2858C61.1288 10.2858 61.7726 10.4913 62.2384 10.9022C62.7042 11.3131 62.9459 11.8789 62.9635 12.5996V15.8823C62.9635 16.5371 63.047 17.0578 63.214 17.4445V17.55H61.9352ZM60.9991 16.3239C60.6564 16.5217 60.2938 16.6206 59.9115 16.6206C59.5116 16.6206 59.1842 16.5129 58.9293 16.2976C58.6744 16.0822 58.547 15.7834 58.547 15.4011C58.547 14.5266 59.2941 14.0893 60.7882 14.0893H61.744V15.5527C61.5902 15.8691 61.3419 16.1262 60.9991 16.3239ZM69.4828 11.4262H66.1935V17.55H64.9674V10.4177H69.4828V11.4262ZM75.8175 16.6865C76.3141 16.0229 76.5624 15.1484 76.5624 14.0629V13.9509C76.5624 12.7995 76.313 11.9008 75.8142 11.2548C75.3154 10.6088 74.6376 10.2858 73.7806 10.2858C72.8973 10.2858 72.2074 10.5935 71.7108 11.2087L71.6515 10.4177H70.5375V20.2922H71.757V16.8579C72.2535 17.4072 72.9347 17.6818 73.8004 17.6818C74.6486 17.6818 75.3209 17.3501 75.8175 16.6865ZM75.3429 13.9245C75.3429 13.1203 75.1715 12.4853 74.8287 12.0195C74.486 11.5537 74.0158 11.3208 73.4181 11.3208C72.6798 11.3208 72.1261 11.6481 71.757 12.3029V15.7109C72.1217 16.3613 72.6798 16.6865 73.4313 16.6865C74.0158 16.6865 74.4805 16.4547 74.8254 15.991C75.1704 15.5274 75.3429 14.8386 75.3429 13.9245ZM82.1061 10.4177L80.4449 15.7636L78.6652 10.4177H77.3336L79.8781 17.4709L79.6078 18.196C79.4584 18.6398 79.2683 18.9453 79.0376 19.1123C78.8069 19.2792 78.485 19.3627 78.0719 19.3627L77.7423 19.3364V20.3251L78.1971 20.4108L78.4279 20.4306C79.3947 20.4306 80.1 19.8374 80.5438 18.6508L83.4113 10.4177H82.1061ZM88.421 12.3688C88.421 12.0349 88.2936 11.7701 88.0387 11.5745C87.7838 11.379 87.4345 11.2812 86.9906 11.2812C86.5599 11.2812 86.2007 11.3933 85.9128 11.6174C85.625 11.8415 85.4811 12.1052 85.4811 12.4084H84.2682C84.2682 11.7888 84.5275 11.2812 85.046 10.8857C85.5646 10.4902 86.2128 10.2924 86.9906 10.2924C87.8256 10.2924 88.4759 10.4715 88.9418 10.8297C89.4076 11.1878 89.6405 11.6987 89.6405 12.3623C89.6405 12.6831 89.5438 12.9775 89.3505 13.2456C89.1571 13.5136 88.8824 13.7268 88.5265 13.885C89.3571 14.1662 89.7723 14.7199 89.7723 15.5461C89.7723 16.2009 89.5197 16.7194 89.0143 17.1018C88.5089 17.4841 87.8344 17.6752 86.9906 17.6752C86.1688 17.6752 85.491 17.4742 84.957 17.0721C84.4231 16.67 84.1561 16.1262 84.1561 15.4406H85.369C85.369 15.7878 85.5239 16.0855 85.8337 16.3338C86.1436 16.5821 86.5292 16.7063 86.9906 16.7063C87.4564 16.7063 87.8322 16.5986 88.1178 16.3833C88.4034 16.1679 88.5463 15.8889 88.5463 15.5461C88.5463 15.1462 88.4265 14.8594 88.187 14.6859C87.9475 14.5123 87.5751 14.4255 87.0697 14.4255H85.8502V13.3972H87.1752C88.0057 13.3752 88.421 13.0324 88.421 12.3688ZM97.1881 10.4177H95.9686L92.6793 15.6252V10.4177H91.4598V17.55H92.6793L95.9686 12.3491V17.55H97.1881V10.4177ZM104.446 11.4064H102.053V17.55H100.833V11.4064H98.4867V10.4177H104.446V11.4064ZM106.232 16.7293C106.839 17.3643 107.625 17.6818 108.592 17.6818C109.787 17.6818 110.684 17.2226 111.281 16.3042L110.536 15.7241C110.312 16.0141 110.051 16.247 109.752 16.4228C109.453 16.5986 109.089 16.6865 108.658 16.6865C108.051 16.6865 107.552 16.47 107.158 16.0372C106.765 15.6043 106.559 15.0363 106.542 14.3332H111.374V13.8256C111.374 12.6874 111.117 11.8129 110.602 11.2021C110.088 10.5913 109.368 10.2858 108.44 10.2858C107.873 10.2858 107.347 10.4429 106.862 10.7572C106.376 11.0714 105.998 11.5064 105.728 12.0623C105.458 12.6182 105.322 13.2499 105.322 13.9575V14.1816C105.322 15.2451 105.626 16.0943 106.232 16.7293ZM108.44 11.2878C107.948 11.2878 107.535 11.4669 107.201 11.825C106.867 12.1832 106.661 12.6853 106.581 13.3313H110.154V13.239C110.119 12.6193 109.952 12.1392 109.653 11.7987C109.354 11.4581 108.95 11.2878 108.44 11.2878ZM116.238 10.4177V17.55H119.462C120.341 17.55 121.021 17.3764 121.502 17.0292C121.983 16.6821 122.224 16.1811 122.224 15.5263C122.224 15.1176 122.093 14.7661 121.832 14.4716C121.57 14.1772 121.224 13.9794 120.793 13.8784C121.18 13.7377 121.472 13.5345 121.67 13.2686C121.868 13.0028 121.967 12.705 121.967 12.3754C121.967 11.7338 121.713 11.2471 121.205 10.9154C120.698 10.5836 119.969 10.4177 119.02 10.4177H116.238ZM117.458 14.4189V16.5678H119.475C119.985 16.5678 120.366 16.4733 120.619 16.2844C120.871 16.0954 120.998 15.8295 120.998 15.4868C120.998 14.7749 120.475 14.4189 119.429 14.4189H117.458ZM119.033 13.4433H117.458V11.4064H119.126C120.207 11.4284 120.747 11.7734 120.747 12.4414C120.747 13.1093 120.176 13.4433 119.033 13.4433Z" fill="white"/>
<g id="app-store">
<path id="Shape" fill-rule="evenodd" clip-rule="evenodd" d="M53.4173 34.6135H59.8074L61.3406 39.1447H64.0934L58.0408 22.3804H55.2287L49.1761 39.1447H51.8827L53.4173 34.6135ZM59.1443 32.5226H54.0791L56.5774 25.1688H56.6473L59.1443 32.5226Z" fill="white"/>
<path id="Shape_2" fill-rule="evenodd" clip-rule="evenodd" d="M72.0641 39.2726C75.1319 39.2726 77.1648 36.8324 77.1648 33.0342C77.1648 29.2465 75.12 26.7944 72.0179 26.7943C70.4217 26.7429 68.9264 27.5731 68.1261 28.9551H68.08V26.9222H65.6516V43.1881H68.1604V37.1342H68.2184C68.9847 38.525 70.4784 39.3556 72.0641 39.2726ZM71.3561 28.9327C73.3073 28.9327 74.5861 30.5596 74.5861 33.0341H74.586C74.586 35.5311 73.3073 37.1461 71.3561 37.1461C69.4392 37.1461 68.1498 35.4968 68.1498 33.0341C68.1498 30.5938 69.4392 28.9327 71.3561 28.9327Z" fill="white"/>
<path id="Shape_3" fill-rule="evenodd" clip-rule="evenodd" d="M85.5167 39.2726C88.5845 39.2726 90.6181 36.8324 90.6181 33.0342C90.6181 29.2465 88.5726 26.7944 85.4705 26.7943C83.8743 26.7429 82.379 27.5731 81.5787 28.9551H81.5325V26.9222H79.1041V43.1881H81.613V37.1342H81.671C82.4373 38.525 83.9309 39.3556 85.5167 39.2726ZM84.8087 28.9327C86.7599 28.9327 88.0387 30.5596 88.0387 33.0341C88.0387 35.5311 86.7599 37.1461 84.8087 37.1461C82.8918 37.1461 81.6025 35.4968 81.6025 33.0341C81.6025 30.5938 82.8918 28.9327 84.8087 28.9327Z" fill="white"/>
<path id="Shape_4" d="M99.5077 34.4738C99.6936 36.1362 101.309 37.2278 103.516 37.2278C105.63 37.2278 107.152 36.1362 107.152 34.6372C107.152 33.336 106.234 32.5568 104.061 32.0229L101.889 31.4995C98.8103 30.7559 97.3812 29.3163 97.3812 26.9801C97.3812 24.0877 99.9019 22.1009 103.48 22.1009C107.024 22.1009 109.452 24.0877 109.534 26.9801H107.001C106.85 25.3071 105.467 24.2973 103.446 24.2973C101.425 24.2973 100.042 25.319 100.042 26.8061C100.042 27.9913 100.925 28.6887 103.086 29.2226L104.933 29.6761C108.372 30.4896 109.8 31.8712 109.8 34.3234C109.8 37.4597 107.303 39.4241 103.33 39.4241C99.6118 39.4241 97.1017 37.5059 96.9395 34.4736L99.5077 34.4738Z" fill="white"/>
<path id="Shape_5" d="M115.217 24.0297V26.9222H117.542V28.909H115.217V35.6471C115.217 36.6939 115.683 37.1817 116.704 37.1817C116.98 37.1769 117.256 37.1575 117.53 37.1236V39.0985C117.07 39.1844 116.603 39.2232 116.136 39.2146C113.662 39.2146 112.697 38.2851 112.697 35.9147V28.909H110.919V26.9222H112.697V24.0297H115.217Z" fill="white"/>
<path id="Shape_6" fill-rule="evenodd" clip-rule="evenodd" d="M124.683 26.7719C121.151 26.7719 118.886 29.1885 118.886 33.0341C118.886 36.8903 121.129 39.2963 124.683 39.2963C128.239 39.2963 130.481 36.8903 130.481 33.0341C130.481 29.1884 128.227 26.7719 124.683 26.7719ZM124.683 28.8391C126.716 28.8391 127.925 30.3961 127.925 33.0341H127.925C127.925 35.6827 126.716 37.2278 124.683 37.2278C122.65 37.2278 121.441 35.6827 121.441 33.0341C121.441 30.408 122.65 28.8391 124.683 28.8391Z" fill="white"/>
<path id="Shape_7" d="M132.55 26.9222H134.943V29.0025H135.001C135.334 27.6633 136.561 26.7416 137.941 26.7943C138.23 26.7933 138.518 26.8247 138.8 26.8879V29.2346C138.435 29.123 138.054 29.0718 137.673 29.083C136.935 29.0531 136.222 29.347 135.719 29.8876C135.216 30.4283 134.975 31.1616 135.059 31.895V39.1447H132.55L132.55 26.9222Z" fill="white"/>
<path id="Shape_8" fill-rule="evenodd" clip-rule="evenodd" d="M145.105 39.2963C147.869 39.2963 150.03 37.7736 150.367 35.5548L147.985 35.5548C147.528 36.6889 146.38 37.388 145.163 37.274C144.25 37.3076 143.366 36.9474 142.737 36.285C142.108 35.6226 141.794 34.7219 141.875 33.8119V33.6603H150.507V32.8008C150.507 29.0949 148.381 26.7719 144.999 26.7719C141.561 26.7719 139.342 29.2583 139.342 33.0921C139.342 36.914 141.549 39.2963 145.105 39.2963ZM147.997 31.907L141.886 31.907C141.884 31.0818 142.212 30.2899 142.796 29.7074C143.381 29.1248 144.174 28.7999 144.999 28.8049C145.818 28.7873 146.607 29.112 147.176 29.7009C147.745 30.2897 148.043 31.0893 147.997 31.907Z" fill="white"/>
</g>
</g>
</svg>
