<svg width="162" height="54" viewBox="0 0 162 54" fill="none" xmlns="http://www.w3.org/2000/svg">
<g id="googleplay-rus">
<rect id="Rectangle 17 Copy 2" width="162" height="54" rx="3" fill="#28323E"/>
<g id="Group 9">
<g id="google-play-badge">
<path id="Shape" d="M12.6755 10.4592C12.3305 10.8042 12.15 11.405 12.15 12.095V37.51C12.15 38.2 12.38 38.775 12.725 39.12L12.84 39.2349L26.985 24.975V24.86V24.745L12.725 10.485L12.6755 10.4592Z" fill="url(#paint0_linear)"/>
<path id="Shape_2" d="M31.815 29.6911L26.9897 24.8548V24.7398V24.6248L31.698 19.9494L31.8418 20.0296L37.3888 23.2215C38.9988 24.1415 39.1487 25.4916 37.5387 26.4116L31.976 29.599L31.815 29.6911Z" fill="url(#paint1_linear)"/>
<path id="Shape_3" d="M31.815 29.6899L26.985 24.8599L12.725 39.1199C13.3 39.6949 14.105 39.6949 15.14 39.2349L31.815 29.6899" fill="url(#paint2_linear)"/>
<path id="Shape_4" d="M31.7811 19.9931L15.0278 10.3833C14.1078 9.80826 13.1301 9.89441 12.6701 10.4694L27.1 24.893L31.7811 19.9931Z" fill="url(#paint3_linear)"/>
</g>
<path id="&#208;&#148;&#208;&#190;&#209;&#129;&#209;&#130;&#209;&#131;&#208;&#191;&#208;&#189;&#208;&#190;&#208;&#178;" fill-rule="evenodd" clip-rule="evenodd" d="M54.3903 19.9033H55.6493L55.6625 16.5151H54.41V7.95233H48.6686L48.4576 12.059C48.3961 12.9951 48.2434 13.8553 47.9995 14.6397C47.7556 15.4241 47.4271 16.0493 47.014 16.5151H46.2296L46.2362 19.9099H47.5018V17.55H54.3903V19.9033ZM53.1378 16.515H48.4576C48.7916 16.0404 49.0762 15.4142 49.3113 14.6364C49.5464 13.8586 49.6925 12.9181 49.7496 11.8151L49.8881 8.99381H53.1378V16.515ZM56.6512 13.9179C56.6512 13.2191 56.7886 12.5907 57.0632 12.0326C57.3379 11.4745 57.7202 11.0439 58.2102 10.7406C58.7002 10.4374 59.2594 10.2858 59.8878 10.2858C60.859 10.2858 61.6445 10.622 62.2444 11.2943C62.8442 11.9667 63.1442 12.861 63.1442 13.9772V14.0629C63.1442 14.7572 63.0112 15.3802 62.7454 15.9317C62.4795 16.4832 62.0994 16.9128 61.605 17.2204C61.1106 17.528 60.5426 17.6818 59.901 17.6818C58.9342 17.6818 58.1509 17.3456 57.551 16.6733C56.9512 16.0009 56.6512 15.111 56.6512 14.0036V13.9179ZM58.4277 15.9679C58.0608 15.4889 57.8773 14.8539 57.8773 14.0629C57.8773 13.1708 58.0619 12.4853 58.431 12.0063C58.8002 11.5273 59.2858 11.2878 59.8878 11.2878C60.5031 11.2878 60.9963 11.5306 61.3677 12.0161C61.739 12.5017 61.9247 13.1357 61.9247 13.9179C61.9247 14.7924 61.7423 15.4724 61.3776 15.958C61.0128 16.4436 60.5206 16.6864 59.901 16.6864C59.2858 16.6864 58.7947 16.4469 58.4277 15.9679ZM67.5343 16.6864C67.9694 16.6864 68.3495 16.5546 68.6747 16.2909C68.9999 16.0273 69.1801 15.6977 69.2152 15.3022H70.3688C70.3468 15.7109 70.2062 16.0998 69.9469 16.4689C69.6876 16.838 69.3416 17.1325 68.9087 17.3522C68.4758 17.5719 68.0177 17.6818 67.5343 17.6818C66.5631 17.6818 65.7908 17.3577 65.2173 16.7095C64.6438 16.0613 64.3571 15.1747 64.3571 14.0497V13.8454C64.3571 13.151 64.4845 12.5336 64.7394 11.9931C64.9943 11.4525 65.3601 11.0329 65.8369 10.734C66.3137 10.4352 66.8773 10.2858 67.5277 10.2858C68.3275 10.2858 68.9922 10.5253 69.5217 11.0043C70.0513 11.4833 70.3336 12.1051 70.3688 12.8698H69.2152C69.1801 12.4084 69.0054 12.0293 68.6912 11.7327C68.377 11.4361 67.9891 11.2878 67.5277 11.2878C66.9081 11.2878 66.428 11.5108 66.0874 11.9568C65.7468 12.4029 65.5765 13.0478 65.5765 13.8915V14.1222C65.5765 14.944 65.7457 15.5768 66.0841 16.0207C66.4225 16.4645 66.9059 16.6864 67.5343 16.6864ZM74.6469 11.4064H77.0397V10.4176H71.0807V11.4064H73.4274V17.55H74.6469V11.4064ZM80.5597 15.7636L82.2208 10.4176H83.526L80.6586 18.6508C80.2147 19.8373 79.5094 20.4306 78.5426 20.4306L78.3119 20.4108L77.8571 20.3251V19.3363L78.1866 19.3627C78.5997 19.3627 78.9216 19.2792 79.1523 19.1122C79.3831 18.9452 79.5731 18.6398 79.7225 18.196L79.9928 17.4709L77.4484 10.4176H78.7799L80.5597 15.7636ZM89.2279 17.55H90.4474V10.4176H84.7191V17.55H85.9452V11.4262H89.2279V17.55ZM98.2323 17.55H97.0128V14.5046H93.7367V17.55H92.5106V10.4176H93.7367V13.5092H97.0128V10.4176H98.2323V17.55ZM100.279 12.0326C100.004 12.5907 99.8671 13.2191 99.8671 13.9179V14.0036C99.8671 15.111 100.167 16.0009 100.767 16.6733C101.367 17.3456 102.15 17.6818 103.117 17.6818C103.758 17.6818 104.326 17.528 104.821 17.2204C105.315 16.9128 105.695 16.4832 105.961 15.9317C106.227 15.3802 106.36 14.7572 106.36 14.0629V13.9772C106.36 12.861 106.06 11.9667 105.46 11.2943C104.86 10.622 104.075 10.2858 103.104 10.2858C102.475 10.2858 101.916 10.4374 101.426 10.7406C100.936 11.0439 100.554 11.4745 100.279 12.0326ZM101.093 14.0629C101.093 14.8539 101.277 15.4889 101.644 15.9679C102.01 16.4469 102.502 16.6864 103.117 16.6864C103.736 16.6864 104.229 16.4436 104.593 15.958C104.958 15.4724 105.141 14.7924 105.141 13.9179C105.141 13.1357 104.955 12.5017 104.583 12.0161C104.212 11.5306 103.719 11.2878 103.104 11.2878C102.502 11.2878 102.016 11.5273 101.647 12.0063C101.278 12.4853 101.093 13.1708 101.093 14.0629ZM111.343 10.4176V17.55H114.567C115.446 17.55 116.126 17.3764 116.607 17.0292C117.088 16.682 117.329 16.1811 117.329 15.5263C117.329 15.1176 117.198 14.766 116.937 14.4716C116.675 14.1772 116.329 13.9794 115.898 13.8783C116.285 13.7377 116.577 13.5345 116.775 13.2686C116.973 13.0027 117.072 12.705 117.072 12.3754C117.072 11.7338 116.818 11.2471 116.31 10.9153C115.803 10.5835 115.074 10.4176 114.125 10.4176H111.343ZM112.563 14.4189V16.5678H114.58C115.09 16.5678 115.471 16.4733 115.724 16.2843C115.976 16.0954 116.103 15.8295 116.103 15.4867C116.103 14.7748 115.58 14.4189 114.534 14.4189H112.563ZM114.138 13.4433H112.563V11.4064H114.231C115.312 11.4284 115.852 11.7733 115.852 12.4413C115.852 13.1093 115.281 13.4433 114.138 13.4433Z" fill="white"/>
<path id="googleplay" fill-rule="evenodd" clip-rule="evenodd" d="M126.653 38.824H128.94V23.5039H126.653V38.824ZM147.252 29.0224L144.629 35.6646H144.551L141.831 29.0224H139.367L143.447 38.3055L141.122 43.4698H143.505L149.793 29.0224H147.252ZM134.282 37.0837C133.532 37.0837 132.488 36.71 132.488 35.7823C132.488 34.6009 133.788 34.1462 134.912 34.1462C135.918 34.1462 136.391 34.3643 137.003 34.6597C136.824 36.0788 135.602 37.0837 134.282 37.0837V37.0837ZM134.557 28.6878C132.902 28.6878 131.186 29.417 130.477 31.0322L132.509 31.8803C132.941 31.0322 133.749 30.7565 134.597 30.7565C135.778 30.7565 136.982 31.466 137.003 32.7283V32.8852C136.588 32.6486 135.701 32.2945 134.617 32.2945C132.429 32.2945 130.202 33.4967 130.202 35.743C130.202 37.7933 131.995 39.1144 134.005 39.1144C135.543 39.1144 136.391 38.4244 136.923 37.6156H137.003V38.7982H139.209V32.9244C139.209 30.205 137.179 28.6878 134.557 28.6878V28.6878ZM120.425 30.8876H117.174V25.6363H120.425C122.136 25.6363 123.107 27.0518 123.107 28.2614C123.107 29.4489 122.136 30.8876 120.425 30.8876V30.8876ZM120.367 23.5039H114.887V38.824H117.174V33.02H120.367C122.902 33.02 125.392 31.1842 125.392 28.2613C125.392 25.3385 122.902 23.5039 120.367 23.5039V23.5039ZM90.4863 37.0862C88.9079 37.0862 87.5844 35.7639 87.5844 33.9477C87.5844 32.1119 88.9079 30.7687 90.4863 30.7687C92.0476 30.7687 93.2707 32.1119 93.2707 33.9477C93.2707 35.7639 92.0476 37.0862 90.4863 37.0862V37.0862ZM93.1125 29.8803H93.0353C92.5218 29.2675 91.5341 28.716 90.289 28.716C87.6836 28.716 85.295 31.0053 85.295 33.9477C85.295 36.8693 87.6836 39.1402 90.289 39.1402C91.5341 39.1402 92.5218 38.5875 93.0353 37.9551H93.1125V38.7063C93.1125 40.7002 92.0476 41.7664 90.3294 41.7664C88.9274 41.7664 88.0586 40.759 87.7032 39.9098L85.7093 40.7394C86.2816 42.1218 87.8024 43.8191 90.3294 43.8191C93.0145 43.8191 95.2854 42.2395 95.2854 38.3901V29.031H93.1125V29.8803ZM96.8651 38.824H99.1555V23.5027H96.8651V38.824ZM102.532 33.7699C102.472 31.7564 104.091 30.7294 105.255 30.7294C106.163 30.7294 106.934 31.1829 107.19 31.8348L102.532 33.7699ZM109.638 32.0322C109.205 30.868 107.881 28.716 105.176 28.716C102.491 28.716 100.261 30.8276 100.261 33.9281C100.261 36.8497 102.472 39.1402 105.434 39.1402C107.822 39.1402 109.205 37.6794 109.777 36.8301L108 35.6462C107.407 36.5139 106.598 37.0862 105.434 37.0862C104.268 37.0862 103.439 36.5531 102.906 35.5078L109.876 32.6254L109.638 32.0322ZM54.1134 30.3141V32.5261H59.4038C59.2458 33.77 58.8315 34.6781 58.2004 35.3104C57.4296 36.0801 56.2249 36.9281 54.1134 36.9281C50.856 36.9281 48.3081 34.3031 48.3081 31.0457C48.3081 27.7871 50.856 25.162 54.1134 25.162C55.8695 25.162 57.1538 25.852 58.1011 26.7405L59.6612 25.1817C58.3389 23.9182 56.5803 22.95 54.1134 22.95C49.6513 22.95 45.9 26.5836 45.9 31.0457C45.9 35.5077 49.6513 39.1401 54.1134 39.1401C56.5215 39.1401 58.3389 38.3509 59.7592 36.8693C61.2213 35.4085 61.6747 33.3545 61.6747 31.6964C61.6747 31.1829 61.6355 30.7099 61.5558 30.3141H54.1134ZM67.6894 37.0862C66.1098 37.0862 64.7482 35.7835 64.7482 33.9281C64.7482 32.0518 66.1098 30.7687 67.6894 30.7687C69.2691 30.7687 70.6319 32.0518 70.6319 33.9281C70.6319 35.7835 69.2691 37.0862 67.6894 37.0862V37.0862ZM67.6894 28.716C64.807 28.716 62.4577 30.9072 62.4577 33.9281C62.4577 36.9281 64.807 39.1402 67.6894 39.1402C70.5718 39.1402 72.9211 36.9281 72.9211 33.9281C72.9211 30.9072 70.5718 28.716 67.6894 28.716V28.716ZM79.1026 37.0862C77.5242 37.0862 76.1627 35.7835 76.1627 33.9281C76.1627 32.0518 77.5242 30.7687 79.1026 30.7687C80.6823 30.7687 82.0463 32.0518 82.0463 33.9281C82.0463 35.7835 80.6823 37.0862 79.1026 37.0862V37.0862ZM79.1026 28.716C76.2214 28.716 73.8709 30.9072 73.8709 33.9281C73.8709 36.9281 76.2214 39.1402 79.1026 39.1402C81.9862 39.1402 84.3355 36.9281 84.3355 33.9281C84.3355 30.9072 81.9862 28.716 79.1026 28.716V28.716Z" fill="white"/>
</g>
</g>
<defs>
<linearGradient id="paint0_linear" x1="20.7719" y1="-6.91302" x2="-2.05149" y2="-0.841614" gradientUnits="userSpaceOnUse">
<stop stop-color="#00A0FF"/>
<stop offset="0.00657445" stop-color="#00A1FF"/>
<stop offset="0.2601" stop-color="#00BEFF"/>
<stop offset="0.5122" stop-color="#00D2FF"/>
<stop offset="0.7604" stop-color="#00DFFF"/>
<stop offset="1" stop-color="#00E3FF"/>
</linearGradient>
<linearGradient id="paint1_linear" x1="39.6084" y1="13.1633" x2="11.7541" y2="13.1633" gradientUnits="userSpaceOnUse">
<stop stop-color="#FFE000"/>
<stop offset="0.4087" stop-color="#FFBD00"/>
<stop offset="0.7754" stop-color="#FFA500"/>
<stop offset="1" stop-color="#FF9C00"/>
</linearGradient>
<linearGradient id="paint2_linear" x1="12.2464" y1="17.3725" x2="-6.05821" y2="48.2139" gradientUnits="userSpaceOnUse">
<stop stop-color="#FF3A44"/>
<stop offset="1" stop-color="#C31162"/>
</linearGradient>
<linearGradient id="paint3_linear" x1="1.50346" y1="6.56047" x2="9.8516" y2="20.308" gradientUnits="userSpaceOnUse">
<stop stop-color="#32A071"/>
<stop offset="0.0685" stop-color="#2DA771"/>
<stop offset="0.4762" stop-color="#15CF74"/>
<stop offset="0.8009" stop-color="#06E775"/>
<stop offset="1" stop-color="#00F076"/>
</linearGradient>
</defs>
</svg>
