<svg width="169" height="118" viewBox="0 0 169 118" fill="none" xmlns="http://www.w3.org/2000/svg">
<mask id="mask0" mask-type="alpha" maskUnits="userSpaceOnUse" x="0" y="0" width="169" height="118">
<rect width="169" height="118" fill="#C4C4C4"/>
</mask>
<g mask="url(#mask0)">
<mask id="mask1" mask-type="alpha" maskUnits="userSpaceOnUse" x="-5" y="7" width="174" height="105">
<rect width="163.325" height="82.9004" transform="matrix(0.990427 -0.138039 0.138926 0.990303 -4.97168 29.6297)" fill="#C4C4C4"/>
</mask>
<g mask="url(#mask1)">
<path d="M136.405 83.9033C137.111 83.5418 137.949 83.1265 138.694 82.6719C139.306 82.2711 140.011 81.9094 140.662 81.4157C141.274 81.0148 141.752 80.6678 142.27 80.2277C142.961 79.641 143.519 79.108 144.062 78.3498L146.542 75.1168C147.218 74.3049 147.693 73.1895 147.582 72.1567L147.485 71.3491L146.913 68.8086L146.737 68.1869C145.632 65.8613 144.88 64.779 143.636 63.8188C140.462 61.1734 136.228 59.7261 132.59 57.6529C129.341 55.9618 125.837 53.835 122.653 51.7328C120.753 50.4979 119.066 49.0234 117.299 47.7348C108.424 40.6164 101.257 31.0376 96.9945 20.5949L96.25 18.2011C95.8327 17.3687 95.4585 17.2118 94.6705 16.9909C94.2567 16.927 93.843 16.8631 93.3897 16.8921C91.3352 16.7974 89.0683 16.9423 87.003 17.3909C85.1104 17.6928 83.405 18.0732 81.5951 18.9576C80.9834 19.3584 80.5048 19.7055 80.4688 20.5668C80.234 30.4381 74.6672 38.0734 68.6723 45.4195C54.6422 60.2423 41.5844 66.0508 23.4316 74.7623L18.6677 77.1468L18.002 77.4155C13.346 80.0643 6.95908 83.4116 7.08087 89.5979L7.36128 92.564C7.54106 93.9541 7.99797 94.6935 9.28239 95.5608L12.5744 97.9274C12.6679 97.9666 12.7614 98.0058 12.855 98.045C13.1895 98.2949 13.5242 98.5448 13.8984 98.7017C13.992 98.7409 14.0854 98.7801 14.2725 98.8586C14.9273 99.1332 15.5821 99.4078 16.1434 99.6431C16.9314 99.864 17.5863 100.139 18.3202 100.227C19.1082 100.448 20.0293 100.615 20.8568 100.743C21.7779 100.91 22.6989 101.078 23.7531 101.191L23.8467 101.23C23.9403 101.269 23.9798 101.177 24.0734 101.216L24.2065 101.162L24.6994 101.04L24.9801 101.158L25.3542 101.315L25.4478 101.354C25.5414 101.393 25.5413 101.393 25.6349 101.432C25.7284 101.472 25.822 101.511 25.9551 101.457C26.0487 101.496 26.1817 101.443 26.2753 101.482C28.7975 101.773 31.3988 101.878 33.9066 101.943C36.8282 102.073 39.7894 102.109 42.6966 102.014C42.7902 102.053 42.7903 102.053 42.8298 101.96C42.963 101.907 43.0961 101.853 43.2292 101.799L43.9344 101.437C44.5749 101.487 45.3772 101.933 45.8306 101.904L45.9637 101.85C49.3243 101.726 52.7244 101.508 56.1246 101.291C59.7514 101.059 63.3243 100.695 66.8972 100.33C67.5772 100.287 67.6815 99.7829 68.4947 99.6857C69.3079 99.5884 69.8835 100.049 70.47 99.9663C77.882 99.1305 85.2258 97.9374 92.5551 96.5192C92.6882 96.4655 92.7817 96.5046 92.9148 96.4509C93.5805 96.1822 93.6453 95.7713 94.5916 95.6203C95.3112 95.4839 95.5667 95.9197 96.1531 95.8369C99.6577 95.1154 103.069 94.3547 106.48 93.594C109.664 92.8478 112.888 92.0086 116.018 91.1302L116.151 91.0765C116.551 90.9153 117.202 90.4215 117.735 90.2065L118.562 90.3345C118.749 90.413 118.882 90.3592 119.149 90.2518C121.826 89.4024 124.503 88.5529 127.086 87.6643C129.31 86.8439 131.573 85.9305 133.743 84.9779C134.009 84.8704 134.182 84.7238 134.448 84.6163C134.621 84.4696 134.833 84.2301 135.006 84.0834L135.326 84.108C136.046 83.9716 136.272 83.9571 136.405 83.9033Z" fill="#F0F6FA"/>
<path d="M138.694 82.6719C137.949 83.1265 137.111 83.5418 136.405 83.9033L133.743 84.9779C131.573 85.9305 129.31 86.8439 127.086 87.6643C124.503 88.5529 121.826 89.4024 119.149 90.2518L116.018 91.1302C112.888 92.0086 109.664 92.8478 106.48 93.594C103.069 94.3547 99.6577 95.1154 96.1531 95.8369L92.5551 96.5192C85.2258 97.9374 77.882 99.1305 70.47 99.9663C69.8835 100.049 69.3079 99.5884 68.4947 99.6857C67.6815 99.7829 67.5772 100.287 66.8972 100.33C63.3243 100.695 59.7514 101.059 56.1246 101.291L56.1217 101.291C52.7225 101.508 49.3233 101.726 45.9637 101.85L45.8306 101.904C45.3772 101.933 44.5749 101.487 43.9344 101.437L43.2292 101.799L42.8298 101.96C42.7903 102.053 42.7902 102.053 42.6967 102.014L42.6966 102.014C39.7894 102.109 36.8282 102.073 33.9066 101.943C31.3988 101.878 28.7975 101.773 26.2753 101.482L23.7531 101.191C22.6993 101.078 21.7786 100.911 20.8578 100.743L20.8568 100.743C20.0293 100.615 19.1082 100.448 18.3202 100.227C17.5863 100.139 16.9314 99.864 16.1434 99.6431L14.2725 98.8586L13.8984 98.7017C13.5242 98.5448 13.1895 98.2949 12.855 98.045L12.5744 97.9274L9.28239 95.5608C7.99797 94.6935 7.54106 93.9541 7.36128 92.564L7.08087 89.5979C6.95908 83.4116 13.346 80.0643 18.002 77.4155L18.6677 77.1468L23.4316 74.7623C41.5844 66.0508 54.6422 60.2423 68.6723 45.4195C74.6672 38.0734 80.234 30.4381 80.4688 20.5668C80.5048 19.7055 80.9834 19.3584 81.5951 18.9576C83.405 18.0732 85.1104 17.6928 87.003 17.3909C89.0683 16.9423 91.3352 16.7974 93.3897 16.8921C93.843 16.8631 94.2567 16.927 94.6705 16.9909C95.4585 17.2118 95.8327 17.3687 96.25 18.2011L96.9945 20.5949C101.257 31.0376 108.424 40.6164 117.299 47.7348C119.066 49.0234 120.753 50.4979 122.653 51.7328C125.837 53.835 129.341 55.9618 132.59 57.6529C136.228 59.7261 140.462 61.1734 143.636 63.8188C144.88 64.779 145.632 65.8613 146.737 68.1869L146.913 68.8086L147.485 71.3491L147.582 72.1567C147.693 73.1895 147.218 74.3049 146.542 75.1168L144.062 78.3498C143.519 79.108 142.961 79.641 142.27 80.2277C141.752 80.6678 141.274 81.0148 140.662 81.4157C140.011 81.9094 139.306 82.2711 138.694 82.6719Z" fill="#F0F6FA" stroke="#2B3640" stroke-width="1.0345" stroke-miterlimit="10" stroke-linecap="round" stroke-linejoin="round"/>
<path d="M143.929 78.4032L144.008 78.2171" stroke="#2B3640" stroke-width="0.243206" stroke-miterlimit="10" stroke-linecap="round" stroke-linejoin="round"/>
<path d="M77.8681 84.6649C81.0272 84.2368 83.6286 84.3417 83.7113 84.9242C83.794 85.5067 81.304 86.4345 78.1449 86.8626C74.9858 87.2908 72.3844 87.1859 72.3017 86.6034C72.219 86.0209 74.709 85.0931 77.8681 84.6649ZM81.0914 89.5226C80.9582 89.5763 80.7317 89.5908 80.6381 89.5516L58.6864 90.0966C58.5533 90.1503 58.4598 90.1111 58.5929 90.0574L61.547 88.5572C61.6801 88.5035 61.9068 88.4891 62.0004 88.5283L83.9519 87.9833C84.0851 87.9295 84.1787 87.9688 84.0456 88.0225L81.0914 89.5226ZM90.2921 83.1921C90.159 83.2458 89.9323 83.2604 89.8387 83.2212L76.249 83.5478C76.1159 83.6016 76.0223 83.5623 76.1555 83.5086L82.4235 80.4401C82.5567 80.3864 82.7833 80.3719 82.8769 80.4112L96.4666 80.0845C96.5998 80.0308 96.6933 80.07 96.5601 80.1237L90.2921 83.1921Z" fill="#F0F6FA"/>
<path d="M77.8681 84.6649C81.0272 84.2368 83.6286 84.3417 83.7113 84.9242C83.794 85.5067 81.304 86.4345 78.1449 86.8626C74.9858 87.2908 72.3844 87.1859 72.3017 86.6034C72.219 86.0209 74.709 85.0931 77.8681 84.6649ZM81.0914 89.5226C80.9582 89.5763 80.7317 89.5908 80.6381 89.5516L58.6864 90.0966C58.5533 90.1503 58.4598 90.1111 58.5929 90.0574L61.547 88.5572C61.6801 88.5035 61.9068 88.4891 62.0004 88.5283L83.9519 87.9833C84.0851 87.9295 84.1787 87.9688 84.0456 88.0225L81.0914 89.5226ZM90.2921 83.1921C90.159 83.2458 89.9323 83.2604 89.8387 83.2212L76.249 83.5478C76.1159 83.6016 76.0223 83.5623 76.1555 83.5086L82.4235 80.4401C82.5567 80.3864 82.7833 80.3719 82.8769 80.4112L96.4666 80.0845C96.5998 80.0308 96.6933 80.07 96.5601 80.1237L90.2921 83.1921Z" stroke="#2B3640" stroke-width="0.243206" stroke-miterlimit="10" stroke-linecap="round" stroke-linejoin="round"/>
<path d="M114.567 59.8444L116.453 58.0057L118.295 55.4916L120.095 52.3021L121.919 48.7945L123.665 45.4728L125.266 42.748L127.256 40.4054L129.793 38.0729L132.171 36.1123L134.47 34.3376L137.248 32.2157L140.159 30.0403L143.243 27.718L145.981 25.6892C146.327 25.3958 146.431 24.8918 146.269 24.4952C146.147 24.0057 145.758 23.6236 145.251 23.5205C144.837 23.4565 144.571 23.564 144.265 23.7644L143.492 23.7687C143.157 23.5188 142.556 23.3764 142.211 23.6697L139.645 25.5519L136.601 27.7811L133.823 29.9029L131.178 31.971L128.706 33.8924L126.501 35.7064L124.561 37.4128L122.463 39.4912L120.409 42.2449L118.53 45.6203L116.785 48.942L115.237 51.799L113.755 54.2448L112.297 56.3725L110.757 57.9179L109.055 59.0667L108.35 59.4282C108.311 59.5212 108.311 59.5212 108.271 59.6141C108.246 59.9322 108.314 60.2896 108.382 60.6469C108.436 60.7791 108.49 60.9113 108.451 61.0042C108.519 61.3616 108.641 61.8511 108.67 62.3013L108.699 62.7517L114.567 59.8444Z" fill="#F0F6FA"/>
<path d="M114.567 59.8444L116.453 58.0057L118.295 55.4916L120.095 52.3021L121.919 48.7945L123.665 45.4728L125.266 42.748L127.256 40.4054L129.793 38.0729L132.171 36.1123L134.47 34.3376L137.248 32.2157L140.159 30.0403L143.243 27.718L145.981 25.6892C146.327 25.3958 146.431 24.8918 146.269 24.4952C146.147 24.0057 145.758 23.6236 145.251 23.5205C144.837 23.4565 144.571 23.564 144.265 23.7644L143.492 23.7687C143.157 23.5188 142.556 23.3764 142.211 23.6697L139.645 25.5519L136.601 27.7811L133.823 29.9029L131.178 31.971L128.706 33.8924L126.501 35.7064L124.561 37.4128L122.463 39.4912L120.409 42.2449L118.53 45.6203L116.785 48.942L115.237 51.799L113.755 54.2448L112.297 56.3725L110.757 57.9179L109.055 59.0667L108.35 59.4282C108.311 59.5212 108.311 59.5212 108.271 59.6141C108.246 59.9322 108.314 60.2896 108.382 60.6469C108.436 60.7791 108.49 60.9113 108.451 61.0042C108.519 61.3616 108.641 61.8511 108.67 62.3013L108.699 62.7517L114.567 59.8444Z" stroke="#2B3640" stroke-width="0.486325" stroke-miterlimit="10" stroke-linecap="round" stroke-linejoin="round"/>
<path d="M108.561 62.0376L110.066 61.3535L112.034 60.0973M143.833 25.5558L144.606 25.5516L143.833 25.5558ZM144.606 25.5516C144.7 25.5908 144.847 25.7622 144.941 25.8014C145.034 25.8406 145.128 25.8799 145.355 25.8654C145.448 25.9046 145.581 25.8509 145.714 25.7971C145.847 25.7434 145.941 25.7827 145.981 25.6897L144.606 25.5516ZM142.116 23.631C141.983 23.6848 141.904 23.8707 141.865 23.9636C141.825 24.0566 141.746 24.2425 141.8 24.3747C141.854 24.5069 141.775 24.6928 141.829 24.825C141.883 24.9571 141.936 25.0893 142.084 25.2607C142.138 25.3929 142.325 25.4713 142.472 25.6428C142.66 25.7212 142.753 25.7605 142.94 25.8389C143.034 25.8781 143.26 25.8637 143.354 25.9029C143.487 25.8492 143.62 25.7955 143.753 25.7417L142.116 23.631ZM143.753 25.7417L143.926 25.595L143.753 25.7417ZM123.409 42.1891L125.413 40.0716L127.91 37.8321L130.156 35.9252L132.455 34.1505L135.1 32.0824L138.011 29.9069L141.094 27.5847L143.793 25.6488L123.409 42.1891ZM114.477 57.7256C114.941 57.1534 115.272 56.6349 115.643 56.0234C116.014 55.412 116.384 54.8005 116.755 54.1891C117.126 53.5776 117.536 52.8732 117.813 52.2225C118.223 51.518 118.5 50.8674 118.911 50.1629C119.321 49.4585 119.598 48.8078 120.008 48.1034C120.418 47.399 120.695 46.7483 121.106 46.0438C121.264 45.672 121.476 45.4324 121.635 45.0606C121.793 44.6887 122.005 44.4491 122.164 44.0773C122.322 43.7054 122.534 43.4658 122.747 43.2261C122.998 42.8935 123.25 42.5609 123.463 42.3213L114.477 57.7256ZM111.994 60.1904L113.84 58.4446L114.477 57.7256L111.994 60.1904Z" stroke="#2B3640" stroke-width="0.243206" stroke-miterlimit="10" stroke-linecap="round" stroke-linejoin="round"/>
<path d="M12.8447 92.8918C12.9392 92.9314 12.9392 92.9314 12.8447 92.8918" stroke="#2B3640" stroke-width="0.243206" stroke-miterlimit="10" stroke-linecap="round" stroke-linejoin="round"/>
<path d="M144.552 77.4591C144.591 77.366 144.591 77.366 144.631 77.2729" stroke="#2B3640" stroke-width="0.243206" stroke-miterlimit="10" stroke-linecap="round" stroke-linejoin="round"/>
<path d="M11.5135 93.4281C10.6678 95.155 11.276 96.5057 12.7619 97.6766M19.275 87.3705C16.893 88.5628 13.5538 90.4491 11.9633 92.6306M36.0244 80.919C30.9762 82.4174 25.9028 84.2339 21.1244 86.3932M59.153 75.2802C55.6485 76.0017 52.1439 76.7231 48.6933 77.5768C45.4694 78.4159 42.2455 79.2552 39.0216 80.0943M85.1023 71.0433C77.5572 71.9328 70.1199 73.0866 62.6971 74.4656M110.062 69.1303C106.608 69.2156 103.208 69.4331 99.8076 69.6506C96.1808 69.8826 92.5144 70.2075 88.9019 70.6646M144.631 77.273C145.344 75.5997 144.617 74.1993 143.185 73.1606M142.235 72.5432C139.454 71.0483 135.45 70.355 132.366 69.8288M130.125 69.6557C124.533 69.0638 118.838 68.976 113.289 69.0596M12.395 93.6882C11.5097 95.5081 12.4094 96.4332 13.8953 97.6041M20.1564 87.6306C19.3181 88.0459 18.4797 88.4612 17.6953 89.0088C16.9901 89.3703 16.3388 89.8641 15.6875 90.3579C15.1693 90.7979 14.5577 91.1988 14.1331 91.6781C13.7481 92.0645 13.4713 92.3866 13.1402 92.9051M36.6 81.3795C33.923 82.2289 31.246 83.0783 28.5294 84.0207C27.3708 84.4113 26.1726 84.8948 24.9744 85.3783C23.9094 85.8081 22.8444 86.238 21.8728 86.7071M59.4084 75.7159C55.9038 76.4374 52.4928 77.1981 49.0818 77.9588C45.8975 78.705 42.6737 79.5442 39.5433 80.4226M85.0915 71.5865C77.6795 72.4223 70.3358 73.6154 63.0065 75.0336M109.691 69.7419C106.331 69.8664 102.931 70.0839 99.5305 70.3014C95.9036 70.5333 92.3307 70.8975 88.7579 71.2616M143.714 77.5457C144.56 75.8187 143.793 74.8399 142.307 73.669M141.357 73.0516C138.67 71.5958 134.705 70.8095 131.675 70.4155M129.434 70.2424C123.936 69.6898 118.373 69.5482 112.825 69.6318" stroke="#2B3640" stroke-width="0.243206" stroke-miterlimit="10" stroke-linecap="round" stroke-linejoin="round"/>
<path d="M67.4044 100.435L67.3011 100.371C67.2762 100.41 67.2764 100.461 67.3017 100.5C67.3269 100.54 67.3728 100.561 67.4194 100.555L67.4044 100.435ZM68.4373 98.7861L68.5406 98.8501C68.544 98.8447 68.547 98.839 68.5495 98.8332L68.4373 98.7861ZM69.3548 98.185L69.3218 98.0675L69.3093 98.0725L69.3548 98.185ZM71.1538 97.8438L71.1636 97.7229C71.1579 97.7224 71.1521 97.7224 71.1464 97.7228L71.1538 97.8438ZM72.0497 98.3291L72.153 98.393C72.1564 98.3876 72.1594 98.382 72.1619 98.3761L72.0497 98.3291ZM71.0168 99.9776L71.0318 100.098C71.0683 100.093 71.1007 100.073 71.1202 100.042L71.0168 99.9776ZM43.2435 102.025L43.1906 101.916C43.1393 101.941 43.1119 101.998 43.1247 102.053C43.1374 102.108 43.1868 102.147 43.2437 102.147L43.2435 102.025ZM47.1296 100.149L47.084 100.036L47.0767 100.04L47.1296 100.149ZM48.6875 99.5972L48.6949 99.7183C48.708 99.7174 48.7208 99.7145 48.733 99.7096L48.6875 99.5972ZM50.2239 100.132L50.2768 100.241C50.3035 100.228 50.3245 100.206 50.3361 100.179L50.2239 100.132ZM46.3378 102.008L46.3381 102.129C46.3563 102.129 46.3743 102.125 46.3907 102.117L46.3378 102.008ZM24.4332 101.149L24.3981 101.032C24.343 101.049 24.3069 101.102 24.3117 101.159C24.3166 101.216 24.3609 101.262 24.4181 101.269L24.4332 101.149ZM30.5067 99.3132L30.4804 99.1945L30.4717 99.1971L30.5067 99.3132ZM33.1586 98.7819L33.166 98.903C33.1791 98.9022 33.1919 98.8993 33.2041 98.8944L33.1586 98.7819ZM32.7087 99.5793L32.7013 99.4582C32.6919 99.4588 32.6826 99.4605 32.6736 99.4632L32.7087 99.5793ZM26.6351 101.415L26.62 101.535C26.6369 101.537 26.6539 101.536 26.6702 101.531L26.6351 101.415ZM14.7115 98.6054L14.6882 98.4864C14.6806 98.4879 14.6732 98.4901 14.666 98.493L14.7115 98.6054ZM13.9597 98.6105C13.8925 98.6148 13.8414 98.6724 13.8455 98.7393C13.8495 98.8062 13.9073 98.8569 13.9745 98.8526L13.9597 98.6105ZM13.1401 97.7261C13.0737 97.7378 13.0293 97.8007 13.0407 97.8667C13.0522 97.9327 13.1153 97.9768 13.1816 97.9651L13.1401 97.7261ZM21.2637 96.4231L21.2452 96.3032L21.2429 96.3036L21.2637 96.4231ZM93.1019 96.5304L93.0351 96.632C93.0606 96.6486 93.0914 96.655 93.1216 96.6501L93.1019 96.5304ZM91.2022 95.2956L91.269 95.1939C91.263 95.19 91.2565 95.1865 91.2498 95.1837L91.2022 95.2956ZM91.0548 95.1241L91.167 95.1711C91.1721 95.1591 91.1752 95.1463 91.1763 95.1332L91.0548 95.1241ZM92.5192 94.5331L92.5094 94.6541C92.5182 94.6547 92.5271 94.6545 92.5359 94.6532L92.5192 94.5331ZM94.4801 94.5886L94.5278 94.4768C94.5216 94.4742 94.5152 94.4721 94.5087 94.4706L94.4801 94.5886ZM94.7607 94.7062L94.8276 94.6046C94.8215 94.6006 94.815 94.5972 94.8083 94.5944L94.7607 94.7062ZM96.6604 95.9412L96.68 96.0609C96.7296 96.0526 96.7692 96.015 96.7796 95.966C96.7901 95.9171 96.7693 95.8668 96.7273 95.8395L96.6604 95.9412ZM119.03 90.2032L119.063 90.32C119.12 90.304 119.157 90.2499 119.152 90.1915C119.146 90.1331 119.099 90.0871 119.041 90.0823L119.03 90.2032ZM114.478 89.8281L114.489 89.7072L114.488 89.7072L114.478 89.8281ZM112.611 89.8119L112.604 89.6908C112.591 89.6916 112.578 89.6946 112.566 89.6995L112.611 89.8119ZM111.053 90.3636L111.175 90.3555C111.174 90.3505 111.174 90.3455 111.173 90.3405L111.053 90.3636ZM111.895 90.7167L111.847 90.8285C111.859 90.8333 111.871 90.8364 111.883 90.8375L111.895 90.7167ZM115.9 91.0816L115.888 91.2024C115.903 91.2038 115.918 91.2024 115.933 91.1984L115.9 91.0816ZM134.145 84.9391C134.213 84.9371 134.266 84.8812 134.264 84.8142C134.262 84.7472 134.206 84.6946 134.139 84.6966L134.145 84.9391ZM127.554 85.0131L127.551 84.8918C127.536 84.8922 127.522 84.8952 127.509 84.9007L127.554 85.0131ZM126.565 84.4886L126.517 84.6005C126.54 84.6103 126.566 84.6125 126.591 84.607L126.565 84.4886ZM129.231 84.1824L129.228 84.0611L129.223 84.0614L129.231 84.1824ZM135.915 84.1477C135.982 84.1461 136.036 84.0906 136.034 84.0236C136.033 83.9566 135.977 83.9035 135.91 83.9051L135.915 84.1477ZM23.0081 96.1509L22.9896 96.0311L23.0081 96.1509ZM20.9758 97.3698L20.9524 97.2508L20.9758 97.3698ZM67.5078 100.499L68.5406 98.8501L68.3339 98.7222L67.3011 100.371L67.5078 100.499ZM68.5495 98.8332C68.569 98.7871 68.6096 98.7359 68.6729 98.6812C68.7354 98.6274 68.8139 98.5755 68.9004 98.5268C69.0738 98.4293 69.2663 98.3514 69.4002 98.2974L69.3093 98.0725C69.1769 98.126 68.9701 98.2092 68.781 98.3157C68.6862 98.369 68.5927 98.4299 68.5137 98.4981C68.4354 98.5655 68.3649 98.6457 68.3251 98.7391L68.5495 98.8332ZM69.3875 98.3017C70.0108 98.1268 70.494 98.0076 71.1612 97.9649L71.1464 97.7228C70.4535 97.7671 69.9508 97.8918 69.322 98.0682L69.3875 98.3017ZM71.144 97.9648C71.3071 97.9774 71.4483 97.9801 71.5537 97.9843C71.6075 97.9865 71.6508 97.989 71.6854 97.993C71.7215 97.9971 71.7394 98.002 71.7466 98.0051L71.8419 97.7814C71.8023 97.7648 71.7569 97.7568 71.7141 97.7519C71.6699 97.7468 71.6189 97.7441 71.5643 97.7419C71.453 97.7374 71.3207 97.735 71.1636 97.7229L71.144 97.9648ZM71.7466 98.0051C71.8487 98.0478 71.9112 98.077 71.944 98.1151C71.9563 98.1294 71.9631 98.1441 71.9647 98.1642C71.9664 98.1868 71.9622 98.224 71.9375 98.282L72.1619 98.3761C72.1965 98.2947 72.2134 98.2175 72.2077 98.1445C72.2017 98.069 72.1723 98.0068 72.1293 97.9569C72.0515 97.8664 71.9269 97.8171 71.8419 97.7814L71.7466 98.0051ZM71.9463 98.2651L70.9135 99.9136L71.1202 100.042L72.153 98.393L71.9463 98.2651ZM71.0019 99.8572L67.3895 100.314L67.4194 100.555L71.0318 100.098L71.0019 99.8572ZM43.2964 102.134L47.1825 100.258L47.0767 100.04L43.1906 101.916L43.2964 102.134ZM47.175 100.261C47.2421 100.234 47.3077 100.208 47.3747 100.181C47.3828 100.178 47.373 100.182 47.381 100.178C47.3815 100.178 47.382 100.178 47.3825 100.178C47.3831 100.177 47.3836 100.177 47.3841 100.177C47.3854 100.176 47.3859 100.176 47.3872 100.176C47.39 100.175 47.3969 100.172 47.3997 100.171C47.4066 100.168 47.4177 100.163 47.4247 100.161C47.4252 100.16 47.4257 100.16 47.4262 100.16C47.4267 100.16 47.4273 100.16 47.4278 100.159C47.4283 100.159 47.4288 100.159 47.4293 100.159C47.4299 100.159 47.4304 100.158 47.4309 100.158C47.4335 100.157 47.4345 100.157 47.4371 100.156C47.4377 100.155 47.4382 100.155 47.4387 100.155C47.4392 100.155 47.4397 100.155 47.4403 100.154C47.4416 100.154 47.442 100.154 47.4434 100.153C47.4488 100.151 47.4442 100.153 47.4496 100.151C47.4501 100.15 47.4507 100.15 47.4512 100.15C47.4517 100.15 47.4522 100.15 47.4527 100.149C47.4533 100.149 47.4538 100.149 47.4543 100.149C47.4548 100.148 47.4553 100.148 47.4559 100.148C47.4612 100.146 47.4568 100.148 47.4621 100.146C47.4626 100.145 47.4631 100.145 47.4637 100.145C47.4642 100.145 47.4647 100.144 47.4652 100.144C47.4661 100.144 47.4674 100.143 47.4683 100.143C47.4694 100.143 47.4735 100.141 47.4746 100.141C47.4839 100.137 47.5151 100.124 47.5245 100.12C47.525 100.12 47.5255 100.12 47.5261 100.12C47.5266 100.12 47.5271 100.119 47.5276 100.119C47.5281 100.119 47.5287 100.119 47.5292 100.118C47.5297 100.118 47.5302 100.118 47.5307 100.118C47.5313 100.118 47.5318 100.117 47.5323 100.117C47.5328 100.117 47.5333 100.117 47.5339 100.117C47.5344 100.116 47.5349 100.116 47.5354 100.116C47.5359 100.116 47.5365 100.116 47.537 100.115C47.5375 100.115 47.538 100.115 47.5385 100.115C47.5391 100.114 47.5396 100.114 47.5401 100.114C47.5406 100.114 47.5411 100.114 47.5417 100.113C47.5422 100.113 47.5427 100.113 47.5432 100.113C47.5467 100.111 47.546 100.112 47.5495 100.11C47.5528 100.109 47.5587 100.107 47.5619 100.105C47.5623 100.105 47.5679 100.103 47.5682 100.103C47.5687 100.103 47.5692 100.102 47.5697 100.102C47.5703 100.102 47.5708 100.102 47.5713 100.101C47.5713 100.101 47.5744 100.1 47.5744 100.1C47.5836 100.097 47.5715 100.101 47.5807 100.098C47.5902 100.094 47.5774 100.099 47.5869 100.095C47.5897 100.094 47.5965 100.091 47.5994 100.09C47.6052 100.088 47.6185 100.082 47.6243 100.08C47.6337 100.076 47.6649 100.064 47.6743 100.06C47.6752 100.06 47.6796 100.058 47.6805 100.057C47.687 100.055 47.6802 100.058 47.6867 100.055C47.687 100.055 47.6928 100.052 47.693 100.052C47.6935 100.052 47.694 100.052 47.6945 100.052C47.6951 100.052 47.6956 100.051 47.6961 100.051C47.6966 100.051 47.6971 100.051 47.6977 100.05C47.6982 100.05 47.6987 100.05 47.6992 100.05C47.7059 100.047 47.6957 100.051 47.7023 100.049C47.7029 100.048 47.7034 100.048 47.7039 100.048C47.7044 100.048 47.7049 100.048 47.7055 100.047C47.7078 100.046 47.7063 100.047 47.7086 100.046C47.7094 100.046 47.7109 100.045 47.7117 100.045C47.7133 100.044 47.7164 100.043 47.7179 100.042C47.7185 100.042 47.719 100.042 47.7195 100.042C47.72 100.041 47.7205 100.041 47.7211 100.041C47.7216 100.041 47.7221 100.041 47.7226 100.04C47.7231 100.04 47.7237 100.04 47.7242 100.04C47.7472 100.03 47.7511 100.029 47.7741 100.02C47.7775 100.018 47.7769 100.018 47.7803 100.017C47.7818 100.017 47.7851 100.015 47.7866 100.015C47.7969 100.01 47.7887 100.014 47.7991 100.01C47.7996 100.009 47.8001 100.009 47.8006 100.009C47.8012 100.009 47.8017 100.008 47.8022 100.008C47.8041 100.008 47.8034 100.008 47.8053 100.007C47.8058 100.007 47.8064 100.007 47.8069 100.006C47.8074 100.006 47.8079 100.006 47.8084 100.006C47.809 100.006 47.8095 100.005 47.81 100.005C47.8105 100.005 47.811 100.005 47.8116 100.005C47.8232 99.9998 47.8124 100.004 47.824 99.9995C47.8283 99.9977 47.8322 99.9962 47.8365 99.9944C47.8408 99.9927 47.8447 99.9911 47.849 99.9894C47.8597 99.9851 47.8632 99.9837 47.874 99.9793C47.8758 99.9786 47.8784 99.9775 47.8802 99.9768C47.8837 99.9754 47.883 99.9757 47.8864 99.9743C47.8904 99.9727 47.8887 99.9734 47.8927 99.9718C47.8932 99.9716 47.8937 99.9714 47.8942 99.9711C47.8948 99.9709 47.8953 99.9707 47.8958 99.9705C47.8964 99.9703 47.8983 99.9695 47.8989 99.9693C47.9045 99.967 47.9058 99.9665 47.9114 99.9642C47.9134 99.9634 47.9219 99.96 47.9239 99.9592C47.9244 99.959 47.9249 99.9588 47.9254 99.9586C47.926 99.9583 47.9265 99.9581 47.927 99.9579C47.9275 99.9577 47.928 99.9575 47.9286 99.9573C47.9291 99.9571 47.9296 99.9569 47.9301 99.9567C47.9316 99.9561 47.9317 99.956 47.9332 99.9554C47.9338 99.9552 47.9343 99.955 47.9348 99.9548C47.9353 99.9546 47.9358 99.9544 47.9364 99.9541C47.9382 99.9534 47.947 99.9498 47.9488 99.9491C47.9605 99.9444 47.9622 99.9437 47.9738 99.939L47.8829 99.7142C47.8158 99.7412 47.7502 99.7677 47.6832 99.7948C47.6752 99.798 47.6849 99.7941 47.6769 99.7973C47.6764 99.7975 47.6759 99.7977 47.6754 99.7979C47.6748 99.7981 47.6743 99.7984 47.6738 99.7986C47.6725 99.7991 47.672 99.7993 47.6707 99.7998C47.6679 99.801 47.661 99.8037 47.6582 99.8049C47.6513 99.8077 47.6402 99.8121 47.6332 99.8149C47.6327 99.8151 47.6322 99.8153 47.6317 99.8156C47.6312 99.8158 47.6306 99.816 47.6301 99.8162C47.6296 99.8164 47.6291 99.8166 47.6286 99.8168C47.628 99.817 47.6275 99.8172 47.627 99.8174C47.6244 99.8185 47.6234 99.8189 47.6208 99.82C47.6202 99.8202 47.6197 99.8204 47.6192 99.8206C47.6187 99.8208 47.6182 99.821 47.6176 99.8212C47.6163 99.8218 47.6159 99.8219 47.6145 99.8225C47.6091 99.8247 47.6137 99.8228 47.6083 99.825C47.6078 99.8252 47.6072 99.8254 47.6067 99.8256C47.6062 99.8258 47.6057 99.8261 47.6052 99.8263C47.6046 99.8265 47.6041 99.8267 47.6036 99.8269C47.6031 99.8271 47.6026 99.8273 47.602 99.8275C47.5967 99.8297 47.6011 99.8279 47.5958 99.83C47.5953 99.8302 47.5948 99.8305 47.5942 99.8307C47.5937 99.8309 47.5932 99.8311 47.5927 99.8313C47.5918 99.8317 47.5905 99.8322 47.5896 99.8326C47.5885 99.833 47.5844 99.8346 47.5833 99.8351C47.574 99.8389 47.5428 99.8514 47.5334 99.8552C47.5329 99.8554 47.5324 99.8556 47.5318 99.8559C47.5313 99.8561 47.5308 99.8563 47.5303 99.8565C47.5298 99.8567 47.5292 99.8569 47.5287 99.8571C47.5282 99.8573 47.5277 99.8575 47.5272 99.8577C47.5266 99.858 47.5261 99.8582 47.5256 99.8584C47.5251 99.8586 47.5246 99.8588 47.524 99.859C47.5235 99.8592 47.523 99.8594 47.5225 99.8596C47.522 99.8598 47.5214 99.86 47.5209 99.8603C47.5204 99.8605 47.5199 99.8607 47.5194 99.8609C47.5188 99.8611 47.5183 99.8613 47.5178 99.8615C47.5173 99.8617 47.5168 99.8619 47.5162 99.8621C47.5157 99.8624 47.5152 99.8626 47.5147 99.8628C47.5112 99.8642 47.5119 99.8639 47.5084 99.8653C47.5052 99.8666 47.4993 99.869 47.496 99.8703C47.4956 99.8705 47.49 99.8727 47.4897 99.8729C47.4892 99.8731 47.4887 99.8733 47.4882 99.8735C47.4876 99.8737 47.4871 99.8739 47.4866 99.8741C47.4866 99.8741 47.4835 99.8754 47.4835 99.8754C47.4743 99.8791 47.4864 99.8742 47.4772 99.8779C47.4677 99.8817 47.4805 99.8766 47.471 99.8804C47.4682 99.8816 47.4614 99.8843 47.4585 99.8854C47.4527 99.8878 47.4394 99.8932 47.4336 99.8955C47.4242 99.8993 47.393 99.9119 47.3836 99.9157C47.3827 99.916 47.3783 99.9178 47.3774 99.9182C47.3709 99.9208 47.3777 99.9181 47.3712 99.9207C47.3709 99.9208 47.3651 99.9231 47.3649 99.9232C47.3644 99.9234 47.3639 99.9236 47.3634 99.9238C47.3628 99.9241 47.3623 99.9243 47.3618 99.9245C47.3613 99.9247 47.3608 99.9249 47.3602 99.9251C47.3597 99.9253 47.3592 99.9255 47.3587 99.9257C47.352 99.9284 47.3623 99.9243 47.3556 99.927C47.355 99.9272 47.3545 99.9274 47.354 99.9276C47.3535 99.9278 47.353 99.928 47.3524 99.9283C47.3501 99.9292 47.3516 99.9286 47.3493 99.9295C47.3485 99.9298 47.347 99.9304 47.3462 99.9308C47.3446 99.9314 47.3415 99.9327 47.34 99.9333C47.3394 99.9335 47.3389 99.9337 47.3384 99.9339C47.3379 99.9341 47.3374 99.9343 47.3368 99.9346C47.3363 99.9348 47.3358 99.935 47.3353 99.9352C47.3348 99.9354 47.3342 99.9356 47.3337 99.9358C47.3107 99.9451 47.3068 99.9467 47.2838 99.956C47.2804 99.9573 47.281 99.9571 47.2776 99.9585C47.2761 99.9591 47.2728 99.9604 47.2713 99.961C47.261 99.9652 47.2692 99.9619 47.2588 99.966C47.2583 99.9662 47.2578 99.9664 47.2573 99.9667C47.2568 99.9669 47.2562 99.9671 47.2557 99.9673C47.2538 99.9681 47.2545 99.9678 47.2526 99.9685C47.2521 99.9688 47.2516 99.969 47.251 99.9692C47.2505 99.9694 47.25 99.9696 47.2495 99.9698C47.249 99.97 47.2484 99.9702 47.2479 99.9704C47.2474 99.9706 47.2469 99.9709 47.2464 99.9711C47.2347 99.9758 47.2455 99.9714 47.2339 99.9761C47.2296 99.9778 47.2257 99.9794 47.2214 99.9811C47.2171 99.9829 47.2132 99.9844 47.2089 99.9862C47.1982 99.9905 47.1947 99.9919 47.184 99.9963C47.1821 99.997 47.1795 99.998 47.1777 99.9988C47.1742 100 47.1749 99.9999 47.1715 100.001C47.1675 100.003 47.1692 100.002 47.1652 100.004C47.1647 100.004 47.1642 100.004 47.1637 100.004C47.1632 100.005 47.1626 100.005 47.1621 100.005C47.1615 100.005 47.1596 100.006 47.159 100.006C47.1534 100.009 47.1521 100.009 47.1465 100.011C47.1445 100.012 47.136 100.016 47.134 100.016C47.1335 100.017 47.133 100.017 47.1325 100.017C47.1319 100.017 47.1314 100.017 47.1309 100.018C47.1304 100.018 47.1299 100.018 47.1293 100.018C47.1288 100.018 47.1283 100.019 47.1278 100.019C47.1263 100.02 47.1262 100.02 47.1247 100.02C47.1241 100.02 47.1236 100.021 47.1231 100.021C47.1226 100.021 47.1221 100.021 47.1215 100.021C47.1197 100.022 47.1109 100.026 47.1091 100.026C47.0974 100.031 47.0958 100.032 47.0841 100.037L47.175 100.261ZM47.9738 99.939C48.2465 99.829 48.4923 99.7312 48.6949 99.7183L48.6801 99.4761C48.4294 99.4922 48.1427 99.6093 47.8829 99.7142L47.9738 99.939ZM48.733 99.7096C48.7323 99.7099 48.7342 99.7091 48.7405 99.7072C48.7463 99.7054 48.754 99.7032 48.7639 99.7006C48.7835 99.6953 48.8096 99.6889 48.8415 99.6816C48.9053 99.667 48.9902 99.6492 49.089 99.6307C49.2868 99.5936 49.5381 99.5539 49.7852 99.5298C50.0344 99.5054 50.2713 99.4978 50.4441 99.5213C50.5314 99.5332 50.5916 99.5517 50.6275 99.5724C50.6599 99.591 50.6597 99.6028 50.66 99.607L50.9032 99.5908C50.8963 99.4824 50.8295 99.408 50.7502 99.3623C50.6743 99.3186 50.5778 99.2945 50.4779 99.2809C50.2762 99.2534 50.0163 99.2635 49.7622 99.2883C49.5061 99.3133 49.2475 99.3542 49.0447 99.3922C48.9432 99.4113 48.855 99.4297 48.7875 99.4451C48.7245 99.4596 48.6695 99.4737 48.642 99.4848L48.733 99.7096ZM50.66 99.607C50.6604 99.6138 50.6569 99.6378 50.6159 99.6827C50.5772 99.7253 50.5202 99.7698 50.454 99.8152C50.3844 99.8629 50.3255 99.8983 50.2623 99.9403C50.2338 99.9592 50.2054 99.979 50.1819 99.9985C50.163 100.014 50.1292 100.044 50.1117 100.085L50.3361 100.179C50.3285 100.197 50.3201 100.199 50.3377 100.185C50.3509 100.174 50.3704 100.16 50.3972 100.142C50.4445 100.11 50.5253 100.061 50.5919 100.015C50.6621 99.9667 50.738 99.9094 50.7963 99.8454C50.8523 99.7838 50.91 99.6965 50.9032 99.5908L50.66 99.607ZM50.171 100.023L46.285 101.899L46.3907 102.117L50.2768 100.241L50.171 100.023ZM46.3376 101.887L43.2432 101.904L43.2437 102.147L46.3381 102.129L46.3376 101.887ZM24.4682 101.265L30.5418 99.4293L30.4717 99.1971L24.3981 101.032L24.4682 101.265ZM30.533 99.4316C31.4003 99.2382 32.272 98.9602 33.166 98.903L33.1512 98.6609C32.2318 98.7197 31.3187 99.0079 30.4805 99.1948L30.533 99.4316ZM33.2041 98.8944C33.2038 98.8945 33.2049 98.894 33.208 98.8931C33.2109 98.8922 33.215 98.8911 33.2202 98.8899C33.2307 98.8874 33.2445 98.8846 33.2614 98.8818C33.2952 98.8761 33.3384 98.8707 33.3882 98.8662C33.4878 98.8571 33.6092 98.8521 33.7264 98.8554C33.8453 98.8588 33.9523 98.8706 34.0268 98.8918C34.0646 98.9026 34.0856 98.9134 34.0952 98.9206C34.103 98.9265 34.0923 98.921 34.0912 98.9035L34.3344 98.8873C34.3297 98.8136 34.2875 98.7606 34.2425 98.7268C34.1992 98.6942 34.146 98.6731 34.0946 98.6585C33.991 98.629 33.8603 98.6164 33.7341 98.6128C33.6062 98.6092 33.475 98.6147 33.3668 98.6245C33.3126 98.6294 33.2631 98.6356 33.2217 98.6425C33.1833 98.6489 33.1431 98.6574 33.1131 98.6695L33.2041 98.8944ZM34.0912 98.9035C34.0894 98.8752 34.1063 98.873 34.0762 98.9026C34.0518 98.9265 34.0109 98.9567 33.9531 98.9913C33.8385 99.0601 33.6781 99.1344 33.5057 99.2039C33.3342 99.2731 33.1552 99.3359 33.0056 99.3821C32.8505 99.43 32.7411 99.4557 32.7013 99.4582L32.7161 99.7004C32.7896 99.6957 32.9267 99.6603 33.0771 99.6139C33.2331 99.5657 33.4186 99.5006 33.5966 99.4288C33.7737 99.3573 33.9477 99.2774 34.0784 99.1991C34.1431 99.1603 34.2026 99.1186 34.247 99.0752C34.2857 99.0372 34.3398 98.9719 34.3344 98.8873L34.0912 98.9035ZM32.6736 99.4632L26.6001 101.299L26.6702 101.531L32.7437 99.6954L32.6736 99.4632ZM26.6502 101.294L24.4483 101.028L24.4181 101.269L26.62 101.535L26.6502 101.294ZM20.9524 97.2508L14.6882 98.4864L14.7348 98.7245L20.9991 97.4888L20.9524 97.2508ZM14.666 98.493C14.6138 98.5141 14.4971 98.5403 14.3551 98.5635C14.217 98.586 14.0682 98.6035 13.9597 98.6105L13.9745 98.8526C14.0927 98.8451 14.2495 98.8264 14.3937 98.8029C14.5339 98.7801 14.6761 98.7505 14.757 98.7179L14.666 98.493ZM21.2429 96.3036L13.1401 97.7261L13.1816 97.9651L21.2844 96.5426L21.2429 96.3036ZM93.1688 96.4287L91.269 95.1939L91.1353 95.3972L93.0351 96.632L93.1688 96.4287ZM91.2498 95.1837C91.2257 95.1736 91.2061 95.1654 91.1891 95.1569C91.1718 95.1482 91.163 95.1421 91.1592 95.1387C91.1559 95.1358 91.1623 95.1403 91.1657 95.1529C91.1694 95.1669 91.1653 95.175 91.167 95.1711L90.9426 95.077C90.9244 95.1197 90.9171 95.1675 90.9302 95.2162C90.9429 95.2636 90.9711 95.2978 90.9979 95.3212C91.0461 95.3634 91.1141 95.3904 91.1546 95.4074L91.2498 95.1837ZM91.1763 95.1332C91.1766 95.1284 91.1801 95.1127 91.2037 95.0858C91.2269 95.0591 91.2636 95.0287 91.3146 94.9962C91.4166 94.9313 91.5588 94.8687 91.7158 94.8147C91.8718 94.761 92.037 94.7177 92.1819 94.6893C92.3301 94.6604 92.4466 94.6492 92.5094 94.6541L92.529 94.4121C92.4317 94.4046 92.2882 94.4214 92.1357 94.4512C91.98 94.4817 91.8038 94.5279 91.6369 94.5854C91.471 94.6424 91.3087 94.7124 91.1838 94.7919C91.1214 94.8317 91.0639 94.8765 91.0199 94.9269C90.9762 94.977 90.9392 95.0402 90.9333 95.1149L91.1763 95.1332ZM92.5359 94.6532C93.1121 94.5719 93.8696 94.5687 94.4515 94.7066L94.5087 94.4706C93.8889 94.3236 93.0992 94.3288 92.5025 94.413L92.5359 94.6532ZM94.4325 94.7004C94.4327 94.7005 94.4329 94.7006 94.4331 94.7007C94.4332 94.7007 94.4334 94.7008 94.4336 94.7009C94.4338 94.701 94.434 94.701 94.4341 94.7011C94.4343 94.7012 94.4345 94.7013 94.4347 94.7013C94.4349 94.7014 94.4351 94.7015 94.4352 94.7016C94.4354 94.7017 94.4356 94.7017 94.4358 94.7018C94.436 94.7019 94.4362 94.702 94.4363 94.702C94.4365 94.7021 94.4367 94.7022 94.4369 94.7023C94.4371 94.7023 94.4373 94.7024 94.4374 94.7025C94.4376 94.7026 94.4378 94.7026 94.438 94.7027C94.4382 94.7028 94.4383 94.7029 94.4385 94.703C94.4387 94.703 94.4389 94.7031 94.4391 94.7032C94.4393 94.7033 94.4394 94.7033 94.4396 94.7034C94.4398 94.7035 94.44 94.7036 94.4402 94.7036C94.4404 94.7037 94.4405 94.7038 94.4407 94.7039C94.4409 94.7039 94.4411 94.704 94.4413 94.7041C94.4415 94.7042 94.4416 94.7043 94.4418 94.7043C94.442 94.7044 94.4422 94.7045 94.4424 94.7046C94.4426 94.7046 94.4427 94.7047 94.4429 94.7048C94.4431 94.7049 94.4433 94.7049 94.4435 94.705C94.4436 94.7051 94.4438 94.7052 94.444 94.7053C94.4442 94.7053 94.4444 94.7054 94.4446 94.7055C94.4447 94.7056 94.4449 94.7056 94.4451 94.7057C94.4453 94.7058 94.4455 94.7059 94.4457 94.7059C94.4458 94.706 94.446 94.7061 94.4462 94.7062C94.4464 94.7062 94.4466 94.7063 94.4468 94.7064C94.4469 94.7065 94.4471 94.7066 94.4473 94.7066C94.4475 94.7067 94.4477 94.7068 94.4478 94.7069C94.448 94.7069 94.4482 94.707 94.4484 94.7071C94.4486 94.7072 94.4488 94.7072 94.4489 94.7073C94.4491 94.7074 94.4493 94.7075 94.4495 94.7076C94.4497 94.7076 94.4499 94.7077 94.45 94.7078C94.4502 94.7079 94.4504 94.7079 94.4506 94.708C94.4508 94.7081 94.451 94.7082 94.4511 94.7082C94.4513 94.7083 94.4515 94.7084 94.4517 94.7085C94.4519 94.7085 94.4521 94.7086 94.4522 94.7087C94.4524 94.7088 94.4526 94.7089 94.4528 94.7089C94.453 94.709 94.4531 94.7091 94.4533 94.7092C94.4535 94.7092 94.4537 94.7093 94.4539 94.7094C94.4541 94.7095 94.4542 94.7095 94.4544 94.7096C94.4546 94.7097 94.4548 94.7098 94.455 94.7098C94.4552 94.7099 94.4553 94.71 94.4555 94.7101C94.4557 94.7102 94.4559 94.7102 94.4561 94.7103C94.4563 94.7104 94.4564 94.7105 94.4566 94.7105C94.4568 94.7106 94.457 94.7107 94.4572 94.7108C94.4573 94.7108 94.4575 94.7109 94.4577 94.711C94.4579 94.7111 94.4581 94.7112 94.4583 94.7112C94.4584 94.7113 94.4586 94.7114 94.4588 94.7115C94.459 94.7115 94.4592 94.7116 94.4594 94.7117C94.4595 94.7118 94.4597 94.7118 94.4599 94.7119C94.4601 94.712 94.4603 94.7121 94.4605 94.7121C94.4606 94.7122 94.4608 94.7123 94.461 94.7124C94.4612 94.7125 94.4614 94.7125 94.4616 94.7126C94.4617 94.7127 94.4619 94.7128 94.4621 94.7128C94.4623 94.7129 94.4625 94.713 94.4626 94.7131C94.4628 94.7131 94.463 94.7132 94.4632 94.7133C94.4634 94.7134 94.4636 94.7134 94.4637 94.7135C94.4639 94.7136 94.4641 94.7137 94.4643 94.7138C94.4645 94.7138 94.4647 94.7139 94.4648 94.714C94.465 94.7141 94.4652 94.7141 94.4654 94.7142C94.4656 94.7143 94.4658 94.7144 94.4659 94.7144C94.4661 94.7145 94.4663 94.7146 94.4665 94.7147C94.4667 94.7148 94.4668 94.7148 94.467 94.7149C94.4672 94.715 94.4674 94.7151 94.4676 94.7151C94.4678 94.7152 94.4679 94.7153 94.4681 94.7154C94.4683 94.7154 94.4685 94.7155 94.4687 94.7156C94.4689 94.7157 94.469 94.7157 94.4692 94.7158C94.4694 94.7159 94.4696 94.716 94.4698 94.7161C94.47 94.7161 94.4701 94.7162 94.4703 94.7163C94.4705 94.7164 94.4707 94.7164 94.4709 94.7165C94.471 94.7166 94.4712 94.7167 94.4714 94.7167C94.4716 94.7168 94.4718 94.7169 94.472 94.717C94.4721 94.717 94.4723 94.7171 94.4725 94.7172C94.4727 94.7173 94.4729 94.7174 94.4731 94.7174C94.4732 94.7175 94.4734 94.7176 94.4736 94.7177C94.4738 94.7177 94.474 94.7178 94.4742 94.7179C94.4743 94.718 94.4745 94.718 94.4747 94.7181C94.4749 94.7182 94.4751 94.7183 94.4753 94.7184C94.4754 94.7184 94.4756 94.7185 94.4758 94.7186C94.476 94.7187 94.4762 94.7187 94.4763 94.7188C94.4765 94.7189 94.4767 94.719 94.4769 94.719C94.4771 94.7191 94.4773 94.7192 94.4774 94.7193C94.4776 94.7193 94.4778 94.7194 94.478 94.7195C94.4782 94.7196 94.4784 94.7197 94.4785 94.7197C94.4787 94.7198 94.4789 94.7199 94.4791 94.72C94.4793 94.72 94.4795 94.7201 94.4796 94.7202C94.4798 94.7203 94.48 94.7203 94.4802 94.7204C94.4804 94.7205 94.4805 94.7206 94.4807 94.7207C94.4809 94.7207 94.4811 94.7208 94.4813 94.7209C94.4815 94.721 94.4816 94.721 94.4818 94.7211C94.482 94.7212 94.4822 94.7213 94.4824 94.7213C94.4826 94.7214 94.4827 94.7215 94.4829 94.7216C94.4831 94.7216 94.4833 94.7217 94.4835 94.7218C94.4837 94.7219 94.4838 94.722 94.484 94.722C94.4842 94.7221 94.4844 94.7222 94.4846 94.7223C94.4848 94.7223 94.4849 94.7224 94.4851 94.7225C94.4853 94.7226 94.4855 94.7226 94.4857 94.7227C94.4858 94.7228 94.486 94.7229 94.4862 94.7229C94.4864 94.723 94.4866 94.7231 94.4868 94.7232C94.4869 94.7233 94.4871 94.7233 94.4873 94.7234C94.4875 94.7235 94.4877 94.7236 94.4879 94.7236C94.488 94.7237 94.4882 94.7238 94.4884 94.7239C94.4886 94.7239 94.4888 94.724 94.489 94.7241C94.4891 94.7242 94.4893 94.7243 94.4895 94.7243C94.4897 94.7244 94.4899 94.7245 94.49 94.7246C94.4902 94.7246 94.4904 94.7247 94.4906 94.7248C94.4908 94.7249 94.491 94.7249 94.4911 94.725C94.4913 94.7251 94.4915 94.7252 94.4917 94.7252C94.4919 94.7253 94.4921 94.7254 94.4922 94.7255C94.4924 94.7256 94.4926 94.7256 94.4928 94.7257C94.493 94.7258 94.4932 94.7259 94.4933 94.7259C94.4935 94.726 94.4937 94.7261 94.4939 94.7262C94.4941 94.7262 94.4942 94.7263 94.4944 94.7264C94.4946 94.7265 94.4948 94.7265 94.495 94.7266C94.4952 94.7267 94.4953 94.7268 94.4955 94.7269C94.4957 94.7269 94.4959 94.727 94.4961 94.7271C94.4963 94.7272 94.4964 94.7272 94.4966 94.7273C94.4968 94.7274 94.497 94.7275 94.4972 94.7275C94.4974 94.7276 94.4975 94.7277 94.4977 94.7278C94.4979 94.7279 94.4981 94.7279 94.4983 94.728C94.4984 94.7281 94.4986 94.7282 94.4988 94.7282C94.499 94.7283 94.4992 94.7284 94.4994 94.7285C94.4995 94.7285 94.4997 94.7286 94.4999 94.7287C94.5001 94.7288 94.5003 94.7288 94.5005 94.7289C94.5006 94.729 94.5008 94.7291 94.501 94.7292C94.5012 94.7292 94.5014 94.7293 94.5016 94.7294C94.5017 94.7295 94.5019 94.7295 94.5021 94.7296C94.5023 94.7297 94.5025 94.7298 94.5027 94.7298C94.5028 94.7299 94.503 94.73 94.5032 94.7301C94.5034 94.7301 94.5036 94.7302 94.5037 94.7303C94.5039 94.7304 94.5041 94.7305 94.5043 94.7305C94.5045 94.7306 94.5047 94.7307 94.5048 94.7308C94.505 94.7308 94.5052 94.7309 94.5054 94.731C94.5056 94.7311 94.5058 94.7311 94.5059 94.7312C94.5061 94.7313 94.5063 94.7314 94.5065 94.7315C94.5067 94.7315 94.5069 94.7316 94.507 94.7317C94.5072 94.7318 94.5074 94.7318 94.5076 94.7319C94.5078 94.732 94.5079 94.7321 94.5081 94.7321C94.5083 94.7322 94.5085 94.7323 94.5087 94.7324C94.5089 94.7324 94.509 94.7325 94.5092 94.7326C94.5094 94.7327 94.5096 94.7328 94.5098 94.7328C94.51 94.7329 94.5101 94.733 94.5103 94.7331C94.5105 94.7331 94.5107 94.7332 94.5109 94.7333C94.5111 94.7334 94.5112 94.7334 94.5114 94.7335C94.5116 94.7336 94.5118 94.7337 94.512 94.7337C94.5121 94.7338 94.5123 94.7339 94.5125 94.734C94.5127 94.7341 94.5129 94.7341 94.5131 94.7342C94.5132 94.7343 94.5134 94.7344 94.5136 94.7344C94.5138 94.7345 94.514 94.7346 94.5142 94.7347C94.5143 94.7347 94.5145 94.7348 94.5147 94.7349C94.5149 94.735 94.5151 94.7351 94.5153 94.7351C94.5154 94.7352 94.5156 94.7353 94.5158 94.7354C94.516 94.7354 94.5162 94.7355 94.5163 94.7356C94.5165 94.7357 94.5167 94.7357 94.5169 94.7358C94.5171 94.7359 94.5173 94.736 94.5174 94.736C94.5176 94.7361 94.5178 94.7362 94.518 94.7363C94.5182 94.7364 94.5184 94.7364 94.5185 94.7365C94.5187 94.7366 94.5189 94.7367 94.5191 94.7367C94.5193 94.7368 94.5195 94.7369 94.5196 94.737C94.5198 94.737 94.52 94.7371 94.5202 94.7372C94.5204 94.7373 94.5206 94.7373 94.5207 94.7374C94.5209 94.7375 94.5211 94.7376 94.5213 94.7377C94.5215 94.7377 94.5216 94.7378 94.5218 94.7379C94.522 94.738 94.5222 94.738 94.5224 94.7381C94.5226 94.7382 94.5227 94.7383 94.5229 94.7383C94.5231 94.7384 94.5233 94.7385 94.5235 94.7386C94.5237 94.7387 94.5238 94.7387 94.524 94.7388C94.5242 94.7389 94.5244 94.739 94.5246 94.739C94.5248 94.7391 94.5249 94.7392 94.5251 94.7393C94.5253 94.7393 94.5255 94.7394 94.5257 94.7395C94.5258 94.7396 94.526 94.7396 94.5262 94.7397C94.5264 94.7398 94.5266 94.7399 94.5268 94.74C94.5269 94.74 94.5271 94.7401 94.5273 94.7402C94.5275 94.7403 94.5277 94.7403 94.5279 94.7404C94.528 94.7405 94.5282 94.7406 94.5284 94.7406C94.5286 94.7407 94.5288 94.7408 94.529 94.7409C94.5291 94.7409 94.5293 94.741 94.5295 94.7411C94.5297 94.7412 94.5299 94.7413 94.53 94.7413C94.5302 94.7414 94.5304 94.7415 94.5306 94.7416C94.5308 94.7416 94.531 94.7417 94.5311 94.7418C94.5313 94.7419 94.5315 94.7419 94.5317 94.742C94.5319 94.7421 94.5321 94.7422 94.5322 94.7423C94.5324 94.7423 94.5326 94.7424 94.5328 94.7425C94.533 94.7426 94.5332 94.7426 94.5333 94.7427C94.5335 94.7428 94.5337 94.7429 94.5339 94.7429C94.5341 94.743 94.5342 94.7431 94.5344 94.7432C94.5346 94.7432 94.5348 94.7433 94.535 94.7434C94.5352 94.7435 94.5353 94.7436 94.5355 94.7436C94.5357 94.7437 94.5359 94.7438 94.5361 94.7439C94.5363 94.7439 94.5364 94.744 94.5366 94.7441C94.5368 94.7442 94.537 94.7442 94.5372 94.7443C94.5374 94.7444 94.5375 94.7445 94.5377 94.7445C94.5379 94.7446 94.5381 94.7447 94.5383 94.7448C94.5384 94.7449 94.5386 94.7449 94.5388 94.745C94.539 94.7451 94.5392 94.7452 94.5394 94.7452C94.5395 94.7453 94.5397 94.7454 94.5399 94.7455C94.5401 94.7455 94.5403 94.7456 94.5405 94.7457C94.5406 94.7458 94.5408 94.7459 94.541 94.7459C94.5412 94.746 94.5414 94.7461 94.5416 94.7462C94.5417 94.7462 94.5419 94.7463 94.5421 94.7464C94.5423 94.7465 94.5425 94.7465 94.5427 94.7466C94.5428 94.7467 94.543 94.7468 94.5432 94.7468C94.5434 94.7469 94.5436 94.747 94.5437 94.7471C94.5439 94.7472 94.5441 94.7472 94.5443 94.7473C94.5445 94.7474 94.5447 94.7475 94.5448 94.7475C94.545 94.7476 94.5452 94.7477 94.5454 94.7478C94.5456 94.7478 94.5458 94.7479 94.5459 94.748C94.5461 94.7481 94.5463 94.7481 94.5465 94.7482C94.5467 94.7483 94.5469 94.7484 94.547 94.7485C94.5472 94.7485 94.5474 94.7486 94.5476 94.7487C94.5478 94.7488 94.5479 94.7488 94.5481 94.7489C94.5483 94.749 94.5485 94.7491 94.5487 94.7491C94.5489 94.7492 94.549 94.7493 94.5492 94.7494C94.5494 94.7495 94.5496 94.7495 94.5498 94.7496C94.55 94.7497 94.5501 94.7498 94.5503 94.7498C94.5505 94.7499 94.5507 94.75 94.5509 94.7501C94.5511 94.7501 94.5512 94.7502 94.5514 94.7503C94.5516 94.7504 94.5518 94.7504 94.552 94.7505C94.5521 94.7506 94.5523 94.7507 94.5525 94.7508C94.5527 94.7508 94.5529 94.7509 94.5531 94.751C94.5532 94.7511 94.5534 94.7511 94.5536 94.7512C94.5538 94.7513 94.554 94.7514 94.5542 94.7514C94.5543 94.7515 94.5545 94.7516 94.5547 94.7517C94.5549 94.7517 94.5551 94.7518 94.5553 94.7519C94.5554 94.752 94.5556 94.7521 94.5558 94.7521C94.556 94.7522 94.5562 94.7523 94.5563 94.7524C94.5565 94.7524 94.5567 94.7525 94.5569 94.7526C94.5571 94.7527 94.5573 94.7527 94.5574 94.7528C94.5576 94.7529 94.5578 94.753 94.558 94.7531C94.5582 94.7531 94.5584 94.7532 94.5585 94.7533C94.5587 94.7534 94.5589 94.7534 94.5591 94.7535C94.5593 94.7536 94.5595 94.7537 94.5596 94.7537C94.5598 94.7538 94.56 94.7539 94.5602 94.754C94.5604 94.754 94.5605 94.7541 94.5607 94.7542C94.5609 94.7543 94.5611 94.7544 94.5613 94.7544C94.5615 94.7545 94.5616 94.7546 94.5618 94.7547C94.562 94.7547 94.5622 94.7548 94.5624 94.7549C94.5626 94.755 94.5627 94.755 94.5629 94.7551C94.5631 94.7552 94.5633 94.7553 94.5635 94.7553C94.5637 94.7554 94.5638 94.7555 94.564 94.7556C94.5642 94.7557 94.5644 94.7557 94.5646 94.7558C94.5648 94.7559 94.5649 94.756 94.5651 94.756C94.5653 94.7561 94.5655 94.7562 94.5657 94.7563C94.5658 94.7563 94.566 94.7564 94.5662 94.7565C94.5664 94.7566 94.5666 94.7567 94.5668 94.7567C94.5669 94.7568 94.5671 94.7569 94.5673 94.757C94.5675 94.757 94.5677 94.7571 94.5679 94.7572C94.568 94.7573 94.5682 94.7573 94.5684 94.7574C94.5686 94.7575 94.5688 94.7576 94.569 94.7576C94.5691 94.7577 94.5693 94.7578 94.5695 94.7579C94.5697 94.758 94.5699 94.758 94.57 94.7581C94.5702 94.7582 94.5704 94.7583 94.5706 94.7583C94.5708 94.7584 94.571 94.7585 94.5711 94.7586C94.5713 94.7586 94.5715 94.7587 94.5717 94.7588C94.5719 94.7589 94.5721 94.7589 94.5722 94.759C94.5724 94.7591 94.5726 94.7592 94.5728 94.7593C94.573 94.7593 94.5732 94.7594 94.5733 94.7595C94.5735 94.7596 94.5737 94.7596 94.5739 94.7597C94.5741 94.7598 94.5742 94.7599 94.5744 94.7599C94.5746 94.76 94.5748 94.7601 94.575 94.7602C94.5752 94.7602 94.5753 94.7603 94.5755 94.7604C94.5757 94.7605 94.5759 94.7606 94.5761 94.7606C94.5763 94.7607 94.5764 94.7608 94.5766 94.7609C94.5768 94.7609 94.577 94.761 94.5772 94.7611C94.5774 94.7612 94.5775 94.7612 94.5777 94.7613C94.5779 94.7614 94.5781 94.7615 94.5783 94.7616C94.5784 94.7616 94.5786 94.7617 94.5788 94.7618C94.579 94.7619 94.5792 94.7619 94.5794 94.762C94.5795 94.7621 94.5797 94.7622 94.5799 94.7622C94.5801 94.7623 94.5803 94.7624 94.5805 94.7625C94.5806 94.7625 94.5808 94.7626 94.581 94.7627C94.5812 94.7628 94.5814 94.7629 94.5816 94.7629C94.5817 94.763 94.5819 94.7631 94.5821 94.7632C94.5823 94.7632 94.5825 94.7633 94.5826 94.7634C94.5828 94.7635 94.583 94.7635 94.5832 94.7636C94.5834 94.7637 94.5836 94.7638 94.5837 94.7638C94.5839 94.7639 94.5841 94.764 94.5843 94.7641C94.5845 94.7642 94.5847 94.7642 94.5848 94.7643C94.585 94.7644 94.5852 94.7645 94.5854 94.7645C94.5856 94.7646 94.5858 94.7647 94.5859 94.7648C94.5861 94.7648 94.5863 94.7649 94.5865 94.765C94.5867 94.7651 94.5868 94.7652 94.587 94.7652C94.5872 94.7653 94.5874 94.7654 94.5876 94.7655C94.5878 94.7655 94.5879 94.7656 94.5881 94.7657C94.5883 94.7658 94.5885 94.7658 94.5887 94.7659C94.5889 94.766 94.589 94.7661 94.5892 94.7661C94.5894 94.7662 94.5896 94.7663 94.5898 94.7664C94.59 94.7665 94.5901 94.7665 94.5903 94.7666C94.5905 94.7667 94.5907 94.7668 94.5909 94.7668C94.5911 94.7669 94.5912 94.767 94.5914 94.7671C94.5916 94.7671 94.5918 94.7672 94.592 94.7673C94.5921 94.7674 94.5923 94.7674 94.5925 94.7675C94.5927 94.7676 94.5929 94.7677 94.5931 94.7678C94.5932 94.7678 94.5934 94.7679 94.5936 94.768C94.5938 94.7681 94.594 94.7681 94.5942 94.7682C94.5943 94.7683 94.5945 94.7684 94.5947 94.7684C94.5949 94.7685 94.5951 94.7686 94.5953 94.7687C94.5954 94.7688 94.5956 94.7688 94.5958 94.7689C94.596 94.769 94.5962 94.7691 94.5963 94.7691C94.5965 94.7692 94.5967 94.7693 94.5969 94.7694C94.5971 94.7694 94.5973 94.7695 94.5974 94.7696C94.5976 94.7697 94.5978 94.7697 94.598 94.7698C94.5982 94.7699 94.5984 94.77 94.5985 94.7701C94.5987 94.7701 94.5989 94.7702 94.5991 94.7703C94.5993 94.7704 94.5995 94.7704 94.5996 94.7705C94.5998 94.7706 94.6 94.7707 94.6002 94.7707C94.6004 94.7708 94.6005 94.7709 94.6007 94.771C94.6009 94.771 94.6011 94.7711 94.6013 94.7712C94.6015 94.7713 94.6016 94.7714 94.6018 94.7714C94.602 94.7715 94.6022 94.7716 94.6024 94.7717C94.6026 94.7717 94.6027 94.7718 94.6029 94.7719C94.6031 94.772 94.6033 94.772 94.6035 94.7721C94.6037 94.7722 94.6038 94.7723 94.604 94.7724C94.6042 94.7724 94.6044 94.7725 94.6046 94.7726C94.6047 94.7727 94.6049 94.7727 94.6051 94.7728C94.6053 94.7729 94.6055 94.773 94.6057 94.773C94.6058 94.7731 94.606 94.7732 94.6062 94.7733C94.6064 94.7733 94.6066 94.7734 94.6068 94.7735C94.6069 94.7736 94.6071 94.7737 94.6073 94.7737C94.6075 94.7738 94.6077 94.7739 94.6079 94.774C94.608 94.774 94.6082 94.7741 94.6084 94.7742C94.6086 94.7743 94.6088 94.7743 94.6089 94.7744C94.6091 94.7745 94.6093 94.7746 94.6095 94.7746C94.6097 94.7747 94.6099 94.7748 94.61 94.7749C94.6102 94.775 94.6104 94.775 94.6106 94.7751C94.6108 94.7752 94.611 94.7753 94.6111 94.7753C94.6113 94.7754 94.6115 94.7755 94.6117 94.7756C94.6119 94.7756 94.6121 94.7757 94.6122 94.7758C94.6124 94.7759 94.6126 94.776 94.6128 94.776C94.613 94.7761 94.6131 94.7762 94.6133 94.7763C94.6135 94.7763 94.6137 94.7764 94.6139 94.7765C94.6141 94.7766 94.6142 94.7766 94.6144 94.7767C94.6146 94.7768 94.6148 94.7769 94.615 94.7769C94.6152 94.777 94.6153 94.7771 94.6155 94.7772C94.6157 94.7773 94.6159 94.7773 94.6161 94.7774C94.6163 94.7775 94.6164 94.7776 94.6166 94.7776C94.6168 94.7777 94.617 94.7778 94.6172 94.7779C94.6174 94.7779 94.6175 94.778 94.6177 94.7781C94.6179 94.7782 94.6181 94.7782 94.6183 94.7783C94.6184 94.7784 94.6186 94.7785 94.6188 94.7786C94.619 94.7786 94.6192 94.7787 94.6194 94.7788C94.6195 94.7789 94.6197 94.7789 94.6199 94.779C94.6201 94.7791 94.6203 94.7792 94.6205 94.7792C94.6206 94.7793 94.6208 94.7794 94.621 94.7795C94.6212 94.7796 94.6214 94.7796 94.6216 94.7797C94.6217 94.7798 94.6219 94.7799 94.6221 94.7799C94.6223 94.78 94.6225 94.7801 94.6226 94.7802C94.6228 94.7802 94.623 94.7803 94.6232 94.7804C94.6234 94.7805 94.6236 94.7805 94.6237 94.7806C94.6239 94.7807 94.6241 94.7808 94.6243 94.7809C94.6245 94.7809 94.6247 94.781 94.6248 94.7811C94.625 94.7812 94.6252 94.7812 94.6254 94.7813C94.6256 94.7814 94.6258 94.7815 94.6259 94.7815C94.6261 94.7816 94.6263 94.7817 94.6265 94.7818C94.6267 94.7818 94.6268 94.7819 94.627 94.782C94.6272 94.7821 94.6274 94.7822 94.6276 94.7822C94.6278 94.7823 94.6279 94.7824 94.6281 94.7825C94.6283 94.7825 94.6285 94.7826 94.6287 94.7827C94.6289 94.7828 94.629 94.7828 94.6292 94.7829C94.6294 94.783 94.6296 94.7831 94.6298 94.7832C94.63 94.7832 94.6301 94.7833 94.6303 94.7834C94.6305 94.7835 94.6307 94.7835 94.6309 94.7836C94.631 94.7837 94.6312 94.7838 94.6314 94.7838C94.6316 94.7839 94.6318 94.784 94.632 94.7841C94.6321 94.7841 94.6323 94.7842 94.6325 94.7843C94.6327 94.7844 94.6329 94.7845 94.6331 94.7845C94.6332 94.7846 94.6334 94.7847 94.6336 94.7848C94.6338 94.7848 94.634 94.7849 94.6342 94.785C94.6343 94.7851 94.6345 94.7851 94.6347 94.7852C94.6349 94.7853 94.6351 94.7854 94.6353 94.7854C94.6354 94.7855 94.6356 94.7856 94.6358 94.7857C94.636 94.7858 94.6362 94.7858 94.6363 94.7859C94.6365 94.786 94.6367 94.7861 94.6369 94.7861C94.6371 94.7862 94.6373 94.7863 94.6374 94.7864C94.6376 94.7864 94.6378 94.7865 94.638 94.7866C94.6382 94.7867 94.6384 94.7868 94.6385 94.7868C94.6387 94.7869 94.6389 94.787 94.6391 94.7871C94.6393 94.7871 94.6395 94.7872 94.6396 94.7873C94.6398 94.7874 94.64 94.7874 94.6402 94.7875C94.6404 94.7876 94.6405 94.7877 94.6407 94.7877C94.6409 94.7878 94.6411 94.7879 94.6413 94.788C94.6415 94.7881 94.6416 94.7881 94.6418 94.7882C94.642 94.7883 94.6422 94.7884 94.6424 94.7884C94.6426 94.7885 94.6427 94.7886 94.6429 94.7887C94.6431 94.7887 94.6433 94.7888 94.6435 94.7889C94.6437 94.789 94.6438 94.789 94.644 94.7891C94.6442 94.7892 94.6444 94.7893 94.6446 94.7894C94.6447 94.7894 94.6449 94.7895 94.6451 94.7896C94.6453 94.7897 94.6455 94.7897 94.6457 94.7898C94.6458 94.7899 94.646 94.79 94.6462 94.79C94.6464 94.7901 94.6466 94.7902 94.6468 94.7903C94.6469 94.7904 94.6471 94.7904 94.6473 94.7905C94.6475 94.7906 94.6477 94.7907 94.6479 94.7907C94.648 94.7908 94.6482 94.7909 94.6484 94.791C94.6486 94.791 94.6488 94.7911 94.6489 94.7912C94.6491 94.7913 94.6493 94.7913 94.6495 94.7914C94.6497 94.7915 94.6499 94.7916 94.65 94.7917C94.6502 94.7917 94.6504 94.7918 94.6506 94.7919C94.6508 94.792 94.651 94.792 94.6511 94.7921C94.6513 94.7922 94.6515 94.7923 94.6517 94.7923C94.6519 94.7924 94.6521 94.7925 94.6522 94.7926C94.6524 94.7926 94.6526 94.7927 94.6528 94.7928C94.653 94.7929 94.6532 94.793 94.6533 94.793C94.6535 94.7931 94.6537 94.7932 94.6539 94.7933C94.6541 94.7933 94.6542 94.7934 94.6544 94.7935C94.6546 94.7936 94.6548 94.7936 94.655 94.7937C94.6552 94.7938 94.6553 94.7939 94.6555 94.794C94.6557 94.794 94.6559 94.7941 94.6561 94.7942C94.6563 94.7943 94.6564 94.7943 94.6566 94.7944C94.6568 94.7945 94.657 94.7946 94.6572 94.7946C94.6574 94.7947 94.6575 94.7948 94.6577 94.7949C94.6579 94.7949 94.6581 94.795 94.6583 94.7951C94.6584 94.7952 94.6586 94.7953 94.6588 94.7953C94.659 94.7954 94.6592 94.7955 94.6594 94.7956C94.6595 94.7956 94.6597 94.7957 94.6599 94.7958C94.6601 94.7959 94.6603 94.7959 94.6605 94.796C94.6606 94.7961 94.6608 94.7962 94.661 94.7962C94.6612 94.7963 94.6614 94.7964 94.6616 94.7965C94.6617 94.7966 94.6619 94.7966 94.6621 94.7967C94.6623 94.7968 94.6625 94.7969 94.6626 94.7969C94.6628 94.797 94.663 94.7971 94.6632 94.7972C94.6634 94.7972 94.6636 94.7973 94.6637 94.7974C94.6639 94.7975 94.6641 94.7976 94.6643 94.7976C94.6645 94.7977 94.6647 94.7978 94.6648 94.7979C94.665 94.7979 94.6652 94.798 94.6654 94.7981C94.6656 94.7982 94.6658 94.7982 94.6659 94.7983C94.6661 94.7984 94.6663 94.7985 94.6665 94.7985C94.6667 94.7986 94.6669 94.7987 94.667 94.7988C94.6672 94.7989 94.6674 94.7989 94.6676 94.799C94.6678 94.7991 94.6679 94.7992 94.6681 94.7992C94.6683 94.7993 94.6685 94.7994 94.6687 94.7995C94.6689 94.7995 94.669 94.7996 94.6692 94.7997C94.6694 94.7998 94.6696 94.7998 94.6698 94.7999C94.67 94.8 94.6701 94.8001 94.6703 94.8002C94.6705 94.8002 94.6707 94.8003 94.6709 94.8004C94.6711 94.8005 94.6712 94.8005 94.6714 94.8006C94.6716 94.8007 94.6718 94.8008 94.672 94.8008C94.6721 94.8009 94.6723 94.801 94.6725 94.8011C94.6727 94.8012 94.6729 94.8012 94.6731 94.8013C94.6732 94.8014 94.6734 94.8015 94.6736 94.8015C94.6738 94.8016 94.674 94.8017 94.6742 94.8018C94.6743 94.8018 94.6745 94.8019 94.6747 94.802C94.6749 94.8021 94.6751 94.8021 94.6753 94.8022C94.6754 94.8023 94.6756 94.8024 94.6758 94.8025C94.676 94.8025 94.6762 94.8026 94.6763 94.8027C94.6765 94.8028 94.6767 94.8028 94.6769 94.8029C94.6771 94.803 94.6773 94.8031 94.6774 94.8031C94.6776 94.8032 94.6778 94.8033 94.678 94.8034C94.6782 94.8035 94.6784 94.8035 94.6785 94.8036C94.6787 94.8037 94.6789 94.8038 94.6791 94.8038C94.6793 94.8039 94.6795 94.804 94.6796 94.8041C94.6798 94.8041 94.68 94.8042 94.6802 94.8043C94.6804 94.8044 94.6806 94.8044 94.6807 94.8045C94.6809 94.8046 94.6811 94.8047 94.6813 94.8048C94.6815 94.8048 94.6816 94.8049 94.6818 94.805C94.682 94.8051 94.6822 94.8051 94.6824 94.8052C94.6826 94.8053 94.6827 94.8054 94.6829 94.8054C94.6831 94.8055 94.6833 94.8056 94.6835 94.8057C94.6837 94.8057 94.6838 94.8058 94.684 94.8059C94.6842 94.806 94.6844 94.8061 94.6846 94.8061C94.6848 94.8062 94.6849 94.8063 94.6851 94.8064C94.6853 94.8064 94.6855 94.8065 94.6857 94.8066C94.6858 94.8067 94.686 94.8067 94.6862 94.8068C94.6864 94.8069 94.6866 94.807 94.6868 94.8071C94.6869 94.8071 94.6871 94.8072 94.6873 94.8073C94.6875 94.8074 94.6877 94.8074 94.6879 94.8075C94.688 94.8076 94.6882 94.8077 94.6884 94.8077C94.6886 94.8078 94.6888 94.8079 94.689 94.808C94.6891 94.808 94.6893 94.8081 94.6895 94.8082C94.6897 94.8083 94.6899 94.8084 94.6901 94.8084C94.6902 94.8085 94.6904 94.8086 94.6906 94.8087C94.6908 94.8087 94.691 94.8088 94.6911 94.8089C94.6913 94.809 94.6915 94.809 94.6917 94.8091C94.6919 94.8092 94.6921 94.8093 94.6922 94.8093C94.6924 94.8094 94.6926 94.8095 94.6928 94.8096C94.693 94.8097 94.6932 94.8097 94.6933 94.8098C94.6935 94.8099 94.6937 94.81 94.6939 94.81C94.6941 94.8101 94.6943 94.8102 94.6944 94.8103C94.6946 94.8103 94.6948 94.8104 94.695 94.8105C94.6952 94.8106 94.6953 94.8107 94.6955 94.8107C94.6957 94.8108 94.6959 94.8109 94.6961 94.811C94.6963 94.811 94.6964 94.8111 94.6966 94.8112C94.6968 94.8113 94.697 94.8113 94.6972 94.8114C94.6974 94.8115 94.6975 94.8116 94.6977 94.8116C94.6979 94.8117 94.6981 94.8118 94.6983 94.8119C94.6985 94.812 94.6986 94.812 94.6988 94.8121C94.699 94.8122 94.6992 94.8123 94.6994 94.8123C94.6996 94.8124 94.6997 94.8125 94.6999 94.8126C94.7001 94.8126 94.7003 94.8127 94.7005 94.8128C94.7006 94.8129 94.7008 94.813 94.701 94.813C94.7012 94.8131 94.7014 94.8132 94.7016 94.8133C94.7017 94.8133 94.7019 94.8134 94.7021 94.8135C94.7023 94.8136 94.7025 94.8136 94.7027 94.8137C94.7028 94.8138 94.703 94.8139 94.7032 94.8139C94.7034 94.814 94.7036 94.8141 94.7038 94.8142C94.7039 94.8143 94.7041 94.8143 94.7043 94.8144C94.7045 94.8145 94.7047 94.8146 94.7048 94.8146C94.705 94.8147 94.7052 94.8148 94.7054 94.8149C94.7056 94.8149 94.7058 94.815 94.7059 94.8151C94.7061 94.8152 94.7063 94.8152 94.7065 94.8153C94.7067 94.8154 94.7069 94.8155 94.707 94.8156C94.7072 94.8156 94.7074 94.8157 94.7076 94.8158C94.7078 94.8159 94.708 94.8159 94.7081 94.816C94.7083 94.8161 94.7085 94.8162 94.7087 94.8162C94.7089 94.8163 94.7091 94.8164 94.7092 94.8165C94.7094 94.8166 94.7096 94.8166 94.7098 94.8167C94.71 94.8168 94.7101 94.8169 94.7103 94.8169C94.7105 94.817 94.7107 94.8171 94.7109 94.8172C94.7111 94.8172 94.7112 94.8173 94.7114 94.8174C94.7116 94.8175 94.7118 94.8175 94.712 94.8176C94.7122 94.8177 94.7123 94.8178 94.7125 94.8179C94.7127 94.8179 94.7129 94.818 94.7131 94.8181L94.8083 94.5944C94.8081 94.5943 94.808 94.5943 94.8078 94.5942C94.8076 94.5941 94.8074 94.594 94.8072 94.594C94.807 94.5939 94.8069 94.5938 94.8067 94.5937C94.8065 94.5936 94.8063 94.5936 94.8061 94.5935C94.8059 94.5934 94.8058 94.5933 94.8056 94.5933C94.8054 94.5932 94.8052 94.5931 94.805 94.593C94.8049 94.593 94.8047 94.5929 94.8045 94.5928C94.8043 94.5927 94.8041 94.5926 94.8039 94.5926C94.8038 94.5925 94.8036 94.5924 94.8034 94.5923C94.8032 94.5923 94.803 94.5922 94.8028 94.5921C94.8027 94.592 94.8025 94.592 94.8023 94.5919C94.8021 94.5918 94.8019 94.5917 94.8017 94.5917C94.8016 94.5916 94.8014 94.5915 94.8012 94.5914C94.801 94.5913 94.8008 94.5913 94.8006 94.5912C94.8005 94.5911 94.8003 94.591 94.8001 94.591C94.7999 94.5909 94.7997 94.5908 94.7996 94.5907C94.7994 94.5907 94.7992 94.5906 94.799 94.5905C94.7988 94.5904 94.7986 94.5904 94.7985 94.5903C94.7983 94.5902 94.7981 94.5901 94.7979 94.59C94.7977 94.59 94.7975 94.5899 94.7974 94.5898C94.7972 94.5897 94.797 94.5897 94.7968 94.5896C94.7966 94.5895 94.7964 94.5894 94.7963 94.5894C94.7961 94.5893 94.7959 94.5892 94.7957 94.5891C94.7955 94.589 94.7954 94.589 94.7952 94.5889C94.795 94.5888 94.7948 94.5887 94.7946 94.5887C94.7944 94.5886 94.7943 94.5885 94.7941 94.5884C94.7939 94.5884 94.7937 94.5883 94.7935 94.5882C94.7933 94.5881 94.7932 94.5881 94.793 94.588C94.7928 94.5879 94.7926 94.5878 94.7924 94.5877C94.7922 94.5877 94.7921 94.5876 94.7919 94.5875C94.7917 94.5874 94.7915 94.5874 94.7913 94.5873C94.7911 94.5872 94.791 94.5871 94.7908 94.5871C94.7906 94.587 94.7904 94.5869 94.7902 94.5868C94.7901 94.5868 94.7899 94.5867 94.7897 94.5866C94.7895 94.5865 94.7893 94.5864 94.7891 94.5864C94.789 94.5863 94.7888 94.5862 94.7886 94.5861C94.7884 94.5861 94.7882 94.586 94.788 94.5859C94.7879 94.5858 94.7877 94.5858 94.7875 94.5857C94.7873 94.5856 94.7871 94.5855 94.7869 94.5854C94.7868 94.5854 94.7866 94.5853 94.7864 94.5852C94.7862 94.5851 94.786 94.5851 94.7859 94.585C94.7857 94.5849 94.7855 94.5848 94.7853 94.5848C94.7851 94.5847 94.7849 94.5846 94.7848 94.5845C94.7846 94.5845 94.7844 94.5844 94.7842 94.5843C94.784 94.5842 94.7838 94.5841 94.7837 94.5841C94.7835 94.584 94.7833 94.5839 94.7831 94.5838C94.7829 94.5838 94.7827 94.5837 94.7826 94.5836C94.7824 94.5835 94.7822 94.5835 94.782 94.5834C94.7818 94.5833 94.7816 94.5832 94.7815 94.5831C94.7813 94.5831 94.7811 94.583 94.7809 94.5829C94.7807 94.5828 94.7806 94.5828 94.7804 94.5827C94.7802 94.5826 94.78 94.5825 94.7798 94.5825C94.7796 94.5824 94.7795 94.5823 94.7793 94.5822C94.7791 94.5822 94.7789 94.5821 94.7787 94.582C94.7785 94.5819 94.7784 94.5818 94.7782 94.5818C94.778 94.5817 94.7778 94.5816 94.7776 94.5815C94.7774 94.5815 94.7773 94.5814 94.7771 94.5813C94.7769 94.5812 94.7767 94.5812 94.7765 94.5811C94.7764 94.581 94.7762 94.5809 94.776 94.5809C94.7758 94.5808 94.7756 94.5807 94.7754 94.5806C94.7753 94.5805 94.7751 94.5805 94.7749 94.5804C94.7747 94.5803 94.7745 94.5802 94.7743 94.5802C94.7742 94.5801 94.774 94.58 94.7738 94.5799C94.7736 94.5799 94.7734 94.5798 94.7732 94.5797C94.7731 94.5796 94.7729 94.5795 94.7727 94.5795C94.7725 94.5794 94.7723 94.5793 94.7722 94.5792C94.772 94.5792 94.7718 94.5791 94.7716 94.579C94.7714 94.5789 94.7712 94.5789 94.7711 94.5788C94.7709 94.5787 94.7707 94.5786 94.7705 94.5786C94.7703 94.5785 94.7701 94.5784 94.77 94.5783C94.7698 94.5782 94.7696 94.5782 94.7694 94.5781C94.7692 94.578 94.769 94.5779 94.7689 94.5779C94.7687 94.5778 94.7685 94.5777 94.7683 94.5776C94.7681 94.5776 94.7679 94.5775 94.7678 94.5774C94.7676 94.5773 94.7674 94.5773 94.7672 94.5772C94.767 94.5771 94.7669 94.577 94.7667 94.5769C94.7665 94.5769 94.7663 94.5768 94.7661 94.5767C94.7659 94.5766 94.7658 94.5766 94.7656 94.5765C94.7654 94.5764 94.7652 94.5763 94.765 94.5763C94.7648 94.5762 94.7647 94.5761 94.7645 94.576C94.7643 94.5759 94.7641 94.5759 94.7639 94.5758C94.7637 94.5757 94.7636 94.5756 94.7634 94.5756C94.7632 94.5755 94.763 94.5754 94.7628 94.5753C94.7627 94.5753 94.7625 94.5752 94.7623 94.5751C94.7621 94.575 94.7619 94.575 94.7617 94.5749C94.7616 94.5748 94.7614 94.5747 94.7612 94.5746C94.761 94.5746 94.7608 94.5745 94.7606 94.5744C94.7605 94.5743 94.7603 94.5743 94.7601 94.5742C94.7599 94.5741 94.7597 94.574 94.7595 94.574C94.7594 94.5739 94.7592 94.5738 94.759 94.5737C94.7588 94.5737 94.7586 94.5736 94.7584 94.5735C94.7583 94.5734 94.7581 94.5733 94.7579 94.5733C94.7577 94.5732 94.7575 94.5731 94.7574 94.573C94.7572 94.573 94.757 94.5729 94.7568 94.5728C94.7566 94.5727 94.7564 94.5727 94.7563 94.5726C94.7561 94.5725 94.7559 94.5724 94.7557 94.5723C94.7555 94.5723 94.7553 94.5722 94.7552 94.5721C94.755 94.572 94.7548 94.572 94.7546 94.5719C94.7544 94.5718 94.7542 94.5717 94.7541 94.5717C94.7539 94.5716 94.7537 94.5715 94.7535 94.5714C94.7533 94.5714 94.7532 94.5713 94.753 94.5712C94.7528 94.5711 94.7526 94.571 94.7524 94.571C94.7522 94.5709 94.7521 94.5708 94.7519 94.5707C94.7517 94.5707 94.7515 94.5706 94.7513 94.5705C94.7511 94.5704 94.751 94.5704 94.7508 94.5703C94.7506 94.5702 94.7504 94.5701 94.7502 94.57C94.75 94.57 94.7499 94.5699 94.7497 94.5698C94.7495 94.5697 94.7493 94.5697 94.7491 94.5696C94.749 94.5695 94.7488 94.5694 94.7486 94.5694C94.7484 94.5693 94.7482 94.5692 94.748 94.5691C94.7479 94.5691 94.7477 94.569 94.7475 94.5689C94.7473 94.5688 94.7471 94.5687 94.7469 94.5687C94.7468 94.5686 94.7466 94.5685 94.7464 94.5684C94.7462 94.5684 94.746 94.5683 94.7458 94.5682C94.7457 94.5681 94.7455 94.5681 94.7453 94.568C94.7451 94.5679 94.7449 94.5678 94.7448 94.5678C94.7446 94.5677 94.7444 94.5676 94.7442 94.5675C94.744 94.5674 94.7438 94.5674 94.7437 94.5673C94.7435 94.5672 94.7433 94.5671 94.7431 94.5671C94.7429 94.567 94.7427 94.5669 94.7426 94.5668C94.7424 94.5668 94.7422 94.5667 94.742 94.5666C94.7418 94.5665 94.7416 94.5664 94.7415 94.5664C94.7413 94.5663 94.7411 94.5662 94.7409 94.5661C94.7407 94.5661 94.7405 94.566 94.7404 94.5659C94.7402 94.5658 94.74 94.5658 94.7398 94.5657C94.7396 94.5656 94.7395 94.5655 94.7393 94.5655C94.7391 94.5654 94.7389 94.5653 94.7387 94.5652C94.7385 94.5651 94.7384 94.5651 94.7382 94.565C94.738 94.5649 94.7378 94.5648 94.7376 94.5648C94.7374 94.5647 94.7373 94.5646 94.7371 94.5645C94.7369 94.5645 94.7367 94.5644 94.7365 94.5643C94.7363 94.5642 94.7362 94.5642 94.736 94.5641C94.7358 94.564 94.7356 94.5639 94.7354 94.5638C94.7353 94.5638 94.7351 94.5637 94.7349 94.5636C94.7347 94.5635 94.7345 94.5635 94.7343 94.5634C94.7342 94.5633 94.734 94.5632 94.7338 94.5632C94.7336 94.5631 94.7334 94.563 94.7332 94.5629C94.7331 94.5628 94.7329 94.5628 94.7327 94.5627C94.7325 94.5626 94.7323 94.5625 94.7321 94.5625C94.732 94.5624 94.7318 94.5623 94.7316 94.5622C94.7314 94.5622 94.7312 94.5621 94.7311 94.562C94.7309 94.5619 94.7307 94.5619 94.7305 94.5618C94.7303 94.5617 94.7301 94.5616 94.73 94.5615C94.7298 94.5615 94.7296 94.5614 94.7294 94.5613C94.7292 94.5612 94.729 94.5612 94.7289 94.5611C94.7287 94.561 94.7285 94.5609 94.7283 94.5609C94.7281 94.5608 94.7279 94.5607 94.7278 94.5606C94.7276 94.5606 94.7274 94.5605 94.7272 94.5604C94.727 94.5603 94.7268 94.5602 94.7267 94.5602C94.7265 94.5601 94.7263 94.56 94.7261 94.5599C94.7259 94.5599 94.7258 94.5598 94.7256 94.5597C94.7254 94.5596 94.7252 94.5596 94.725 94.5595C94.7248 94.5594 94.7247 94.5593 94.7245 94.5592C94.7243 94.5592 94.7241 94.5591 94.7239 94.559C94.7237 94.5589 94.7236 94.5589 94.7234 94.5588C94.7232 94.5587 94.723 94.5586 94.7228 94.5586C94.7226 94.5585 94.7225 94.5584 94.7223 94.5583C94.7221 94.5583 94.7219 94.5582 94.7217 94.5581C94.7216 94.558 94.7214 94.5579 94.7212 94.5579C94.721 94.5578 94.7208 94.5577 94.7206 94.5576C94.7205 94.5576 94.7203 94.5575 94.7201 94.5574C94.7199 94.5573 94.7197 94.5573 94.7195 94.5572C94.7194 94.5571 94.7192 94.557 94.719 94.557C94.7188 94.5569 94.7186 94.5568 94.7184 94.5567C94.7183 94.5566 94.7181 94.5566 94.7179 94.5565C94.7177 94.5564 94.7175 94.5563 94.7174 94.5563C94.7172 94.5562 94.717 94.5561 94.7168 94.556C94.7166 94.556 94.7164 94.5559 94.7163 94.5558C94.7161 94.5557 94.7159 94.5556 94.7157 94.5556C94.7155 94.5555 94.7153 94.5554 94.7152 94.5553C94.715 94.5553 94.7148 94.5552 94.7146 94.5551C94.7144 94.555 94.7142 94.555 94.7141 94.5549C94.7139 94.5548 94.7137 94.5547 94.7135 94.5547C94.7133 94.5546 94.7132 94.5545 94.713 94.5544C94.7128 94.5543 94.7126 94.5543 94.7124 94.5542C94.7122 94.5541 94.7121 94.554 94.7119 94.554C94.7117 94.5539 94.7115 94.5538 94.7113 94.5537C94.7111 94.5537 94.711 94.5536 94.7108 94.5535C94.7106 94.5534 94.7104 94.5534 94.7102 94.5533C94.71 94.5532 94.7099 94.5531 94.7097 94.553C94.7095 94.553 94.7093 94.5529 94.7091 94.5528C94.709 94.5527 94.7088 94.5527 94.7086 94.5526C94.7084 94.5525 94.7082 94.5524 94.708 94.5524C94.7079 94.5523 94.7077 94.5522 94.7075 94.5521C94.7073 94.552 94.7071 94.552 94.7069 94.5519C94.7068 94.5518 94.7066 94.5517 94.7064 94.5517C94.7062 94.5516 94.706 94.5515 94.7058 94.5514C94.7057 94.5514 94.7055 94.5513 94.7053 94.5512C94.7051 94.5511 94.7049 94.5511 94.7047 94.551C94.7046 94.5509 94.7044 94.5508 94.7042 94.5507C94.704 94.5507 94.7038 94.5506 94.7037 94.5505C94.7035 94.5504 94.7033 94.5504 94.7031 94.5503C94.7029 94.5502 94.7027 94.5501 94.7026 94.5501C94.7024 94.55 94.7022 94.5499 94.702 94.5498C94.7018 94.5498 94.7016 94.5497 94.7015 94.5496C94.7013 94.5495 94.7011 94.5494 94.7009 94.5494C94.7007 94.5493 94.7005 94.5492 94.7004 94.5491C94.7002 94.5491 94.7 94.549 94.6998 94.5489C94.6996 94.5488 94.6995 94.5488 94.6993 94.5487C94.6991 94.5486 94.6989 94.5485 94.6987 94.5484C94.6985 94.5484 94.6984 94.5483 94.6982 94.5482C94.698 94.5481 94.6978 94.5481 94.6976 94.548C94.6974 94.5479 94.6973 94.5478 94.6971 94.5478C94.6969 94.5477 94.6967 94.5476 94.6965 94.5475C94.6963 94.5475 94.6962 94.5474 94.696 94.5473C94.6958 94.5472 94.6956 94.5471 94.6954 94.5471C94.6953 94.547 94.6951 94.5469 94.6949 94.5468C94.6947 94.5468 94.6945 94.5467 94.6943 94.5466C94.6942 94.5465 94.694 94.5465 94.6938 94.5464C94.6936 94.5463 94.6934 94.5462 94.6932 94.5462C94.6931 94.5461 94.6929 94.546 94.6927 94.5459C94.6925 94.5458 94.6923 94.5458 94.6921 94.5457C94.692 94.5456 94.6918 94.5455 94.6916 94.5455C94.6914 94.5454 94.6912 94.5453 94.6911 94.5452C94.6909 94.5452 94.6907 94.5451 94.6905 94.545C94.6903 94.5449 94.6901 94.5448 94.69 94.5448C94.6898 94.5447 94.6896 94.5446 94.6894 94.5445C94.6892 94.5445 94.689 94.5444 94.6889 94.5443C94.6887 94.5442 94.6885 94.5442 94.6883 94.5441C94.6881 94.544 94.6879 94.5439 94.6878 94.5439C94.6876 94.5438 94.6874 94.5437 94.6872 94.5436C94.687 94.5435 94.6869 94.5435 94.6867 94.5434C94.6865 94.5433 94.6863 94.5432 94.6861 94.5432C94.6859 94.5431 94.6858 94.543 94.6856 94.5429C94.6854 94.5429 94.6852 94.5428 94.685 94.5427C94.6848 94.5426 94.6847 94.5426 94.6845 94.5425C94.6843 94.5424 94.6841 94.5423 94.6839 94.5422C94.6837 94.5422 94.6836 94.5421 94.6834 94.542C94.6832 94.5419 94.683 94.5419 94.6828 94.5418C94.6827 94.5417 94.6825 94.5416 94.6823 94.5416C94.6821 94.5415 94.6819 94.5414 94.6817 94.5413C94.6816 94.5413 94.6814 94.5412 94.6812 94.5411C94.681 94.541 94.6808 94.5409 94.6806 94.5409C94.6805 94.5408 94.6803 94.5407 94.6801 94.5406C94.6799 94.5406 94.6797 94.5405 94.6795 94.5404C94.6794 94.5403 94.6792 94.5403 94.679 94.5402C94.6788 94.5401 94.6786 94.54 94.6784 94.5399C94.6783 94.5399 94.6781 94.5398 94.6779 94.5397C94.6777 94.5396 94.6775 94.5396 94.6774 94.5395C94.6772 94.5394 94.677 94.5393 94.6768 94.5393C94.6766 94.5392 94.6764 94.5391 94.6763 94.539C94.6761 94.539 94.6759 94.5389 94.6757 94.5388C94.6755 94.5387 94.6753 94.5386 94.6752 94.5386C94.675 94.5385 94.6748 94.5384 94.6746 94.5383C94.6744 94.5383 94.6742 94.5382 94.6741 94.5381C94.6739 94.538 94.6737 94.538 94.6735 94.5379C94.6733 94.5378 94.6732 94.5377 94.673 94.5377C94.6728 94.5376 94.6726 94.5375 94.6724 94.5374C94.6722 94.5373 94.6721 94.5373 94.6719 94.5372C94.6717 94.5371 94.6715 94.537 94.6713 94.537C94.6711 94.5369 94.671 94.5368 94.6708 94.5367C94.6706 94.5367 94.6704 94.5366 94.6702 94.5365C94.67 94.5364 94.6699 94.5363 94.6697 94.5363C94.6695 94.5362 94.6693 94.5361 94.6691 94.536C94.669 94.536 94.6688 94.5359 94.6686 94.5358C94.6684 94.5357 94.6682 94.5357 94.668 94.5356C94.6679 94.5355 94.6677 94.5354 94.6675 94.5354C94.6673 94.5353 94.6671 94.5352 94.6669 94.5351C94.6668 94.535 94.6666 94.535 94.6664 94.5349C94.6662 94.5348 94.666 94.5347 94.6658 94.5347C94.6657 94.5346 94.6655 94.5345 94.6653 94.5344C94.6651 94.5344 94.6649 94.5343 94.6648 94.5342C94.6646 94.5341 94.6644 94.5341 94.6642 94.534C94.664 94.5339 94.6638 94.5338 94.6637 94.5337C94.6635 94.5337 94.6633 94.5336 94.6631 94.5335C94.6629 94.5334 94.6627 94.5334 94.6626 94.5333C94.6624 94.5332 94.6622 94.5331 94.662 94.5331C94.6618 94.533 94.6616 94.5329 94.6615 94.5328C94.6613 94.5327 94.6611 94.5327 94.6609 94.5326C94.6607 94.5325 94.6606 94.5324 94.6604 94.5324C94.6602 94.5323 94.66 94.5322 94.6598 94.5321C94.6596 94.5321 94.6595 94.532 94.6593 94.5319C94.6591 94.5318 94.6589 94.5318 94.6587 94.5317C94.6585 94.5316 94.6584 94.5315 94.6582 94.5314C94.658 94.5314 94.6578 94.5313 94.6576 94.5312C94.6574 94.5311 94.6573 94.5311 94.6571 94.531C94.6569 94.5309 94.6567 94.5308 94.6565 94.5308C94.6564 94.5307 94.6562 94.5306 94.656 94.5305C94.6558 94.5305 94.6556 94.5304 94.6554 94.5303C94.6553 94.5302 94.6551 94.5301 94.6549 94.5301C94.6547 94.53 94.6545 94.5299 94.6543 94.5298C94.6542 94.5298 94.654 94.5297 94.6538 94.5296C94.6536 94.5295 94.6534 94.5295 94.6532 94.5294C94.6531 94.5293 94.6529 94.5292 94.6527 94.5291C94.6525 94.5291 94.6523 94.529 94.6521 94.5289C94.652 94.5288 94.6518 94.5288 94.6516 94.5287C94.6514 94.5286 94.6512 94.5285 94.6511 94.5285C94.6509 94.5284 94.6507 94.5283 94.6505 94.5282C94.6503 94.5282 94.6501 94.5281 94.65 94.528C94.6498 94.5279 94.6496 94.5278 94.6494 94.5278C94.6492 94.5277 94.649 94.5276 94.6489 94.5275C94.6487 94.5275 94.6485 94.5274 94.6483 94.5273C94.6481 94.5272 94.6479 94.5272 94.6478 94.5271C94.6476 94.527 94.6474 94.5269 94.6472 94.5269C94.647 94.5268 94.6469 94.5267 94.6467 94.5266C94.6465 94.5265 94.6463 94.5265 94.6461 94.5264C94.6459 94.5263 94.6458 94.5262 94.6456 94.5262C94.6454 94.5261 94.6452 94.526 94.645 94.5259C94.6448 94.5259 94.6447 94.5258 94.6445 94.5257C94.6443 94.5256 94.6441 94.5255 94.6439 94.5255C94.6437 94.5254 94.6436 94.5253 94.6434 94.5252C94.6432 94.5252 94.643 94.5251 94.6428 94.525C94.6427 94.5249 94.6425 94.5249 94.6423 94.5248C94.6421 94.5247 94.6419 94.5246 94.6417 94.5246C94.6416 94.5245 94.6414 94.5244 94.6412 94.5243C94.641 94.5242 94.6408 94.5242 94.6406 94.5241C94.6405 94.524 94.6403 94.5239 94.6401 94.5239C94.6399 94.5238 94.6397 94.5237 94.6395 94.5236C94.6394 94.5236 94.6392 94.5235 94.639 94.5234C94.6388 94.5233 94.6386 94.5233 94.6385 94.5232C94.6383 94.5231 94.6381 94.523 94.6379 94.5229C94.6377 94.5229 94.6375 94.5228 94.6374 94.5227C94.6372 94.5226 94.637 94.5226 94.6368 94.5225C94.6366 94.5224 94.6364 94.5223 94.6363 94.5223C94.6361 94.5222 94.6359 94.5221 94.6357 94.522C94.6355 94.5219 94.6353 94.5219 94.6352 94.5218C94.635 94.5217 94.6348 94.5216 94.6346 94.5216C94.6344 94.5215 94.6343 94.5214 94.6341 94.5213C94.6339 94.5213 94.6337 94.5212 94.6335 94.5211C94.6333 94.521 94.6332 94.521 94.633 94.5209C94.6328 94.5208 94.6326 94.5207 94.6324 94.5206C94.6322 94.5206 94.6321 94.5205 94.6319 94.5204C94.6317 94.5203 94.6315 94.5203 94.6313 94.5202C94.6311 94.5201 94.631 94.52 94.6308 94.52C94.6306 94.5199 94.6304 94.5198 94.6302 94.5197C94.63 94.5197 94.6299 94.5196 94.6297 94.5195C94.6295 94.5194 94.6293 94.5193 94.6291 94.5193C94.629 94.5192 94.6288 94.5191 94.6286 94.519C94.6284 94.519 94.6282 94.5189 94.628 94.5188C94.6279 94.5187 94.6277 94.5187 94.6275 94.5186C94.6273 94.5185 94.6271 94.5184 94.6269 94.5183C94.6268 94.5183 94.6266 94.5182 94.6264 94.5181C94.6262 94.518 94.626 94.518 94.6258 94.5179C94.6257 94.5178 94.6255 94.5177 94.6253 94.5177C94.6251 94.5176 94.6249 94.5175 94.6248 94.5174C94.6246 94.5174 94.6244 94.5173 94.6242 94.5172C94.624 94.5171 94.6238 94.517 94.6237 94.517C94.6235 94.5169 94.6233 94.5168 94.6231 94.5167C94.6229 94.5167 94.6227 94.5166 94.6226 94.5165C94.6224 94.5164 94.6222 94.5164 94.622 94.5163C94.6218 94.5162 94.6216 94.5161 94.6215 94.5161C94.6213 94.516 94.6211 94.5159 94.6209 94.5158C94.6207 94.5157 94.6206 94.5157 94.6204 94.5156C94.6202 94.5155 94.62 94.5154 94.6198 94.5154C94.6196 94.5153 94.6195 94.5152 94.6193 94.5151C94.6191 94.5151 94.6189 94.515 94.6187 94.5149C94.6185 94.5148 94.6184 94.5147 94.6182 94.5147C94.618 94.5146 94.6178 94.5145 94.6176 94.5144C94.6174 94.5144 94.6173 94.5143 94.6171 94.5142C94.6169 94.5141 94.6167 94.5141 94.6165 94.514C94.6164 94.5139 94.6162 94.5138 94.616 94.5138C94.6158 94.5137 94.6156 94.5136 94.6154 94.5135C94.6153 94.5134 94.6151 94.5134 94.6149 94.5133C94.6147 94.5132 94.6145 94.5131 94.6143 94.5131C94.6142 94.513 94.614 94.5129 94.6138 94.5128C94.6136 94.5128 94.6134 94.5127 94.6132 94.5126C94.6131 94.5125 94.6129 94.5125 94.6127 94.5124C94.6125 94.5123 94.6123 94.5122 94.6122 94.5121C94.612 94.5121 94.6118 94.512 94.6116 94.5119C94.6114 94.5118 94.6112 94.5118 94.6111 94.5117C94.6109 94.5116 94.6107 94.5115 94.6105 94.5115C94.6103 94.5114 94.6101 94.5113 94.61 94.5112C94.6098 94.5111 94.6096 94.5111 94.6094 94.511C94.6092 94.5109 94.609 94.5108 94.6089 94.5108C94.6087 94.5107 94.6085 94.5106 94.6083 94.5105C94.6081 94.5105 94.6079 94.5104 94.6078 94.5103C94.6076 94.5102 94.6074 94.5102 94.6072 94.5101C94.607 94.51 94.6069 94.5099 94.6067 94.5098C94.6065 94.5098 94.6063 94.5097 94.6061 94.5096C94.6059 94.5095 94.6058 94.5095 94.6056 94.5094C94.6054 94.5093 94.6052 94.5092 94.605 94.5092C94.6048 94.5091 94.6047 94.509 94.6045 94.5089C94.6043 94.5089 94.6041 94.5088 94.6039 94.5087C94.6037 94.5086 94.6036 94.5085 94.6034 94.5085C94.6032 94.5084 94.603 94.5083 94.6028 94.5082C94.6027 94.5082 94.6025 94.5081 94.6023 94.508C94.6021 94.5079 94.6019 94.5079 94.6017 94.5078C94.6016 94.5077 94.6014 94.5076 94.6012 94.5075C94.601 94.5075 94.6008 94.5074 94.6006 94.5073C94.6005 94.5072 94.6003 94.5072 94.6001 94.5071C94.5999 94.507 94.5997 94.5069 94.5995 94.5069C94.5994 94.5068 94.5992 94.5067 94.599 94.5066C94.5988 94.5066 94.5986 94.5065 94.5985 94.5064C94.5983 94.5063 94.5981 94.5062 94.5979 94.5062C94.5977 94.5061 94.5975 94.506 94.5974 94.5059C94.5972 94.5059 94.597 94.5058 94.5968 94.5057C94.5966 94.5056 94.5964 94.5056 94.5963 94.5055C94.5961 94.5054 94.5959 94.5053 94.5957 94.5053C94.5955 94.5052 94.5953 94.5051 94.5952 94.505C94.595 94.5049 94.5948 94.5049 94.5946 94.5048C94.5944 94.5047 94.5943 94.5046 94.5941 94.5046C94.5939 94.5045 94.5937 94.5044 94.5935 94.5043C94.5933 94.5043 94.5932 94.5042 94.593 94.5041C94.5928 94.504 94.5926 94.5039 94.5924 94.5039C94.5922 94.5038 94.5921 94.5037 94.5919 94.5036C94.5917 94.5036 94.5915 94.5035 94.5913 94.5034C94.5911 94.5033 94.591 94.5033 94.5908 94.5032C94.5906 94.5031 94.5904 94.503 94.5902 94.503C94.59 94.5029 94.5899 94.5028 94.5897 94.5027C94.5895 94.5026 94.5893 94.5026 94.5891 94.5025C94.589 94.5024 94.5888 94.5023 94.5886 94.5023C94.5884 94.5022 94.5882 94.5021 94.588 94.502C94.5879 94.502 94.5877 94.5019 94.5875 94.5018C94.5873 94.5017 94.5871 94.5017 94.5869 94.5016C94.5868 94.5015 94.5866 94.5014 94.5864 94.5013C94.5862 94.5013 94.586 94.5012 94.5858 94.5011C94.5857 94.501 94.5855 94.501 94.5853 94.5009C94.5851 94.5008 94.5849 94.5007 94.5848 94.5007C94.5846 94.5006 94.5844 94.5005 94.5842 94.5004C94.584 94.5003 94.5838 94.5003 94.5837 94.5002C94.5835 94.5001 94.5833 94.5 94.5831 94.5C94.5829 94.4999 94.5827 94.4998 94.5826 94.4997C94.5824 94.4997 94.5822 94.4996 94.582 94.4995C94.5818 94.4994 94.5816 94.4994 94.5815 94.4993C94.5813 94.4992 94.5811 94.4991 94.5809 94.499C94.5807 94.499 94.5806 94.4989 94.5804 94.4988C94.5802 94.4987 94.58 94.4987 94.5798 94.4986C94.5796 94.4985 94.5795 94.4984 94.5793 94.4984C94.5791 94.4983 94.5789 94.4982 94.5787 94.4981C94.5785 94.4981 94.5784 94.498 94.5782 94.4979C94.578 94.4978 94.5778 94.4977 94.5776 94.4977C94.5774 94.4976 94.5773 94.4975 94.5771 94.4974C94.5769 94.4974 94.5767 94.4973 94.5765 94.4972C94.5763 94.4971 94.5762 94.4971 94.576 94.497C94.5758 94.4969 94.5756 94.4968 94.5754 94.4967C94.5753 94.4967 94.5751 94.4966 94.5749 94.4965C94.5747 94.4964 94.5745 94.4964 94.5743 94.4963C94.5742 94.4962 94.574 94.4961 94.5738 94.4961C94.5736 94.496 94.5734 94.4959 94.5732 94.4958C94.5731 94.4958 94.5729 94.4957 94.5727 94.4956C94.5725 94.4955 94.5723 94.4954 94.5721 94.4954C94.572 94.4953 94.5718 94.4952 94.5716 94.4951C94.5714 94.4951 94.5712 94.495 94.5711 94.4949C94.5709 94.4948 94.5707 94.4948 94.5705 94.4947C94.5703 94.4946 94.5701 94.4945 94.57 94.4945C94.5698 94.4944 94.5696 94.4943 94.5694 94.4942C94.5692 94.4941 94.569 94.4941 94.5689 94.494C94.5687 94.4939 94.5685 94.4938 94.5683 94.4938C94.5681 94.4937 94.5679 94.4936 94.5678 94.4935C94.5676 94.4935 94.5674 94.4934 94.5672 94.4933C94.567 94.4932 94.5669 94.4931 94.5667 94.4931C94.5665 94.493 94.5663 94.4929 94.5661 94.4928C94.5659 94.4928 94.5658 94.4927 94.5656 94.4926C94.5654 94.4925 94.5652 94.4925 94.565 94.4924C94.5648 94.4923 94.5647 94.4922 94.5645 94.4922C94.5643 94.4921 94.5641 94.492 94.5639 94.4919C94.5637 94.4918 94.5636 94.4918 94.5634 94.4917C94.5632 94.4916 94.563 94.4915 94.5628 94.4915C94.5626 94.4914 94.5625 94.4913 94.5623 94.4912C94.5621 94.4912 94.5619 94.4911 94.5617 94.491C94.5616 94.4909 94.5614 94.4908 94.5612 94.4908C94.561 94.4907 94.5608 94.4906 94.5606 94.4905C94.5605 94.4905 94.5603 94.4904 94.5601 94.4903C94.5599 94.4902 94.5597 94.4902 94.5595 94.4901C94.5594 94.49 94.5592 94.4899 94.559 94.4899C94.5588 94.4898 94.5586 94.4897 94.5584 94.4896C94.5583 94.4895 94.5581 94.4895 94.5579 94.4894C94.5577 94.4893 94.5575 94.4892 94.5574 94.4892C94.5572 94.4891 94.557 94.489 94.5568 94.4889C94.5566 94.4889 94.5564 94.4888 94.5563 94.4887C94.5561 94.4886 94.5559 94.4886 94.5557 94.4885C94.5555 94.4884 94.5553 94.4883 94.5552 94.4882C94.555 94.4882 94.5548 94.4881 94.5546 94.488C94.5544 94.4879 94.5542 94.4879 94.5541 94.4878C94.5539 94.4877 94.5537 94.4876 94.5535 94.4876C94.5533 94.4875 94.5531 94.4874 94.553 94.4873C94.5528 94.4872 94.5526 94.4872 94.5524 94.4871C94.5522 94.487 94.5521 94.4869 94.5519 94.4869C94.5517 94.4868 94.5515 94.4867 94.5513 94.4866C94.5511 94.4866 94.551 94.4865 94.5508 94.4864C94.5506 94.4863 94.5504 94.4863 94.5502 94.4862C94.55 94.4861 94.5499 94.486 94.5497 94.4859C94.5495 94.4859 94.5493 94.4858 94.5491 94.4857C94.5489 94.4856 94.5488 94.4856 94.5486 94.4855C94.5484 94.4854 94.5482 94.4853 94.548 94.4853C94.5479 94.4852 94.5477 94.4851 94.5475 94.485C94.5473 94.485 94.5471 94.4849 94.5469 94.4848C94.5468 94.4847 94.5466 94.4846 94.5464 94.4846C94.5462 94.4845 94.546 94.4844 94.5458 94.4843C94.5457 94.4843 94.5455 94.4842 94.5453 94.4841C94.5451 94.484 94.5449 94.484 94.5447 94.4839C94.5446 94.4838 94.5444 94.4837 94.5442 94.4836C94.544 94.4836 94.5438 94.4835 94.5437 94.4834C94.5435 94.4833 94.5433 94.4833 94.5431 94.4832C94.5429 94.4831 94.5427 94.483 94.5426 94.483C94.5424 94.4829 94.5422 94.4828 94.542 94.4827C94.5418 94.4827 94.5416 94.4826 94.5415 94.4825C94.5413 94.4824 94.5411 94.4823 94.5409 94.4823C94.5407 94.4822 94.5405 94.4821 94.5404 94.482C94.5402 94.482 94.54 94.4819 94.5398 94.4818C94.5396 94.4817 94.5394 94.4817 94.5393 94.4816C94.5391 94.4815 94.5389 94.4814 94.5387 94.4814C94.5385 94.4813 94.5384 94.4812 94.5382 94.4811C94.538 94.481 94.5378 94.481 94.5376 94.4809C94.5374 94.4808 94.5373 94.4807 94.5371 94.4807C94.5369 94.4806 94.5367 94.4805 94.5365 94.4804C94.5363 94.4804 94.5362 94.4803 94.536 94.4802C94.5358 94.4801 94.5356 94.48 94.5354 94.48C94.5352 94.4799 94.5351 94.4798 94.5349 94.4797C94.5347 94.4797 94.5345 94.4796 94.5343 94.4795C94.5342 94.4794 94.534 94.4794 94.5338 94.4793C94.5336 94.4792 94.5334 94.4791 94.5332 94.4791C94.5331 94.479 94.5329 94.4789 94.5327 94.4788C94.5325 94.4787 94.5323 94.4787 94.5321 94.4786C94.532 94.4785 94.5318 94.4784 94.5316 94.4784C94.5314 94.4783 94.5312 94.4782 94.531 94.4781C94.5309 94.4781 94.5307 94.478 94.5305 94.4779C94.5303 94.4778 94.5301 94.4777 94.5299 94.4777C94.5298 94.4776 94.5296 94.4775 94.5294 94.4774C94.5292 94.4774 94.529 94.4773 94.5289 94.4772C94.5287 94.4771 94.5285 94.4771 94.5283 94.477C94.5281 94.4769 94.5279 94.4768 94.5278 94.4768L94.4325 94.7004ZM94.6938 94.8079L96.5935 96.0428L96.7273 95.8395L94.8276 94.6046L94.6938 94.8079ZM96.6408 95.8215L93.0823 96.4107L93.1216 96.6501L96.68 96.0609L96.6408 95.8215ZM119.041 90.0823L114.489 89.7072L114.468 89.949L119.02 90.3241L119.041 90.0823ZM114.488 89.7072C113.843 89.6573 113.29 89.6469 112.604 89.6908L112.618 89.933C113.292 89.8899 113.833 89.9 114.468 89.9491L114.488 89.7072ZM112.566 89.6995C112.567 89.6987 112.563 89.7006 112.545 89.7046C112.529 89.7082 112.508 89.7123 112.482 89.717C112.429 89.7265 112.362 89.7376 112.282 89.7509C112.124 89.7772 111.924 89.8115 111.73 89.8556C111.537 89.8993 111.341 89.9545 111.196 90.0252C111.123 90.0602 111.054 90.1035 111.004 90.1584C110.952 90.2161 110.916 90.2945 110.933 90.3867L111.173 90.3405C111.172 90.3396 111.172 90.3396 111.173 90.3386C111.174 90.3367 111.176 90.3305 111.185 90.3206C111.205 90.2992 111.242 90.2725 111.302 90.2432C111.421 90.1854 111.594 90.135 111.783 90.0922C111.97 90.0498 112.164 90.0165 112.322 89.9902C112.4 89.9771 112.47 89.9656 112.524 89.9557C112.573 89.9469 112.626 89.9368 112.656 89.9243L112.566 89.6995ZM110.931 90.3717C110.939 90.4949 111.041 90.5709 111.117 90.614C111.202 90.6617 111.31 90.6983 111.411 90.7267C111.514 90.7555 111.618 90.778 111.7 90.7953C111.742 90.8042 111.777 90.8114 111.805 90.8178C111.819 90.8209 111.83 90.8236 111.838 90.8258C111.847 90.8283 111.849 90.8292 111.847 90.8285L111.943 90.6048C111.919 90.5951 111.887 90.5873 111.86 90.5812C111.83 90.5743 111.792 90.5664 111.752 90.5579C111.669 90.5406 111.572 90.5195 111.478 90.4931C111.382 90.4662 111.297 90.4359 111.238 90.4025C111.17 90.3644 111.174 90.3449 111.175 90.3555L110.931 90.3717ZM111.883 90.8375L115.888 91.2024L115.911 90.9608L111.906 90.5959L111.883 90.8375ZM115.933 91.1984L119.063 90.32L118.998 90.0864L115.867 90.9648L115.933 91.1984ZM134.139 84.6966L127.551 84.8918L127.557 85.1344L134.145 84.9391L134.139 84.6966ZM127.509 84.9007C127.514 84.8984 127.512 84.9 127.494 84.9027C127.48 84.9051 127.459 84.9075 127.433 84.9098C127.381 84.9144 127.312 84.918 127.231 84.9201C127.069 84.9242 126.863 84.9221 126.658 84.9102C126.452 84.8983 126.252 84.8767 126.099 84.8432C126.022 84.8263 125.962 84.8075 125.921 84.7881C125.874 84.7663 125.874 84.7543 125.879 84.765L125.653 84.857C125.684 84.9338 125.756 84.9793 125.816 85.0074C125.88 85.038 125.96 85.0615 126.045 85.0802C126.217 85.1177 126.432 85.1402 126.643 85.1524C126.855 85.1648 127.068 85.167 127.236 85.1626C127.321 85.1605 127.395 85.1567 127.454 85.1515C127.483 85.149 127.509 85.1459 127.532 85.1424C127.552 85.1393 127.577 85.1345 127.599 85.1255L127.509 84.9007ZM125.879 84.765C125.897 84.81 125.87 84.8401 125.874 84.8351C125.877 84.8315 125.89 84.8201 125.918 84.8029C125.972 84.7698 126.056 84.7332 126.15 84.6998C126.243 84.6669 126.34 84.6393 126.418 84.6224C126.457 84.614 126.489 84.6088 126.512 84.6066C126.524 84.6055 126.531 84.6054 126.534 84.6056C126.54 84.6058 126.531 84.6064 126.517 84.6005L126.612 84.3768C126.586 84.366 126.561 84.3638 126.545 84.3631C126.527 84.3624 126.508 84.3633 126.49 84.365C126.454 84.3684 126.412 84.3757 126.367 84.3853C126.278 84.4046 126.171 84.4352 126.069 84.4712C125.969 84.5068 125.867 84.55 125.792 84.5958C125.755 84.6181 125.716 84.646 125.687 84.6801C125.66 84.7128 125.621 84.7789 125.653 84.857L125.879 84.765ZM126.591 84.607C127.433 84.4193 128.33 84.3616 129.238 84.3035L129.223 84.0614C128.319 84.1192 127.402 84.1776 126.538 84.3703L126.591 84.607ZM129.233 84.3037L135.915 84.1477L135.91 83.9051L129.228 84.0612L129.233 84.3037ZM22.9896 96.0311L21.2452 96.3032L21.2821 96.5429L23.0266 96.2708L22.9896 96.0311ZM23.1722 96.4206C23.3415 96.2723 23.2122 95.9964 22.9896 96.0311L23.0266 96.2708C23.0246 96.2711 23.0195 96.2708 23.0142 96.2678C23.0099 96.2654 23.0078 96.2624 23.0069 96.2604C23.006 96.2584 23.005 96.2549 23.0059 96.25C23.0069 96.244 23.01 96.2399 23.0115 96.2386L23.1722 96.4206ZM20.9991 97.4888C21.8049 97.3299 22.5547 96.9613 23.1722 96.4206L23.0115 96.2386C22.4265 96.7509 21.716 97.1002 20.9524 97.2508L20.9991 97.4888Z" fill="#2B3640"/>
<path d="M146.819 68.7707C146.042 65.1582 138.26 63.7569 135.31 63.177C134.068 62.9851 132.827 62.7933 131.546 62.6943C130.172 62.5562 128.797 62.4181 127.383 62.3729C123.634 62.1153 119.806 62.0437 115.938 62.065" stroke="#2B3640" stroke-width="0.243206" stroke-miterlimit="10" stroke-linecap="round" stroke-linejoin="round"/>
<path d="M7.29297 89.3584C6.61723 81.625 35.7908 73.7007 41.1196 72.32C55.2278 68.7049 69.5806 66.0688 85.484 64.1925C93.0291 63.303 100.589 62.6386 108.123 62.2924" stroke="#2B3640" stroke-width="0.243206" stroke-miterlimit="10" stroke-linecap="round" stroke-linejoin="round"/>
<path d="M109.879 58.428L109.559 58.4032C109.466 58.364 109.426 58.4569 109.333 58.4177C109.106 58.4322 108.973 58.486 108.84 58.5397C108.706 58.5934 108.534 58.7401 108.494 58.8331C108.454 58.926 108.282 59.0727 108.242 59.1657C108.203 59.2587 108.163 59.3515 108.123 59.4445C108.098 59.7626 108.167 60.1199 108.235 60.4773C108.289 60.6095 108.343 60.7417 108.303 60.8347C108.372 61.192 108.494 61.6815 108.523 62.1318L108.825 64.0113C108.825 64.0113 108.785 64.1043 108.879 64.1435C108.839 64.2365 108.799 64.3295 108.76 64.4224C108.72 64.5154 108.627 64.4761 108.587 64.5691M116.776 64.4975C116.643 64.5512 116.496 64.3798 116.402 64.3405C116.255 64.1691 116.201 64.0369 116.147 63.9047L116.776 64.4975ZM115.765 62.211L116.107 63.9976L115.765 62.211ZM115.19 64.5989C115.136 64.4667 115.082 64.3346 115.028 64.2024L114.754 62.773L115.19 64.5989Z" stroke="#2B3640" stroke-width="0.243206" stroke-miterlimit="10" stroke-linecap="round" stroke-linejoin="round"/>
<path d="M21.9661 86.7477L28.5541 86.5524C28.9139 86.4842 29.8746 86.5584 30.1552 86.6761C30.3423 86.7545 30.3027 86.8474 30.1696 86.9012C29.7306 87.1553 29.0109 87.2917 28.5576 87.3207C27.9711 87.4035 27.2911 87.447 26.7442 87.4368L20.1561 87.632C19.8359 87.6073 19.5554 87.4897 19.3143 87.279C19.246 86.9217 19.1776 86.5643 19.4295 86.2317C19.9081 85.8846 20.696 86.1055 21.1637 86.3017C21.3652 86.6053 21.6459 86.7229 21.9661 86.7477ZM142.307 73.6704L134.844 75.1423C134.618 75.1568 134.352 75.2643 134.125 75.2788C133.898 75.2933 133.671 75.3078 133.405 75.4152C133.272 75.469 131.419 75.6779 131.444 75.3598C131.523 75.1739 132.776 74.8225 132.909 74.7688C133.175 74.6614 133.495 74.6861 133.761 74.5786L141.224 73.1067C141.584 73.0385 141.796 72.7988 142.008 72.5592C142.181 72.4125 142.832 71.9187 143.073 72.1294C143.314 72.34 143.037 72.9907 142.958 73.1766C142.972 73.4018 142.667 73.6021 142.307 73.6704ZM132.326 69.9232C132.207 70.202 131.902 70.4024 131.635 70.5098L125.562 72.3451C125.335 72.3596 125.162 72.5063 124.936 72.5208C124.443 72.6428 122.377 73.0914 121.949 72.8023C121.615 72.5524 123.266 72.0399 123.36 72.0791L129.433 70.2438C129.7 70.1364 130.006 69.9359 130.124 69.6571C130.257 69.6033 130.43 69.4566 130.47 69.3637C130.642 69.217 130.909 69.1095 131.175 69.0021C131.895 68.8656 132.323 69.1548 132.326 69.9232ZM112.825 69.6332L108.939 71.5095C108.234 71.8711 106.089 72.5056 105.341 72.1917C105.154 72.1133 105.193 72.0203 105.233 71.9273C105.406 71.7806 105.578 71.6339 105.711 71.5802L109.598 69.7041C109.864 69.5966 109.889 69.2784 109.968 69.0925C110.141 68.9458 110.274 68.8921 110.447 68.7454C110.886 68.4913 111.325 68.2371 111.872 68.2474C112.419 68.2576 112.98 68.4931 113.196 69.0218C113.21 69.2469 113.091 69.5258 112.825 69.6332ZM64.9059 76.2699C65.093 76.3484 65.1469 76.4806 64.9742 76.6273C64.7223 76.9599 63.776 77.1108 63.4162 77.1791C62.8297 77.2618 61.8295 77.2805 61.4013 76.9914L59.5017 75.7565C59.3146 75.6781 59.2067 75.4138 59.1527 75.2816C59.5234 74.6701 60.002 74.3229 60.7216 74.1865C61.4412 74.05 62.1356 74.2318 62.7508 74.5993C62.8048 74.7315 62.9126 74.9958 62.9666 75.128L64.9059 76.2699ZM39.5034 80.517L44.134 81.0347C44.3607 81.0202 44.7349 81.177 44.8284 81.2162C44.922 81.2555 44.9759 81.3877 44.8428 81.4414C44.4973 81.7348 43.0042 81.8755 42.5509 81.9045C42.0975 81.9335 41.5506 81.9232 41.1368 81.8593L36.5062 81.3417C36.2795 81.3562 36.0385 81.1456 35.9305 80.8812C36.0601 80.0591 36.6323 79.7511 37.4059 79.7469C37.9528 79.7571 38.4601 79.8604 38.9278 80.0565C39.0753 80.2279 39.3163 80.4385 39.5034 80.517ZM88.8081 70.6268C88.7685 70.7197 88.8368 71.0771 88.6641 71.2238L87.6313 72.8722C87.3002 73.3907 85.9545 73.703 85.4076 73.6927C85.181 73.7072 84.0476 73.7796 83.9397 73.5152C83.9793 73.4223 83.8857 73.3831 84.0188 73.3294L85.0517 71.6809C85.0912 71.5879 85.1164 71.2698 85.0624 71.1376C85.5266 70.5654 86.2319 70.2038 86.9119 70.1603C87.6316 70.0239 88.326 70.2055 88.8081 70.6268ZM20.0334 92.8394L12.3947 93.6896C12.0349 93.7578 11.7543 93.6401 11.4197 93.3902C11.2722 93.2188 10.9771 92.876 10.8692 92.6116C10.8152 92.4794 10.8548 92.3865 10.9879 92.3328C11.2146 92.3183 11.722 92.4214 11.8695 92.5928C12.1105 92.8035 12.5243 92.8675 12.8445 92.8922L20.4832 92.0419C21.0697 91.9592 21.6562 91.8765 22.2031 91.8867C22.3362 91.833 22.8831 91.8433 23.0306 92.0147C23.0306 92.0147 23.1242 92.0539 23.0846 92.1468C22.9118 92.2935 22.552 92.3617 22.4189 92.4155C21.6597 92.6449 20.8465 92.7421 20.0334 92.8394Z" stroke="#2B3640" stroke-width="0.243206" stroke-miterlimit="10" stroke-linecap="round" stroke-linejoin="round"/>
<path d="M96.6229 32.6C97.0762 32.571 97.4504 32.7279 97.6914 32.9385C98.026 33.1884 98.321 33.5312 98.5225 33.8348C98.6843 34.2314 98.9002 34.7601 98.5152 35.1464C98.2633 35.479 97.6768 35.5617 97.3026 35.4048C96.6082 35.2232 95.7916 34.552 95.5613 33.7982C95.4786 33.2157 95.9428 32.6435 96.6229 32.6Z" fill="#F0F6FA"/>
<path d="M96.6229 32.6C97.0762 32.571 97.4504 32.7279 97.6914 32.9385C98.026 33.1884 98.321 33.5312 98.5225 33.8348C98.6843 34.2314 98.9002 34.7601 98.5152 35.1464C98.2633 35.479 97.6768 35.5617 97.3026 35.4048C96.6082 35.2232 95.7916 34.552 95.5613 33.7982C95.4786 33.2157 95.9428 32.6435 96.6229 32.6Z" stroke="#2B3640" stroke-width="0.243206" stroke-miterlimit="10" stroke-linecap="round" stroke-linejoin="round"/>
<path d="M7.4363 91.6085C7.53741 87.4877 16.2954 83.4915 19.3035 82.1236C22.8045 80.6337 25.4275 79.6521 28.1441 78.7097C31.2205 77.6991 34.3905 76.7277 37.5209 75.8493C38.5463 75.5125 39.5322 75.2686 40.7843 74.9172C44.0082 74.078 46.9659 73.3463 50.0171 72.6538C53.2014 71.9076 56.3461 71.2543 60.2105 70.4646C61.2899 70.26 61.6497 70.1918 63.089 69.9189C77.6684 67.2683 92.3449 65.4253 107.867 64.7038C109 64.6313 109.454 64.6022 109.907 64.5732C110.814 64.5153 111.681 64.5502 112.587 64.4923C113.361 64.488 114.135 64.4837 115.362 64.4505C116.135 64.4462 116.455 64.471 116.776 64.4957C123.644 64.4181 131.448 64.7327 138.137 66.1134C140.674 66.6293 146.682 68.0535 147.297 71.2695" stroke="#2B3640" stroke-width="1.0345" stroke-miterlimit="10" stroke-linecap="round" stroke-linejoin="round"/>
</g>
</g>
</svg>
