<svg width="169" height="118" viewBox="0 0 169 118" fill="none" xmlns="http://www.w3.org/2000/svg">
<mask id="mask0" mask-type="alpha" maskUnits="userSpaceOnUse" x="0" y="0" width="169" height="118">
<rect width="169" height="118" fill="#C4C4C4"/>
</mask>
<g mask="url(#mask0)">
<mask id="mask1" mask-type="alpha" maskUnits="userSpaceOnUse" x="0" y="0" width="137" height="114">
<rect x="0.812622" y="0.000915527" width="135.462" height="113.959" fill="#C4C4C4"/>
</mask>
<g mask="url(#mask1)">
<path d="M108.932 71.8863C109.232 69.1017 109.232 66.2176 109.032 63.4329C108.732 60.6482 108.232 57.8635 107.433 55.1783C106.633 52.4931 105.633 49.8079 104.333 47.3216C103.133 44.8353 101.634 42.4485 99.9341 40.1611C98.3345 37.8736 96.435 35.7851 94.5354 33.7961C92.5358 31.807 90.4362 30.0169 88.2366 28.3262C86.0371 26.6355 83.6376 25.1437 81.1381 23.8508C76.0392 21.1656 69.5405 18.7788 63.7417 18.1821C47.5451 16.4914 31.8484 24.9448 23.1502 38.3709C17.1515 47.8189 14.0521 58.5597 14.452 69.6984C15.1518 84.3179 22.5504 98.0423 35.5477 105.402C48.345 112.662 66.4411 112.96 79.9383 107.789C82.3378 106.894 84.6373 105.8 86.8369 104.507C87.7367 104.009 88.7365 103.413 89.6364 102.816C90.2362 102.418 91.9359 101.225 92.6357 100.628C94.0354 99.5341 106.433 90.0861 108.932 71.8863Z" fill="#F0F6FA" stroke="#25A5F0" stroke-width="1.0345" stroke-miterlimit="10" stroke-linecap="round" stroke-linejoin="round"/>
<path d="M42.8461 108.485C35.3476 105.998 30.2487 99.8322 27.2494 92.8705C22.8503 82.428 23.0502 69.9965 25.7497 59.1562C29.149 45.1334 37.8471 30.1161 50.7445 22.7566C57.0431 19.1764 64.3416 17.4857 71.4401 19.6736" stroke="#25A5F0" stroke-width="0.243206" stroke-miterlimit="10" stroke-linecap="round" stroke-linejoin="round"/>
<path d="M108.632 61.0468C108.232 58.5605 107.632 56.0742 106.533 53.8862C103.133 46.2284 98.1343 42.847 88.7363 46.2284C78.0385 50.4054 72.1398 62.2402 70.6401 73.7767C69.3403 83.523 71.7398 98.1425 82.6376 100.629" stroke="#25A5F0" stroke-width="0.243206" stroke-miterlimit="10" stroke-linecap="round" stroke-linejoin="round"/>
<path d="M82.4377 62.6375C82.5377 62.7369 82.4377 62.9359 82.4377 63.0353C82.4377 63.2342 82.2379 63.4331 82.1379 63.632C77.4389 70.6931 76.339 79.246 77.8387 85.2132C79.2384 90.6831 83.5376 96.1529 90.7361 94.0644C100.234 91.2798 104.933 78.6493 105.133 70.9915C105.333 65.9194 103.933 61.0463 100.934 58.0627C100.534 57.6649 99.7342 57.1676 99.0344 57.1676" stroke="#25A5F0" stroke-width="0.243206" stroke-miterlimit="10" stroke-linecap="round" stroke-linejoin="round"/>
<path d="M91.1361 45.9289C88.5366 46.625 86.0372 47.9179 83.6377 49.7081C82.138 50.802 81.3381 52.3933 80.9381 53.9845C80.1383 57.2665 81.0382 61.1451 82.138 63.6314C82.9378 65.521 84.9373 66.1177 87.3368 64.3276C88.2366 63.1341 89.2365 62.2391 90.5362 61.8413C91.836 61.4434 92.9357 61.9407 93.8355 62.5374C97.5347 62.8358 102.234 57.9626 102.934 53.8851C103.633 50.3048 101.734 47.3212 99.2344 46.0283C97.2348 45.1333 93.8355 45.2327 91.1361 45.9289Z" stroke="#25A5F0" stroke-width="0.486325" stroke-miterlimit="10" stroke-linecap="round" stroke-linejoin="round"/>
<path d="M92.1357 47.8184C89.3363 48.2162 85.737 49.8075 83.1376 52.0949C81.038 53.9845 81.238 57.6642 81.5379 59.7527C81.7379 60.8467 82.0377 61.7417 82.3377 62.7363C82.6376 63.2335 82.8376 63.7308 83.4374 63.9297C84.1373 64.1286 85.0371 63.7308 85.737 63.1341C87.7366 61.6423 89.8361 60.8467 91.8357 60.8467C92.9355 60.8467 93.6353 61.2445 94.8351 60.7472C96.4347 60.1505 97.8344 58.7582 98.9342 57.3658C100.634 55.1779 100.834 52.8905 100.134 51.1003C99.1342 47.9179 95.8349 47.2217 92.1357 47.8184Z" stroke="#25A5F0" stroke-width="0.243206" stroke-miterlimit="10" stroke-linecap="round" stroke-linejoin="round"/>
<path d="M81.838 54.0852C82.038 53.7869 82.2379 53.4885 82.4379 53.2896C82.6378 53.0907 82.9378 52.7924 83.1378 52.5934M93.1357 60.1518C92.7358 60.0523 92.3358 60.0524 91.9359 60.0524C91.536 60.0524 91.1361 60.0523 90.7362 60.1518C90.3363 60.2513 89.9363 60.2513 89.4364 60.4502C89.0365 60.5496 88.6366 60.7485 88.1367 60.9474L93.1357 60.1518ZM88.1367 60.848C87.7368 61.0469 87.3369 61.2458 86.837 61.5442C86.4371 61.8425 86.0372 62.0414 85.6373 62.3398L88.1367 60.848ZM85.6373 62.3398C85.5373 62.4392 85.5372 62.4392 85.4372 62.5387C85.2373 62.7376 84.9374 62.837 84.7374 62.9365L85.6373 62.3398ZM84.7374 62.9365C84.5375 63.0359 84.3375 63.0359 84.2375 63.1354C84.0376 63.1354 83.8376 63.2348 83.7376 63.2348C83.3377 63.2348 83.0378 63.2348 82.7378 63.1354L84.7374 62.9365ZM94.9352 59.9529C94.6353 60.0524 94.3355 60.1518 94.0355 60.2513C93.7356 60.2513 93.4356 60.2513 93.1357 60.2513L94.9352 59.9529ZM96.0351 48.8142C96.535 48.9137 96.9349 49.1126 97.2348 49.411C97.4348 49.5104 97.5348 49.7093 97.7347 49.9082C97.8347 50.1071 98.0347 50.306 98.1347 50.5049C98.3346 51.0022 98.5346 51.4995 98.6345 52.0962C98.7345 52.6929 98.7345 53.2896 98.6345 53.9858C98.5346 54.5825 98.4346 55.2786 98.2346 55.8754C98.0346 56.4721 97.7347 57.0688 97.4347 57.6655C97.2348 57.9638 97.1348 58.1628 96.9348 58.4611C96.7349 58.66 96.5349 58.9584 96.335 59.1573C96.135 59.3562 95.9351 59.5551 95.6352 59.6545C95.4352 59.8534 95.1352 59.9529 94.9352 60.0524L96.0351 48.8142ZM87.8368 49.9082C88.5366 49.6099 89.2364 49.4109 89.9363 49.212C90.6361 49.0131 91.3361 48.9137 92.036 48.8142C92.7358 48.7148 93.4357 48.7148 94.0355 48.7148C94.7354 48.7148 95.3353 48.8142 96.0351 48.9137L87.8368 49.9082ZM83.2377 52.5934C83.9376 51.9967 84.7375 51.4995 85.5373 51.0022C86.3371 50.5049 87.1369 50.1071 87.8368 49.8088L83.2377 52.5934Z" stroke="#25A5F0" stroke-width="0.243206" stroke-miterlimit="10" stroke-linecap="round" stroke-linejoin="round"/>
<path d="M85.4368 68.0069C84.637 72.9796 84.937 78.5489 86.0368 83.422C86.0368 83.621 86.1368 83.7204 86.1368 83.9193M94.8349 70.5927L92.0356 68.3053C91.7356 68.0069 91.5356 68.1064 91.1357 68.1064C89.3361 68.5042 87.2365 68.6036 85.4368 68.2058L94.8349 70.5927ZM93.9351 65.819C94.135 66.0179 94.1351 66.2168 94.1351 66.5151C94.0351 66.8135 93.7352 67.1118 93.5352 67.2113C93.4353 67.2113 93.3352 67.3108 93.3352 67.4102C93.3352 67.5097 93.4353 67.6091 93.5352 67.7086L96.3346 70.0954L93.9351 65.819ZM94.1351 68.4047L94.0351 66.3162L94.1351 68.4047Z" stroke="#25A5F0" stroke-width="0.486325" stroke-miterlimit="10" stroke-linecap="round" stroke-linejoin="round"/>
<path d="M86.1373 83.5209C86.9372 83.7202 88.2368 83.9195 89.3366 83.8199" stroke="#25A5F0" stroke-width="0.243206" stroke-miterlimit="10" stroke-linecap="round" stroke-linejoin="round"/>
<path d="M89.3366 84.0193C88.3368 84.1187 87.337 84.1187 86.4372 84.0193C86.3372 84.0193 86.3373 84.0193 86.2373 84.0193C86.1373 84.1187 86.1373 84.3177 86.1373 84.4171C86.7372 86.2073 88.2368 88.1963 90.3364 88.1963" stroke="#25A5F0" stroke-width="0.486325" stroke-miterlimit="10" stroke-linecap="round" stroke-linejoin="round"/>
<path d="M85.6372 67.9073C87.6367 68.0067 90.3361 67.9073 92.4357 67.0122C93.0355 66.7139 93.9354 66.2166 93.9354 65.5204C93.9354 65.2221 93.9354 64.9237 93.8354 64.6253C93.5355 63.1335 93.0356 61.5423 91.236 61.6418C89.7363 61.7412 88.2366 63.0341 87.3368 64.1281C86.5369 65.222 85.8371 66.4155 85.4371 67.7084C85.6371 67.7084 85.6372 67.8078 85.6372 67.9073ZM85.6372 67.9073C85.6372 67.8078 85.6372 67.9073 85.6372 67.9073Z" stroke="#25A5F0" stroke-width="0.486325" stroke-miterlimit="10" stroke-linecap="round" stroke-linejoin="round"/>
<path d="M92.6357 100.329C90.7361 101.82 88.9365 103.014 86.537 104.008C84.8374 104.704 83.1376 105.102 81.338 105.401C80.8381 105.5 79.9384 105.5 79.6384 105.202C79.4385 105.003 79.4385 104.704 79.5385 104.506C79.6384 104.207 80.0383 103.809 80.3382 103.61C80.5382 103.412 80.7381 103.113 80.9381 102.914C81.5379 102.119 82.1379 101.323 82.7377 100.428C84.1374 98.2401 85.2373 95.8532 87.0369 93.8642C87.9367 92.8697 88.4366 92.5713 89.6363 92.074C90.0362 91.8751 90.7361 91.5767 91.136 91.4773C91.236 92.1735 91.7359 94.4609 92.1358 96.7483C92.3358 98.1406 92.5357 99.6324 92.6357 100.329Z" stroke="#25A5F0" stroke-width="0.486325" stroke-miterlimit="10" stroke-linecap="round" stroke-linejoin="round"/>
<path d="M80.9375 102.917L83.0372 102.121C83.0372 101.922 83.0371 101.823 82.9371 101.624L81.5375 102.221M82.7372 100.43C83.737 101.127 83.5371 103.116 82.6373 103.911C82.2373 104.21 81.9373 104.309 81.4374 104.11C81.0375 103.911 80.7377 103.613 80.5377 103.116L82.7372 100.43Z" stroke="#25A5F0" stroke-width="0.243206" stroke-miterlimit="10" stroke-linecap="round" stroke-linejoin="round"/>
<path d="M90.4363 96.153V95.9541C90.5363 94.4623 90.5363 93.1694 90.4363 91.7771M92.3359 97.7442L91.6361 97.5453L92.3359 97.7442ZM85.2374 100.728C85.2374 101.026 85.6373 103.115 85.8373 103.91C85.9373 104.109 85.9372 104.209 85.9372 104.209L85.2374 100.728ZM86.1373 104.209C86.9371 103.612 87.6369 102.816 88.1368 102.021L86.1373 104.209ZM87.7369 101.822C87.237 102.617 86.6371 103.314 85.9372 103.811L87.7369 101.822ZM86.6372 104.01C87.337 103.413 87.7369 102.916 88.4367 102.021L86.6372 104.01ZM90.1364 91.8766C90.2364 93.2689 90.3364 94.6612 90.1364 96.0535V91.8766ZM89.6365 92.0754C89.7365 93.3683 89.7365 94.5617 89.6365 95.9541V92.0754Z" stroke="#25A5F0" stroke-width="0.243206" stroke-miterlimit="10" stroke-linecap="round" stroke-linejoin="round"/>
<path d="M88.3365 102.12C89.7363 102.916 91.3359 103.314 92.8356 104.01L92.7357 101.722C92.1358 101.523 91.5359 101.324 90.936 101.026C90.636 101.424 90.1362 101.722 89.6363 101.921C89.2364 102.12 88.8364 102.22 88.3365 102.12Z" stroke="#25A5F0" stroke-width="0.486325" stroke-miterlimit="10" stroke-linecap="round" stroke-linejoin="round"/>
<path d="M89.6366 101.92C89.2366 102.119 88.7367 102.219 88.2368 102.02L86.8371 101.622C85.3374 101.125 85.2375 99.1355 85.7373 97.9421C86.1373 96.8481 87.1371 95.4558 88.5368 95.6547C88.6368 95.6547 88.7367 95.6547 88.8367 95.7542L90.2364 96.152C90.7363 96.2514 91.0362 96.6492 91.3361 97.047C91.836 97.6437 91.936 98.4394 91.836 99.235C91.6361 100.329 90.8363 101.622 89.6366 101.92Z" stroke="#25A5F0" stroke-width="0.243206" stroke-miterlimit="10" stroke-linecap="round" stroke-linejoin="round"/>
<path d="M88.3365 102.021C87.4367 101.723 87.1368 100.728 87.0368 99.9328C86.9368 98.7393 87.5367 97.2476 88.5365 96.5514C89.0364 96.1536 89.6362 95.9547 90.2361 96.1536" stroke="#25A5F0" stroke-width="0.243206" stroke-miterlimit="10" stroke-linecap="round" stroke-linejoin="round"/>
<path d="M91.2358 98.8369C91.2358 99.0358 91.2358 99.3341 91.1358 99.533C90.9359 100.229 90.4359 101.025 89.7361 101.124C89.0362 101.124 88.7363 100.428 88.8362 99.732C88.8362 98.9363 89.2362 98.0413 89.836 97.6435C90.236 97.4446 90.6358 97.3451 90.9358 97.7429C91.1357 98.0413 91.2358 98.4391 91.2358 98.8369Z" stroke="#25A5F0" stroke-width="0.243206" stroke-miterlimit="10" stroke-linecap="round" stroke-linejoin="round"/>
<path d="M90.6367 101.423C90.8366 101.523 91.0366 101.523 91.1366 101.622C91.7364 101.821 92.2363 102.02 92.8362 102.219M92.8362 102.517L91.7364 102.119L90.8366 101.722L90.4366 101.523L92.8362 102.517Z" stroke="#25A5F0" stroke-width="0.243206" stroke-miterlimit="10" stroke-linecap="round" stroke-linejoin="round"/>
<path d="M86.0371 101.024L83.0377 100.029" stroke="#25A5F0" stroke-width="0.243206" stroke-miterlimit="10" stroke-linecap="round" stroke-linejoin="round"/>
<path d="M87.7368 95.6539L86.0372 95.1567" stroke="#25A5F0" stroke-width="0.243206" stroke-miterlimit="10" stroke-linecap="round" stroke-linejoin="round"/>
<path d="M94.0356 65.819C95.7352 67.2113 96.635 69.6976 96.735 72.2834C96.8349 74.9686 96.235 78.2505 94.3354 81.0352M85.5373 67.808C83.4378 70.5927 82.6379 74.173 82.7379 76.9576C82.8379 79.7423 83.9377 82.527 86.0372 83.8198L85.5373 67.808Z" stroke="#25A5F0" stroke-width="0.243206" stroke-miterlimit="10" stroke-linecap="round" stroke-linejoin="round"/>
<path d="M89.7364 85.5096C88.5367 85.6091 87.3369 85.6091 86.4371 85.4102M86.0372 66.3153C89.2366 66.1164 92.8358 66.3154 94.0356 64.028L86.0372 66.3153Z" stroke="#25A5F0" stroke-width="0.243206" stroke-miterlimit="10" stroke-linecap="round" stroke-linejoin="round"/>
<path fill-rule="evenodd" clip-rule="evenodd" d="M110.332 77.6537C111.731 75.1674 112.931 72.5816 113.831 69.8964C114.731 67.2112 115.331 64.4265 115.731 61.6418C116.131 58.8572 116.231 56.0725 116.131 53.1884C116.031 50.4037 115.631 47.6191 115.031 44.8344C114.431 42.1492 113.631 39.464 112.631 36.7788C111.631 34.193 110.432 31.7067 109.032 29.2204C107.632 26.8336 106.133 24.4467 104.333 22.2587C100.834 17.7834 95.7348 12.9102 90.7358 10.1256C76.5388 2.16936 58.8425 3.56168 45.3453 12.4129C36.0473 18.6784 28.8488 27.2314 24.7496 37.6739C19.4507 51.3983 20.7505 66.9128 29.7486 78.8471C38.5468 90.5825 55.0433 98.0414 69.4402 98.7376C72.0397 98.837 74.5392 98.7376 77.1387 98.5387C78.2385 98.4392 79.3382 98.2403 80.338 98.0414C81.0378 97.942 83.1374 97.5442 83.9372 97.2458C85.5369 96.9474 100.734 93.2677 110.332 77.6537Z" fill="#F0F6FA"/>
<path d="M110.332 77.6537C111.731 75.1674 112.931 72.5816 113.831 69.8964C114.731 67.2112 115.331 64.4265 115.731 61.6418C116.131 58.8572 116.231 56.0725 116.131 53.1884C116.031 50.4037 115.631 47.6191 115.031 44.8344C114.431 42.1492 113.631 39.464 112.631 36.7788C111.631 34.193 110.432 31.7067 109.032 29.2204C107.632 26.8336 106.133 24.4467 104.333 22.2587C100.834 17.7834 95.7348 12.9102 90.7358 10.1256C76.5388 2.16936 58.8425 3.56168 45.3453 12.4129C36.0473 18.6784 28.8488 27.2314 24.7496 37.6739C19.4507 51.3983 20.7505 66.9128 29.7486 78.8471C38.5468 90.5825 55.0433 98.0414 69.4402 98.7376C72.0397 98.837 74.5392 98.7376 77.1387 98.5387C78.2385 98.4392 79.3382 98.2403 80.338 98.0414C81.0378 97.942 83.1374 97.5442 83.9372 97.2458C85.5369 96.9474 100.734 93.2677 110.332 77.6537Z" fill="#F0F6FA" stroke="#2B3640" stroke-width="1.0345" stroke-miterlimit="10" stroke-linecap="round" stroke-linejoin="round"/>
<path d="M35.0481 84.8142C29.1493 79.5433 26.9498 71.8854 27.0498 64.2276C27.2497 52.89 32.4486 41.5525 39.2472 32.7012C48.0453 21.2642 62.0424 10.9212 76.8393 9.32993C84.0378 8.53431 91.4363 9.92664 97.0351 14.7003" stroke="#2B3640" stroke-width="0.243206" stroke-miterlimit="10" stroke-linecap="round" stroke-linejoin="round"/>
<path d="M114.531 67.51C115.231 65.0237 115.531 62.5374 115.531 60.0511C115.431 51.6971 112.332 46.625 102.334 45.9288C90.8361 45.531 80.6383 53.9845 74.6395 63.9297C69.5406 72.3832 65.8413 86.7043 74.8394 93.2682" stroke="#2B3640" stroke-width="0.243206" stroke-miterlimit="10" stroke-linecap="round" stroke-linejoin="round"/>
<path d="M89.8366 58.5595C89.8366 58.659 89.7367 58.8579 89.6367 58.9573C89.5367 59.1562 89.3367 59.2557 89.1368 59.3551C82.0383 63.9299 77.5392 71.3889 76.5394 77.4555C75.5397 83.0248 77.3392 89.7875 84.7377 90.6826C94.5356 91.876 103.934 82.2292 107.233 75.2675C109.433 70.6927 110.132 65.6206 108.633 61.742C108.433 61.1453 107.933 60.4491 107.233 60.2502" stroke="#2B3640" stroke-width="0.243206" stroke-miterlimit="10" stroke-linecap="round" stroke-linejoin="round"/>
<path d="M104.533 46.7235C101.934 46.3257 99.0343 46.5246 96.1349 47.2208C94.3353 47.718 92.9355 48.812 91.9357 50.1049C89.8361 52.7901 89.1364 56.6687 89.1364 59.354C89.1364 61.4425 90.636 62.7354 93.6354 62.0392C94.9351 61.343 96.2349 60.8458 97.5346 61.0447C98.9343 61.2436 99.6341 62.1386 100.234 62.9343C103.533 64.7244 109.732 62.0392 112.032 58.6578C114.031 55.6742 113.631 52.1934 111.832 50.0054C110.432 48.4142 107.233 47.1213 104.533 46.7235Z" fill="#F0F6FA"/>
<path d="M104.533 46.7235C101.934 46.3257 99.0343 46.5246 96.1349 47.2208C94.3353 47.718 92.9355 48.812 91.9357 50.1049C89.8361 52.7901 89.1364 56.6687 89.1364 59.354C89.1364 61.4425 90.636 62.7354 93.6354 62.0392C94.9351 61.343 96.2349 60.8458 97.5346 61.0447C98.9343 61.2436 99.6341 62.1386 100.234 62.9343C103.533 64.7244 109.732 62.0392 112.032 58.6578C114.031 55.6742 113.631 52.1934 111.832 50.0054C110.432 48.4142 107.233 47.1213 104.533 46.7235Z" stroke="#2B3640" stroke-width="0.486325" stroke-miterlimit="10" stroke-linecap="round" stroke-linejoin="round"/>
<path d="M104.633 48.8126C101.933 48.1164 97.9343 48.017 94.635 49.111C91.9355 50.006 90.7358 53.3874 90.1359 55.4759C89.836 56.4704 89.736 57.465 89.736 58.5589C89.8359 59.1557 89.736 59.6529 90.2359 60.1502C90.7358 60.6474 91.7356 60.548 92.6354 60.3491C95.1349 59.7524 97.3344 59.9513 99.134 60.7469C100.134 61.1447 100.634 61.8409 101.933 61.8409C103.633 61.8409 105.433 61.2441 107.032 60.3491C109.432 58.9567 110.532 57.0671 110.632 55.1775C111.032 51.6967 108.332 49.8071 104.633 48.8126Z" stroke="#2B3640" stroke-width="0.243206" stroke-miterlimit="10" stroke-linecap="round" stroke-linejoin="round"/>
<path d="M92.736 50.5025C93.0359 50.3036 93.3359 50.2041 93.6358 50.0052C93.9357 49.9058 94.2357 49.8063 94.5356 49.7068M100.534 60.5472C100.234 60.3483 99.8344 60.1493 99.4345 59.9504C99.0346 59.7515 98.6347 59.6521 98.2348 59.5526C97.8349 59.4532 97.4349 59.3537 96.935 59.2543C96.5351 59.1548 96.0353 59.1548 95.6354 59.1548L100.534 60.5472ZM95.7353 59.2543C95.2354 59.2543 94.8355 59.2543 94.3356 59.3537C93.8357 59.4532 93.3358 59.5526 92.8359 59.6521L95.7353 59.2543ZM92.8359 59.6521C92.7359 59.6521 92.636 59.6521 92.5361 59.7515C92.2361 59.7515 92.0361 59.851 91.7362 59.851L92.8359 59.6521ZM91.8361 59.7515C91.6362 59.7515 91.4362 59.7515 91.2363 59.7515C91.0363 59.7515 90.8364 59.6521 90.7364 59.6521C90.4364 59.5526 90.1365 59.3537 89.8365 59.1548L91.8361 59.7515ZM102.334 61.0444C102.034 61.0444 101.734 61.0444 101.434 60.945C101.134 60.8455 100.834 60.7461 100.634 60.5472L102.334 61.0444ZM107.833 51.2981C108.233 51.5964 108.533 51.8948 108.733 52.2926C108.833 52.4915 108.933 52.6904 108.933 52.9888C109.033 53.1877 109.033 53.486 109.033 53.6849C109.033 54.1822 109.033 54.7789 108.833 55.3756C108.633 55.9723 108.433 56.4696 108.133 57.0663C107.833 57.5636 107.433 58.1603 106.933 58.6575C106.533 59.1548 106.033 59.5526 105.433 59.9504C105.133 60.1493 104.933 60.2488 104.634 60.4477C104.334 60.5472 104.134 60.7461 103.834 60.8455C103.534 60.945 103.334 61.0444 103.034 61.0444C102.734 61.1439 102.534 61.1438 102.234 61.1438L107.833 51.2981ZM99.9344 49.0107C100.734 49.0107 101.434 49.1101 102.134 49.2096C102.834 49.309 103.534 49.5079 104.234 49.6074C104.933 49.8063 105.533 50.0052 106.133 50.3035C106.733 50.6019 107.333 50.9003 107.833 51.2981L99.9344 49.0107ZM94.5356 49.7068C95.4355 49.5079 96.3352 49.309 97.235 49.2096C98.1348 49.1101 99.0346 49.0107 99.8345 49.1101L94.5356 49.7068Z" stroke="#2B3640" stroke-width="0.243206" stroke-miterlimit="10" stroke-linecap="round" stroke-linejoin="round"/>
<path d="M90.436 64.6276C87.6366 68.904 85.7371 74.0755 84.7373 79.0482C84.7373 79.2471 84.6373 79.3465 84.6373 79.5454M97.9345 70.7936L96.3348 67.6111C96.1349 67.2133 95.935 67.2133 95.635 67.1139C93.8354 66.7161 91.8358 66.0199 90.3361 64.9259L97.9345 70.7936ZM99.0343 66.1193C99.1343 66.4177 99.0342 66.6166 98.9343 66.8155C98.7343 67.0144 98.3345 67.2133 98.0346 67.2133C97.9346 67.2133 97.8345 67.2133 97.8345 67.3128C97.8345 67.4122 97.8345 67.5117 97.9345 67.7106L99.5342 70.9925L99.0343 66.1193ZM98.2345 68.5062L99.0343 66.5172L98.2345 68.5062Z" stroke="#2B3640" stroke-width="0.486325" stroke-miterlimit="10" stroke-linecap="round" stroke-linejoin="round"/>
<path d="M84.7374 79.1465C85.4373 79.6437 86.9369 80.6383 88.8365 81.0361" stroke="#2B3640" stroke-width="0.243206" stroke-miterlimit="10" stroke-linecap="round" stroke-linejoin="round"/>
<path d="M88.8364 81.4331C87.4367 81.1347 85.6371 80.2397 84.8373 79.7424C84.8373 79.7424 84.7373 79.6429 84.6374 79.6429C84.4374 79.6429 84.4374 79.8419 84.3374 79.9413C84.1374 81.5326 84.5373 83.5216 85.8371 84.5161C86.037 84.715 88.3365 86.1074 89.9362 85.7095" stroke="#2B3640" stroke-width="0.486325" stroke-miterlimit="10" stroke-linecap="round" stroke-linejoin="round"/>
<path d="M90.6359 64.626C92.4355 65.521 94.9349 66.5156 97.2345 66.5156C97.9343 66.5156 98.8341 66.4161 99.234 65.7199C99.434 65.4216 99.434 65.2227 99.534 64.9243C99.9339 63.4326 100.034 61.7419 98.3342 61.1451C96.9345 60.6479 95.0349 61.2446 93.7352 61.8413C92.5354 62.438 91.4357 63.3331 90.6359 64.3276C90.6359 64.5265 90.6359 64.5265 90.6359 64.626Z" stroke="#2B3640" stroke-width="0.486325" stroke-miterlimit="10" stroke-linecap="round" stroke-linejoin="round"/>
<path d="M99.134 66.1176C100.134 68.1066 99.9339 70.6924 99.0341 73.0792C98.0343 75.5656 96.1346 78.3502 93.3352 80.1404M90.5358 64.5264C87.4365 66.2171 85.3368 69.2006 84.3371 71.7864C83.3373 74.4716 83.2374 77.3557 84.5371 79.3448L90.5358 64.5264Z" stroke="#2B3640" stroke-width="0.243206" stroke-miterlimit="10" stroke-linecap="round" stroke-linejoin="round"/>
<path d="M89.2364 82.9249C87.8367 82.726 85.0373 81.5326 84.2374 81.0353M91.6359 63.4323C94.6353 64.5262 97.8345 66.1175 99.9341 64.5262L91.6359 63.4323Z" stroke="#2B3640" stroke-width="0.243206" stroke-miterlimit="10" stroke-linecap="round" stroke-linejoin="round"/>
<path d="M27.5496 142.398C27.6496 143.194 27.8496 143.592 28.0495 144.089C32.0487 153.736 55.0438 156.023 63.742 156.322C77.3392 156.819 94.3356 155.029 106.933 149.161C109.132 148.067 110.132 147.47 111.032 146.874C113.532 145.183 116.831 142.199 117.131 138.52C117.331 136.531 117.431 135.337 116.831 133.547C115.431 129.668 112.832 130.862 111.732 124.199C111.132 118.828 111.232 113.259 110.832 107.789C110.532 102.717 110.432 97.6447 110.432 92.4732C110.532 87.2022 110.732 81.9312 110.632 76.6603C110.532 73.8756 108.833 70.3948 106.033 69.3008C104.234 68.6046 100.734 68.903 98.6347 69.4003L99.5346 70.9915C98.6348 70.5937 97.335 69.8975 96.8351 70.2953C96.2352 70.2953 95.8353 70.3948 95.3354 70.5937C94.3356 71.0909 93.3358 71.6877 92.436 72.3838C91.5361 73.08 90.7363 73.8756 89.9365 74.6712C87.7369 77.1575 89.1367 82.0307 89.7366 84.8154C91.4362 91.777 92.9359 97.6447 93.0359 104.706C93.1359 110.673 91.4362 116.839 87.637 121.513C78.6389 120.917 71.0405 120.917 61.8424 122.011C51.3446 123.303 38.8473 125.889 30.549 132.95C28.2495 135.536 27.2496 137.028 27.2496 140.509C27.3496 141.304 27.3497 141.702 27.5496 142.398Z" fill="#F0F6FA"/>
<path d="M27.5496 142.398C27.6496 143.194 27.8496 143.592 28.0495 144.089C32.0487 153.736 55.0438 156.023 63.742 156.322C77.3392 156.819 94.3356 155.029 106.933 149.161C109.132 148.067 110.132 147.47 111.032 146.874C113.532 145.183 116.831 142.199 117.131 138.52C117.331 136.531 117.431 135.337 116.831 133.547C115.431 129.668 112.832 130.862 111.732 124.199C111.132 118.828 111.232 113.259 110.832 107.789C110.532 102.717 110.432 97.6447 110.432 92.4732C110.532 87.2022 110.732 81.9312 110.632 76.6603C110.532 73.8756 108.833 70.3948 106.033 69.3008C104.234 68.6046 100.734 68.903 98.6347 69.4003L99.5346 70.9915C98.6348 70.5937 97.335 69.8975 96.8351 70.2953C96.2352 70.2953 95.8353 70.3948 95.3354 70.5937C94.3356 71.0909 93.3358 71.6877 92.436 72.3838C91.5361 73.08 90.7363 73.8756 89.9365 74.6712C87.7369 77.1575 89.1367 82.0307 89.7366 84.8154C91.4362 91.777 92.9359 97.6447 93.0359 104.706C93.1359 110.673 91.4362 116.839 87.637 121.513C78.6389 120.917 71.0405 120.917 61.8424 122.011C51.3446 123.303 38.8473 125.889 30.549 132.95C28.2495 135.536 27.2496 137.028 27.2496 140.509C27.3496 141.304 27.3497 141.702 27.5496 142.398Z" fill="#F0F6FA" stroke="#2B3640" stroke-width="1.0345" stroke-miterlimit="10" stroke-linecap="round" stroke-linejoin="round"/>
<path d="M69.0411 154.829C69.3411 153.536 70.1409 152.84 71.6406 152.144C76.2396 150.155 86.7373 143.989 94.9356 131.955C102.234 121.214 103.534 106.992 99.8346 92.1739C99.0348 88.7925 98.4349 84.9139 98.235 81.5325C98.135 79.6429 97.4351 77.6539 96.3354 76.1621C94.9356 74.2725 92.0363 72.4824 90.0367 74.6703" stroke="#2B3640" stroke-width="0.243206" stroke-miterlimit="10" stroke-linecap="round" stroke-linejoin="round"/>
<path d="M97.7345 111.27C97.7345 110.872 97.7345 110.474 97.7345 110.176M97.7345 110.176C97.7345 109.181 97.7345 108.187 97.7345 107.192C97.7345 106.197 97.7345 105.203 97.7345 104.208C97.7345 103.214 97.7345 102.219 97.7345 101.225C97.7345 100.23 97.7345 99.2358 97.8345 98.3407C97.8345 97.3462 97.9344 96.4511 97.9344 95.4566C97.9344 94.5615 98.0345 93.6665 98.0345 92.6719C98.0345 92.2741 98.0345 91.7769 98.1344 91.3791C98.1344 90.9813 98.1344 90.484 98.2344 90.0862C98.2344 89.6884 98.2344 89.1911 98.2344 88.7933C98.2344 88.3955 98.2344 87.8982 98.2344 87.5004C98.2344 86.5059 98.2344 85.5114 98.2344 84.5168C98.2344 83.5223 98.2344 82.5278 98.1344 81.5333L97.7345 110.176Z" stroke="#2B3640" stroke-width="0.243206" stroke-miterlimit="10" stroke-linecap="round" stroke-linejoin="round"/>
<path d="M98.8343 69.4997C99.8341 69.4002 101.034 69.6986 101.834 70.2953C101.634 70.3947 101.434 70.4942 101.234 70.4942C100.634 70.6931 100.134 70.892 99.5342 71.1904C98.7344 70.6931 97.8345 70.3947 96.9347 70.3947" stroke="#2B3640" stroke-width="0.486325" stroke-miterlimit="10" stroke-linecap="round" stroke-linejoin="round"/>
<path d="M96.5344 83.3225C96.5344 83.223 96.6344 83.1235 96.6344 83.0241C96.7344 82.7257 96.8343 82.3279 96.8343 81.9301C96.8343 81.8307 96.8343 81.8307 96.8343 81.7312C96.8343 81.5323 96.8343 81.4329 96.8343 81.234C96.8343 81.0351 96.8343 80.7367 96.7344 80.5378C96.7344 80.2394 96.6344 80.0405 96.5344 79.7422C96.4345 79.4438 96.4344 79.2449 96.3344 79.046C96.2344 78.8471 96.1345 78.5488 96.0346 78.3498C95.9346 78.1509 95.8346 77.8526 95.6346 77.6537C95.5346 77.4548 95.3346 77.2559 95.2347 77.0569C95.1347 76.858 94.9347 76.6591 94.7348 76.5597C94.5348 76.3608 94.4348 76.2613 94.2349 76.0624C94.0349 75.8635 93.735 75.7641 93.5351 75.5652C93.4351 75.4657 93.3351 75.4657 93.1351 75.3663C93.0352 75.3663 92.9351 75.2668 92.7352 75.2668C92.6352 75.2668 92.5352 75.2668 92.3353 75.1674C92.2353 75.1674 92.1354 75.1674 92.0354 75.1674C91.9354 75.1674 91.8354 75.1674 91.7354 75.1674C91.6354 75.1674 91.5354 75.1674 91.4354 75.2668C91.2355 75.3663 91.1356 75.3663 91.0356 75.4657C90.9356 75.5652 90.7356 75.6646 90.6357 75.7641C90.5357 75.8635 90.4356 75.963 90.3357 76.1619C90.2357 76.2613 90.1358 76.4602 90.0358 76.5597C89.9358 76.7586 89.9358 76.858 89.8358 77.0569C89.7358 77.2559 89.7358 77.4548 89.7358 77.6537C89.7358 77.8526 89.6359 78.0515 89.6359 78.2504C89.6359 78.4493 89.6359 78.6482 89.6359 78.8471C89.6359 79.2449 89.7358 79.6427 89.8358 80.0405C89.9358 80.4383 90.0358 80.8361 90.2357 81.234C90.4357 81.6318 90.6356 82.0296 90.8356 82.4274C90.9355 82.6263 91.0355 82.8252 91.2355 82.9247C91.3355 83.1236 91.5355 83.223 91.6354 83.4219C91.7354 83.5214 91.9354 83.7203 92.0354 83.8197C92.1354 83.9192 92.3352 84.0186 92.4352 84.2175C92.5352 84.317 92.7351 84.4164 92.9351 84.5159C93.0351 84.6153 93.235 84.6153 93.435 84.7148C93.535 84.8142 93.7349 84.8142 93.9349 84.8142C94.0349 84.8142 94.2349 84.8142 94.3348 84.8142C94.4348 84.8142 94.6348 84.8142 94.7348 84.8142C94.8348 84.8142 95.0347 84.7148 95.1347 84.7148C95.2347 84.7148 95.3346 84.6153 95.4346 84.5159C95.5346 84.4164 95.6346 84.317 95.7346 84.2175C95.8345 84.1181 95.9346 84.0186 96.0346 83.9192C96.1345 83.8197 96.2344 83.6208 96.3344 83.5213C96.4344 83.6208 96.4345 83.5214 96.5344 83.3225Z" stroke="#2B3640" stroke-width="0.486325" stroke-miterlimit="10" stroke-linecap="round" stroke-linejoin="round"/>
<path fill-rule="evenodd" clip-rule="evenodd" d="M83.9378 97.1465C81.5383 97.7432 79.4388 98.141 76.9393 98.141C75.1397 98.0415 73.3401 97.8426 71.5405 97.3454C71.0406 97.2459 70.2408 96.9475 70.0408 96.4503C69.9408 96.1519 70.0408 95.953 70.2407 95.7541C70.5407 95.5552 70.9406 95.3563 71.3405 95.1574C71.6404 95.058 71.9404 94.8591 72.2403 94.7596C73.1401 94.3618 73.9399 93.8645 74.8397 93.2678C77.0393 91.776 78.9389 90.0853 81.4383 88.9914C82.6381 88.4941 83.2381 88.2952 84.5378 88.2952C85.5376 88.1958 86.7373 88.693 89.1368 89.5881C91.3363 90.3837 91.0364 92.7705 90.2365 93.5662C87.7371 95.8536 84.7376 96.8481 83.9378 97.1465Z" fill="#F0F6FA"/>
<path d="M83.9378 97.1465C81.5383 97.7432 79.4388 98.141 76.9393 98.141C75.1397 98.0415 73.3401 97.8426 71.5405 97.3454C71.0406 97.2459 70.2408 96.9475 70.0408 96.4503C69.9408 96.1519 70.0408 95.953 70.2407 95.7541C70.5407 95.5552 70.9406 95.3563 71.3405 95.1574C71.6404 95.058 71.9404 94.8591 72.2403 94.7596C73.1401 94.3618 73.9399 93.8645 74.8397 93.2678C77.0393 91.776 78.9389 90.0853 81.4383 88.9914C82.6381 88.4941 83.2381 88.2952 84.5378 88.2952C85.5376 88.1958 86.7373 88.693 89.1368 89.5881C91.3363 90.3837 91.0364 92.7705 90.2365 93.5662C87.7371 95.8536 84.7376 96.8481 83.9378 97.1465Z" stroke="#2B3640" stroke-width="0.486325" stroke-miterlimit="10" stroke-linecap="round" stroke-linejoin="round"/>
<path d="M93.1354 105.501C91.9356 104.705 90.5359 104.506 89.1362 104.208C86.8367 103.81 84.5372 103.412 83.1374 101.125C82.3376 99.832 81.9376 98.4396 81.9376 96.9478C81.9376 96.1522 82.1376 95.3566 82.4375 94.561L83.8372 95.8539C83.7373 96.2517 83.6373 96.6495 83.6373 97.0473C83.6373 98.1413 83.9373 99.2352 84.5372 100.23C85.537 101.821 87.4365 102.219 89.3361 102.517C90.5358 102.716 91.8356 102.915 92.9353 103.412C92.9353 103.909 92.9353 104.407 92.9353 104.805C93.1353 105.103 93.1354 105.302 93.1354 105.501Z" fill="#F0F6FA"/>
<path d="M93.1354 105.501C91.9356 104.705 90.5359 104.506 89.1362 104.208C86.8367 103.81 84.5372 103.412 83.1374 101.125C82.3376 99.832 81.9376 98.4396 81.9376 96.9478C81.9376 96.1522 82.1376 95.3566 82.4375 94.561L83.8372 95.8539C83.7373 96.2517 83.6373 96.6495 83.6373 97.0473C83.6373 98.1413 83.9373 99.2352 84.5372 100.23C85.537 101.821 87.4365 102.219 89.3361 102.517C90.5358 102.716 91.8356 102.915 92.9353 103.412C92.9353 103.909 92.9353 104.407 92.9353 104.805C93.1353 105.103 93.1354 105.302 93.1354 105.501Z" stroke="#2B3640" stroke-width="0.486325" stroke-miterlimit="10" stroke-linecap="round" stroke-linejoin="round"/>
<path d="M72.2404 94.8594L74.54 94.9588C74.54 94.7599 74.6399 94.6605 74.6399 94.4616L73.1402 94.3621M74.8398 93.3676C75.4397 94.3621 74.5399 96.1523 73.4401 96.5501C73.0402 96.6495 72.6403 96.6495 72.2404 96.2517C71.9405 95.8539 71.8405 95.4561 71.8405 95.0583L74.8398 93.3676Z" stroke="#2B3640" stroke-width="0.243206" stroke-miterlimit="10" stroke-linecap="round" stroke-linejoin="round"/>
<path fill-rule="evenodd" clip-rule="evenodd" d="M87.3367 98.2408C86.8368 98.2408 86.4369 98.1413 86.137 97.843L85.1372 96.9479C84.0374 95.9533 84.7373 94.1632 85.5371 93.2681C86.337 92.4725 87.7366 91.6769 88.7364 92.3731C88.8364 92.3731 88.9363 92.4725 88.9363 92.572L89.9361 93.467C90.236 93.7654 90.4361 94.1632 90.5361 94.6605C90.736 95.3566 90.5361 96.1523 90.1361 96.749C89.6362 97.6441 88.5364 98.4397 87.3367 98.2408Z" fill="#F0F6FA"/>
<path d="M87.3367 98.2408C86.8368 98.2408 86.4369 98.1413 86.137 97.843L85.1372 96.9479C84.0374 95.9533 84.7373 94.1632 85.5371 93.2681C86.337 92.4725 87.7366 91.6769 88.7364 92.3731C88.8364 92.3731 88.9363 92.4725 88.9363 92.572L89.9361 93.467C90.236 93.7654 90.4361 94.1632 90.5361 94.6605C90.736 95.3566 90.5361 96.1523 90.1361 96.749C89.6362 97.6441 88.5364 98.4397 87.3367 98.2408Z" stroke="#2B3640" stroke-width="0.243206" stroke-miterlimit="10" stroke-linecap="round" stroke-linejoin="round"/>
<path d="M86.1368 97.8421C85.4369 97.2454 85.5369 96.2508 85.8368 95.5547C86.2367 94.4607 87.2365 93.4662 88.4362 93.1678C88.9361 93.0684 89.6361 93.0683 90.036 93.4661" stroke="#2B3640" stroke-width="0.243206" stroke-miterlimit="10" stroke-linecap="round" stroke-linejoin="round"/>
<path fill-rule="evenodd" clip-rule="evenodd" d="M89.836 96.2535C89.7361 96.4524 89.6361 96.6513 89.4361 96.8502C89.0362 97.3475 88.2364 97.8447 87.6365 97.6458C87.0367 97.4469 87.1366 96.6513 87.3366 96.0546C87.6365 95.3584 88.3364 94.7617 89.0363 94.6622C89.4362 94.5628 89.836 94.7617 89.936 95.1595C90.1359 95.4579 90.036 95.8557 89.836 96.2535Z" fill="#F0F6FA"/>
<path d="M89.836 96.2535C89.7361 96.4524 89.6361 96.6513 89.4361 96.8502C89.0362 97.3475 88.2364 97.8447 87.6365 97.6458C87.0367 97.4469 87.1366 96.6513 87.3366 96.0546C87.6365 95.3584 88.3364 94.7617 89.0363 94.6622C89.4362 94.5628 89.836 94.7617 89.936 95.1595C90.1359 95.4579 90.036 95.8557 89.836 96.2535Z" stroke="#2B3640" stroke-width="0.243206" stroke-miterlimit="10" stroke-linecap="round" stroke-linejoin="round"/>
<path d="M84.6376 96.1529L82.338 94.1638" stroke="#2B3640" stroke-width="0.243206" stroke-miterlimit="10" stroke-linecap="round" stroke-linejoin="round"/>
<path d="M88.0371 92.1748L84.9376 89.4896" stroke="#2B3640" stroke-width="0.243206" stroke-miterlimit="10" stroke-linecap="round" stroke-linejoin="round"/>
<path d="M83.538 92.4731L83.638 92.2742C84.3379 90.9813 84.8377 89.7879 85.3376 88.3956M77.0394 94.5616C76.9394 94.86 76.4395 96.849 76.3395 97.7441C76.3395 97.943 76.3395 98.0424 76.3395 98.1419L77.0394 94.5616ZM76.4394 98.1419C77.4392 97.943 78.3391 97.4457 79.1389 96.9484L76.4394 98.1419ZM78.839 96.5506C78.0391 97.0479 77.2393 97.4457 76.3395 97.6446L78.839 96.5506ZM76.9393 98.1419C77.8391 97.943 78.439 97.5452 79.3389 97.0479L76.9393 98.1419ZM85.0377 88.3956C84.6378 89.6884 84.0379 90.9813 83.338 92.1747L85.0377 88.3956ZM84.5378 88.3956C84.1379 89.589 83.638 90.7824 83.0382 91.8764L84.5378 88.3956Z" stroke="#2B3640" stroke-width="0.243206" stroke-miterlimit="10" stroke-linecap="round" stroke-linejoin="round"/>
<path fill-rule="evenodd" clip-rule="evenodd" d="M80.6384 97.4452C80.1385 97.4452 79.7386 97.3458 79.3386 97.0474L78.2389 96.0529C77.0392 95.0584 77.839 93.1688 78.7388 92.1743C79.5386 91.2792 81.0383 90.4836 82.2381 91.1798C82.338 91.2792 82.438 91.2792 82.438 91.3787L83.5378 92.3732C83.9378 92.6716 84.0377 93.1688 84.1377 93.6661C84.3376 94.4617 84.1377 95.2573 83.7377 95.854C83.0379 96.7491 81.8382 97.6442 80.6384 97.4452Z" fill="#F0F6FA"/>
<path d="M80.6384 97.4452C80.1385 97.4452 79.7386 97.3458 79.3386 97.0474L78.2389 96.0529C77.0392 95.0584 77.839 93.1688 78.7388 92.1743C79.5386 91.2792 81.0383 90.4836 82.2381 91.1798C82.338 91.2792 82.438 91.2792 82.438 91.3787L83.5378 92.3732C83.9378 92.6716 84.0377 93.1688 84.1377 93.6661C84.3376 94.4617 84.1377 95.2573 83.7377 95.854C83.0379 96.7491 81.8382 97.6442 80.6384 97.4452Z" stroke="#2B3640" stroke-width="0.243206" stroke-miterlimit="10" stroke-linecap="round" stroke-linejoin="round"/>
<path d="M79.3389 96.9472C78.639 96.3505 78.7391 95.2566 79.039 94.4609C79.4389 93.2675 80.5386 92.1736 81.8383 91.8752C82.4382 91.7757 83.0382 91.7757 83.5381 92.1735" stroke="#2B3640" stroke-width="0.243206" stroke-miterlimit="10" stroke-linecap="round" stroke-linejoin="round"/>
<path fill-rule="evenodd" clip-rule="evenodd" d="M83.2375 95.2588C83.1375 95.4577 83.0375 95.6566 82.8376 95.8556C82.3377 96.4523 81.5378 96.9495 80.9379 96.7506C80.3381 96.5517 80.3381 95.6566 80.6381 95.0599C80.938 94.3637 81.7378 93.6676 82.4376 93.5681C82.8375 93.4687 83.2375 93.6676 83.4374 94.0654C83.5374 94.4632 83.4375 94.861 83.2375 95.2588Z" fill="#F0F6FA"/>
<path d="M83.2375 95.2588C83.1375 95.4577 83.0375 95.6566 82.8376 95.8556C82.3377 96.4523 81.5378 96.9495 80.9379 96.7506C80.3381 96.5517 80.3381 95.6566 80.6381 95.0599C80.938 94.3637 81.7378 93.6676 82.4376 93.5681C82.8375 93.4687 83.2375 93.6676 83.4374 94.0654C83.5374 94.4632 83.4375 94.861 83.2375 95.2588Z" stroke="#2B3640" stroke-width="0.243206" stroke-miterlimit="10" stroke-linecap="round" stroke-linejoin="round"/>
<path d="M77.6386 95.1583L75.339 93.0698" stroke="#2B3640" stroke-width="0.243206" stroke-miterlimit="10" stroke-linecap="round" stroke-linejoin="round"/>
<path d="M81.4383 90.9809L80.0387 89.7875" stroke="#2B3640" stroke-width="0.243206" stroke-miterlimit="10" stroke-linecap="round" stroke-linejoin="round"/>
<path d="M84.4374 91.3799L84.7374 91.5788C84.9374 91.6783 84.9374 92.0761 84.7374 92.275C84.5375 92.4739 84.2376 92.6728 84.0376 92.4739L83.5377 92.1756M84.7374 91.5788C84.9374 91.7777 84.8374 91.9766 84.7374 92.1756C84.6374 92.3745 84.3376 92.5734 84.0376 92.3745C83.8377 92.275 83.9376 91.8772 84.0376 91.7777C84.2376 91.6783 84.5375 91.4794 84.7374 91.5788Z" stroke="#2B3640" stroke-width="0.243206" stroke-miterlimit="10" stroke-linecap="round" stroke-linejoin="round"/>
<path d="M86.4369 90.6826C86.5369 89.7876 86.4369 88.8925 85.837 88.5941" stroke="#2B3640" stroke-width="0.243206" stroke-miterlimit="10" stroke-linecap="round" stroke-linejoin="round"/>
<path d="M93.1356 107.39C91.436 105.7 88.6366 105.7 85.7372 105.799C82.1379 105.899 78.3387 105.998 75.8392 102.915C74.6395 101.523 73.9396 99.5336 73.9396 97.6441C73.9396 96.1523 74.3395 94.561 75.4393 93.3676L76.739 94.561C76.0392 95.3566 75.7392 96.4506 75.7392 97.5446C75.7392 99.0364 76.3391 100.628 77.2389 101.722C79.2385 104.108 82.5378 104.108 85.8371 104.009C88.5365 103.91 91.236 103.91 93.3355 105.103C93.1356 105.899 93.1356 106.595 93.1356 107.39Z" fill="#F0F6FA"/>
<path d="M93.1356 107.39C91.436 105.7 88.6366 105.7 85.7372 105.799C82.1379 105.899 78.3387 105.998 75.8392 102.915C74.6395 101.523 73.9396 99.5336 73.9396 97.6441C73.9396 96.1523 74.3395 94.561 75.4393 93.3676L76.739 94.561C76.0392 95.3566 75.7392 96.4506 75.7392 97.5446C75.7392 99.0364 76.3391 100.628 77.2389 101.722C79.2385 104.108 82.5378 104.108 85.8371 104.009C88.5365 103.91 91.236 103.91 93.3355 105.103C93.1356 105.899 93.1356 106.595 93.1356 107.39Z" stroke="#2B3640" stroke-width="0.486325" stroke-miterlimit="10" stroke-linecap="round" stroke-linejoin="round"/>
<path d="M31.8484 1.77246L21.9672 2.46986L27.5118 10.6786L31.8484 1.77246ZM7.69882 39.1903C7.65704 39.6623 8.00576 40.0787 8.4777 40.1205C8.94965 40.1623 9.3661 39.8136 9.40787 39.3416L7.69882 39.1903ZM24.8888 5.44521C16.0807 13.038 8.84885 26.1981 7.69882 39.1903L9.40787 39.3416C10.5172 26.8093 17.5275 14.0561 26.0091 6.74476L24.8888 5.44521Z" fill="#25A5F0"/>
</g>
</g>
</svg>
