<svg width="169" height="118" viewBox="0 0 169 118" fill="none" xmlns="http://www.w3.org/2000/svg">
<mask id="mask0" mask-type="alpha" maskUnits="userSpaceOnUse" x="0" y="0" width="169" height="118">
<rect width="169" height="118" fill="#C4C4C4"/>
</mask>
<g mask="url(#mask0)">
<path d="M84.6673 52.1373C85.6324 48.1783 86.1588 44.1312 86.071 40.0842C86.071 38.0607 85.8956 36.0373 85.5446 34.1018C83.8777 23.8964 78.4382 14.9226 70.0159 8.94012C61.6812 3.04559 51.5042 0.758166 41.4149 1.90188C37.4669 2.34177 33.5189 3.30951 29.8341 4.62917C24.4824 6.65267 19.3939 9.5559 15.0072 13.163C12.463 15.2745 10.2696 17.6499 8.3395 20.3773C1.32085 30.4067 -0.0828756 42.9875 3.60192 54.5126C4.21605 56.4482 4.9179 58.2957 5.88297 60.3192C8.42723 65.5099 11.8488 70.2607 16.06 74.1318C18.4288 76.4192 21.1485 78.4426 23.956 80.1142C36.765 87.7683 52.8202 88.5601 65.6292 80.0263C67.0329 79.0585 68.4367 78.0028 69.6649 76.8591C70.1036 76.5072 70.2791 76.2432 70.7178 75.8913C74.1393 72.5482 77.0345 68.9411 79.4033 64.8941C81.6844 61.0231 83.5268 56.6242 84.6673 52.1373Z" fill="#F0F6FA" stroke="#2B3640" stroke-width="1.0345" stroke-miterlimit="10" stroke-linecap="round" stroke-linejoin="round"/>
<path d="M65.8927 31.4627L63.5239 28.6474L60.8041 25.0403L58.874 22.313L59.225 22.049C59.7513 21.6971 60.2777 21.2573 60.8041 20.9054C61.3305 20.4655 61.8569 20.1135 62.3833 19.6737L63.0852 19.0579C63.0852 19.0579 63.1729 18.9698 63.2607 18.9698C63.7871 19.7616 64.4012 20.6414 65.0153 21.4332C65.6295 22.225 66.1559 23.0168 66.77 23.7206C67.3841 24.5124 67.9105 25.3042 68.5247 26.008C69.0511 26.7118 69.8407 27.5916 70.3671 28.2075C69.7529 28.5594 68.7879 29.2632 68.4369 29.5271C67.4719 30.143 66.6823 30.7589 65.8927 31.4627Z" fill="#F0F6FA"/>
<path d="M65.8927 31.4627L63.5239 28.6474L60.8041 25.0403L58.874 22.313L59.225 22.049C59.7513 21.6971 60.2777 21.2573 60.8041 20.9054C61.3305 20.4655 61.8569 20.1135 62.3833 19.6737L63.0852 19.0579C63.0852 19.0579 63.1729 18.9698 63.2607 18.9698C63.7871 19.7616 64.4012 20.6414 65.0153 21.4332C65.6295 22.225 66.1559 23.0168 66.77 23.7206C67.3841 24.5124 67.9105 25.3042 68.5247 26.008C69.0511 26.7118 69.8407 27.5916 70.3671 28.2075C69.7529 28.5594 68.7879 29.2632 68.4369 29.5271C67.4719 30.143 66.6823 30.7589 65.8927 31.4627Z" stroke="#2B3640" stroke-width="0.645273" stroke-miterlimit="10" stroke-linecap="round" stroke-linejoin="round"/>
<path d="M13.6912 14.3073C12.6384 15.363 11.5856 16.5068 10.796 17.8264C9.91867 19.1461 9.21681 20.5537 8.60268 21.9614C7.98855 23.457 7.54987 25.0406 7.19894 26.6242C6.84801 28.2958 6.67255 30.0553 6.67255 31.7269C6.58482 35.422 7.11121 39.2051 8.07627 42.8122C8.60267 44.7477 9.2168 46.6832 10.0064 48.5308C10.796 50.4663 11.6733 52.3137 12.6384 54.1613C14.6563 57.8563 17.2005 61.3755 20.008 64.6307C22.8154 67.7979 25.9738 70.7012 29.4832 73.2526C31.1501 74.4842 32.9048 75.6279 34.7472 76.5957C36.5018 77.5634 38.2565 78.4432 40.1866 79.235C43.6082 80.6426 47.293 81.6105 51.1532 82.0503C57.7332 82.6662 64.4009 81.3465 69.5772 77.0355" stroke="#2B3640" stroke-width="0.24668" stroke-miterlimit="22.9256"/>
<path d="M51.8551 7.88346C50.2759 8.85122 49.1353 10.1709 48.1703 11.7545C47.6439 12.7223 47.7316 13.778 48.1703 14.8337C49.0476 16.8572 51.5041 18.8808 53.4342 20.0245C54.9257 20.9042 56.5926 20.8162 57.47 19.2326C57.6454 18.3529 57.9086 17.561 58.6982 17.1211C59.4878 16.5933 60.4529 16.6812 61.418 16.7692C64.2254 16.1534 65.366 12.2824 64.05 9.81904C62.9094 7.61959 60.1897 6.29984 57.8209 6.21186C55.8908 6.0359 53.4343 6.9157 51.8551 7.88346Z" fill="#F0F6FA"/>
<path d="M51.8551 7.88346C50.2759 8.85122 49.1353 10.1709 48.1703 11.7545C47.6439 12.7223 47.7316 13.778 48.1703 14.8337C49.0476 16.8572 51.5041 18.8808 53.4342 20.0245C54.9257 20.9042 56.5926 20.8162 57.47 19.2326C57.6454 18.3529 57.9086 17.561 58.6982 17.1211C59.4878 16.5933 60.4529 16.6812 61.418 16.7692C64.2254 16.1534 65.366 12.2824 64.05 9.81904C62.9094 7.61959 60.1897 6.29984 57.8209 6.21186C55.8908 6.0359 53.4343 6.9157 51.8551 7.88346Z" stroke="#2B3640" stroke-width="0.645273" stroke-miterlimit="10" stroke-linecap="round" stroke-linejoin="round"/>
<path d="M72.999 48.5303C72.999 48.6184 72.999 48.6184 72.999 48.7065" stroke="#2B3640" stroke-width="0.322693" stroke-miterlimit="10" stroke-linecap="round" stroke-linejoin="round"/>
<path d="M73.0864 48.9703C73.0864 49.0586 73.0864 49.0586 73.0864 48.9703" stroke="#2B3640" stroke-width="0.322693" stroke-miterlimit="10" stroke-linecap="round" stroke-linejoin="round"/>
<path d="M79.5786 46.5067C79.5786 46.4184 79.5786 46.4184 79.5786 46.5067" stroke="#2B3640" stroke-width="0.322693" stroke-miterlimit="10" stroke-linecap="round" stroke-linejoin="round"/>
<path d="M79.667 46.4186C79.667 46.4186 79.667 46.3321 79.667 46.4186" stroke="#2B3640" stroke-width="0.322693" stroke-miterlimit="10" stroke-linecap="round" stroke-linejoin="round"/>
<path d="M81.5967 38.2362C81.7717 37.9723 81.8592 37.7084 81.9467 37.4445" stroke="#2B3640" stroke-width="0.322693" stroke-miterlimit="10" stroke-linecap="round" stroke-linejoin="round"/>
<path d="M71.5944 42.0198C71.5067 41.5799 71.4189 41.052 71.4189 40.6122C71.4189 40.1723 71.4189 39.7324 71.4189 39.2925C71.5067 38.5887 71.7699 37.9728 72.384 37.5329C73.7877 36.5652 75.1038 35.6853 76.5075 34.8055C77.9112 33.9257 79.5781 34.4536 80.5432 35.6853C81.1573 36.4771 81.4205 37.3569 81.596 38.2367C81.8592 39.5564 82.1224 40.9641 82.2101 42.3717C82.2101 42.7236 82.2101 43.0755 82.2101 43.4274C82.2101 43.5154 82.0347 44.7471 81.6837 45.7148C81.1573 47.0345 80.3677 47.6504 79.2272 48.5302C78.3499 49.234 76.6829 50.1138 76.4197 50.2897C75.3669 50.8176 74.1387 50.7295 73.4368 49.7618C73.1736 49.4099 73.0859 49.058 72.9982 48.6181C72.9104 47.7384 72.7349 47.0346 72.6472 46.3307C72.6472 46.2427 72.6472 46.1547 72.5595 46.0668C72.4718 45.5389 72.384 45.099 72.2085 44.5712C72.2085 44.4832 72.1208 44.3952 72.1208 44.2192C71.9454 43.4274 71.7699 42.7236 71.5944 42.0198Z" fill="#F0F6FA"/>
<path d="M71.5944 42.0198C71.5067 41.5799 71.4189 41.052 71.4189 40.6122C71.4189 40.1723 71.4189 39.7324 71.4189 39.2925C71.5067 38.5887 71.7699 37.9728 72.384 37.5329C73.7877 36.5652 75.1038 35.6853 76.5075 34.8055C77.9112 33.9257 79.5781 34.4536 80.5432 35.6853C81.1573 36.4771 81.4205 37.3569 81.596 38.2367C81.8592 39.5564 82.1224 40.9641 82.2101 42.3717C82.2101 42.7236 82.2101 43.0755 82.2101 43.4274C82.2101 43.5154 82.0347 44.7471 81.6837 45.7148C81.1573 47.0345 80.3677 47.6504 79.2272 48.5302C78.3499 49.234 76.6829 50.1138 76.4197 50.2897C75.3669 50.8176 74.1387 50.7295 73.4368 49.7618C73.1736 49.4099 73.0859 49.058 72.9982 48.6181C72.9104 47.7384 72.7349 47.0346 72.6472 46.3307C72.6472 46.2427 72.6472 46.1547 72.5595 46.0668C72.4718 45.5389 72.384 45.099 72.2085 44.5712C72.2085 44.4832 72.1208 44.3952 72.1208 44.2192C71.9454 43.4274 71.7699 42.7236 71.5944 42.0198Z" stroke="#2B3640" stroke-width="0.645273" stroke-miterlimit="10" stroke-linecap="round" stroke-linejoin="round"/>
<path d="M81.9474 37.4438C83.5266 33.5727 83.2634 29.1739 82.0351 25.3029C79.8418 18.4406 74.6655 12.2821 68.5242 8.76296C63.348 5.85969 56.417 4.36407 51.153 7.88318C44.8362 12.1061 45.0994 20.6401 47.6437 26.9745C51.4162 36.3001 61.8565 45.5377 72.2967 44.482" stroke="#2B3640" stroke-width="0.322693" stroke-miterlimit="10" stroke-linecap="round" stroke-linejoin="round"/>
<path d="M69.3145 44.483C69.753 44.483 70.1915 44.5706 70.63 44.5706" stroke="#2B3640" stroke-width="0.322693" stroke-miterlimit="10" stroke-linecap="round" stroke-linejoin="round"/>
<path d="M70.7176 32.6945C69.6648 33.3983 68.3488 33.2223 67.2083 32.7824C66.7696 32.6065 66.2432 31.9906 65.8923 31.6387C65.8045 31.5507 65.8045 31.4628 65.8045 31.3748C66.5941 30.7589 67.3837 30.055 68.261 29.5272C68.6997 29.1752 70.0157 28.2075 70.5421 28.0316C70.7176 27.9436 70.8053 27.9436 70.9808 28.1195L71.5949 28.9114C71.6826 29.1753 71.7704 29.1753 71.7704 29.4392C71.9458 30.6709 71.7704 31.9906 70.7176 32.6945ZM58.3472 21.7852C58.084 21.4332 57.9085 21.0813 57.7331 20.6414C57.5576 20.3775 57.5576 20.2015 57.5576 19.8496C57.5576 18.9698 57.7331 17.8261 58.5227 17.2102C59.4 16.4184 61.0669 16.5065 62.1197 16.8584C62.4707 16.9464 62.5584 17.0344 62.9093 17.2983L63.5235 18.09C63.6112 18.178 63.6112 18.266 63.5235 18.354C63.5235 18.53 63.1725 18.7939 62.9971 18.8818L62.2952 19.4978C61.7688 19.9376 61.2424 20.2895 60.716 20.7294C60.1896 21.1693 59.6632 21.5212 59.1368 21.8731L58.7859 22.1371L58.6104 21.8731C58.6104 21.7851 58.6104 21.7852 58.6104 21.7852H58.5227C58.435 21.8731 58.4349 21.8731 58.3472 21.7852Z" fill="#F0F6FA"/>
<path d="M70.7176 32.6945C69.6648 33.3983 68.3488 33.2223 67.2083 32.7824C66.7696 32.6065 66.2432 31.9906 65.8923 31.6387C65.8045 31.5507 65.8045 31.4628 65.8045 31.3748C66.5941 30.7589 67.3837 30.055 68.261 29.5272C68.6997 29.1752 70.0157 28.2075 70.5421 28.0316C70.7176 27.9436 70.8053 27.9436 70.9808 28.1195L71.5949 28.9114C71.6826 29.1753 71.7704 29.1753 71.7704 29.4392C71.9458 30.6709 71.7704 31.9906 70.7176 32.6945ZM58.3472 21.7852C58.084 21.4332 57.9085 21.0813 57.7331 20.6414C57.5576 20.3775 57.5576 20.2015 57.5576 19.8496C57.5576 18.9698 57.7331 17.8261 58.5227 17.2102C59.4 16.4184 61.0669 16.5065 62.1197 16.8584C62.4707 16.9464 62.5584 17.0344 62.9093 17.2983L63.5235 18.09C63.6112 18.178 63.6112 18.266 63.5235 18.354C63.5235 18.53 63.1725 18.7939 62.9971 18.8818L62.2952 19.4978C61.7688 19.9376 61.2424 20.2895 60.716 20.7294C60.1896 21.1693 59.6632 21.5212 59.1368 21.8731L58.7859 22.1371L58.6104 21.8731C58.6104 21.7851 58.6104 21.7852 58.6104 21.7852H58.5227C58.435 21.8731 58.4349 21.8731 58.3472 21.7852Z" stroke="#2B3640" stroke-width="0.645273" stroke-miterlimit="10" stroke-linecap="round" stroke-linejoin="round"/>
<path d="M64.7515 35.8608H64.8402" stroke="#2B3640" stroke-width="0.322693" stroke-miterlimit="10" stroke-linecap="round" stroke-linejoin="round"/>
<path d="M73.438 48.7056C73.438 48.7938 73.438 48.7938 73.438 48.7056" stroke="#2B3640" stroke-width="0.322693" stroke-miterlimit="10" stroke-linecap="round" stroke-linejoin="round"/>
<path d="M106.162 55.7435C104.583 54.4238 103.004 53.456 101.512 52.7522C97.6519 50.9047 93.7916 50.2889 89.405 48.0894C85.5447 46.0659 82.5618 44.5703 79.6666 41.2271C79.4034 41.491 79.1402 41.579 78.7893 41.667L78.1751 42.1948C78.0874 42.1948 78.0874 42.2828 78.0874 42.2828C81.1581 45.8899 84.4042 48.0014 88.5276 49.7609C89.1418 50.0249 90.9842 50.9047 92.2124 51.2566C94.669 51.6085 97.0378 52.1364 98.8802 52.7522C102.214 53.9839 104.671 55.8315 106.425 57.4151C106.337 56.8872 106.25 56.3593 106.162 55.7435Z" fill="#F0F6FA"/>
<path d="M106.162 55.7435C104.583 54.4238 103.004 53.456 101.512 52.7522C97.6519 50.9047 93.7916 50.2889 89.405 48.0894C85.5447 46.0659 82.5618 44.5703 79.6666 41.2271C79.4034 41.491 79.1402 41.579 78.7893 41.667L78.1751 42.1948C78.0874 42.1948 78.0874 42.2828 78.0874 42.2828C81.1581 45.8899 84.4042 48.0014 88.5276 49.7609C89.1418 50.0249 90.9842 50.9047 92.2124 51.2566C94.669 51.6085 97.0378 52.1364 98.8802 52.7522C102.214 53.9839 104.671 55.8315 106.425 57.4151C106.337 56.8872 106.25 56.3593 106.162 55.7435Z" stroke="#2B3640" stroke-width="0.645273" stroke-miterlimit="10" stroke-linecap="round" stroke-linejoin="round"/>
<path d="M53.435 8.76424C51.5926 9.64402 49.6625 11.3156 48.8729 13.1631C48.171 14.6588 50.1012 16.7703 51.2417 17.826C51.8558 18.4419 52.5577 18.8817 53.1718 19.3216C53.6105 19.5855 53.9614 19.7615 54.5756 19.7615C55.1897 19.7615 55.6284 19.3216 55.8916 18.7938C56.6812 17.4741 57.8217 16.5943 59.3132 16.1544C60.1027 15.8905 60.8046 15.9784 61.4187 15.3626C62.2961 14.6588 62.647 13.6031 62.8225 12.4594C62.9979 10.8758 62.1206 9.46809 60.8046 8.67629C58.4358 7.26864 55.8038 7.62053 53.435 8.76424Z" stroke="#2B3640" stroke-width="0.322693" stroke-miterlimit="10" stroke-linecap="round" stroke-linejoin="round"/>
<path d="M48.7847 14.5694C48.7847 14.3934 48.7847 14.1295 48.8724 13.9536C48.9601 13.7776 48.9601 13.6017 49.1356 13.4257M59.839 15.6252C59.4881 15.7132 59.2249 15.7131 58.874 15.8011C58.6108 15.8891 58.2598 15.9771 57.9966 16.153C57.7334 16.241 57.4703 16.417 57.2071 16.5929C56.9439 16.7689 56.7684 16.9448 56.5052 17.1208L59.839 15.6252ZM56.5052 17.1208C56.242 17.2967 56.0665 17.5607 55.8911 17.7367C55.7156 18.0006 55.5401 18.2645 55.3647 18.5284L56.5052 17.1208ZM55.4524 18.5284C55.4524 18.6164 55.3647 18.6164 55.3647 18.7044C55.2769 18.8804 55.1892 18.9684 55.0137 19.0564L55.4524 18.5284ZM55.0137 19.0564C54.926 19.1443 54.8382 19.2322 54.7505 19.3202C54.6628 19.4082 54.4873 19.4083 54.3996 19.4962C54.1364 19.5842 53.8732 19.6722 53.61 19.6722L55.0137 19.0564ZM60.9796 15.0973C60.8041 15.2733 60.6286 15.3612 60.4532 15.4492C60.2777 15.5372 60.0145 15.6252 59.839 15.6252L60.9796 15.0973ZM56.6807 8.41094C57.0316 8.32296 57.4702 8.41102 57.8212 8.499C57.9966 8.499 58.1721 8.58693 58.4353 8.67491C58.6108 8.76289 58.7862 8.85091 59.0494 8.93889C59.4004 9.11485 59.839 9.46667 60.1022 9.73061C60.4532 10.0825 60.7164 10.4345 60.9796 10.7864C61.2428 11.1383 61.4182 11.5781 61.5937 11.9301C61.6814 12.282 61.7692 12.7219 61.7692 13.1618C61.7692 13.3377 61.7692 13.5137 61.7692 13.6896C61.7692 13.8656 61.6814 14.0416 61.5937 14.2176C61.506 14.3935 61.4182 14.4815 61.3305 14.6575C61.2428 14.8334 61.155 14.9213 60.9796 15.0093L56.6807 8.41094ZM51.2412 10.8744C51.5921 10.5224 52.0308 10.2585 52.3817 9.99458C52.8204 9.73065 53.2591 9.46667 53.6977 9.29072C54.1364 9.11476 54.6628 8.93882 55.1014 8.76287C55.6278 8.58691 56.1542 8.49891 56.5929 8.41094L51.2412 10.8744ZM49.1356 13.5137C49.3988 12.9858 49.7497 12.546 50.1007 12.1061C50.4516 11.6662 50.8025 11.2263 51.2412 10.8744L49.1356 13.5137Z" stroke="#2B3640" stroke-width="0.322693" stroke-miterlimit="10" stroke-linecap="round" stroke-linejoin="round"/>
<path d="M72.6479 45.9782C72.6479 45.8022 73.8762 44.9224 74.1394 44.8344C75.8064 46.7699 77.4733 47.8257 79.8421 48.7934C85.1938 50.9049 93.7039 50.9049 98.9679 52.8404C102.302 54.0721 104.758 55.9197 106.513 57.5033C106.688 58.559 106.864 59.5268 107.039 60.5825C105.811 59.1748 103.355 56.7994 98.4415 54.5999C93.5285 52.4005 84.7551 52.6644 79.5789 50.6409C77.1224 49.6732 75.7186 48.7934 73.7008 47.1218C73.3498 46.7699 72.9989 46.3301 72.6479 45.9782Z" fill="#F0F6FA"/>
<path d="M72.6479 45.9782C72.6479 45.8022 73.8762 44.9224 74.1394 44.8344C75.8064 46.7699 77.4733 47.8257 79.8421 48.7934C85.1938 50.9049 93.7039 50.9049 98.9679 52.8404C102.302 54.0721 104.758 55.9197 106.513 57.5033C106.688 58.559 106.864 59.5268 107.039 60.5825C105.811 59.1748 103.355 56.7994 98.4415 54.5999C93.5285 52.4005 84.7551 52.6644 79.5789 50.6409C77.1224 49.6732 75.7186 48.7934 73.7008 47.1218C73.3498 46.7699 72.9989 46.3301 72.6479 45.9782Z" stroke="#2B3640" stroke-width="0.645273" stroke-miterlimit="10" stroke-linecap="round" stroke-linejoin="round"/>
<path d="M72.999 48.4418V48.5306" stroke="#2B3640" stroke-width="0.322693" stroke-miterlimit="10" stroke-linecap="round" stroke-linejoin="round"/>
<path d="M73.0867 38.3241L73.5253 38.0602C73.7008 37.9723 73.964 37.7963 74.1395 37.7963C74.4027 37.7083 74.6659 37.7083 74.9291 37.7083C75.1923 37.7083 75.4555 37.7963 75.7187 37.7963C75.9819 37.8842 76.2451 37.9722 76.596 38.1482M74.8413 48.0898L73.6131 48.8815L73.4376 48.7056L74.6659 47.9137L74.8413 48.0898ZM72.999 47.7378C73.0867 47.3859 73.5253 47.21 73.8763 47.2979L72.999 47.7378ZM73.1744 48.7056C73.5253 49.2334 74.3149 49.6733 74.9291 49.4974C75.4555 49.4094 75.6309 48.9695 75.4555 48.5296L73.1744 48.7056ZM76.4205 42.2831C77.5611 44.1307 78.3507 46.0662 78.6139 48.1777L76.4205 42.2831ZM72.9112 38.1482C73.6131 38.764 74.2272 39.3799 74.8413 40.0837L72.9112 38.1482ZM73.964 39.9957C73.4376 39.4679 72.9989 38.94 72.3848 38.5001L73.964 39.9957ZM72.9112 38.1482C72.7357 38.2362 72.5603 38.3242 72.4725 38.5001L71.5952 39.3799L72.9112 38.1482ZM77.912 47.8258C77.6488 46.1542 77.0347 44.5706 76.1573 43.0749L77.912 47.8258ZM75.1923 39.5558C75.1045 39.5558 75.1045 39.5558 75.0168 39.5558C74.8413 39.5558 74.6659 39.4679 74.4904 39.5558C74.4027 39.5558 74.4027 39.5558 74.3149 39.5558H75.1923ZM77.5611 44.4826C77.9997 44.1307 78.6139 44.3947 79.0525 44.6586C79.3157 44.8346 79.6667 45.1865 79.7544 45.5384C79.8421 45.8023 79.8421 46.1542 79.5789 46.4182C79.4035 46.5941 79.3157 46.5941 79.0525 46.5941C78.7016 46.5941 78.4384 46.5061 78.0875 46.4182L77.5611 44.4826ZM78.0875 45.9783L78.6139 45.6263L79.3157 46.3302L79.4912 46.2421L78.7893 45.5384L79.4035 45.1864L79.228 45.0105L78.6139 45.3624L77.9997 44.6586L77.8243 44.7466L78.4384 45.4504L78.0875 45.7143V45.9783ZM80.3685 47.3859C80.1931 47.034 80.0176 46.6821 79.8421 46.3302L80.3685 47.3859ZM79.0525 44.6586C78.7893 43.9548 78.3507 43.075 77.9997 42.3712L79.0525 44.6586Z" stroke="#2B3640" stroke-width="0.322693" stroke-miterlimit="10" stroke-linecap="round" stroke-linejoin="round"/>
<path d="M79.8426 46.3317L79.7539 46.2429" stroke="#2B3640" stroke-width="0.322693" stroke-miterlimit="10" stroke-linecap="round" stroke-linejoin="round"/>
<path d="M76.3331 42.635C76.3331 42.9869 76.1577 43.3388 75.8945 43.6028L75.1926 44.3066C74.5785 44.8345 73.7889 44.6585 73.1747 44.3066C72.6483 43.9547 72.2097 43.5149 72.0342 42.899C71.771 42.2832 71.771 41.4914 72.2974 41.0515L72.9993 40.3476C73.2625 40.0837 73.6134 39.9957 74.0521 39.9957C74.5785 39.9077 75.1049 40.1716 75.5435 40.5235C76.0699 40.9634 76.5086 41.8432 76.3331 42.635ZM80.7198 39.7318C80.7198 40.0837 80.5443 40.4356 80.2811 40.6996L79.5793 41.4033C79.2283 41.6673 78.7897 41.7553 78.351 41.6673C77.7369 41.5793 77.1227 41.1395 76.7718 40.6116C76.4209 40.1717 76.2454 39.6438 76.1577 39.1159C76.1577 38.676 76.2454 38.2362 76.5963 37.9723L77.2982 37.2684C77.5614 37.0045 77.9123 36.9165 78.351 36.9165C78.8774 36.8285 79.4038 37.0924 79.8425 37.4443C80.4566 38.0602 80.8953 38.94 80.7198 39.7318Z" fill="#F0F6FA"/>
<path d="M76.3331 42.635C76.3331 42.9869 76.1577 43.3388 75.8945 43.6028L75.1926 44.3066C74.5785 44.8345 73.7889 44.6585 73.1747 44.3066C72.6483 43.9547 72.2097 43.5149 72.0342 42.899C71.771 42.2832 71.771 41.4914 72.2974 41.0515L72.9993 40.3476C73.2625 40.0837 73.6134 39.9957 74.0521 39.9957C74.5785 39.9077 75.1049 40.1716 75.5435 40.5235C76.0699 40.9634 76.5086 41.8432 76.3331 42.635ZM80.7198 39.7318C80.7198 40.0837 80.5443 40.4356 80.2811 40.6996L79.5793 41.4033C79.2283 41.6673 78.7897 41.7553 78.351 41.6673C77.7369 41.5793 77.1227 41.1395 76.7718 40.6116C76.4209 40.1717 76.2454 39.6438 76.1577 39.1159C76.1577 38.676 76.2454 38.2362 76.5963 37.9723L77.2982 37.2684C77.5614 37.0045 77.9123 36.9165 78.351 36.9165C78.8774 36.8285 79.4038 37.0924 79.8425 37.4443C80.4566 38.0602 80.8953 38.94 80.7198 39.7318Z" stroke="#2B3640" stroke-width="0.322693" stroke-miterlimit="10" stroke-linecap="round" stroke-linejoin="round"/>
<path d="M76.2446 38.6768L75.3672 39.4685L74.8408 39.9963M76.9464 43.2511C77.0342 43.2511 77.1219 43.1631 77.2096 43.0751L77.2974 42.9872C77.5606 42.8112 77.736 42.5474 77.9115 42.3714C77.9992 42.2835 78.087 42.2834 78.1747 42.1955L78.7011 41.6677L76.9464 43.2511Z" stroke="#2B3640" stroke-width="0.322693" stroke-miterlimit="10" stroke-linecap="round" stroke-linejoin="round"/>
<path d="M75.8066 40.7878L76.0698 40.6119C76.2452 40.436 76.5083 40.5239 76.6837 40.7878C76.8591 40.9637 76.8591 41.3157 76.6837 41.4916L76.3329 41.8434M76.0698 40.6119C76.2452 40.436 76.5083 40.6119 76.596 40.7878C76.6837 40.9637 76.7714 41.2276 76.596 41.4035C76.4206 41.4915 76.1575 41.4036 76.0698 41.2276C75.9821 41.0517 75.8944 40.7879 76.0698 40.6119Z" stroke="#2B3640" stroke-width="0.322693" stroke-miterlimit="10" stroke-linecap="round" stroke-linejoin="round"/>
<path d="M74.403 44.5709L74.1398 44.8348M71.771 41.668L71.5078 41.932L71.771 41.668Z" stroke="#2B3640" stroke-width="0.322693" stroke-miterlimit="10" stroke-linecap="round" stroke-linejoin="round"/>
<path d="M72.2974 43.5145C72.2974 43.6027 72.2974 43.6027 72.2974 43.5145" stroke="#2B3640" stroke-width="0.322693" stroke-miterlimit="10" stroke-linecap="round" stroke-linejoin="round"/>
<path d="M75.0166 44.3944C75.1041 44.3944 75.1041 44.3069 75.1916 44.3069" stroke="#2B3640" stroke-width="0.322693" stroke-miterlimit="10" stroke-linecap="round" stroke-linejoin="round"/>
<path d="M78 42.2842C78 42.2842 78.0865 42.2842 78 42.2842" stroke="#2B3640" stroke-width="0.322693" stroke-miterlimit="10" stroke-linecap="round" stroke-linejoin="round"/>
<path d="M76.6826 40.6119C76.6826 40.6119 76.7691 40.6119 76.6826 40.6119" stroke="#2B3640" stroke-width="0.322693" stroke-miterlimit="10" stroke-linecap="round" stroke-linejoin="round"/>
<path d="M77.6492 42.7235C77.5614 42.7235 77.386 42.9875 77.2983 42.8995C77.2983 42.8116 77.4737 42.6356 77.5614 42.6356C77.7369 42.5476 77.9123 42.4597 78.0877 42.3718" stroke="#2B3640" stroke-width="0.322693" stroke-miterlimit="10" stroke-linecap="round" stroke-linejoin="round"/>
<path d="M77.4728 39.9076C77.2974 39.7317 77.2097 39.4677 77.0343 39.2038C76.9466 39.1159 76.9466 38.94 76.9466 38.8521C76.9466 38.7641 76.8589 38.5881 76.8589 38.5002C76.8589 38.4122 76.8589 38.2363 76.8589 38.1483C76.8589 38.0603 76.8589 37.9723 76.9466 37.8843C76.9466 37.7964 77.0343 37.7085 77.122 37.6205C77.2097 37.5325 77.2097 37.4445 77.2974 37.4445" stroke="#2B3640" stroke-width="0.322693" stroke-miterlimit="10" stroke-linecap="round" stroke-linejoin="round"/>
<path d="M73.7885 40.6111C73.2621 41.0509 73.613 41.8425 73.9639 42.2824C74.0516 42.4583 74.2271 42.5463 74.4026 42.6343C74.7535 42.8982 75.2799 43.0742 75.6309 42.8103C76.1573 42.3704 75.8941 41.5787 75.5431 41.1389C75.1045 40.6111 74.4026 40.2592 73.7885 40.6111ZM80.0175 39.8194C80.1052 39.7314 80.1052 39.7314 80.193 39.6434C80.4562 39.2036 80.2807 38.4999 79.9298 38.148C79.5788 37.7962 78.9647 37.3564 78.4383 37.5323C78.0874 37.6203 77.9119 37.9721 77.9996 38.412C78.0874 38.9398 78.3506 39.3796 78.7892 39.7314C79.1402 39.9953 79.5788 40.0833 80.0175 39.8194Z" stroke="#2B3640" stroke-width="0.322693" stroke-miterlimit="10" stroke-linecap="round" stroke-linejoin="round"/>
<path d="M80.2808 40.7002L80.193 40.7882C80.1053 40.7882 80.1053 40.8761 80.0176 40.8761C79.9298 40.9641 79.8421 40.964 79.6666 40.964C79.5789 40.964 79.4034 40.964 79.3157 40.964C79.228 40.964 79.0525 40.9641 78.9648 40.8761C78.7893 40.8761 78.7016 40.7882 78.6138 40.7002C78.4384 40.6122 78.3506 40.5242 78.2629 40.4363C77.9997 40.2603 77.8242 40.0845 77.561 39.8206" stroke="#2B3640" stroke-width="0.322693" stroke-miterlimit="10" stroke-linecap="round" stroke-linejoin="round"/>
<path d="M73.0871 42.8103C72.9116 42.6343 72.8239 42.3704 72.6485 42.1065C72.5608 42.0185 72.5609 41.8426 72.5609 41.7546C72.5609 41.6666 72.4731 41.4907 72.4731 41.4027C72.4731 41.3147 72.4731 41.1389 72.4731 41.0509C72.4731 40.963 72.4731 40.875 72.5609 40.787C72.5609 40.699 72.6485 40.611 72.7362 40.5231C72.824 40.4351 72.824 40.3472 72.9117 40.3472" stroke="#2B3640" stroke-width="0.322693" stroke-miterlimit="10" stroke-linecap="round" stroke-linejoin="round"/>
<path d="M75.8936 43.6028L75.8058 43.6909C75.7181 43.6909 75.7181 43.7788 75.6304 43.7788C75.5426 43.8668 75.4549 43.8667 75.2794 43.8667C75.1917 43.8667 75.0162 43.8667 74.9285 43.8667C74.753 43.8667 74.6653 43.8668 74.5776 43.7788C74.4021 43.7788 74.3144 43.6908 74.2266 43.6028C74.0512 43.5148 73.9634 43.4269 73.8757 43.339C73.6125 43.163 73.437 42.987 73.1738 42.7231" stroke="#2B3640" stroke-width="0.322693" stroke-miterlimit="10" stroke-linecap="round" stroke-linejoin="round"/>
<path d="M53.1709 19.4092C53.2586 19.4972 53.3463 19.5852 53.3463 19.6732C53.4341 19.7611 53.4341 19.9371 53.4341 20.0251C53.2586 25.1278 56.417 30.2305 60.2773 33.3097C63.7866 36.125 69.4893 38.3245 73.7004 35.5092C79.3154 31.8141 76.8588 23.5442 73.525 19.0574C71.3316 16.1541 68.0855 13.6027 64.4885 12.6349C64.0498 12.459 63.1725 12.371 62.7338 12.547" stroke="#2B3640" stroke-width="0.322693" stroke-miterlimit="10" stroke-linecap="round" stroke-linejoin="round"/>
<path d="M63.3478 18.6174C65.4534 18.9693 67.4713 20.3769 68.7873 22.0485C70.1033 23.6321 70.9806 25.8316 70.8051 27.9431M58.2593 21.9605C57.8206 24.16 58.8734 26.5354 60.1894 28.2069C61.5054 29.8785 63.5233 31.3742 65.7166 31.6381L58.2593 21.9605Z" stroke="#2B3640" stroke-width="0.322693" stroke-miterlimit="10" stroke-linecap="round" stroke-linejoin="round"/>
<path d="M71.683 28.9112C71.5953 28.8232 71.5953 28.8232 71.683 28.9112C71.5953 28.8232 71.5952 28.8232 71.5075 28.8232H71.4198C71.332 28.8232 71.3321 28.8232 71.2443 28.9112C71.1566 28.9112 71.1566 28.9992 71.0688 28.9992C70.9811 28.9992 70.8934 29.0871 70.8934 29.0871C70.7179 29.1751 70.5424 29.2631 70.4547 29.3511C70.1915 29.527 69.8406 29.7909 69.5774 29.9669C69.2264 30.2308 68.9633 30.4948 68.6123 30.7587C67.9982 31.2866 67.3841 31.9024 66.7699 32.5183M58.4353 21.6971C59.2249 20.9932 60.1022 20.3773 60.8918 19.7615C61.2427 19.4975 62.9974 18.2659 63.3483 18.1779C63.3483 18.1779 63.3483 18.1779 63.4361 18.1779L58.4353 21.6971ZM57.7334 20.7292C59.4003 19.6735 61.155 18.6178 62.8219 17.3861L57.7334 20.7292Z" stroke="#2B3640" stroke-width="0.322693" stroke-miterlimit="10" stroke-linecap="round" stroke-linejoin="round"/>
<path d="M67.384 30.2306L65.9803 31.2863L59.0493 22.3126L60.4531 21.3448L67.384 30.2306Z" stroke="#2B3640" stroke-width="0.322693" stroke-miterlimit="10" stroke-linecap="round" stroke-linejoin="round"/>
<path d="M69.402 28.7343L62.3833 19.6725" stroke="#2B3640" stroke-width="0.322693" stroke-miterlimit="10" stroke-linecap="round" stroke-linejoin="round"/>
<path d="M92.4753 53.016C87.8255 60.7581 77.8239 63.3094 70.1034 58.7346C62.3829 54.0717 59.8386 44.0422 64.4007 36.3002C69.0506 28.5581 79.0522 26.0068 86.7727 30.5816C94.5809 35.1565 97.1252 45.186 92.4753 53.016Z" stroke="#2B3640" stroke-width="0.683063" stroke-miterlimit="10" stroke-linecap="round"/>
<path d="M104.407 48.2662C107.127 48.1783 109.408 47.1225 109.32 46.1547L108.619 32.7821C108.619 32.6062 108.531 32.4302 108.268 32.2543C107.39 31.5505 105.636 31.3745 104.583 31.3745C103.618 31.3745 102.39 31.4624 101.512 31.7263L101.161 31.6384L99.582 32.2543V32.7821C99.4066 32.9581 99.3188 33.134 99.3188 33.3979L99.8452 46.9466C99.8452 47.8263 101.424 48.0903 102.039 48.2662C102.828 48.2662 103.618 48.2662 104.407 48.2662Z" fill="#F0F6FA"/>
<path d="M104.407 48.2662C107.127 48.1783 109.408 47.1225 109.32 46.1547L108.619 32.7821C108.619 32.6062 108.531 32.4302 108.268 32.2543C107.39 31.5505 105.636 31.3745 104.583 31.3745C103.618 31.3745 102.39 31.4624 101.512 31.7263L101.161 31.6384L99.582 32.2543V32.7821C99.4066 32.9581 99.3188 33.134 99.3188 33.3979L99.8452 46.9466C99.8452 47.8263 101.424 48.0903 102.039 48.2662C102.828 48.2662 103.618 48.2662 104.407 48.2662Z" stroke="#2B3640" stroke-width="0.645273" stroke-miterlimit="10" stroke-linecap="round" stroke-linejoin="round"/>
<path d="M109.321 36.6522L106.864 34.6289C106.513 34.365 106.338 34.453 105.987 34.541C104.495 34.8049 102.916 34.8928 101.425 34.7168C100.811 34.6289 99.2314 34.277 99.2314 33.3974C99.2314 32.9575 99.6701 32.6936 100.021 32.5177L99.5824 32.3418L101.162 31.726L101.513 31.814C102.39 31.5501 103.618 31.4622 104.583 31.4622C105.636 31.4622 107.391 31.6381 108.268 32.3418C108.707 32.6937 108.707 33.1335 108.268 33.5734C108.18 33.6613 108.092 33.7492 108.005 33.7492C107.917 33.7492 107.829 33.8372 107.829 33.9251C107.829 34.0131 107.917 34.1011 108.005 34.1891L110.549 36.3003C110.198 36.3003 109.847 36.3882 109.496 36.5641C109.496 36.5641 109.408 36.5642 109.321 36.6522Z" fill="#F0F6FA"/>
<path d="M109.321 36.6522L106.864 34.6289C106.513 34.365 106.338 34.453 105.987 34.541C104.495 34.8049 102.916 34.8928 101.425 34.7168C100.811 34.6289 99.2314 34.277 99.2314 33.3974C99.2314 32.9575 99.6701 32.6936 100.021 32.5177L99.5824 32.3418L101.162 31.726L101.513 31.814C102.39 31.5501 103.618 31.4622 104.583 31.4622C105.636 31.4622 107.391 31.6381 108.268 32.3418C108.707 32.6937 108.707 33.1335 108.268 33.5734C108.18 33.6613 108.092 33.7492 108.005 33.7492C107.917 33.7492 107.829 33.8372 107.829 33.9251C107.829 34.0131 107.917 34.1011 108.005 34.1891L110.549 36.3003C110.198 36.3003 109.847 36.3882 109.496 36.5641C109.496 36.5641 109.408 36.5642 109.321 36.6522Z" stroke="#2B3640" stroke-width="0.645273" stroke-miterlimit="10" stroke-linecap="round" stroke-linejoin="round"/>
<path d="M101.512 32.6943C101.249 32.9582 101.249 33.1341 101.512 33.398C102.038 33.8378 103.442 33.8378 104.056 33.8378C104.758 33.8378 105.811 33.6619 106.337 33.31C106.776 32.9582 106.776 32.6943 106.249 32.4304C105.723 32.1665 105.109 32.1664 104.583 32.0785C103.705 31.9905 102.126 32.1665 101.512 32.6943Z" stroke="#2B3640" stroke-width="0.322693" stroke-miterlimit="10" stroke-linecap="round" stroke-linejoin="round"/>
<path d="M49.9253 99.9085C50.013 100.612 50.1885 100.964 50.364 101.404C53.8733 109.938 74.0519 111.961 81.6847 112.225C93.6164 112.665 108.531 111.082 119.585 105.891C121.516 104.923 122.393 104.395 123.182 103.867C125.376 102.372 128.271 99.7326 128.534 96.4774C128.71 94.7179 128.797 93.6621 128.271 92.0785C127.043 88.6474 124.762 89.7031 123.797 83.8086C123.27 79.0578 123.358 74.131 123.007 69.2922C122.744 64.8053 122.656 60.3184 122.656 55.7436C122.744 51.0808 122.919 46.4179 122.832 41.7551C122.744 39.2917 121.252 36.2124 118.796 35.2447C117.041 34.5409 113.707 34.9808 111.953 35.5087C111.514 35.6846 111.163 35.8606 110.724 36.2125C110.198 36.2125 109.847 36.3004 109.408 36.4764C108.531 36.9163 107.654 37.4442 106.864 38.06C106.075 38.6759 105.373 39.3797 104.671 40.0835C102.741 42.2829 103.969 46.5939 104.495 49.0573C105.987 55.2157 107.303 60.4064 107.391 66.6529C107.478 71.9316 105.987 77.3862 102.653 81.5212C94.7569 80.9933 88.0892 80.9933 80.0178 81.9611C70.8058 83.1048 59.8391 85.3922 52.5573 91.6386C50.5394 93.9261 49.6621 95.2457 49.6621 98.3249C49.7498 98.9408 49.7498 99.2926 49.9253 99.9085Z" fill="#F0F6FA" stroke="#2B3640" stroke-width="1.0345" stroke-miterlimit="10" stroke-linecap="round" stroke-linejoin="round"/>
<path d="M128.622 96.3019C128.095 100.349 122.919 103.34 119.673 104.836M116.778 105.979C117.041 105.891 117.304 105.803 117.567 105.628L116.778 105.979ZM116.778 105.979C116.076 106.243 115.462 106.419 114.584 106.771C102.126 110.906 86.5099 111.874 73.7008 110.466C68.3491 109.85 51.4166 107.211 49.8374 99.6451" stroke="#2B3640" stroke-width="0.645273" stroke-miterlimit="10" stroke-linecap="round" stroke-linejoin="round"/>
<path d="M86.3345 110.906C86.5977 109.762 87.2995 109.147 88.6155 108.531C92.6513 106.771 101.863 101.317 109.057 90.6712C115.462 81.1696 116.602 68.5887 113.356 55.48C112.654 52.4888 112.128 49.0577 111.953 46.0664C111.865 44.3948 111.251 42.6352 110.286 41.3156C109.057 39.644 106.513 38.0604 104.758 39.9959" stroke="#2B3640" stroke-width="0.322693" stroke-miterlimit="10" stroke-linecap="round" stroke-linejoin="round"/>
<path d="M111.514 71.4046L111.86 46.0142" stroke="#2B3640" stroke-width="0.322693" stroke-miterlimit="10" stroke-linecap="round" stroke-linejoin="round"/>
<path d="M117.391 103.428C117.391 102.812 117.304 102.197 117.304 101.493" stroke="#2B3640" stroke-width="0.322693" stroke-miterlimit="10" stroke-linecap="round" stroke-linejoin="round"/>
<path d="M114.409 106.86C114.672 106.772 114.848 106.508 114.936 106.244C115.111 105.716 115.287 105.188 115.374 104.572C115.55 103.869 115.725 103.077 116.076 102.461C116.427 101.757 117.304 100.789 118.182 100.701C118.884 100.613 119.147 101.317 119.059 101.933C118.971 102.637 118.971 103.429 118.884 104.132" stroke="#2B3640" stroke-width="0.322693" stroke-miterlimit="10" stroke-linecap="round" stroke-linejoin="round"/>
<path d="M112.04 35.5091C113.005 35.2452 114.321 35.5091 115.11 36.1248C114.935 36.2128 114.76 36.3008 114.584 36.3008C114.058 36.4768 113.619 36.6527 113.093 36.9166C112.391 36.4767 111.601 36.2129 110.812 36.2129" stroke="#2B3640" stroke-width="0.645273" stroke-miterlimit="10" stroke-linecap="round" stroke-linejoin="round"/>
<path d="M102.828 81.345C100.109 84.3358 94.3182 85.3034 89.6683 85.7433C80.6318 86.447 71.1566 84.9516 62.3833 86.0072" stroke="#2B3640" stroke-width="0.322693" stroke-miterlimit="10" stroke-linecap="round" stroke-linejoin="round"/>
<path d="M110.461 47.65C110.461 47.65 110.549 47.474 110.549 47.386C110.637 47.1221 110.725 46.7702 110.725 46.4183C110.725 46.3303 110.725 46.3302 110.725 46.2423C110.725 46.0663 110.725 45.9783 110.725 45.8024C110.725 45.6264 110.725 45.3625 110.637 45.1866C110.637 44.9226 110.549 44.7466 110.461 44.4827C110.374 44.2188 110.374 44.0428 110.286 43.8669C110.198 43.6909 110.11 43.427 110.023 43.2511C109.935 43.0751 109.847 42.8111 109.672 42.6352C109.584 42.4592 109.409 42.2833 109.321 42.1073C109.233 41.9314 109.058 41.7554 108.882 41.6674C108.707 41.4915 108.619 41.4035 108.443 41.2276C108.268 41.0516 108.005 40.9636 107.829 40.7877C107.742 40.6997 107.654 40.6997 107.478 40.6118C107.391 40.6118 107.303 40.5237 107.127 40.5237C107.04 40.5237 106.952 40.5237 106.777 40.4357C106.689 40.4357 106.601 40.4357 106.513 40.4357C106.426 40.4357 106.338 40.4357 106.25 40.4357C106.162 40.4357 106.075 40.4357 105.987 40.5237C105.811 40.6117 105.724 40.6117 105.636 40.6997C105.548 40.7877 105.373 40.8756 105.285 40.9636C105.197 41.0516 105.11 41.1396 105.022 41.3155C104.934 41.4035 104.846 41.5795 104.759 41.6674C104.671 41.8434 104.671 41.9314 104.583 42.1073C104.495 42.2833 104.495 42.4592 104.495 42.6352C104.495 42.8111 104.408 42.9871 104.408 43.163C104.408 43.339 104.408 43.515 104.408 43.691C104.408 44.0429 104.495 44.3948 104.583 44.7467C104.671 45.0986 104.759 45.4505 104.934 45.8024C105.11 46.1543 105.285 46.5063 105.461 46.8582C105.548 47.0341 105.636 47.2101 105.811 47.2981C105.899 47.474 106.075 47.562 106.162 47.7379C106.25 47.8259 106.426 48.0019 106.513 48.0899C106.601 48.1779 106.776 48.2657 106.864 48.4417C106.952 48.5297 107.127 48.6177 107.303 48.7057C107.391 48.7937 107.566 48.7936 107.742 48.8816C107.829 48.9696 108.005 48.9697 108.18 48.9697C108.268 48.9697 108.443 48.9697 108.531 48.9697C108.619 48.9697 108.794 48.9697 108.882 48.9697C108.97 48.9697 109.145 48.8816 109.233 48.8816C109.321 48.8816 109.408 48.7937 109.496 48.7057C109.584 48.6177 109.672 48.5297 109.759 48.4417C109.847 48.3537 109.935 48.2658 110.023 48.1778C110.11 48.0899 110.286 47.8259 110.286 47.8259L110.461 47.65Z" stroke="#2B3640" stroke-width="0.645273" stroke-miterlimit="10" stroke-linecap="round" stroke-linejoin="round"/>
<path d="M115.988 102.724C115.813 103.164 115.637 103.868 115.462 104.396C116.427 104.924 117.48 105.54 118.357 106.155C122.305 108.883 125.551 112.754 129.938 115.129C134.149 117.417 137.834 118.384 142.484 119.616C142.571 119.616 142.571 119.616 142.659 119.616C142.835 119.616 142.922 119.44 143.01 119.352L143.273 119.264C143.361 119.352 143.361 119.352 143.537 119.264C143.8 119.176 143.975 118.824 143.975 118.56C143.975 118.384 143.975 118.208 143.712 118.12C139.325 116.977 134.851 115.833 130.903 113.458C126.604 110.818 123.358 107.299 119.322 104.484C118.094 103.78 117.304 103.34 115.988 102.724Z" fill="#F0F6FA"/>
<path d="M115.988 102.724C115.813 103.164 115.637 103.868 115.462 104.396C116.427 104.924 117.48 105.54 118.357 106.155C122.305 108.883 125.551 112.754 129.938 115.129C134.149 117.417 137.834 118.384 142.484 119.616C142.571 119.616 142.571 119.616 142.659 119.616C142.835 119.616 142.922 119.44 143.01 119.352L143.273 119.264C143.361 119.352 143.361 119.352 143.537 119.264C143.8 119.176 143.975 118.824 143.975 118.56C143.975 118.384 143.975 118.208 143.712 118.12C139.325 116.977 134.851 115.833 130.903 113.458C126.604 110.818 123.358 107.299 119.322 104.484C118.094 103.78 117.304 103.34 115.988 102.724Z" stroke="#2B3640" stroke-width="0.645273" stroke-miterlimit="10" stroke-linecap="round" stroke-linejoin="round"/>
<path d="M143.273 118.384C139.062 117.329 135.728 116.537 131.955 114.777C129.148 113.458 125.726 110.466 123.358 108.443C121.076 106.507 118.708 104.396 115.9 103.164M143.273 118.384L143.01 118.472C142.922 118.472 142.834 118.472 142.747 118.472M143.273 118.384C143.273 118.296 143.361 118.296 143.361 118.296L143.448 118.208C143.536 118.208 143.624 118.12 143.712 118.208M142.747 118.472C138.535 117.417 135.465 116.625 131.692 114.777C128.885 113.458 125.726 110.73 123.358 108.707C121.076 106.683 118.62 104.572 115.812 103.34M142.747 118.472C142.483 118.56 142.308 118.912 142.308 119.176C142.308 119.352 142.308 119.528 142.483 119.616" stroke="#2B3640" stroke-width="0.322693" stroke-miterlimit="10" stroke-linecap="round" stroke-linejoin="round"/>
</g>
</svg>
