<svg width="47" height="51" viewBox="0 0 47 51" fill="none" xmlns="http://www.w3.org/2000/svg">
<path d="M1.61475 13.6792L23.7835 26.1687L34.8679 19.9239L45.9523 13.6792" stroke="#222020" stroke-width="2"/>
<path d="M23.7837 49.9014V26.1714" stroke="#222020" stroke-width="2"/>
<path d="M1.61475 15.1238C1.61475 14.2324 2.09526 13.4101 2.87194 12.9726L12.6991 7.43613L22.5715 1.87421C23.3239 1.45033 24.2431 1.45033 24.9955 1.87421L44.6951 12.9726C45.4718 13.4101 45.9523 14.2324 45.9523 15.1238V35.9678C45.9523 36.8593 45.4718 37.6815 44.6951 38.1191L24.9955 49.2175C24.2431 49.6414 23.3239 49.6414 22.5715 49.2175L2.87194 38.1191C2.09526 37.6815 1.61475 36.8593 1.61475 35.9678V15.1238Z" stroke="#222020" stroke-width="2"/>
</svg>
