<svg width="50" height="53" viewBox="0 0 50 53" fill="none" xmlns="http://www.w3.org/2000/svg">
<path d="M25.9136 0.236121C25.4917 -0.120301 24.8608 -0.0672382 24.5044 0.35464C24.148 0.776519 24.201 1.40746 24.6229 1.76388L25.9136 0.236121ZM45.4438 8.91871L46.4437 8.90329C46.4361 8.40978 46.0696 7.99563 45.5807 7.92811L45.4438 8.91871ZM25.1973 51.3658L24.8795 52.314C25.0857 52.3831 25.3089 52.3831 25.5151 52.314L25.1973 51.3658ZM5.04634 8.91871L4.90953 7.92811C4.4206 7.99563 4.05407 8.40978 4.04646 8.90329L5.04634 8.91871ZM25.9112 1.7659C26.3342 1.4108 26.3893 0.780031 26.0342 0.357037C25.6791 -0.0659561 25.0483 -0.120996 24.6253 0.234102L25.9112 1.7659ZM25.2683 1C24.6229 1.76388 24.6232 1.76413 24.6235 1.76441C24.6237 1.76454 24.624 1.76484 24.6243 1.76508C24.6249 1.76558 24.6256 1.76617 24.6264 1.76685C24.628 1.76821 24.6301 1.76994 24.6326 1.77204C24.6376 1.77624 24.6445 1.7819 24.653 1.78897C24.6702 1.80313 24.6944 1.82298 24.7258 1.84819C24.7884 1.89861 24.8792 1.9705 24.9978 2.06128C25.2351 2.24282 25.5837 2.5 26.0406 2.81216C26.9541 3.43638 28.3015 4.28111 30.0575 5.18058C33.5694 6.97941 38.7208 8.99968 45.307 9.9093L45.5807 7.92811C39.2533 7.05424 34.3168 5.11515 30.9693 3.40051C29.2957 2.54324 28.0205 1.74269 27.1689 1.16083C26.7431 0.869941 26.4235 0.633876 26.2132 0.472935C26.1081 0.392471 26.0302 0.330807 25.9802 0.290485C25.9551 0.270324 25.937 0.255501 25.9259 0.246334C25.9204 0.24175 25.9166 0.238581 25.9145 0.236865C25.9135 0.236008 25.9129 0.235514 25.9127 0.235388C25.9127 0.235325 25.9127 0.235354 25.9128 0.235476C25.9129 0.235537 25.9131 0.235698 25.9132 0.235729C25.9134 0.235913 25.9136 0.236121 25.2683 1ZM45.4438 8.91871C44.444 8.93412 44.444 8.93414 44.444 8.9342C44.444 8.93427 44.444 8.93436 44.444 8.93449C44.444 8.93475 44.444 8.93515 44.444 8.93569C44.444 8.93677 44.444 8.9384 44.4441 8.94058C44.4441 8.94494 44.4442 8.95149 44.4444 8.96017C44.4446 8.97753 44.445 9.00343 44.4455 9.0374C44.4465 9.10536 44.4479 9.20564 44.4496 9.33463C44.4531 9.59264 44.4578 9.96548 44.4627 10.4243C44.4727 11.3422 44.4838 12.6036 44.4882 13.9781C44.4971 16.739 44.4789 19.9183 44.3746 21.7014L46.3712 21.8183C46.4797 19.9631 46.497 16.7218 46.4882 13.9717C46.4837 12.5907 46.4726 11.324 46.4626 10.4026C46.4576 9.9419 46.4529 9.56735 46.4494 9.30786C46.4477 9.17811 46.4463 9.07712 46.4453 9.00849C46.4448 8.97417 46.4444 8.94795 46.4441 8.93027C46.444 8.92142 46.4439 8.91472 46.4438 8.9102C46.4438 8.90795 46.4438 8.90624 46.4437 8.90508C46.4437 8.9045 46.4437 8.90406 46.4437 8.90377C46.4437 8.90362 46.4437 8.9035 46.4437 8.90342C46.4437 8.90334 46.4437 8.90329 45.4438 8.91871ZM44.3746 21.7014C44.2723 23.4496 43.8409 26.7096 42.7903 30.2887C41.7377 33.8746 40.0856 37.7052 37.585 40.6611L39.1119 41.9528C41.8619 38.7021 43.6155 34.5783 44.7093 30.8519C45.8051 27.1187 46.2606 23.7084 46.3712 21.8183L44.3746 21.7014ZM37.585 40.6611C32.4268 46.7583 27.8649 49.4171 24.8795 50.4177L25.5151 52.314C28.9156 51.1743 33.7688 48.2686 39.1119 41.9528L37.585 40.6611ZM25.5151 50.4177C22.5357 49.4191 18.0684 46.7643 12.9052 40.6611L11.3783 41.9528C16.7163 48.2626 21.473 51.1723 24.8795 52.314L25.5151 50.4177ZM12.9052 40.6611C10.4046 37.7052 8.75245 33.8746 7.69989 30.2887C6.64933 26.7096 6.21786 23.4496 6.11558 21.7014L4.119 21.8183C4.22958 23.7084 4.68505 27.1187 5.78085 30.8519C6.87464 34.5783 8.62827 38.7021 11.3783 41.9528L12.9052 40.6611ZM6.11558 21.7014C6.01126 19.9183 5.9931 16.739 6.00199 13.9781C6.00641 12.6036 6.01747 11.3422 6.02743 10.4243C6.03241 9.96548 6.03711 9.59264 6.04057 9.33463C6.04229 9.20564 6.04371 9.10536 6.04469 9.0374C6.04518 9.00343 6.04557 8.97753 6.04583 8.96017C6.04595 8.95148 6.04605 8.94494 6.04612 8.94058C6.04615 8.9384 6.04618 8.93677 6.04619 8.93569C6.0462 8.93515 6.04621 8.93475 6.04621 8.93449C6.04621 8.93436 6.04622 8.93427 6.04622 8.9342C6.04622 8.93414 6.04622 8.93412 5.04634 8.91871C4.04646 8.90329 4.04646 8.90334 4.04645 8.90342C4.04645 8.9035 4.04645 8.90362 4.04645 8.90377C4.04644 8.90406 4.04644 8.9045 4.04643 8.90508C4.04641 8.90624 4.04638 8.90795 4.04635 8.9102C4.04628 8.91472 4.04618 8.92142 4.04605 8.93027C4.04578 8.94795 4.0454 8.97417 4.0449 9.00849C4.04391 9.07712 4.04248 9.17811 4.04075 9.30786C4.03727 9.56735 4.03255 9.9419 4.02755 10.4026C4.01755 11.324 4.00644 12.5907 4.002 13.9717C3.99314 16.7218 4.01046 19.9631 4.119 21.8183L6.11558 21.7014ZM5.18315 9.9093C11.7692 8.99971 16.9317 6.9796 20.4546 5.1812C22.2162 4.28193 23.5691 3.43743 24.4868 2.81345C24.9458 2.50141 25.2961 2.24435 25.5345 2.06293C25.6538 1.97221 25.745 1.90038 25.8079 1.85002C25.8394 1.82484 25.8638 1.80503 25.881 1.7909C25.8896 1.78384 25.8964 1.7782 25.9015 1.77401C25.904 1.77192 25.9061 1.7702 25.9077 1.76884C25.9085 1.76817 25.9092 1.76758 25.9098 1.76709C25.9101 1.76685 25.9104 1.76655 25.9106 1.76642C25.9109 1.76615 25.9112 1.7659 25.2683 1C24.6253 0.234102 24.6255 0.233897 24.6258 0.233716C24.6258 0.233686 24.626 0.233528 24.626 0.233469C24.6262 0.233351 24.6262 0.233325 24.6261 0.233392C24.626 0.233525 24.6254 0.234027 24.6243 0.234893C24.6222 0.236623 24.6184 0.239808 24.6128 0.244407C24.6016 0.253605 24.5833 0.268458 24.5581 0.288649C24.5077 0.329033 24.4293 0.390758 24.3235 0.471283C24.1118 0.632347 23.7903 0.868534 23.3623 1.15954C22.5062 1.74165 21.2249 2.54242 19.5452 3.39988C16.1856 5.11496 11.2372 7.05421 4.90953 7.92811L5.18315 9.9093Z" fill="#222020"/>
<path d="M21.81 36.4426C21.9661 36.6034 22.0463 36.5758 22.1811 36.4374L35.291 22.9504C36.0228 22.1975 36.0339 21.0069 35.3085 20.2479C34.5439 19.4478 33.2616 19.4365 32.4908 20.2308L22.2124 30.8222C22.0233 31.0166 21.9316 30.9929 21.7587 30.8142L17.9841 26.9446C17.2297 26.1712 15.9793 26.1743 15.2179 26.9409C14.4747 27.6891 14.4765 28.8859 15.2109 29.6427L21.81 36.4426Z" fill="#222020"/>
</svg>
