<svg width="57" height="57" viewBox="0 0 57 57" fill="none" xmlns="http://www.w3.org/2000/svg">
    <g id="ic-x-star box copy 5">
        <g id="Group 3">
            <mask id="mask0" mask-type="alpha" maskUnits="userSpaceOnUse" x="1" y="7" width="54" height="43">
                <path id="Clip 2" fill-rule="evenodd" clip-rule="evenodd" d="M1 7H55V50H1V7Z" fill="white"/>
            </mask>
            <g mask="url(#mask0)">
                <path id="Fill 1" fill-rule="evenodd" clip-rule="evenodd"
                      d="M38.4196 24.9281C38.4924 27.0232 38.2142 29.1301 37.5893 31.1538C34.9237 31.1888 32.2712 32.063 30.0674 33.7793C29.1191 31.3724 29.6435 28.5225 31.5866 26.5789C33.4307 24.7329 36.0934 24.169 38.4196 24.9281ZM25.4179 41.548C25.3043 42.2153 25.2446 42.8928 25.2387 43.5703C21.6759 44.6921 17.8508 44.7315 14.285 43.6795C14.288 40.4654 13.0688 37.2571 10.6246 34.8138C8.18186 32.3689 4.97587 31.1509 1.76114 31.1523C0.709467 27.5856 0.748795 23.7596 1.87184 20.1958C5.0487 20.171 8.21099 18.953 10.6246 16.5358C13.0236 14.1362 14.2413 10.9993 14.2836 7.84346C17.8523 6.73761 21.6773 6.71867 25.2387 7.78955C25.265 10.74 26.3181 13.6758 28.4039 16.0128C28.0107 17.4523 27.3129 18.7927 26.3428 19.9481C26.2117 19.798 26.0734 19.648 25.9306 19.5052C22.5236 16.0973 16.9783 16.1177 13.5465 19.5518C10.1148 22.9845 10.0944 28.5298 13.5014 31.9377C14.1336 32.5685 14.84 33.0843 15.5916 33.4792C15.7198 34.7686 15.9674 36.0478 16.3359 37.2994L16.7758 38.7928L18.3315 38.7913C20.9723 38.7899 23.485 39.7646 25.4179 41.548ZM54.2107 25.7542C55.2813 29.318 55.2623 33.1441 54.1568 36.7137C51.0018 36.753 47.8657 37.9711 45.4666 40.3722C43.0516 42.7879 41.8339 45.951 41.8076 49.1272C38.2448 50.252 34.4197 50.2899 30.854 49.2394C30.8569 46.0238 29.6377 42.8155 27.195 40.3722C24.7508 37.9288 21.5433 36.7093 18.33 36.7122C17.2784 33.1455 17.3177 29.318 18.4393 25.7542C21.6176 25.7294 24.7784 24.5114 27.195 22.0943C29.5925 19.6946 30.8103 16.5592 30.8525 13.4019C34.4197 12.296 38.2462 12.2771 41.8076 13.348C41.8353 16.5227 43.0545 19.6815 45.4666 22.0943C47.8788 24.5085 51.0367 25.7265 54.2107 25.7542ZM42.4995 25.0636C45.9065 28.4715 45.8847 34.0153 42.4544 37.4494C39.0212 40.8821 33.4758 40.9025 30.0703 37.4946C26.6633 34.0867 26.6837 28.5414 30.1169 25.1088C33.5472 21.6761 39.0925 21.6557 42.4995 25.0636Z"
                      fill="#EBF7FF"/>
            </g>
        </g>
    </g>
</svg>
