<svg width="57" height="57" viewBox="0 0 57 57" fill="none" xmlns="http://www.w3.org/2000/svg">
    <g id="ic-x-star box copy 4">
        <g id="Group 13">
            <path id="Fill 1" fill-rule="evenodd" clip-rule="evenodd"
                  d="M43.1621 5.91558C43.1621 5.40874 42.8512 5 42.4674 5H39.1257C38.7433 5 38.4324 5.40874 38.4324 5.91558V6.91837H43.1621V5.91558Z"
                  fill="#EBF7FF"/>
            <path id="Fill 3" fill-rule="evenodd" clip-rule="evenodd"
                  d="M25.7156 13.2162L26.0634 13.1036H26.5631C26.771 11.9097 27.9488 10.9929 29.3639 10.9929H31.8108V8.49122C31.8108 8.20893 31.6089 7.96938 31.3244 7.87744H21.8904C21.6073 7.96938 21.4054 8.20893 21.4054 8.49122V13.1114L21.7267 13.2162C22.8352 13.5749 23.5796 14.5124 23.5796 15.5509H23.8627C23.8627 14.5124 24.6071 13.5749 25.7156 13.2162Z"
                  fill="#EBF7FF"/>
            <path id="Fill 5" fill-rule="evenodd" clip-rule="evenodd"
                  d="M28.9729 5.91558C28.9729 5.40874 28.662 5 28.2795 5H24.9365C24.5541 5 24.2432 5.40874 24.2432 5.91558V6.91837H28.9729V5.91558Z"
                  fill="#EBF7FF"/>
            <g id="Group 9">
                <mask id="mask0" mask-type="alpha" maskUnits="userSpaceOnUse" x="35" y="7" width="11" height="37">
                    <path id="Clip 8" fill-rule="evenodd" clip-rule="evenodd"
                          d="M35.7169 7.70703H45.7328V43.675H35.7169V7.70703Z" fill="white"/>
                </mask>
                <g mask="url(#mask0)">
                    <path id="Fill 7" fill-rule="evenodd" clip-rule="evenodd"
                          d="M45.2648 7.70703H36.1852C35.9113 7.80918 35.7169 8.07536 35.7169 8.38901V13.5226L36.0262 13.6391C37.0933 14.0376 37.8098 15.0808 37.8098 16.2332V43.675H45.0179C45.4124 43.675 45.7331 43.3498 45.7331 42.9498V8.38901C45.7331 8.07536 45.5387 7.80918 45.2648 7.70703Z"
                          fill="#EBF7FF"/>
                </g>
            </g>
            <g id="Group 12">
                <mask id="mask1" mask-type="alpha" maskUnits="userSpaceOnUse" x="11" y="13" width="25" height="40">
                    <path id="Clip 11" fill-rule="evenodd" clip-rule="evenodd"
                          d="M11.0002 13.2144H35.3262V52.0002H11.0002V13.2144Z" fill="white"/>
                </mask>
                <g mask="url(#mask1)">
                    <path id="Fill 10" fill-rule="evenodd" clip-rule="evenodd"
                          d="M27.8797 14.7525V13.9485C27.8797 13.5435 28.2004 13.2144 28.5948 13.2144H32.0428C32.4373 13.2144 32.7579 13.5435 32.7579 13.9485V14.7525H27.8797ZM34.8594 15.5885C35.1318 15.6919 35.3262 15.9628 35.3262 16.2775V51.265C35.3262 51.6713 35.0055 52.0005 34.6111 52.0005H26.0252C25.6293 52.0005 25.31 51.6713 25.31 51.265V16.2775C25.31 15.9628 25.5044 15.6919 25.7783 15.5885H34.8594ZM13.5699 14.7525V13.9485C13.5699 13.5435 13.8906 13.2144 14.285 13.2144H17.733C18.1275 13.2144 18.4481 13.5435 18.4481 13.9485V14.7525H13.5699ZM20.5496 15.5885C20.822 15.6919 21.0164 15.9628 21.0164 16.2775V51.265C21.0164 51.6713 20.6971 52.0005 20.3013 52.0005H11.7154C11.3195 52.0005 11.0002 51.6713 11.0002 51.265V16.2775C11.0002 15.9628 11.1946 15.6919 11.4685 15.5885H20.5496Z"
                          fill="#EBF7FF"/>
                </g>
            </g>
        </g>
    </g>
</svg>
