<svg width="57" height="57" viewBox="0 0 57 57" fill="none" xmlns="http://www.w3.org/2000/svg">
    <g id="ic-remote copy">
        <g id="remote">
            <path id="Combined Shape" fill-rule="evenodd" clip-rule="evenodd"
                  d="M22.0014 3.56086L22.0001 2.38399C22 2.20852 22.0516 2.07145 22.2246 2.02099C22.2604 2.00742 22.299 2 22.3393 2H34.7024C34.7715 2 34.825 2.02523 34.8599 2.06855C34.8774 2.08205 34.8937 2.09731 34.9084 2.11406C34.9641 2.17733 34.9981 2.26185 34.9981 2.35478V3.0419C35 3.06956 35.0005 3.09898 34.9994 3.13027V4.41264C34.9994 4.42554 34.999 4.43793 34.9981 4.45001V5.80599C34.999 5.82349 34.9994 5.84106 34.9994 5.85869V54C34.9994 54.5523 34.5517 55 33.9994 55H23.0027C22.4505 55 22.0028 54.5584 22.0027 54.0062C22.0019 47.9467 21.9977 15.9054 22.0027 6.02651L22.0014 3.56086ZM25.9762 15.1947C25.9762 14.4693 26.2614 13.8126 26.7224 13.3374C27.1878 12.8602 27.8221 12.5685 28.5226 12.5685C29.2258 12.5685 29.8624 12.8624 30.3232 13.3377L30.3347 13.3498C30.7887 13.824 31.069 14.4756 31.069 15.1947C31.069 15.9136 30.7888 16.565 30.335 17.0393L30.3235 17.0513C29.8627 17.5268 29.226 17.8209 28.5226 17.8209C27.822 17.8209 27.1875 17.529 26.7271 17.0567C26.2612 16.5764 25.9762 15.9199 25.9762 15.1947ZM27.1509 20.3547C27.5219 20.7372 28.0107 20.9286 28.4991 20.9286C28.9875 20.9286 29.4763 20.7373 29.8473 20.3547L31.6869 18.4576L33.5258 16.5613C33.8968 16.1787 34.0823 15.6748 34.0823 15.1711C34.0823 14.677 33.903 14.1822 33.5449 13.8022C33.5388 13.7949 31.7014 11.8995 31.7014 11.8995L29.8473 9.98746C29.4764 9.60495 28.9876 9.41369 28.4991 9.41369C28.0106 9.41369 27.5217 9.60503 27.1509 9.98746L25.3146 11.881L23.4723 13.7808C23.1024 14.1623 22.9173 14.6664 22.9173 15.1709C22.9172 15.6754 23.1022 16.1796 23.4724 16.5613L25.312 18.4584L27.1509 20.3547ZM31.9981 5.32638L30.8839 6.47556C30.662 6.70435 30.662 7.07544 30.8839 7.30421L31.9981 8.45341C32.22 8.6822 32.5798 8.6822 32.8017 8.45341L33.9159 7.30421C34.1378 7.07544 34.1378 6.70435 33.9159 6.47556L32.8017 5.32638C32.5798 5.09756 32.22 5.09756 31.9981 5.32638ZM24.5038 5.32638L23.3896 6.47556C23.1677 6.70435 23.1677 7.07544 23.3896 7.30421L24.5038 8.45341C24.7257 8.6822 25.0855 8.6822 25.3073 8.45341L26.4216 7.30421C26.6434 7.07544 26.6434 6.70435 26.4216 6.47556L25.3073 5.32638C25.0855 5.09756 24.7257 5.09756 24.5038 5.32638ZM29.4817 24.4874C29.5656 24.439 29.6309 24.3704 29.6749 24.2912L30.0075 23.7121L30.3429 23.1282C30.4849 22.8796 30.3997 22.5623 30.1524 22.4195C30.0712 22.3726 29.9826 22.3503 29.8951 22.3504L27.2596 22.3482C26.9731 22.3482 26.7409 22.5816 26.7409 22.8695C26.7409 22.9821 26.7764 23.0863 26.8368 23.1716L27.1472 23.7121L27.4826 24.296C27.5833 24.4721 27.7711 24.5664 27.96 24.5557L29.2164 24.5565C29.3064 24.5579 29.398 24.5358 29.4817 24.4874ZM25.525 22.3483L24.1575 22.3482C23.9653 22.3383 23.7742 22.4326 23.6718 22.6087L23.3306 23.1927L23.0148 23.7332C22.9534 23.8184 22.9173 23.9226 22.9173 24.0352C22.9173 24.3231 23.1535 24.5565 23.4449 24.5565H26.2155C26.3044 24.5544 26.3946 24.5322 26.4772 24.4853C26.7288 24.3425 26.8155 24.0251 26.671 23.7766L26.3298 23.1927L25.9914 22.6136C25.9466 22.5344 25.8803 22.4658 25.7949 22.4173C25.7097 22.369 25.6165 22.3468 25.525 22.3483ZM33.0193 22.3483L31.6518 22.3482C31.4597 22.3383 31.2686 22.4326 31.1661 22.6087L30.9072 23.0519L30.8249 23.1927L30.5091 23.7332C30.4477 23.8184 30.4116 23.9226 30.4116 24.0352C30.4116 24.3231 30.6478 24.5565 30.9392 24.5565H33.7098C33.7988 24.5544 33.8889 24.5322 33.9716 24.4853C34.2231 24.3425 34.3099 24.0251 34.1653 23.7766L33.8242 23.1927L33.4858 22.6136C33.441 22.5344 33.3746 22.4658 33.2892 22.4173C33.2041 22.369 33.1109 22.3468 33.0193 22.3483ZM31.5587 3.41964C31.432 3.41964 31.3293 3.52559 31.3293 3.65625C31.3293 3.78692 31.432 3.89286 31.5587 3.89286C31.6854 3.89286 31.7881 3.78692 31.7881 3.65625C31.7881 3.52559 31.6854 3.41964 31.5587 3.41964ZM25.7468 3.41964C25.6201 3.41964 25.5173 3.52559 25.5173 3.65625C25.5173 3.78692 25.6201 3.89286 25.7468 3.89286C25.8735 3.89286 25.9762 3.78692 25.9762 3.65625C25.9762 3.52559 25.8735 3.41964 25.7468 3.41964Z"
                  fill="#EBF7FF"/>
        </g>
    </g>
</svg>
