<svg width="56" height="57" viewBox="0 0 56 57" fill="none" xmlns="http://www.w3.org/2000/svg">
    <g id="ic-x-star box copy 3">
        <g id="Group 13">
            <path id="Fill 1" fill-rule="evenodd" clip-rule="evenodd"
                  d="M38.3585 17.3662C39.2843 17.6775 40.1889 18.0324 41.0496 18.4484V13.8794H38.3585V17.3662Z"
                  fill="#EBF7FF"/>
            <path id="Fill 3" fill-rule="evenodd" clip-rule="evenodd"
                  d="M38.4825 9.90636C38.4742 9.95846 38.4714 10.0118 38.4714 10.0652V10.224H40.9395V10.0652C40.9395 10.0118 40.9339 9.95846 40.927 9.90636C40.6816 9.76278 40.5193 9.50865 40.5193 9.21767C40.5193 9.00166 40.615 8.8009 40.7592 8.65986C41.1225 8.30026 41.1239 8.00928 40.8799 7.70941L40.303 7.00293C39.8302 6.42606 39.582 6.42225 39.1064 7.00293L38.5282 7.70941C38.2828 8.01183 38.287 8.30026 38.6503 8.65986C38.7945 8.79963 38.8901 9.00166 38.8901 9.21767C38.8901 9.50865 38.7265 9.76278 38.4825 9.90636Z"
                  fill="#EBF7FF"/>
            <mask id="mask0" mask-type="alpha" maskUnits="userSpaceOnUse" x="7" y="2" width="43" height="53">
                <path id="Clip 6" fill-rule="evenodd" clip-rule="evenodd" d="M7.85962 55H49.1228V2H7.85962V55Z"
                      fill="white"/>
            </mask>
            <g mask="url(#mask0)">
                <path id="Fill 5" fill-rule="evenodd" clip-rule="evenodd"
                      d="M38.3585 12.9653H41.0496V11.1377H38.3585V12.9653Z" fill="#EBF7FF"/>
                <path id="Fill 7" fill-rule="evenodd" clip-rule="evenodd"
                      d="M8.75659 17.5346H10.1021H11.4477V13.8794H8.75659V17.5346Z" fill="#EBF7FF"/>
                <path id="Fill 8" fill-rule="evenodd" clip-rule="evenodd"
                      d="M8.75659 12.9653H11.4477V11.1377H8.75659V12.9653Z" fill="#EBF7FF"/>
                <path id="Fill 9" fill-rule="evenodd" clip-rule="evenodd"
                      d="M9.28848 9.21767C9.28848 9.50865 9.12624 9.76278 8.87941 9.90636C8.87248 9.95846 8.86832 10.0118 8.86832 10.0652V10.224H11.338V10.0652C11.338 10.0118 11.3325 9.95846 11.3255 9.90636C11.0801 9.76278 10.9178 9.50865 10.9178 9.21767C10.9178 9.00166 11.0135 8.8009 11.1577 8.65986C11.5197 8.30026 11.5224 8.00928 11.2784 7.70941L10.7015 7.00293C10.2287 6.42606 9.97905 6.42225 9.5048 7.00293L8.92794 7.70941C8.68111 8.01183 8.68389 8.30026 9.04859 8.65986C9.1928 8.79963 9.28848 9.00166 9.28848 9.21767Z"
                      fill="#EBF7FF"/>
                <path id="Fill 10" fill-rule="evenodd" clip-rule="evenodd"
                      d="M37.9134 24.2195V25.5689C37.9134 26.4426 38.4094 27.1953 39.1233 27.5626V31.7189C37.202 27.4724 33.5199 24.2479 29.0449 23.0171C27.4856 23.5042 26.0816 24.3497 24.9031 25.449C24.9444 25.449 24.9832 25.4426 25.0221 25.4426C32.0119 25.4426 37.678 31.2729 37.678 38.463C37.678 40.4593 37.2283 42.3435 36.4481 44.0343C37.9472 43.3771 39.2686 42.3757 40.3344 41.1372C40.4546 40.4 40.546 39.6499 40.5636 38.8805H40.5698V38.463V27.5729C40.7439 27.484 40.9055 27.3706 41.0495 27.2404C40.2104 26.0315 39.1433 25.0057 37.9134 24.2195Z"
                      fill="#EBF7FF"/>
                <path id="Fill 11" fill-rule="evenodd" clip-rule="evenodd"
                      d="M27.923 51.5775C26.9039 51.8472 25.8432 52.0053 24.7422 52.0053C17.7046 52.0053 11.9989 46.1413 11.9989 38.9069C11.9989 35.9833 12.9423 33.2918 14.5175 31.1124V26.7238C12.8427 28.2109 11.4768 30.0545 10.5334 32.1444V27.9503C11.2624 27.5834 11.7694 26.821 11.7694 25.9355V19.3623H7.85962V25.9355C7.85962 26.8132 8.3578 27.5704 9.07795 27.9412V39.327H9.09182C9.30875 48.0212 16.2328 55.0002 24.7422 55.0002C28.155 55.0002 31.3017 53.8645 33.8733 51.96C33.2478 52.0287 32.6147 52.0728 31.9702 52.0728C30.5728 52.0728 29.222 51.89 27.923 51.5775Z"
                      fill="#EBF7FF"/>
                <path id="Fill 12" fill-rule="evenodd" clip-rule="evenodd"
                      d="M32.0754 50.431C23.4875 50.431 16.4995 43.4382 16.2806 34.7279H16.2653V23.3182C15.5398 22.948 15.0358 22.1893 15.0358 21.3098V14.7236H18.9829V21.3098C18.9829 22.1971 18.4712 22.9609 17.7342 23.3286V27.5298C20.243 22.01 25.7214 18.1817 32.0754 18.1817C38.4206 18.1817 43.8913 21.9996 46.4052 27.5077V23.3182C45.6797 22.948 45.1756 22.1893 45.1756 21.3098V14.7236H49.1227V21.3098C49.1227 22.1971 48.6098 22.9609 47.8741 23.3286V34.307V34.7279H47.869C47.65 43.4382 40.6621 50.431 32.0754 50.431ZM15.8504 13.3621V9.27527H18.1161V13.3621H16.9832H15.8504ZM15.8504 8.5413H18.1161V6.47318H15.8504V8.5413ZM15.8504 5.73791V5.57422C15.8504 5.51966 15.8542 5.4651 15.8606 5.41184C16.0846 5.26505 16.2348 5.00523 16.2348 4.70775C16.2348 4.4869 16.147 4.28165 16.0159 4.13745C15.6811 3.77112 15.6773 3.47623 15.9039 3.16575L16.4346 2.44477C16.8699 1.8498 17.0978 1.85369 17.5306 2.44477L18.0613 3.16575C18.2854 3.47233 18.2841 3.77112 17.9506 4.13745C17.8182 4.28165 17.7304 4.4869 17.7304 4.70775C17.7304 5.00523 17.8793 5.26505 18.1046 5.41184C18.111 5.4651 18.1161 5.51966 18.1161 5.57422V5.73791H15.8504ZM45.9902 13.3621V9.27527H48.2559V13.3621H47.1218H45.9902ZM45.9902 8.5413H48.2559V6.47318H45.9902V8.5413ZM45.9902 5.73791V5.57422C45.9902 5.51966 45.9941 5.4651 45.9991 5.41184C46.2257 5.26505 46.3734 5.00523 46.3734 4.70775C46.3734 4.4869 46.2868 4.28165 46.1557 4.13745C45.8222 3.77112 45.8171 3.47623 46.045 3.16575L46.5745 2.44477C47.0098 1.8498 47.2376 1.85369 47.6717 2.44477L48.2012 3.16575C48.4265 3.47233 48.4239 3.77112 48.0904 4.13745C47.9581 4.28165 47.8702 4.4869 47.8702 4.70775C47.8702 5.00523 48.0192 5.26505 48.2445 5.41184C48.2508 5.4651 48.2559 5.51966 48.2559 5.57422V5.73791H45.9902ZM32.0754 47.4315C39.1779 47.4315 44.9363 41.5558 44.9363 34.307C44.9363 27.0569 39.1779 21.1812 32.0754 21.1812C24.9729 21.1812 19.2145 27.0569 19.2145 34.307C19.2145 41.5558 24.9729 47.4315 32.0754 47.4315Z"
                      fill="#EBF7FF"/>
            </g>
        </g>
    </g>
</svg>
