<svg width="18" height="18" viewBox="0 0 18 18" fill="none" xmlns="http://www.w3.org/2000/svg">
    <path fill-rule="evenodd" clip-rule="evenodd"
          d="M14 9.32403C14 7.42489 12.776 5.79399 11 5V7.37124L13.94 10C13.976 9.78541 14 9.56009 14 9.32403ZM16 8.8243C16 9.77012 15.8 10.6556 15.46 11.4806L16.97 13C17.63 11.7523 18 10.3336 18 8.8243C18 4.5178 15.01 0.915635 11 0V2.07276C13.89 2.93808 16 5.63468 16 8.8243ZM1.27 0L0 1.27L4.73 6H0V12H4L9 17V10.27L13.25 14.52C12.58 15.04 11.83 15.45 11 15.7V17.76C12.38 17.45 13.63 16.81 14.69 15.95L16.73 18L18 16.73L9 7.73L1.27 0ZM9 1L7 3L9 5V1Z"
          fill="#13D8CC"/>
</svg>
