<svg width="34" height="35" viewBox="0 0 34 35" fill="none" xmlns="http://www.w3.org/2000/svg">
<path d="M1.77881 9.30183L16.8536 17.7947L24.391 13.5482M31.9284 9.30183L24.391 13.5482M9.31619 5.05542L24.391 13.5482" stroke="#25A5F0" stroke-width="1.5"/>
<path d="M16.853 33.9328V17.7964" stroke="#25A5F0" stroke-width="1.5"/>
<path d="M1.77881 10.7459C1.77881 9.85442 2.25932 9.03217 3.036 8.59461L9.31619 5.05647L15.6416 1.49286C16.394 1.06898 17.3132 1.06898 18.0656 1.49286L30.6712 8.59461C31.4478 9.03217 31.9284 9.85442 31.9284 10.7459V23.9963C31.9284 24.8877 31.4478 25.71 30.6712 26.1475L18.0656 33.2493C17.3132 33.6732 16.394 33.6732 15.6416 33.2493L3.03601 26.1475C2.25933 25.71 1.77881 24.8877 1.77881 23.9963V10.7459Z" stroke="#25A5F0" stroke-width="1.5"/>
</svg>
