<svg width="34" height="34" viewBox="0 0 34 34" fill="none" xmlns="http://www.w3.org/2000/svg">
<rect width="4.43478" height="23.6522" transform="matrix(1 0 0 -1 14.7822 32.5217)" stroke="#25A5F0"/>
<path d="M16.9993 8.86965C15.7675 6.1595 12.5646 0.105402 8.1294 0.739081C2.95548 1.47821 3.69461 8.86949 9.60766 8.86949" stroke="#25A5F0"/>
<path d="M17.9738 8.86965C19.2057 6.1595 22.4086 0.105402 26.8437 0.739081C32.0177 1.47821 31.2785 8.86949 25.3655 8.86949" stroke="#25A5F0"/>
<path fill-rule="evenodd" clip-rule="evenodd" d="M2.95557 8.36957C2.67942 8.36957 2.45557 8.59343 2.45557 8.86957V14.7826C2.45557 15.0588 2.67942 15.2826 2.95557 15.2826H14.7817V14.2826H3.45557V9.36957H30.5425V14.2826H19.2164V15.2826H31.0425C31.3187 15.2826 31.5425 15.0588 31.5425 14.7826V8.86957C31.5425 8.59343 31.3187 8.36957 31.0425 8.36957H2.95557Z" fill="#25A5F0"/>
<path fill-rule="evenodd" clip-rule="evenodd" d="M14.7824 14.2827H4.43457C4.15843 14.2827 3.93457 14.5065 3.93457 14.7827V32.5218C3.93457 32.7979 4.15843 33.0218 4.43457 33.0218H29.565C29.8411 33.0218 30.065 32.7979 30.065 32.5218V14.7827C30.065 14.5065 29.8411 14.2827 29.565 14.2827H19.2172V15.2827H29.065V32.0218H4.93457V15.2827H14.7824V14.2827Z" fill="#25A5F0"/>
</svg>
