<svg width="34" height="34" viewBox="0 0 34 34" fill="none" xmlns="http://www.w3.org/2000/svg">
<path fill-rule="evenodd" clip-rule="evenodd" d="M4.30989 1.64588C4.08921 1.4224 3.73143 1.4224 3.51075 1.64588C3.29007 1.86935 3.29007 2.23168 3.51075 2.45515L33.0354 32.3541C33.256 32.5776 33.6138 32.5776 33.8345 32.3541C34.0552 32.1307 34.0552 31.7683 33.8345 31.5449L30.6398 28.3097C31.3234 27.6104 31.7478 26.7818 31.7478 25.847V7.5828L31.7481 7.53521C31.7481 5.90701 30.4608 4.60109 28.7591 3.73945C27.0205 2.85913 24.6618 2.33266 22.0901 2.33266C19.5184 2.33266 17.1597 2.85913 15.4211 3.73945C13.728 4.59678 12.445 5.89393 12.4322 7.51076C12.4319 7.51887 12.4317 7.52702 12.4317 7.53521V9.87068L4.30989 1.64588ZM13.6653 11.1199L16.8061 14.3005C17.4923 14.9513 18.2445 15.713 19.0409 16.5637L23.0448 20.6183C25.0774 20.5065 26.8781 20.0425 28.207 19.3696C29.7776 18.5743 30.5142 17.5912 30.5142 16.6911V14.7001C30.0274 15.1662 29.4248 15.5716 28.7587 15.9089C27.0201 16.7892 24.6614 17.3157 22.0897 17.3157C21.5182 17.3157 20.9571 17.2897 20.411 17.2395C20.3219 16.7721 20.1698 16.3376 19.9703 15.9353C20.6461 16.0207 21.356 16.0665 22.0897 16.0665C24.5114 16.0665 26.6733 15.5681 28.207 14.7916C29.7776 13.9963 30.5142 13.0132 30.5142 12.1131V10.1226C30.0275 10.5885 29.425 10.9938 28.7591 11.331C27.0205 12.2113 24.6618 12.7378 22.0901 12.7378C19.5184 12.7378 17.1597 12.2113 15.4211 11.331C14.7549 10.9936 14.1521 10.5881 13.6653 10.1219V11.1199ZM24.1861 21.7742L26.8755 24.4977C27.3582 24.3361 27.8043 24.1514 28.207 23.9475C29.7776 23.1522 30.5142 22.1692 30.5142 21.269V19.2781C30.0274 19.7442 29.4248 20.1496 28.7587 20.4869C27.5058 21.1213 25.9308 21.5719 24.1861 21.7742ZM27.8401 25.4745L29.7683 27.4271C30.2717 26.9072 30.5142 26.3635 30.5142 25.847V23.856C30.0274 24.3221 29.4248 24.7275 28.7587 25.0648C28.4691 25.2114 28.1622 25.3483 27.8401 25.4745ZM30.5145 7.51675L30.5142 7.53521V7.57005C30.4954 8.46064 29.7577 9.42865 28.2074 10.2136C26.6737 10.9902 24.5118 11.4886 22.0901 11.4886C19.6684 11.4886 17.5065 10.9902 15.9728 10.2136C14.4022 9.4184 13.6656 8.43534 13.6656 7.53521C13.6656 6.63507 14.4022 5.65201 15.9728 4.85677C17.5065 4.0802 19.6684 3.58186 22.0901 3.58186C24.5118 3.58186 26.6737 4.0802 28.2074 4.85677C29.7672 5.64658 30.5045 6.62166 30.5145 7.51675Z" fill="#25A5F0"/>
<path fill-rule="evenodd" clip-rule="evenodd" d="M9.65876 12.6331C10.5101 12.6331 11.3381 12.6908 12.128 12.7999L13.6896 14.3814C12.4957 14.065 11.1248 13.8823 9.65876 13.8823C7.23708 13.8823 5.07515 14.3807 3.54146 15.1572C1.97089 15.9525 1.23429 16.9355 1.23429 17.8357C1.23429 18.7358 1.97089 19.7189 3.54146 20.5141C5.07515 21.2907 7.23708 21.789 9.65876 21.789C12.0804 21.789 14.2424 21.2907 15.7761 20.5141C16.8885 19.9508 17.5825 19.2934 17.8928 18.6378L19.316 20.0792V26.9916C19.316 28.6198 18.0287 29.9257 16.327 30.7873C14.5884 31.6676 12.2297 32.1941 9.65802 32.1941C7.08636 32.1941 4.72767 31.6676 2.98907 30.7873C1.28736 29.9257 0 28.6198 0 26.9916V17.8357C0 17.8241 0.000312014 17.8126 0.000928002 17.8011C0.0189928 16.189 1.30014 14.8955 2.9898 14.0399C4.7284 13.1596 7.0871 12.6331 9.65876 12.6331ZM1.23356 22.4136V20.422C1.72046 20.8884 2.32335 21.294 2.9898 21.6314C4.7284 22.5117 7.0871 23.0382 9.65876 23.0382C12.2304 23.0382 14.5891 22.5117 16.3277 21.6314C16.9935 21.2943 17.5958 20.8892 18.0825 20.4234V22.4136C18.0825 23.3138 17.3459 24.2968 15.7753 25.0921C14.2416 25.8686 12.0797 26.367 9.65802 26.367C7.23634 26.367 5.07441 25.8686 3.54073 25.0921C1.97015 24.2968 1.23356 23.3138 1.23356 22.4136ZM16.327 26.2094C16.9931 25.8721 17.5957 25.4668 18.0825 25.0006V26.9916C18.0825 27.8917 17.3459 28.8748 15.7753 29.67C14.2416 30.4466 12.0797 30.9449 9.65802 30.9449C7.23634 30.9449 5.07441 30.4466 3.54073 29.67C1.97015 28.8748 1.23356 27.8917 1.23356 26.9916V25.0006C1.72033 25.4668 2.32295 25.8721 2.98907 26.2094C4.72767 27.0897 7.08636 27.6162 9.65802 27.6162C12.2297 27.6162 14.5884 27.0897 16.327 26.2094Z" fill="#25A5F0"/>
<path d="M22.0897 25.2224C22.8416 25.2224 23.5683 25.1743 24.2591 25.0849L25.3386 26.1781C24.3207 26.3688 23.226 26.4716 22.0897 26.4716C21.5495 26.4716 21.0187 26.4483 20.501 26.4035V25.1494C21.0147 25.1972 21.5456 25.2224 22.0897 25.2224Z" fill="#25A5F0"/>
<path d="M22.0897 29.8004C24.3205 29.8004 26.3308 29.3775 27.8327 28.7038L28.7595 29.6424C27.0209 30.5227 24.6614 31.0495 22.0897 31.0495C20.9548 31.0495 19.8613 30.947 18.8444 30.7568C19.1751 30.4202 19.4765 30.0472 19.7288 29.6368C20.4763 29.743 21.2681 29.8004 22.0897 29.8004Z" fill="#25A5F0"/>
</svg>
