<svg width="1014" height="153" viewBox="0 0 1014 153" fill="none" xmlns="http://www.w3.org/2000/svg">
    <path d="M112.591 27C112.591 38.9243 102.924 48.5909 91 48.5909C79.0756 48.5909 69.4091 38.9243 69.4091 27C69.4091 15.0756 79.0756 5.40906 91 5.40906C102.924 5.40906 112.591 15.0756 112.591 27Z"
          stroke="url(#paint0_linear)"/>
    <path fill-rule="evenodd" clip-rule="evenodd"
          d="M79.6182 27.9749C79.9491 28.0478 80.2765 27.8386 80.3494 27.5076C81.1723 23.7703 82.2213 22.5881 83.5583 23.0005C83.9382 23.1177 84.3148 23.3096 84.7391 23.6163C84.2493 24.511 83.8379 25.7185 83.502 27.2438C83.4292 27.5747 83.6384 27.9021 83.9694 27.975C84.3003 28.0479 84.6277 27.8386 84.7006 27.5077C84.998 26.157 85.325 25.14 85.6844 24.4114C86.4345 25.1152 87.3611 26.1231 88.6245 27.5608L88.8166 27.7795C91.4814 30.8089 92.7898 32.0274 94.2982 32.4846C95.4005 32.8187 96.3503 32.5728 97.1512 31.7356C97.6668 32.0956 98.147 32.3323 98.6494 32.4846C100.838 33.148 102.425 31.5252 103.44 27.5266C103.523 27.1981 103.325 26.8643 102.996 26.7809C102.668 26.6976 102.334 26.8963 102.25 27.2248C101.385 30.6372 100.333 31.7124 99.0054 31.3101C98.6464 31.2013 98.282 31.0193 97.8798 30.7406C98.3473 29.9319 98.75 28.8617 99.0887 27.5266C99.1721 27.1981 98.9733 26.8642 98.6448 26.7809C98.3163 26.6975 97.9825 26.8963 97.8991 27.2247C97.5989 28.4082 97.2762 29.3105 96.9275 29.9676C96.1772 29.284 95.2737 28.3154 94.0894 26.9689L93.8976 26.7508C90.9836 23.4345 89.7885 22.2958 88.2712 21.8278C87.1678 21.4874 86.2279 21.7411 85.4439 22.6025C84.9193 22.2259 84.4384 21.9876 83.92 21.8277C81.6748 21.1352 80.1068 22.9023 79.1508 27.2437C79.078 27.5747 79.2872 27.9021 79.6182 27.9749ZM86.3871 23.3818C87.2048 24.1339 88.1891 25.2061 89.5464 26.7507L89.7382 26.9689C92.2172 29.7873 93.4656 30.9498 94.6542 31.31C95.2143 31.4798 95.7254 31.3865 96.1941 30.9654C95.3779 30.2323 94.4235 29.207 93.1679 27.7795L92.9757 27.5609C90.2635 24.4743 89.1032 23.3687 87.9095 23.0005C87.3537 22.8291 86.8478 22.9332 86.3871 23.3818Z"
          fill="url(#paint1_linear)"/>
    <path d="M688.591 27C688.591 38.9243 678.924 48.5909 667 48.5909C655.076 48.5909 645.409 38.9243 645.409 27C645.409 15.0756 655.076 5.40906 667 5.40906C678.924 5.40906 688.591 15.0756 688.591 27Z"
          stroke="url(#paint2_linear)"/>
    <path d="M653.909 30.6067C653.909 30.6067 660.967 23.6879 664.086 25.444C667.205 27.2 663.158 32.086 669.338 30.9104C675.519 29.7348 680.5 23.3181 680.5 23.3181"
          stroke="url(#paint3_linear)" stroke-width="1.22822" stroke-linecap="round" stroke-linejoin="round"/>
    <path d="M48.5909 27C48.5909 38.9243 38.9243 48.5909 27 48.5909C15.0756 48.5909 5.40906 38.9243 5.40906 27C5.40906 15.0756 15.0756 5.40906 27 5.40906C38.9243 5.40906 48.5909 15.0756 48.5909 27Z"
          stroke="url(#paint4_linear)"/>
    <path fill-rule="evenodd" clip-rule="evenodd"
          d="M16.3636 27C16.3636 26.3222 16.9131 25.7727 17.5909 25.7727H36.4091C37.0869 25.7727 37.6364 26.3222 37.6364 27C37.6364 27.6778 37.0869 28.2273 36.4091 28.2273H17.5909C16.9131 28.2273 16.3636 27.6778 16.3636 27Z"
          fill="url(#paint5_linear)"/>
    <path d="M560.591 27C560.591 38.9243 550.924 48.5909 539 48.5909C527.076 48.5909 517.409 38.9243 517.409 27C517.409 15.0756 527.076 5.40906 539 5.40906C550.924 5.40906 560.591 15.0756 560.591 27Z"
          stroke="url(#paint6_linear)"/>
    <path fill-rule="evenodd" clip-rule="evenodd"
          d="M551.177 25.2325C551.279 25.0193 551.18 24.7643 550.96 24.6763C548.522 23.6985 546.308 23.9355 544.343 25.3599L544.327 25.3295C543.741 24.1571 542.873 22.8503 541.706 21.6517C539.965 19.8634 537.896 18.695 535.489 18.4119C535.213 18.3795 534.986 18.6259 535.041 18.8985C535.205 19.719 535.301 20.7539 535.329 22.0011C534.282 21.477 533.129 21.0933 531.868 20.8508C531.615 20.8023 531.381 20.9956 531.381 21.2525V23.9111C529.972 23.2477 528.499 22.9297 526.963 22.9601C526.929 22.9568 526.895 22.9577 526.861 22.9627C526.773 22.9653 526.684 22.9691 526.595 22.974C526.32 22.9893 526.139 23.2658 526.234 23.5239L528.364 29.3053C528.374 29.3342 528.388 29.3611 528.404 29.386C526.87 29.8486 525.829 30.6304 525.188 31.633C525.005 31.9185 525.089 32.2979 525.374 32.4805C525.66 32.6631 526.039 32.5797 526.222 32.2942C527.035 31.0222 528.764 30.1668 531.965 30.1429C533.947 30.1281 535.559 30.5547 538.338 31.6492C538.433 31.6865 538.532 31.7257 538.651 31.7727L538.965 31.8972C540.694 32.5828 541.575 32.901 542.67 33.1952C546.29 34.1679 551.591 32.218 553.008 29.8438C553.182 29.5528 553.087 29.1761 552.796 29.0024C552.505 28.8287 552.128 28.9238 551.955 29.2148C551.523 29.9379 550.562 30.6394 549.367 31.183C549.786 28.8618 550.39 26.8782 551.177 25.2325ZM548.108 31.6676C546.18 29.3161 544.862 27.6255 544.14 26.5749C543.256 27.3795 542.423 28.4767 541.637 29.8702C541.834 30.474 542.009 31.1067 542.16 31.7684C542.436 31.8556 542.705 31.9338 542.989 32.01C544.509 32.4186 546.42 32.2093 548.108 31.6676ZM541.244 31.4569C541.212 31.3325 541.18 31.2093 541.147 31.0873C540.982 31.056 540.847 30.9248 540.819 30.7499C540.735 30.2248 540.641 29.7142 540.538 29.2183C539.484 26.4957 537.897 24.4873 535.77 23.1823C535.762 23.1828 535.754 23.183 535.746 23.183C535.584 23.183 535.444 23.0892 535.378 22.9531C534.566 22.5011 533.68 22.1456 532.719 21.886C534.572 23.6773 535.878 25.8358 536.634 28.3555C536.7 28.4398 536.766 28.5251 536.832 28.6114C536.944 28.7583 536.941 28.9569 536.838 29.0993C536.861 29.1908 536.884 29.2828 536.905 29.3752C536.94 29.5233 536.889 29.6713 536.785 29.768C537.395 29.9731 538.055 30.2184 538.788 30.5073C538.884 30.545 538.984 30.5844 539.103 30.6318L539.417 30.7564C540.159 31.0505 540.739 31.2745 541.244 31.4569ZM536.106 29.5504C536.042 29.2755 535.971 29.005 535.894 28.7388C533.529 25.7715 530.957 24.144 528.165 23.832C530.211 25.5174 531.776 27.2186 532.858 28.938C533.924 29.0006 534.935 29.1954 536.106 29.5504ZM531.866 28.9166C530.797 27.3542 529.299 25.7941 527.369 24.2384L529.131 29.0224C529.152 29.079 529.16 29.1372 529.156 29.1936C529.945 29.0248 530.845 28.9291 531.866 28.9166ZM535.103 26.6157C534.391 25.0798 533.423 23.7158 532.199 22.5216V24.2953C532.199 24.3098 532.199 24.3241 532.197 24.3382C533.2 24.9165 534.169 25.6761 535.103 26.6157ZM539.496 25.5553C538.636 23.252 537.478 21.3904 536.026 19.968C536.103 20.6965 536.146 21.526 536.154 22.4571C537.455 23.2474 538.57 24.2808 539.496 25.5553ZM541.12 22.2225C539.829 20.8966 538.356 19.944 536.697 19.481C538.889 21.6744 540.419 24.7969 541.294 28.8406C542.043 27.6203 542.844 26.6326 543.695 25.8801C543.657 25.813 543.624 25.7514 543.596 25.6954C543.044 24.5926 542.221 23.3534 541.12 22.2225ZM550.251 25.285C549.532 26.8943 548.975 28.7825 548.577 30.9497C546.709 28.6648 545.436 27.0259 544.774 26.0543C546.424 24.8434 548.243 24.5944 550.251 25.285Z"
          fill="url(#paint7_linear)"/>
    <path d="M368.591 27C368.591 38.9243 358.924 48.5909 347 48.5909C335.076 48.5909 325.409 38.9243 325.409 27C325.409 15.0756 335.076 5.40906 347 5.40906C358.924 5.40906 368.591 15.0756 368.591 27Z"
          stroke="url(#paint8_linear)"/>
    <path fill-rule="evenodd" clip-rule="evenodd"
          d="M342.34 29.0097C342.164 29.3924 341.934 29.7654 341.618 30.0171C341.091 30.4355 340.338 30.6841 339.587 30.8428C338.818 31.0053 337.971 31.0896 337.192 31.1314C336.411 31.1733 335.685 31.1732 335.155 31.1628C334.89 31.1576 334.673 31.1498 334.521 31.1432C334.445 31.1399 334.386 31.1369 334.345 31.1347L334.298 31.1321L334.285 31.1314L334.281 31.1311C334.281 31.1311 334.28 31.1311 334.318 30.5181L334.281 31.1311C333.942 31.1101 333.684 30.8186 333.705 30.4801C333.726 30.1416 334.018 29.8842 334.356 29.9052L334.359 29.9054L334.369 29.906L334.41 29.9083C334.448 29.9102 334.503 29.913 334.575 29.9161C334.718 29.9223 334.925 29.9298 335.18 29.9348C335.689 29.9449 336.384 29.9448 337.126 29.9049C337.871 29.8649 338.65 29.7855 339.333 29.6412C340.034 29.493 340.556 29.2917 340.853 29.0556C340.949 28.98 341.079 28.8109 341.225 28.4956C341.365 28.1905 341.496 27.8002 341.621 27.3407C341.851 26.4908 342.039 25.4755 342.23 24.4475C342.247 24.3609 342.263 24.2742 342.279 24.1874C342.483 23.093 342.696 21.9869 342.968 21.1535C343.103 20.7397 343.268 20.3455 343.482 20.0437C343.694 19.7457 344.035 19.4313 344.53 19.4313C344.856 19.4313 345.103 19.5987 345.266 19.7702C345.424 19.9373 345.543 20.1482 345.636 20.3571C345.825 20.7778 345.975 21.3424 346.104 21.9673C346.363 23.2265 346.561 24.8912 346.746 26.5218C346.766 26.7044 346.787 26.8865 346.807 27.0677C346.971 28.5215 347.128 29.9153 347.312 30.9868C347.41 31.5599 347.512 32.0087 347.615 32.3135C347.726 32.1708 347.853 31.9759 347.998 31.728C348.263 31.2717 348.544 30.7113 348.851 30.1C348.975 29.8533 349.103 29.5984 349.235 29.3387C349.685 28.4592 350.184 27.5359 350.72 26.8286C350.988 26.4743 351.284 26.1495 351.608 25.909C351.933 25.668 352.323 25.4858 352.765 25.4858C353.423 25.4858 354.628 25.4855 355.91 25.3463C357.21 25.205 358.502 24.9286 359.374 24.4232C359.667 24.2531 360.043 24.3531 360.213 24.6466C360.383 24.94 360.283 25.3158 359.99 25.4858C358.885 26.1259 357.378 26.4222 356.042 26.5673C354.692 26.7141 353.43 26.7141 352.769 26.7141H352.765C352.672 26.7141 352.534 26.7518 352.34 26.8956C352.145 27.0399 351.93 27.2649 351.699 27.5702C351.236 28.1822 350.779 29.018 350.329 29.8976C350.208 30.1338 350.088 30.3744 349.968 30.6133C349.654 31.2398 349.345 31.8543 349.059 32.3458C348.861 32.6862 348.653 33.0044 348.438 33.2442C348.25 33.4534 347.929 33.7504 347.494 33.7504C347.131 33.7504 346.895 33.5218 346.773 33.3606C346.645 33.1924 346.551 32.9846 346.478 32.7825C346.33 32.3713 346.208 31.8158 346.101 31.1949C345.911 30.0854 345.749 28.6522 345.587 27.2069C345.566 27.0246 345.546 26.8421 345.525 26.66C345.339 25.0178 345.146 23.4098 344.901 22.2145C344.777 21.6121 344.647 21.1539 344.515 20.8588C344.5 20.8254 344.486 20.796 344.473 20.7702C344.368 20.9226 344.254 21.1734 344.135 21.535C343.893 22.2766 343.694 23.2978 343.486 24.4125C343.47 24.502 343.453 24.592 343.436 24.6824C343.248 25.6969 343.05 26.761 342.806 27.6615C342.673 28.1531 342.521 28.6168 342.34 29.0097ZM344.581 20.6486C344.581 20.6489 344.579 20.6502 344.575 20.6519C344.579 20.6492 344.581 20.6484 344.581 20.6486Z"
          fill="url(#paint9_linear)"/>
    <path d="M304.591 27C304.591 38.9243 294.924 48.5909 283 48.5909C271.076 48.5909 261.409 38.9243 261.409 27C261.409 15.0756 271.076 5.40906 283 5.40906C294.924 5.40906 304.591 15.0756 304.591 27Z"
          stroke="url(#paint10_linear)"/>
    <path fill-rule="evenodd" clip-rule="evenodd"
          d="M272.863 25.8724L271.153 22.9093C270.701 22.1267 269.7 21.8585 268.917 22.3104L268.273 22.6823C267.49 23.1342 267.222 24.1349 267.674 24.9176L269.385 27.8807C269.837 28.6634 270.837 28.9315 271.62 28.4796L271.681 28.4446L272.277 29.4772C272.345 29.5957 272.445 29.6853 272.559 29.7419L272.487 29.8131C271.848 30.4522 271.848 31.4883 272.487 32.1273L274.907 34.5467C275.546 35.1857 276.582 35.1857 277.221 34.5467L277.445 34.3222L279.753 35.208C279.847 35.244 279.943 35.2575 280.037 35.2512C280.232 35.9376 280.863 36.4404 281.612 36.4404H285.033C285.783 36.4404 286.415 35.9361 286.609 35.2481C286.663 35.2417 286.717 35.2285 286.77 35.208L288.917 34.384L289.079 34.5467C289.718 35.1857 290.755 35.1857 291.394 34.5467L293.813 32.1273C294.452 31.4883 294.452 30.4522 293.813 29.8131L293.787 29.7876C293.951 29.7424 294.097 29.6355 294.188 29.4772L294.746 28.5108C295.52 28.9184 296.484 28.6446 296.925 27.8807L298.636 24.9176C299.088 24.1349 298.82 23.1342 298.037 22.6823L297.393 22.3104C296.61 21.8585 295.609 22.1267 295.158 22.9093L293.447 25.8724C293.088 26.4943 293.183 27.2538 293.63 27.7664L293.029 28.8078C292.989 28.8778 292.962 28.952 292.949 29.0273C292.323 28.6649 291.508 28.7515 290.973 29.2872L288.553 31.7065C288.134 32.1264 287.99 32.7178 288.121 33.2552L286.652 33.8193C286.535 33.0298 285.855 32.4239 285.033 32.4239H281.612C280.774 32.4239 280.084 33.0527 279.987 33.8638L278.196 33.1763C278.296 32.6605 278.146 32.106 277.747 31.7065L275.327 29.2872C274.833 28.7926 274.101 28.6808 273.499 28.9517C273.484 28.9025 273.463 28.8542 273.436 28.8078L272.77 27.6532C273.138 27.1464 273.197 26.45 272.863 25.8724ZM289.948 33.6798L289.657 33.3885L289.655 33.3836C289.594 33.2237 289.478 33.1009 289.336 33.0283C289.271 32.8786 289.3 32.6978 289.422 32.5753L291.842 30.1559C292.001 29.9962 292.26 29.9962 292.42 30.1559L292.946 30.6819C293.106 30.8416 293.106 31.1006 292.946 31.2604L290.527 33.6798C290.367 33.8395 290.108 33.8395 289.948 33.6798ZM269.531 23.3745C269.726 23.2616 269.976 23.3286 270.089 23.5243L271.8 26.4874C271.913 26.683 271.846 26.9332 271.65 27.0462L271.006 27.4181C270.811 27.5311 270.56 27.464 270.447 27.2684L268.737 24.3053C268.624 24.1096 268.691 23.8594 268.886 23.7464L269.531 23.3745ZM296.78 23.3745C296.584 23.2616 296.334 23.3286 296.221 23.5243L294.51 26.4874C294.397 26.683 294.464 26.9332 294.66 27.0462L295.304 27.4181C295.5 27.5311 295.75 27.464 295.863 27.2684L297.573 24.3053C297.686 24.1096 297.619 23.8594 297.424 23.7464L296.78 23.3745ZM274.461 30.1559C274.301 29.9962 274.042 29.9962 273.882 30.1559L273.356 30.6819C273.196 30.8416 273.196 31.1006 273.356 31.2604L275.775 33.6798C275.935 33.8395 276.194 33.8395 276.354 33.6798L276.88 33.1538C277.04 32.9941 277.04 32.735 276.88 32.5753L274.461 30.1559ZM281.613 33.6521C281.387 33.6521 281.203 33.8353 281.203 34.0612V34.805C281.203 35.0309 281.387 35.2141 281.613 35.2141H285.034C285.26 35.2141 285.443 35.0309 285.443 34.805V34.0612C285.443 33.8353 285.26 33.6521 285.034 33.6521H281.613Z"
          fill="url(#paint11_linear)"/>
    <path d="M624.591 27C624.591 38.9243 614.924 48.5909 603 48.5909C591.076 48.5909 581.409 38.9243 581.409 27C581.409 15.0756 591.076 5.40906 603 5.40906C614.924 5.40906 624.591 15.0756 624.591 27Z"
          stroke="url(#paint12_linear)"/>
    <path fill-rule="evenodd" clip-rule="evenodd"
          d="M600.951 26.0048C599.338 23.8849 596.955 22.3103 594.144 21.2801C592.811 20.7912 591.415 20.4474 590.186 20.2675C591.016 19.9959 591.967 19.8873 592.872 19.9621C593.458 20.0106 593.77 19.2874 593.333 18.8944C593.153 18.732 593.007 18.5924 592.872 18.4562C592.814 18.3967 592.679 18.2557 592.619 18.1929C592.602 18.1759 592.592 18.1646 592.589 18.1623L592.566 18.1383C593.402 18.2155 594.275 18.4527 594.832 18.8617C595.262 19.1783 595.863 18.8314 595.805 18.3001C595.756 17.8531 595.559 17.3042 595.216 16.64C597.697 17.7071 600.406 20.7976 602.18 24.1449L601.626 26.0444L601.059 26.2316C601.04 26.1517 601.004 26.0744 600.951 26.0048ZM599.877 26.6219C598.422 24.7712 596.271 23.3668 593.722 22.4324C591.687 21.6864 589.501 21.3026 588.152 21.3544C587.587 21.3761 587.296 20.6863 587.706 20.2965C588.612 19.4349 589.968 18.9182 591.382 18.762C591.199 18.6584 590.893 18.5165 590.3 18.2562C589.789 18.0318 589.819 17.2966 590.347 17.1143C591.286 16.7899 592.816 16.798 594.118 17.1885C593.921 16.8097 593.663 16.3717 593.343 15.8788C593.041 15.414 593.461 14.8189 594 14.9478C597.322 15.7424 600.375 18.6807 602.622 22.6304L603.21 20.6168C603.352 20.1286 603.993 20.0156 604.294 20.4257L607.638 24.9843L613.29 24.8134C613.798 24.798 614.103 25.3722 613.806 25.7851L610.504 30.3747L612.413 35.6967C612.585 36.1755 612.133 36.6433 611.649 36.4884L606.264 34.7664L601.792 38.2264C601.39 38.5377 600.805 38.2526 600.803 37.744L600.776 32.0901L596.104 28.9065C595.684 28.6202 595.774 27.9761 596.257 27.8167L599.877 26.6219ZM605.768 33.5983C605.927 33.4747 606.138 33.4377 606.33 33.4992L610.838 34.9408L609.24 30.4855C609.172 30.2954 609.202 30.0839 609.32 29.9199L612.084 26.0777L607.353 26.2208C607.151 26.2269 606.959 26.1333 606.84 25.9704L604.04 22.1542L602.714 26.698C602.657 26.8918 602.509 27.0455 602.317 27.1088L597.822 28.5924L601.734 31.2575C601.901 31.3712 602.001 31.5598 602.002 31.7618L602.024 36.4949L605.768 33.5983Z"
          fill="url(#paint13_linear)"/>
    <path d="M240.591 27C240.591 38.9243 230.924 48.5909 219 48.5909C207.076 48.5909 197.409 38.9243 197.409 27C197.409 15.0756 207.076 5.40906 219 5.40906C230.924 5.40906 240.591 15.0756 240.591 27Z"
          stroke="url(#paint14_linear)"/>
    <path fill-rule="evenodd" clip-rule="evenodd"
          d="M204.694 26.9256C204.686 26.8863 204.682 26.8456 204.682 26.8039C204.682 26.465 204.956 26.1902 205.295 26.1902C206.794 26.1902 207.24 25.8601 207.689 24.8571C207.709 24.8107 207.729 24.7671 207.77 24.6737C208.355 23.3444 208.98 22.7975 210.546 22.7975C211.572 22.7975 212.4 23.5754 213.196 24.9967C213.268 25.1247 213.338 25.2544 213.408 25.3878C213.564 24.993 213.727 24.5687 213.899 24.1136L214.055 23.6972C214.963 21.2841 215.416 20.1897 216.007 19.1276C216.854 17.6051 217.739 16.3636 218.833 16.3636C219.912 16.3636 220.838 17.5912 221.786 19.0996C222.454 20.1641 223.007 21.3059 224.054 23.6641C224.583 24.854 224.641 24.9838 224.853 25.4475C224.868 25.4802 224.883 25.5126 224.898 25.5449C225.943 23.65 226.822 22.7975 227.932 22.7975C229.527 22.7975 230.218 23.3919 230.963 24.8243L230.997 24.8888C231.537 25.9276 231.83 26.1902 232.742 26.1902C233.081 26.1902 233.355 26.465 233.355 26.8039C233.355 26.8456 233.351 26.8863 233.343 26.9256C233.351 26.965 233.355 27.0057 233.355 27.0473C233.355 27.3862 233.081 27.661 232.742 27.661C231.83 27.661 231.537 27.9236 230.997 28.9624L230.963 29.0269C230.218 30.4593 229.527 31.0537 227.932 31.0537C226.822 31.0537 225.943 30.2012 224.898 28.3063C224.883 28.3386 224.868 28.3711 224.853 28.4037C224.641 28.8674 224.583 28.9972 224.054 30.1871C223.007 32.5453 222.454 33.6872 221.786 34.7516C220.838 36.26 220.098 37.2273 219.019 37.2273C217.925 37.2273 216.854 36.2461 216.007 34.7236C215.416 33.6615 214.963 32.5671 214.055 30.154L213.899 29.7376C213.727 29.2826 213.564 28.8582 213.408 28.4634C213.338 28.5968 213.268 28.7265 213.196 28.8545C212.4 30.2759 211.572 31.0537 210.546 31.0537C208.98 31.0537 208.355 30.5068 207.77 29.1775C207.729 29.0842 207.709 29.0405 207.689 28.9942C207.24 27.9912 206.794 27.661 205.295 27.661C204.956 27.661 204.682 27.3862 204.682 27.0473C204.682 27.0057 204.686 26.965 204.694 26.9256ZM212.768 26.9256C211.863 28.9751 211.206 29.8264 210.546 29.8264C209.547 29.8264 209.302 29.6118 208.893 28.6833C208.852 28.5903 208.831 28.5432 208.809 28.4932C208.49 27.7793 208.113 27.2628 207.561 26.9256C208.113 26.5884 208.49 26.0719 208.809 25.358C208.831 25.308 208.852 25.2609 208.893 25.1679C209.302 24.2394 209.547 24.0248 210.546 24.0248C211.206 24.0248 211.863 24.8762 212.768 26.9256ZM214.116 26.9256C214.381 27.5589 214.677 28.3226 215.047 29.3052L215.204 29.722C216.881 34.1798 217.999 36 219.019 36C220.067 36 220.961 34.1283 222.933 29.6889C223.464 28.4934 223.522 28.3628 223.737 27.893C223.893 27.5522 224.044 27.2299 224.191 26.9256C224.044 26.6214 223.893 26.299 223.737 25.9582C223.522 25.4884 223.464 25.3578 222.933 24.1623C220.961 19.7229 219.881 17.5909 218.833 17.5909C217.813 17.5909 216.881 19.6715 215.204 24.1292L215.047 24.5461C214.677 25.5286 214.381 26.2923 214.116 26.9256ZM225.563 26.9256C226.567 28.8971 227.325 29.8264 227.932 29.8264C228.974 29.8264 229.318 29.53 229.874 28.4605L229.908 28.3963C230.258 27.7218 230.585 27.2419 230.995 26.9256C230.585 26.6093 230.258 26.1295 229.908 25.4549L229.874 25.3908C229.318 24.3212 228.974 24.0248 227.932 24.0248C227.325 24.0248 226.567 24.9542 225.563 26.9256Z"
          fill="url(#paint15_linear)"/>
    <path d="M880.591 27C880.591 38.9243 870.924 48.5909 859 48.5909C847.076 48.5909 837.409 38.9243 837.409 27C837.409 15.0756 847.076 5.40906 859 5.40906C870.924 5.40906 880.591 15.0756 880.591 27Z"
          stroke="url(#paint16_linear)"/>
    <path fill-rule="evenodd" clip-rule="evenodd"
          d="M858.649 14.1134C858.896 14.1067 859.123 14.2486 859.225 14.4736L862.233 21.1092L870.116 22.0239C870.368 22.0531 870.576 22.2338 870.64 22.479C870.704 22.7242 870.61 22.9834 870.405 23.1317L864.328 27.5212L865.954 33.8731C866.014 34.1069 865.932 34.3541 865.743 34.5049C865.555 34.6557 865.295 34.6821 865.08 34.5724L858.977 31.4583L849.028 40.1444C848.811 40.3339 848.491 40.347 848.259 40.1759C848.027 40.0048 847.946 39.6956 848.063 39.4323L853.383 27.4663L847.586 23.1255C847.385 22.975 847.296 22.7173 847.361 22.4749C847.426 22.2324 847.632 22.0539 847.882 22.0241L855.517 21.113L858.093 14.5042C858.183 14.274 858.402 14.12 858.649 14.1134ZM858.708 16.3085L856.527 21.9022C856.445 22.1134 856.253 22.2621 856.028 22.289L849.551 23.0619L854.512 26.7767C854.741 26.9484 854.821 27.2559 854.705 27.5178L850.315 37.3903L858.482 30.2599C858.671 30.0948 858.942 30.0614 859.165 30.1755L864.427 32.8603L863.034 27.4206C862.972 27.1761 863.065 26.9182 863.27 26.7704L868.404 23.0617L861.747 22.2892C861.533 22.2643 861.347 22.1291 861.258 21.9328L858.708 16.3085Z"
          fill="url(#paint17_linear)"/>
    <path d="M752.591 27C752.591 38.9243 742.924 48.5909 731 48.5909C719.076 48.5909 709.409 38.9243 709.409 27C709.409 15.0756 719.076 5.40906 731 5.40906C742.924 5.40906 752.591 15.0756 752.591 27Z"
          stroke="url(#paint18_linear)"/>
    <path fill-rule="evenodd" clip-rule="evenodd"
          d="M729.364 20.25C729.364 19.9111 729.638 19.6363 729.977 19.6363C730.316 19.6363 730.591 19.9111 730.591 20.25V33.75C730.591 34.0889 730.316 34.3636 729.977 34.3636C729.638 34.3636 729.364 34.0889 729.364 33.75V20.25ZM726.909 21.4772C726.909 21.1383 727.184 20.8636 727.523 20.8636C727.862 20.8636 728.136 21.1383 728.136 21.4772V32.5227C728.136 32.8616 727.862 33.1363 727.523 33.1363C727.184 33.1363 726.909 32.8616 726.909 32.5227V21.4772ZM724.454 23.5227C724.454 23.1838 724.729 22.909 725.068 22.909C725.407 22.909 725.682 23.1838 725.682 23.5227V30.4772C725.682 30.8161 725.407 31.0909 725.068 31.0909C724.729 31.0909 724.454 30.8161 724.454 30.4772V23.5227ZM722 25.5681C722 25.2292 722.275 24.9545 722.614 24.9545C722.953 24.9545 723.227 25.2292 723.227 25.5681V28.4318C723.227 28.7707 722.953 29.0454 722.614 29.0454C722.275 29.0454 722 28.7707 722 28.4318V25.5681ZM720.16 26.5909C719.82 26.5909 719.545 26.8658 719.545 27.205C719.545 27.5441 719.82 27.8191 720.16 27.8191C720.499 27.8191 720.774 27.5441 720.774 27.205C720.774 26.8658 720.499 26.5909 720.16 26.5909ZM744.705 26.5909C744.366 26.5909 744.091 26.8658 744.091 27.205C744.091 27.5441 744.366 27.8191 744.705 27.8191C745.044 27.8191 745.319 27.5441 745.319 27.205C745.319 26.8658 745.044 26.5909 744.705 26.5909ZM739.795 24.9545C739.456 24.9545 739.182 25.2292 739.182 25.5681V28.4318C739.182 28.7707 739.456 29.0454 739.795 29.0454C740.134 29.0454 740.409 28.7707 740.409 28.4318V25.5681C740.409 25.2292 740.134 24.9545 739.795 24.9545ZM737.341 22.909C737.002 22.909 736.727 23.1838 736.727 23.5227V30.4772C736.727 30.8161 737.002 31.0909 737.341 31.0909C737.68 31.0909 737.955 30.8161 737.955 30.4772V23.5227C737.955 23.1838 737.68 22.909 737.341 22.909ZM734.886 20.8636C734.547 20.8636 734.273 21.1383 734.273 21.4772V32.5227C734.273 32.8616 734.547 33.1363 734.886 33.1363C735.225 33.1363 735.5 32.8616 735.5 32.5227V21.4772C735.5 21.1383 735.225 20.8636 734.886 20.8636ZM732.432 19.6363C732.093 19.6363 731.818 19.9111 731.818 20.25V33.75C731.818 34.0889 732.093 34.3636 732.432 34.3636C732.771 34.3636 733.045 34.0889 733.045 33.75V20.25C733.045 19.9111 732.771 19.6363 732.432 19.6363ZM717.091 27.205C717.091 26.8658 717.366 26.5909 717.705 26.5909C718.044 26.5909 718.319 26.8658 718.319 27.205C718.319 27.5441 718.044 27.8191 717.705 27.8191C717.366 27.8191 717.091 27.5441 717.091 27.205ZM742.25 26.5909C741.911 26.5909 741.636 26.8658 741.636 27.205C741.636 27.5441 741.911 27.8191 742.25 27.8191C742.59 27.8191 742.865 27.5441 742.865 27.205C742.865 26.8658 742.59 26.5909 742.25 26.5909Z"
          fill="url(#paint19_linear)"/>
    <path fill-rule="evenodd" clip-rule="evenodd"
          d="M731 153C745.912 153 758 140.912 758 126C758 111.088 745.912 99 731 99C716.088 99 704 111.088 704 126C704 140.912 716.088 153 731 153Z"
          fill="url(#paint20_linear)"/>
    <rect x="715.455" y="125.182" width="1.63636" height="1.63636" rx="0.818182" fill="white"/>
    <rect x="748.182" y="125.182" width="1.63636" height="1.63636" rx="0.818182" fill="white"/>
    <rect x="718.727" y="123.546" width="1.63636" height="4.90909" rx="0.818181" fill="white"/>
    <rect x="741.636" y="123.546" width="1.63637" height="4.90909" rx="0.818184" fill="white"/>
    <rect x="722" y="120.682" width="1.63636" height="10.6364" rx="0.818182" fill="white"/>
    <rect x="738.364" y="120.682" width="1.63637" height="10.6364" rx="0.818184" fill="white"/>
    <rect x="725.273" y="118.227" width="1.63636" height="15.5455" rx="0.818182" fill="white"/>
    <rect x="735.091" y="118.227" width="1.63636" height="15.5455" rx="0.818182" fill="white"/>
    <rect x="728.546" y="116.591" width="1.63636" height="18.8182" rx="0.818181" fill="white"/>
    <rect x="731.818" y="116.591" width="1.63636" height="18.8182" rx="0.81818" fill="white"/>
    <rect x="712.182" y="125.182" width="1.63636" height="1.63636" rx="0.818182" fill="white"/>
    <rect x="744.909" y="125.182" width="1.63636" height="1.63636" rx="0.818182" fill="white"/>
    <path d="M816.591 27C816.591 38.9243 806.924 48.5909 795 48.5909C783.076 48.5909 773.409 38.9243 773.409 27C773.409 15.0756 783.076 5.40906 795 5.40906C806.924 5.40906 816.591 15.0756 816.591 27Z"
          stroke="url(#paint21_linear)"/>
    <path fill-rule="evenodd" clip-rule="evenodd"
          d="M792.954 18.4091C792.954 17.9572 793.321 17.5909 793.773 17.5909C794.225 17.5909 794.591 17.9572 794.591 18.4091V36C794.591 36.4518 794.225 36.8182 793.773 36.8182C793.321 36.8182 792.954 36.4518 792.954 36V18.4091ZM790.5 20.0454C790.5 19.5936 790.866 19.2272 791.318 19.2272C791.77 19.2272 792.136 19.5936 792.136 20.0454V34.3636C792.136 34.8155 791.77 35.1818 791.318 35.1818C790.866 35.1818 790.5 34.8155 790.5 34.3636V20.0454ZM788.045 22.9091C788.045 22.4572 788.412 22.0909 788.864 22.0909C789.315 22.0909 789.682 22.4572 789.682 22.9091V31.9091C789.682 32.3609 789.315 32.7272 788.864 32.7272C788.412 32.7272 788.045 32.3609 788.045 31.9091V22.9091ZM785.591 25.3636C785.591 24.9117 785.957 24.5454 786.409 24.5454C786.861 24.5454 787.227 24.9117 787.227 25.3636V29.0454C787.227 29.4973 786.861 29.8636 786.409 29.8636C785.957 29.8636 785.591 29.4973 785.591 29.0454V25.3636ZM783.75 26.5909C783.411 26.5909 783.136 26.8656 783.136 27.2045C783.136 27.5434 783.411 27.8181 783.75 27.8181H784.159C784.498 27.8181 784.773 27.5434 784.773 27.2045C784.773 26.8656 784.498 26.5909 784.159 26.5909H783.75ZM808.295 26.5909C807.956 26.5909 807.682 26.8656 807.682 27.2045C807.682 27.5434 807.956 27.8181 808.295 27.8181H808.704C809.043 27.8181 809.318 27.5434 809.318 27.2045C809.318 26.8656 809.043 26.5909 808.704 26.5909H808.295ZM803.591 24.5454C803.139 24.5454 802.773 24.9117 802.773 25.3636V29.0454C802.773 29.4973 803.139 29.8636 803.591 29.8636C804.043 29.8636 804.409 29.4973 804.409 29.0454V25.3636C804.409 24.9117 804.043 24.5454 803.591 24.5454ZM801.136 22.0909C800.684 22.0909 800.318 22.4572 800.318 22.9091V31.9091C800.318 32.3609 800.684 32.7272 801.136 32.7272C801.588 32.7272 801.954 32.3609 801.954 31.9091V22.9091C801.954 22.4572 801.588 22.0909 801.136 22.0909ZM798.682 19.2272C798.23 19.2272 797.864 19.5936 797.864 20.0454V34.3636C797.864 34.8155 798.23 35.1818 798.682 35.1818C799.134 35.1818 799.5 34.8155 799.5 34.3636V20.0454C799.5 19.5936 799.134 19.2272 798.682 19.2272ZM796.227 17.5909C795.775 17.5909 795.409 17.9572 795.409 18.4091V36C795.409 36.4518 795.775 36.8182 796.227 36.8182C796.679 36.8182 797.045 36.4518 797.045 36V18.4091C797.045 17.9572 796.679 17.5909 796.227 17.5909ZM780.682 27.2045C780.682 26.8656 780.956 26.5909 781.295 26.5909H781.704C782.043 26.5909 782.318 26.8656 782.318 27.2045C782.318 27.5434 782.043 27.8181 781.704 27.8181H781.295C780.956 27.8181 780.682 27.5434 780.682 27.2045ZM805.841 26.5909C805.502 26.5909 805.227 26.8656 805.227 27.2045C805.227 27.5434 805.502 27.8181 805.841 27.8181H806.25C806.589 27.8181 806.864 27.5434 806.864 27.2045C806.864 26.8656 806.589 26.5909 806.25 26.5909H805.841Z"
          fill="url(#paint22_linear)"/>
    <path d="M496.591 27C496.591 38.9243 486.924 48.5909 475 48.5909C463.076 48.5909 453.409 38.9243 453.409 27C453.409 15.0757 463.076 5.40909 475 5.40909C486.924 5.40909 496.591 15.0757 496.591 27Z"
          stroke="url(#paint23_linear)"/>
    <path fill-rule="evenodd" clip-rule="evenodd"
          d="M475.557 23.7236C475.471 23.396 475.666 23.0602 475.994 22.9736C476.321 22.8869 476.657 23.0823 476.744 23.41C477.171 25.0261 477.808 26.4063 478.653 27.5543C480.378 29.8987 482.058 31.0878 483.697 30.6705C484.94 30.354 485.084 28.01 484.259 24.7858C484.006 23.7987 483.384 22.0545 482.959 21.1501C481.161 17.3238 478.294 15.8854 476.543 17.344C475.919 17.8647 475.091 19.2627 475.091 19.885C475.091 21.2817 474.022 23.3702 472.642 25.0264L472.601 25.0751C471.924 25.8739 470.958 26.6836 469.615 27.6446C469.29 27.8773 468.958 28.1087 468.527 28.4039C468.562 28.3804 468.43 28.4707 468.249 28.5941C469.966 28.2066 471.263 27.9998 472.153 27.9741C474.221 27.9142 476.116 28.3006 478.333 29.1396C478.11 28.87 477.887 28.5838 477.665 28.2818C476.724 27.0045 476.023 25.4838 475.557 23.7236ZM480.742 31.3199C481.783 31.9387 482.861 32.1499 484 31.8598C486.265 31.2831 486.443 28.3722 485.447 24.4814C485.176 23.4204 484.528 21.6034 484.07 20.6281C481.976 16.1734 478.265 14.3116 475.758 16.4012C474.878 17.1345 473.863 18.8474 473.863 19.885C473.863 20.9257 472.912 22.7854 471.699 24.2408L471.665 24.2812C471.069 24.9846 470.168 25.7398 468.901 26.6466C468.584 26.8737 468.258 27.1007 467.833 27.3916C467.918 27.3337 467.05 27.9271 466.836 28.075C466.071 28.6042 465.632 28.9369 465.341 29.2279C464.563 30.0053 464.127 31.1043 464.497 32.0383C464.965 33.2193 466.515 33.7801 469.177 33.6975C469.234 33.6957 469.289 33.6863 469.34 33.6703C469.535 34.4775 470.263 35.0771 471.13 35.0771C472.146 35.0771 472.971 34.2529 472.971 33.2362C472.971 32.2195 472.146 31.3953 471.13 31.3953C470.362 31.3953 469.704 31.8651 469.428 32.5329C469.341 32.4902 469.243 32.4676 469.139 32.4708C466.938 32.5391 465.861 32.1497 465.638 31.5863C465.496 31.2266 465.709 30.6431 466.123 30.1851C466.26 30.2686 466.429 30.299 466.596 30.2563C469.229 29.5837 471.103 29.2322 472.188 29.2008C474.744 29.1269 477.061 29.8121 480.281 31.2983C480.432 31.368 480.597 31.3712 480.742 31.3199ZM471.745 33.2376C471.745 33.5768 471.47 33.8518 471.131 33.8518C470.792 33.8518 470.517 33.5768 470.517 33.2376C470.517 32.8985 470.792 32.6235 471.131 32.6235C471.47 32.6235 471.745 32.8985 471.745 33.2376ZM475.223 36H467.004C466.45 36 466 36.4495 466 37.0041V37.8595C466 38.414 466.45 38.8636 467.004 38.8636H475.223C475.778 38.8636 476.227 38.414 476.227 37.8595V37.0041C476.227 36.4495 475.778 36 475.223 36ZM466.819 37.0047C466.819 36.902 466.902 36.8187 467.005 36.8187H475.224C475.326 36.8187 475.41 36.902 475.41 37.0047V37.8601C475.41 37.9628 475.326 38.046 475.224 38.046H467.005C466.902 38.046 466.819 37.9628 466.819 37.8601V37.0047ZM478.128 19.0326C478.026 19.2347 478.108 19.4804 478.31 19.5814C479.971 20.4116 481.249 22.4461 482.115 25.7128C482.172 25.9312 482.396 26.0614 482.615 26.0035C482.833 25.9456 482.963 25.7217 482.905 25.5033C481.986 22.0317 480.586 19.8046 478.676 18.8496C478.474 18.7486 478.229 18.8305 478.128 19.0326Z"
          fill="url(#paint24_linear)"/>
    <path d="M432.591 27C432.591 38.9243 422.924 48.5909 411 48.5909C399.076 48.5909 389.409 38.9243 389.409 27C389.409 15.0757 399.076 5.40909 411 5.40909C422.924 5.40909 432.591 15.0757 432.591 27Z"
          stroke="url(#paint25_linear)"/>
    <path fill-rule="evenodd" clip-rule="evenodd"
          d="M420.37 16.4382C420.185 16.3082 419.93 16.3526 419.8 16.5373L417.68 19.5497C417.55 19.7345 417.594 19.9897 417.779 20.1197C417.964 20.2497 418.219 20.2054 418.349 20.0206L420.469 17.0082C420.599 16.8234 420.554 16.5682 420.37 16.4382ZM417.378 25.5199C417.299 25.5791 417.211 25.6164 417.12 25.6329L418.092 27.9121C418.125 27.9882 418.141 28.0702 418.141 28.1529C418.141 29.6167 417.263 30.4401 415.743 30.4401C415.526 30.4401 415.256 30.4313 414.874 30.4133C414.711 30.4056 414.188 30.3786 413.912 30.3643L413.744 30.3557C412.156 30.2758 411.008 30.2498 409.84 30.292C407.997 30.3585 406.53 30.601 405.504 31.0566C405.389 31.1078 405.276 31.1572 405.164 31.2048C405.174 31.2238 405.184 31.2436 405.192 31.264L406.869 35.2887C407.447 36.7333 406.997 37.8124 405.596 38.1238C404.185 38.4372 403.303 37.4979 403.024 35.6722L401.709 32.2093C401.7 32.1845 401.692 32.1595 401.686 32.1345C400.293 32.1675 399.32 31.5604 398.676 30.2007C397.457 27.6287 399.499 24.8616 402.577 24.8616C404.131 24.8616 406.708 23.0367 410.156 19.3724C411.483 17.9135 412.495 17.3352 413.322 17.9554C413.858 18.3576 414.26 18.8932 414.525 19.5505L415.303 21.3743C416.606 20.9216 417.656 21.2676 418.228 22.4116C418.813 23.5807 418.499 24.6793 417.378 25.5199ZM402.929 31.9651L404.195 35.2987C404.211 35.341 404.223 35.385 404.229 35.4298C404.408 36.6828 404.749 37.0548 405.329 36.9258C405.936 36.791 406.044 36.5312 405.733 35.7526L404.059 31.736C404.047 31.7059 404.037 31.6753 404.029 31.6445C403.642 31.7782 403.276 31.8854 402.929 31.9651ZM417.131 22.9604C416.865 22.4292 416.481 22.2778 415.785 22.5056L416.65 24.532C417.307 24.0361 417.437 23.5739 417.131 22.9604ZM423.218 20.0748C423.427 19.9909 423.666 20.0929 423.749 20.3027C423.833 20.5125 423.731 20.7505 423.522 20.8344L420.174 22.1733C419.965 22.2572 419.727 22.1552 419.643 21.9454C419.559 21.7356 419.661 21.4975 419.871 21.4136L423.218 20.0748ZM419.693 24.5639C419.559 24.7461 419.598 25.0021 419.781 25.1357L423.128 27.5903C423.31 27.7239 423.566 27.6845 423.7 27.5023C423.833 27.3201 423.794 27.0641 423.612 26.9305L420.264 24.4759C420.082 24.3423 419.826 24.3817 419.693 24.5639ZM413.389 20.014L413.394 20.0269L416.912 28.2729C416.882 28.9232 416.584 29.1909 415.844 29.2124L412.512 21.5488C412.377 21.238 412.015 21.0956 411.705 21.2307C411.394 21.3658 411.251 21.7273 411.387 22.0381L414.486 29.1658L413.981 29.1398L413.806 29.1309C412.187 29.0494 411.008 29.0227 409.796 29.0664C408.779 29.1031 407.862 29.1906 407.049 29.3387L405.816 26.5649C405.678 26.2552 405.316 26.1157 405.006 26.2533C404.696 26.391 404.557 26.7536 404.694 27.0633L405.835 29.6292C405.54 29.7197 405.264 29.8217 405.007 29.9361C401.945 31.2971 400.526 31.238 399.786 29.6763C398.974 27.9634 400.357 26.0898 402.578 26.0898C404.595 26.0898 407.374 24.1214 411.058 20.2067C411.971 19.2032 412.521 18.8889 412.586 18.9382C412.941 19.204 413.207 19.5587 413.389 20.014Z"
          fill="url(#paint26_linear)"/>
    <path d="M176.591 27C176.591 38.9243 166.924 48.5909 155 48.5909C143.076 48.5909 133.409 38.9243 133.409 27C133.409 15.0756 143.076 5.40906 155 5.40906C166.924 5.40906 176.591 15.0756 176.591 27Z"
          stroke="url(#paint27_linear)"/>
    <path fill-rule="evenodd" clip-rule="evenodd"
          d="M147.539 19.6606L150.626 30.5154L155.248 20.0648L159.212 30.5196L162.94 19.7909L165.629 27.7154H169.318V28.9436H164.749L162.926 23.5727L159.262 34.1167L155.161 23.2988L150.374 34.1209L147.412 23.703L145.558 28.9436H141.091V27.7154H144.689L147.539 19.6606Z"
          fill="url(#paint28_linear)"/>
    <path fill-rule="evenodd" clip-rule="evenodd"
          d="M91 153C105.912 153 118 140.912 118 126C118 111.088 105.912 99 91 99C76.0883 99 64 111.088 64 126C64 140.912 76.0883 153 91 153Z"
          fill="url(#paint29_linear)"/>
    <path d="M77.0909 126.882C81.7324 105.804 94.9244 146.886 100 126.882" stroke="white" stroke-width="1.63763"
          stroke-linecap="round" stroke-linejoin="round"/>
    <path d="M82.4091 126.882C87.0505 105.804 100.243 146.886 105.318 126.882" stroke="white" stroke-width="1.63763"
          stroke-linecap="round" stroke-linejoin="round"/>
    <path fill-rule="evenodd" clip-rule="evenodd"
          d="M155 153C169.912 153 182 140.912 182 126C182 111.088 169.912 99 155 99C140.088 99 128 111.088 128 126C128 140.912 140.088 153 155 153Z"
          fill="url(#paint30_linear)"/>
    <path d="M137.818 127.636H142.727L145.591 119.455L149.273 132.545L155 119.455L159.909 132.545L164.409 119.455L167.155 127.636H172.182"
          stroke="white" stroke-width="1.63763"/>
    <path fill-rule="evenodd" clip-rule="evenodd"
          d="M667 153C681.912 153 694 140.912 694 126C694 111.088 681.912 99 667 99C652.088 99 640 111.088 640 126C640 140.912 652.088 153 667 153Z"
          fill="url(#paint31_linear)"/>
    <path d="M650.636 130.298C650.636 130.298 659.323 121.558 663.162 123.776C667 125.994 662.019 132.166 669.626 130.681C677.233 129.196 683.364 121.091 683.364 121.091"
          stroke="white" stroke-width="1.63763" stroke-linecap="round" stroke-linejoin="round"/>
    <path fill-rule="evenodd" clip-rule="evenodd"
          d="M475 153C489.912 153 502 140.912 502 126C502 111.088 489.912 99 475 99C460.088 99 448 111.088 448 126C448 140.912 460.088 153 475 153Z"
          fill="url(#paint32_linear)"/>
    <path d="M476.636 120.682C476.636 120.682 477.454 123.777 479.091 126C480.727 128.223 483.21 130.813 486.045 130.091C488.56 129.451 488.091 125.182 487.273 121.986C486.958 120.755 486.185 118.576 485.636 117.409C483.137 112.091 479.091 110.455 476.636 112.5C475.85 113.155 474.591 115.054 474.591 116.182C474.591 117.818 473.162 120.318 471.772 121.986C469.726 124.44 465.182 126.904 463.954 128.131C462.727 129.359 461.5 132.519 468.09 132.314"
          stroke="white" stroke-width="1.63763" stroke-linecap="round" stroke-linejoin="round"/>
    <path fill-rule="evenodd" clip-rule="evenodd"
          d="M470.34 133.951C471.131 133.951 471.772 133.309 471.772 132.519C471.772 131.728 471.131 131.087 470.34 131.087C469.549 131.087 468.908 131.728 468.908 132.519C468.908 133.309 469.549 133.951 470.34 133.951Z"
          stroke="white" stroke-width="1.63763" stroke-linecap="round" stroke-linejoin="round"/>
    <path d="M464.773 128.131C464.773 128.131 469.676 126.879 471.772 126.818C475.643 126.706 479.149 128.135 481.999 129.451"
          stroke="white" stroke-width="1.63763" stroke-linecap="round" stroke-linejoin="round"/>
    <rect x="464.978" y="136.841" width="11.0445" height="2.04451" rx="0.61411" stroke="white" stroke-width="1.22822"
          stroke-linecap="round" stroke-linejoin="round"/>
    <path d="M479.5 115.364C479.5 115.364 482.773 117 484.409 123.177" stroke="white" stroke-width="1.22822"
          stroke-linecap="round" stroke-linejoin="round"/>
    <path fill-rule="evenodd" clip-rule="evenodd"
          d="M411 153C425.912 153 438 140.912 438 126C438 111.088 425.912 99 411 99C396.088 99 384 111.088 384 126C384 140.912 396.088 153 411 153Z"
          fill="url(#paint33_linear)"/>
    <path d="M418.364 123.409C418.364 123.409 420 122.182 419.182 120.545C418.364 118.909 416.318 119.727 416.318 119.727"
          stroke="white" stroke-width="1.63763" stroke-linecap="round" stroke-linejoin="round"/>
    <path d="M422.182 113.318L419.591 117" stroke="white" stroke-width="1.22822" stroke-linecap="round"
          stroke-linejoin="round"/>
    <path d="M426.136 117.818L422.046 119.455" stroke="white" stroke-width="1.22822" stroke-linecap="round"
          stroke-linejoin="round"/>
    <path d="M422.046 123.136L426.136 126.136" stroke="white" stroke-width="1.22822" stroke-linecap="round"
          stroke-linejoin="round"/>
    <path fill-rule="evenodd" clip-rule="evenodd"
          d="M414.633 117L418.996 127.227C418.996 127.227 418.996 129.273 416.815 129.273C414.633 129.273 407.678 128.455 403.996 130.091C400.315 131.727 397.86 132 396.633 129.409C395.405 126.818 397.451 123.955 400.724 123.955C403.996 123.955 410.542 117 410.542 117C410.542 117 412.587 114.75 413.405 115.364C414.224 115.977 414.633 117 414.633 117Z"
          stroke="white" stroke-width="1.63763" stroke-linecap="round" stroke-linejoin="round"/>
    <path d="M403.227 131.318L405.273 136.227C405.273 136.227 406.091 138.273 404.25 138.682C402.409 139.091 402 136.227 402 136.227L400.364 131.919"
          stroke="white" stroke-width="1.63763" stroke-linecap="round" stroke-linejoin="round"/>
    <path d="M412.178 119.455L416.269 128.864" stroke="white" stroke-width="1.63763" stroke-linecap="round"
          stroke-linejoin="round"/>
    <path d="M403.996 125.591L405.633 129.273" stroke="white" stroke-width="1.63763" stroke-linecap="round"
          stroke-linejoin="round"/>
    <path fill-rule="evenodd" clip-rule="evenodd"
          d="M27 153C41.9117 153 54 140.912 54 126C54 111.088 41.9117 99 27 99C12.0883 99 0 111.088 0 126C0 140.912 12.0883 153 27 153Z"
          fill="url(#paint34_linear)"/>
    <path fill-rule="evenodd" clip-rule="evenodd"
          d="M13.9091 125.592C13.9091 124.914 14.459 124.364 15.1373 124.364H38.8627C39.541 124.364 40.0909 124.914 40.0909 125.592V126.408C40.0909 127.086 39.541 127.636 38.8627 127.636H15.1373C14.4589 127.636 13.9091 127.086 13.9091 126.408V125.592Z"
          fill="white"/>
    <path fill-rule="evenodd" clip-rule="evenodd"
          d="M539 153C553.912 153 566 140.912 566 126C566 111.088 553.912 99 539 99C524.088 99 512 111.088 512 126C512 140.912 524.088 153 539 153Z"
          fill="url(#paint35_linear)"/>
    <path d="M541.603 128.752C541.603 128.752 546.364 120.198 553.318 122.988C551.682 126.409 550.901 131.355 550.901 131.355C550.901 131.355 545.694 125.033 544.95 123.545C544.207 122.058 540.859 116.107 534.537 115.364C534.909 117.223 534.909 120.198 534.909 120.198"
          stroke="white" stroke-width="1.22822" stroke-linecap="round" stroke-linejoin="round"/>
    <path d="M541.603 129.868C541.603 129.868 540.116 120.57 535.281 116.107" stroke="white" stroke-width="1.22822"
          stroke-linecap="round" stroke-linejoin="round"/>
    <path d="M542.273 131.355C542.273 131.355 539.744 120.198 530.074 118.339C530.074 120.198 530.074 122.058 530.074 122.058"
          stroke="white" stroke-width="1.22822" stroke-linecap="round" stroke-linejoin="round"/>
    <path d="M535.839 128.38C535.839 128.38 534.537 122.802 530.446 119.083" stroke="white" stroke-width="1.22822"
          stroke-linecap="round" stroke-linejoin="round"/>
    <path d="M526.355 128.008L523.752 120.942C523.752 120.942 530.446 120.57 535.839 127.636" stroke="white"
          stroke-width="1.22822" stroke-linecap="round" stroke-linejoin="round"/>
    <path d="M531.19 128.38C531.19 128.38 528.959 124.624 524.124 120.924" stroke="white" stroke-width="1.22822"
          stroke-linecap="round" stroke-linejoin="round"/>
    <path d="M555.364 128.455C554.032 130.686 548.133 133.438 543.567 132.211C539 130.984 535.264 128.418 530.282 128.455C525.3 128.492 523.397 130.24 522.636 131.43"
          stroke="white" stroke-width="1.63763" stroke-linecap="round" stroke-linejoin="round"/>
    <path fill-rule="evenodd" clip-rule="evenodd"
          d="M347 153C361.912 153 374 140.912 374 126C374 111.088 361.912 99 347 99C332.088 99 320 111.088 320 126C320 140.912 332.088 153 347 153Z"
          fill="url(#paint36_linear)"/>
    <path d="M331.045 130.091C331.045 130.091 337.591 130.5 339.636 128.864C341.682 127.227 341.682 117 343.727 117C345.773 117 345.773 133.364 347.409 133.364C348.915 133.364 351.299 124.568 353.955 124.568C355.591 124.568 360.091 124.568 362.545 123.136"
          stroke="white" stroke-width="1.63763" stroke-linecap="round" stroke-linejoin="round"/>
    <path fill-rule="evenodd" clip-rule="evenodd"
          d="M283 153C297.912 153 310 140.912 310 126C310 111.088 297.912 99 283 99C268.088 99 256 111.088 256 126C256 140.912 268.088 153 283 153Z"
          fill="url(#paint37_linear)"/>
    <rect x="267.235" y="120.303" width="6.54419" height="3.27146" rx="0.818814" transform="rotate(60 267.235 120.303)"
          stroke="white" stroke-width="1.63763"/>
    <rect x="0.299707" y="1.11852" width="6.54419" height="3.27146" rx="0.818814"
          transform="matrix(-0.5 0.866025 0.866025 0.5 298.355 119.484)" stroke="white" stroke-width="1.63763"/>
    <path d="M271.644 129.034C271.964 128.715 272.483 128.715 272.802 129.034L276.272 132.504C276.592 132.824 276.592 133.342 276.272 133.662L275.116 134.817C274.797 135.137 274.278 135.137 273.958 134.817L270.489 131.348C270.169 131.028 270.169 130.51 270.489 130.19L271.644 129.034Z"
          stroke="white" stroke-width="1.63763"/>
    <path d="M293.595 129.034C293.915 128.715 294.433 128.715 294.753 129.034L295.908 130.19C296.228 130.51 296.228 131.028 295.908 131.348L292.439 134.817C292.119 135.137 291.6 135.137 291.281 134.817L290.125 133.662C289.806 133.342 289.806 132.824 290.125 132.504L293.595 129.034Z"
          stroke="white" stroke-width="1.63763"/>
    <rect x="280.137" y="133.364" width="6.54419" height="3.27146" rx="0.818814" stroke="white" stroke-width="1.63763"/>
    <rect x="270.099" y="126" width="3.27273" height="1.63636" rx="0.818182" transform="rotate(60 270.099 126)"
          fill="white"/>
    <rect width="4.90909" height="1.63636" rx="0.81818"
          transform="matrix(0.933581 0.358367 -0.358369 0.93358 275.814 132.955)" fill="white"/>
    <rect width="4.90909" height="1.63636" rx="0.81818"
          transform="matrix(-0.933581 0.358367 0.358369 0.93358 290.856 132.955)" fill="white"/>
    <rect width="3.27273" height="1.63637" rx="0.818183"
          transform="matrix(-0.500001 0.866025 0.866026 0.499999 296.5 126)" fill="white"/>
    <path fill-rule="evenodd" clip-rule="evenodd"
          d="M603 153C617.912 153 630 140.912 630 126C630 111.088 617.912 99 603 99C588.088 99 576 111.088 576 126C576 140.912 588.088 153 603 153Z"
          fill="url(#paint38_linear)"/>
    <path fill-rule="evenodd" clip-rule="evenodd"
          d="M606.817 133.323L601.016 137.812L600.982 130.477L594.92 126.347L601.885 124.048L603.94 117.006L608.279 122.92L615.611 122.699L611.327 128.653L613.803 135.557L606.817 133.323Z"
          stroke="white" stroke-width="1.63763" stroke-linecap="round" stroke-linejoin="round"/>
    <path d="M600.057 123.955C595.952 118.572 587.96 117.071 584.999 117.206C586.51 115.777 589.032 115.332 590.884 115.471C589.434 114.177 590.197 114.426 587.988 113.476C588.982 113.129 591.943 112.994 593.676 114.254C593.56 113.137 592.062 110.83 592.062 110.83C592.062 110.83 598.158 112.237 602.145 119.784"
          stroke="white" stroke-width="1.63763" stroke-linecap="round" stroke-linejoin="round"/>
    <path fill-rule="evenodd" clip-rule="evenodd"
          d="M219 153C233.912 153 246 140.912 246 126C246 111.088 233.912 99 219 99C204.088 99 192 111.088 192 126C192 140.912 204.088 153 219 153Z"
          fill="url(#paint39_linear)"/>
    <path d="M202.227 126.056C207.326 126.056 204.616 121.909 208.645 121.909C212.674 121.909 214.779 137.455 219 137.455C223.221 137.455 226.039 121.909 229.894 121.909C233.749 121.909 232.185 126.056 235.773 126.056"
          stroke="white" stroke-width="1.63763" stroke-linecap="round" stroke-linejoin="round"/>
    <path d="M202.227 126.353C207.326 126.353 204.616 130.5 208.645 130.5C212.674 130.5 214.779 114.136 219 114.136C223.221 114.136 226.039 130.5 229.894 130.5C233.749 130.5 232.185 126.353 235.773 126.353"
          stroke="white" stroke-width="1.63763" stroke-linecap="round" stroke-linejoin="round"/>
    <path fill-rule="evenodd" clip-rule="evenodd"
          d="M795 153C809.912 153 822 140.912 822 126C822 111.088 809.912 99 795 99C780.088 99 768 111.088 768 126C768 140.912 780.088 153 795 153Z"
          fill="url(#paint40_linear)"/>
    <rect x="779.045" y="125.182" width="2.45455" height="1.63637" rx="0.818183" fill="white"/>
    <rect x="811.773" y="125.182" width="2.45455" height="1.63637" rx="0.818183" fill="white"/>
    <rect x="782.318" y="122.727" width="2.45455" height="6.54546" rx="1.02352" fill="white"/>
    <rect x="805.227" y="122.727" width="2.45454" height="6.54546" rx="1.02352" fill="white"/>
    <rect x="785.591" y="119.455" width="2.45455" height="13.0909" rx="1.02352" fill="white"/>
    <rect x="801.955" y="119.455" width="2.45455" height="13.0909" rx="1.02352" fill="white"/>
    <rect x="788.864" y="116.182" width="2.45455" height="19.6364" rx="1.02352" fill="white"/>
    <rect x="798.682" y="116.182" width="2.45454" height="19.6364" rx="1.02352" fill="white"/>
    <rect x="792.136" y="114.136" width="2.45454" height="23.7273" rx="1.02352" fill="white"/>
    <rect x="795.409" y="114.136" width="2.45455" height="23.7273" rx="1.02352" fill="white"/>
    <rect x="775.773" y="125.182" width="2.45455" height="1.63637" rx="0.818183" fill="white"/>
    <rect x="808.5" y="125.182" width="2.45454" height="1.63637" rx="0.818183" fill="white"/>
    <path fill-rule="evenodd" clip-rule="evenodd"
          d="M859 153C873.912 153 886 140.912 886 126C886 111.088 873.912 99 859 99C844.088 99 832 111.088 832 126C832 140.912 844.088 153 859 153Z"
          fill="url(#paint41_linear)"/>
    <path fill-rule="evenodd" clip-rule="evenodd"
          d="M858.861 130.53L846.318 141.545L853.064 126.283L845.5 120.585L855.278 119.411L858.591 110.864L862.444 119.411L872.5 120.585L864.658 126.283L866.773 134.591L858.861 130.53Z"
          stroke="white" stroke-width="1.63763" stroke-linecap="round" stroke-linejoin="round"/>
    <path fill-rule="evenodd" clip-rule="evenodd"
          d="M923 153C937.912 153 950 140.912 950 126C950 111.088 937.912 99 923 99C908.088 99 896 111.088 896 126C896 140.912 908.088 153 923 153Z"
          fill="url(#paint42_linear)"/>
    <path fill-rule="evenodd" clip-rule="evenodd"
          d="M921.321 112.345C923.826 110.892 926.32 110.65 930.132 111.497C932.063 111.926 933.393 113.632 934.324 115.643C935.272 117.69 935.912 120.273 936.349 122.849C937.225 128.011 937.318 133.346 937.318 134.795C937.318 136.179 936.863 139.241 933.55 140.661C930.91 141.792 927.105 142.159 923 142.159C919.256 142.159 916.249 141.641 913.941 140.487C911.602 139.318 910.028 137.517 909.14 135.075C908.656 133.744 908.711 132.112 909.05 130.44C909.392 128.75 910.043 126.925 910.852 125.149C912.465 121.61 914.766 118.145 916.694 116.217C918.179 114.733 919.671 113.302 921.321 112.345ZM929.777 113.094C926.226 112.305 924.185 112.576 922.142 113.76C920.701 114.596 919.347 115.878 917.851 117.374C916.098 119.127 913.898 122.412 912.341 125.828C911.565 127.53 910.963 129.233 910.653 130.765C910.34 132.314 910.344 133.597 910.678 134.516C911.426 136.574 912.717 138.046 914.673 139.024C916.66 140.018 919.38 140.523 923 140.523C927.076 140.523 930.592 140.148 932.905 139.157C935.319 138.123 935.682 135.925 935.682 134.795C935.682 133.381 935.589 128.152 934.736 123.123C934.308 120.604 933.698 118.185 932.839 116.331C931.965 114.442 930.933 113.351 929.777 113.094Z"
          fill="white"/>
    <path fill-rule="evenodd" clip-rule="evenodd"
          d="M930.773 115.568C931.225 115.568 931.591 115.202 931.591 114.75C931.591 114.298 931.225 113.932 930.773 113.932C930.321 113.932 929.955 114.298 929.955 114.75C929.955 115.202 930.321 115.568 930.773 115.568ZM933.227 114.75C933.227 116.106 932.128 117.205 930.773 117.205C929.417 117.205 928.318 116.106 928.318 114.75C928.318 113.394 929.417 112.295 930.773 112.295C932.128 112.295 933.227 113.394 933.227 114.75Z"
          fill="white"/>
    <path fill-rule="evenodd" clip-rule="evenodd"
          d="M925.045 115.159C925.497 115.159 925.864 114.793 925.864 114.341C925.864 113.889 925.497 113.523 925.045 113.523C924.594 113.523 924.227 113.889 924.227 114.341C924.227 114.793 924.594 115.159 925.045 115.159ZM927.5 114.341C927.5 115.697 926.401 116.795 925.045 116.795C923.69 116.795 922.591 115.697 922.591 114.341C922.591 112.985 923.69 111.886 925.045 111.886C926.401 111.886 927.5 112.985 927.5 114.341Z"
          fill="white"/>
    <path fill-rule="evenodd" clip-rule="evenodd"
          d="M929.284 120.947C929.751 121.12 930.227 121.373 930.563 121.748C931.886 123.222 932.478 125.235 932.78 126.894C932.933 127.736 933.016 128.517 933.075 129.131C933.086 129.246 933.096 129.352 933.105 129.452C933.121 129.625 933.135 129.777 933.149 129.913C933.173 130.138 933.191 130.254 933.203 130.302C933.327 130.799 933.355 131.29 933.23 131.74C933.098 132.21 932.812 132.586 932.407 132.83C931.653 133.284 930.647 133.202 929.717 132.919C928.997 132.701 928.645 132.534 928.344 132.391C927.801 132.134 927.426 131.957 925.353 131.697C923.922 131.519 922.775 131.894 921.682 132.278C921.645 132.291 921.608 132.304 921.571 132.318C921.077 132.492 920.545 132.679 920.037 132.768C919.466 132.868 918.844 132.86 918.228 132.552C917.763 132.32 917.516 131.911 917.416 131.494C917.324 131.105 917.351 130.688 917.418 130.311C917.552 129.55 917.896 128.679 918.262 127.895C918.634 127.098 919.056 126.333 919.383 125.772C919.547 125.49 919.688 125.257 919.788 125.094C919.839 125.012 919.879 124.948 919.907 124.903C919.92 124.882 919.931 124.865 919.939 124.853C919.942 124.847 919.947 124.839 919.952 124.83C919.968 124.802 919.991 124.763 920.02 124.714C920.079 124.616 920.163 124.478 920.272 124.312C920.488 123.98 920.801 123.53 921.188 123.06C921.931 122.159 923.074 121.024 924.438 120.683C925.381 120.447 926.609 120.421 927.703 120.57C928.256 120.645 928.803 120.768 929.284 120.947ZM921.328 125.718C921.337 125.703 921.346 125.689 921.354 125.674L921.328 125.718ZM919.007 131.111C918.989 131.029 918.982 130.865 919.029 130.595C919.125 130.051 919.395 129.337 919.745 128.587C920.089 127.85 920.485 127.132 920.797 126.594C920.953 126.326 921.087 126.105 921.181 125.952C921.229 125.876 921.266 125.816 921.291 125.776C921.304 125.756 921.313 125.741 921.319 125.731L921.326 125.72L921.328 125.718M919.007 131.111C919.199 131.194 919.426 131.214 919.755 131.156C920.124 131.092 920.534 130.948 921.081 130.755C921.1 130.749 921.12 130.742 921.139 130.735C922.249 130.345 923.714 129.844 925.556 130.074C927.859 130.362 928.505 130.655 929.163 130.953C929.455 131.085 929.749 131.219 930.192 131.354C930.993 131.597 931.419 131.515 931.562 131.428C931.605 131.402 931.633 131.373 931.653 131.3C931.679 131.207 931.695 131.019 931.615 130.698C931.572 130.523 931.544 130.298 931.522 130.084C931.507 129.939 931.491 129.769 931.474 129.588C931.465 129.49 931.456 129.389 931.446 129.286C931.389 128.686 931.31 127.96 931.17 127.187C930.884 125.617 930.36 123.972 929.346 122.841C929.261 122.747 929.066 122.612 928.713 122.48C928.373 122.354 927.95 122.254 927.483 122.191C926.538 122.063 925.528 122.097 924.835 122.27C924.017 122.475 923.162 123.239 922.451 124.101C922.112 124.512 921.835 124.91 921.643 125.205C921.547 125.352 921.473 125.472 921.424 125.555C921.399 125.596 921.381 125.627 921.369 125.647L921.357 125.669L921.354 125.674"
          fill="white"/>
    <path fill-rule="evenodd" clip-rule="evenodd"
          d="M920.817 113.069C920.817 113.069 920.817 113.069 920.136 113.523C919.456 113.977 919.456 113.977 919.456 113.977L919.454 113.975L919.444 113.96C919.434 113.946 919.419 113.924 919.399 113.896C919.359 113.84 919.299 113.759 919.225 113.665C919.074 113.472 918.876 113.244 918.669 113.057C918.52 112.923 918.405 112.846 918.328 112.806C918.233 112.976 918.143 113.255 918.081 113.646C918.013 114.067 917.989 114.544 917.989 115.006C917.989 115.464 918.013 115.889 918.037 116.201C918.049 116.356 918.062 116.482 918.07 116.568C918.075 116.61 918.079 116.643 918.081 116.665L918.084 116.688L918.084 116.693L918.085 116.694C918.085 116.694 918.085 116.694 917.273 116.795C916.461 116.897 916.461 116.897 916.461 116.897L916.46 116.893L916.459 116.884L916.455 116.852C916.452 116.825 916.448 116.786 916.443 116.737C916.433 116.639 916.419 116.5 916.406 116.329C916.379 115.988 916.352 115.519 916.352 115.006C916.352 114.496 916.379 113.925 916.465 113.387C916.548 112.866 916.699 112.294 917.001 111.842C917.174 111.582 917.408 111.363 917.712 111.239C918.017 111.114 918.32 111.113 918.582 111.169C919.066 111.273 919.48 111.586 919.763 111.841C920.067 112.114 920.33 112.422 920.511 112.652C920.603 112.769 920.677 112.87 920.73 112.943C920.756 112.98 920.777 113.01 920.791 113.031C920.799 113.042 920.805 113.05 920.809 113.057L920.814 113.065L920.816 113.067L920.817 113.069ZM919.456 113.977C919.456 113.977 919.456 113.977 919.456 113.977V113.977Z"
          fill="white"/>
    <path fill-rule="evenodd" clip-rule="evenodd"
          d="M916.945 116.959C916.945 116.959 916.945 116.959 916.455 117.614C915.964 118.268 915.964 118.268 915.964 118.268L915.962 118.267L915.957 118.263L915.932 118.244C915.909 118.228 915.876 118.203 915.833 118.172C915.746 118.109 915.622 118.02 915.47 117.915C915.166 117.704 914.763 117.435 914.352 117.194C914.027 117.003 913.726 116.845 913.48 116.744C913.475 116.908 913.475 117.101 913.482 117.321C913.5 117.945 913.562 118.715 913.638 119.475C913.714 120.233 913.802 120.966 913.872 121.511C913.907 121.784 913.937 122.008 913.958 122.164C913.969 122.243 913.977 122.304 913.983 122.345L913.99 122.392L913.992 122.407L913.182 122.523C912.372 122.638 912.372 122.638 912.372 122.638L912.369 122.621L912.362 122.572C912.356 122.529 912.348 122.466 912.337 122.386C912.315 122.225 912.284 121.996 912.249 121.719C912.178 121.165 912.087 120.415 912.01 119.638C911.932 118.864 911.866 118.05 911.846 117.369C911.836 117.03 911.837 116.709 911.857 116.435C911.874 116.2 911.91 115.873 912.041 115.611C912.256 115.18 912.659 115.025 912.978 114.998C913.264 114.973 913.546 115.038 913.767 115.108C914.223 115.252 914.735 115.521 915.182 115.783C915.641 116.053 916.081 116.347 916.403 116.571C916.565 116.683 916.699 116.779 916.794 116.848C916.841 116.882 916.878 116.909 916.904 116.928L916.934 116.95L916.942 116.956L916.945 116.959Z"
          fill="white"/>
    <path fill-rule="evenodd" clip-rule="evenodd"
          d="M913.396 121.718C913.396 121.718 913.396 121.718 913.25 122.523C913.104 123.328 913.104 123.328 913.104 123.328L913.102 123.327L913.093 123.326L913.058 123.32C913.027 123.314 912.98 123.306 912.92 123.296C912.801 123.276 912.628 123.248 912.42 123.217C912.001 123.154 911.444 123.08 910.878 123.031C910.304 122.981 909.757 122.96 909.346 122.993C909.252 123.001 909.174 123.01 909.11 123.021C909.124 123.232 909.164 123.519 909.229 123.87C909.357 124.568 909.568 125.439 909.797 126.302C910.024 127.161 910.265 127.997 910.449 128.619C910.541 128.929 910.618 129.186 910.673 129.365C910.7 129.454 910.721 129.524 910.736 129.571L910.753 129.625L910.758 129.642L909.977 129.886C909.196 130.13 909.196 130.13 909.196 130.13L909.19 130.11L909.173 130.054C909.158 130.005 909.136 129.934 909.108 129.842C909.052 129.66 908.973 129.399 908.88 129.083C908.693 128.452 908.448 127.6 908.215 126.721C907.983 125.845 907.759 124.926 907.619 124.167C907.55 123.789 907.497 123.431 907.477 123.127C907.467 122.976 907.465 122.821 907.476 122.674C907.487 122.543 907.514 122.347 907.609 122.157C907.805 121.765 908.173 121.594 908.403 121.514C908.658 121.426 908.944 121.384 909.215 121.362C909.763 121.318 910.417 121.348 911.02 121.401C911.63 121.454 912.223 121.533 912.661 121.598C912.881 121.631 913.063 121.661 913.191 121.682C913.255 121.693 913.306 121.702 913.341 121.708L913.381 121.715L913.392 121.717L913.396 121.718ZM909.11 122.783C909.11 122.784 909.11 122.786 909.109 122.79C909.11 122.785 909.11 122.783 909.11 122.783ZM908.916 123.069C908.909 123.073 908.905 123.074 908.904 123.074C908.904 123.074 908.907 123.072 908.916 123.069Z"
          fill="white"/>
    <path fill-rule="evenodd" clip-rule="evenodd"
          d="M922.281 107.814C922.497 107.417 922.993 107.27 923.39 107.485L926.97 109.429C927.367 109.644 927.514 110.141 927.299 110.538C927.083 110.935 926.586 111.082 926.189 110.867L922.61 108.924C922.213 108.708 922.065 108.211 922.281 107.814Z"
          fill="white"/>
    <path fill-rule="evenodd" clip-rule="evenodd"
          d="M935.214 108.719C935.382 109.138 935.178 109.615 934.758 109.782L930.667 111.419C930.248 111.587 929.772 111.382 929.604 110.963C929.436 110.543 929.64 110.067 930.06 109.899L934.151 108.263C934.57 108.095 935.046 108.299 935.214 108.719Z"
          fill="white"/>
    <path fill-rule="evenodd" clip-rule="evenodd" d="M918.909 131.295L922.591 126.386L921.773 130.886L918.909 131.295Z"
          fill="white"/>
    <path fill-rule="evenodd" clip-rule="evenodd" d="M922.182 130.477L924.636 127.613L925.045 130.067L922.182 130.477Z"
          fill="white"/>
    <path fill-rule="evenodd" clip-rule="evenodd" d="M925.045 130.886L927.091 128.022L928.318 131.295L925.045 130.886Z"
          fill="white"/>
    <path fill-rule="evenodd" clip-rule="evenodd" d="M925.455 121.886H927.909L925.864 125.158L925.455 121.886Z"
          fill="white"/>
    <path fill-rule="evenodd" clip-rule="evenodd" d="M927.909 122.295H929.955L928.318 125.158L927.909 122.295Z"
          fill="white"/>
    <path fill-rule="evenodd" clip-rule="evenodd" d="M923 122.295L925.455 121.886L923.409 125.158L923 122.295Z"
          fill="white"/>
    <path fill-rule="evenodd" clip-rule="evenodd"
          d="M928.318 131.295L929.955 126.795L931.591 132.113C931.591 132.113 930.428 132.231 929.955 132.113C928.941 131.859 928.318 131.295 928.318 131.295Z"
          fill="white"/>
    <path d="M944.591 27C944.591 38.9243 934.924 48.5909 923 48.5909C911.076 48.5909 901.409 38.9243 901.409 27C901.409 15.0757 911.076 5.40909 923 5.40909C934.924 5.40909 944.591 15.0757 944.591 27Z"
          stroke="url(#paint43_linear)"/>
    <path fill-rule="evenodd" clip-rule="evenodd"
          d="M922.292 13.4105C922.443 13.1314 922.779 13.0176 923.064 13.1394L923.117 13.165L925.714 14.5808C926.009 14.7417 926.118 15.1127 925.958 15.4092C925.807 15.6883 925.471 15.8021 925.186 15.6803L925.133 15.6547L922.537 14.239C922.241 14.078 922.132 13.7071 922.292 13.4105ZM921.602 16.7056L921.391 16.8318C921.295 16.8913 921.2 16.9527 921.104 17.0164C920.714 16.4636 920.351 16.097 919.983 15.9124C919.404 15.6217 918.827 15.7958 918.463 16.3435C917.994 17.0508 917.869 18.1737 918.035 19.7422L918.022 19.7559C916.296 18.5039 915.33 18.1563 914.864 19.0916C914.609 19.6054 914.663 20.9391 914.988 23.3836C913.019 23.079 911.997 23.1639 911.65 23.8603C911.367 24.4288 911.659 25.914 912.528 28.7931L912.781 29.6175C912.463 31.0538 912.419 32.3425 912.76 33.2837C914.049 36.8438 917.256 38.4545 922.827 38.4545C926.161 38.4545 928.722 38.1207 930.485 37.362C932.439 36.5209 933.227 34.8548 933.227 33.0749C933.227 30.6268 933.026 27.3406 932.524 24.3689L932.451 23.9484C931.638 19.4437 930.262 16.5902 928.003 16.086C925.236 15.4684 923.423 15.6444 921.602 16.7056ZM913.412 27.4802C913.761 26.5166 914.198 25.5325 914.695 24.5774C914.092 24.4899 913.604 24.4465 913.233 24.4465C913.049 24.4465 912.901 24.4573 912.791 24.4761L912.753 24.4832L912.756 24.547L912.763 24.6371C912.782 24.8533 912.83 25.143 912.906 25.5022L912.936 25.6402C913.047 26.1391 913.205 26.7527 913.412 27.4802ZM916.074 22.2371C916.442 21.685 916.824 21.1617 917.215 20.6799C916.735 20.3395 916.344 20.0978 916.049 19.9563L915.95 19.9109L915.913 19.8955L915.912 19.9161C915.896 20.3206 915.947 21.116 916.074 22.2371ZM919.182 18.6072C919.526 18.281 919.837 17.9995 920.133 17.7513L920.132 17.7492C919.638 17.0216 919.513 16.9642 919.475 17.0214C919.279 17.3174 919.175 17.8496 919.182 18.6072ZM929.871 19.4567C930.475 20.703 930.964 22.4386 931.325 24.5733C931.814 27.4664 932.011 30.6894 932.011 33.0749C932.011 34.4148 931.44 35.6216 930.006 36.2388C928.43 36.9171 926.01 37.2326 922.827 37.2326C917.715 37.2326 914.988 35.8629 913.903 32.8661C912.954 30.2446 916.02 23.4892 919.103 20.393L919.38 20.1158C920.596 18.9102 921.368 18.2547 922.212 17.7626C922.343 17.6866 922.473 17.616 922.604 17.5507C922.556 17.7126 922.53 17.8841 922.53 18.0616C922.53 19.0493 923.327 19.8499 924.311 19.8499C925.294 19.8499 926.091 19.0493 926.091 18.0616C926.091 17.6499 925.952 17.2707 925.72 16.9684C926.159 16.9963 926.631 17.0592 927.148 17.1566C926.86 17.4743 926.684 17.8964 926.684 18.3597C926.684 19.3473 927.482 20.1479 928.465 20.1479C929.036 20.1479 929.545 19.8773 929.871 19.4567ZM921.988 29.9428C922.095 29.9085 922.2 29.8767 922.303 29.8472L924.014 27.842L924.305 29.5994C924.428 29.607 924.553 29.6188 924.681 29.6349L924.727 29.6407L925.794 28.14L926.473 29.9589C926.607 29.997 926.725 30.0368 926.844 30.0829L927.871 27.2459L928.924 30.6817C929.122 30.6167 929.158 30.4206 929.076 30.09L929.065 30.0432C929.051 29.9788 929.039 29.9056 929.028 29.8163L929.011 29.6694L928.921 28.7409C928.905 28.589 928.889 28.4474 928.871 28.3036C928.789 27.6619 928.68 27.0833 928.527 26.5406C928.296 25.723 927.978 25.0415 927.558 24.5177L926.684 26.0537L926.388 23.9674H926.511C926.422 23.948 926.33 23.9304 926.235 23.915L924.904 26.0537L924.632 23.8665C924.578 23.8726 924.524 23.8796 924.472 23.8875L923.124 26.0537L922.928 24.6753C922.483 25.0946 922.045 25.6863 921.614 26.4612C920.75 27.811 920.203 28.862 919.975 29.5952C919.876 29.9139 919.844 30.1521 919.866 30.2976C919.875 30.3605 919.878 30.3653 919.897 30.3744C919.915 30.3839 919.934 30.3926 919.952 30.4005L922.53 26.9479L921.988 29.9428ZM928.465 17.7934C928.153 17.7934 927.901 18.0469 927.901 18.3597C927.901 18.6724 928.153 18.926 928.465 18.926C928.776 18.926 929.029 18.6724 929.029 18.3597C929.029 18.0469 928.776 17.7934 928.465 17.7934ZM924.311 17.4953C923.999 17.4953 923.747 17.7489 923.747 18.0616C923.747 18.3744 923.999 18.6279 924.311 18.6279C924.622 18.6279 924.874 18.3744 924.874 18.0616C924.874 17.7489 924.622 17.4953 924.311 17.4953ZM930.187 29.4991L930.135 28.9489C930.106 28.6522 930.08 28.4067 930.048 28.1526C929.959 27.4564 929.84 26.8216 929.669 26.2153C929.369 25.155 928.932 24.2622 928.313 23.5693C927.561 22.7272 925.338 22.4243 923.87 22.7931C922.629 23.1046 921.546 24.1382 920.597 25.8485L920.412 26.1393C918.581 29.0573 918.086 30.7982 919.366 31.4408L919.485 31.4985C920.063 31.7669 920.406 31.7328 921.546 31.3508L922.047 31.1794C923.039 30.8354 923.712 30.7147 924.534 30.8178L924.807 30.8536C925.331 30.9247 925.714 30.9941 926.003 31.0667C926.231 31.1241 926.382 31.176 926.573 31.2598L927.023 31.463C927.24 31.5579 927.378 31.6085 927.616 31.6823L927.699 31.7079C929.371 32.2185 930.6 31.502 930.248 29.8897L930.227 29.8008C930.219 29.7691 930.209 29.7012 930.197 29.5972L930.187 29.4991ZM931.7 14.0712C931.575 13.7579 931.221 13.6055 930.909 13.7308L927.942 14.923L927.889 14.9474C927.613 15.09 927.486 15.4223 927.603 15.7172C927.728 16.0305 928.082 16.1829 928.394 16.0576L931.361 14.8654L931.415 14.8409C931.69 14.6984 931.818 14.3661 931.7 14.0712Z"
          fill="url(#paint44_linear)"/>
    <path fill-rule="evenodd" clip-rule="evenodd"
          d="M987 153C1001.91 153 1014 140.912 1014 126C1014 111.088 1001.91 99 987 99C972.088 99 960 111.088 960 126C960 140.912 972.088 153 987 153Z"
          fill="url(#paint45_linear)"/>
    <path fill-rule="evenodd" clip-rule="evenodd"
          d="M987 134.591C992.589 134.591 997.636 128.953 997.636 121.295C997.636 113.638 992.589 108 987 108C981.411 108 976.364 113.638 976.364 121.295C976.364 128.953 981.411 134.591 987 134.591ZM999.273 121.295C999.273 129.542 993.778 136.227 987 136.227C980.222 136.227 974.727 129.542 974.727 121.295C974.727 113.049 980.222 106.364 987 106.364C993.778 106.364 999.273 113.049 999.273 121.295Z"
          fill="white"/>
    <path fill-rule="evenodd" clip-rule="evenodd"
          d="M984.916 135.052C985.053 134.77 985.339 134.591 985.652 134.591H988.733C989.073 134.591 989.378 134.802 989.498 135.121L991.038 139.212C991.145 139.495 991.086 139.815 990.886 140.042C990.685 140.269 990.375 140.366 990.081 140.295L987.167 139.592L983.871 140.181C983.568 140.236 983.261 140.115 983.075 139.87C982.889 139.625 982.857 139.296 982.991 139.019L984.916 135.052ZM986.165 136.227L985.165 138.288L987.048 137.951C987.16 137.931 987.274 137.934 987.385 137.961L988.962 138.342L988.166 136.227H986.165Z"
          fill="white"/>
    <path fill-rule="evenodd" clip-rule="evenodd"
          d="M984.955 136.227L984.814 135.421C985.259 135.344 985.683 135.642 985.761 136.087C985.838 136.532 985.54 136.955 985.095 137.033L985.091 137.034C985.086 137.035 985.077 137.037 985.064 137.039C985.039 137.044 984.999 137.052 984.947 137.064C984.842 137.087 984.689 137.125 984.503 137.178C984.129 137.286 983.636 137.457 983.145 137.708C982.129 138.229 981.34 138.974 981.281 140.036C981.209 141.324 981.802 142.549 982.492 143.505C982.829 143.974 983.174 144.355 983.433 144.619C983.563 144.75 983.67 144.85 983.743 144.917C983.779 144.95 983.807 144.974 983.824 144.99C983.833 144.997 983.84 145.003 983.843 145.006L983.845 145.008C983.846 145.008 983.846 145.008 983.846 145.008M983.846 145.008C984.193 145.298 984.239 145.813 983.95 146.16C983.661 146.507 983.145 146.554 982.798 146.265L983.322 145.636C982.798 146.265 982.798 146.265 982.797 146.264L982.796 146.263L982.792 146.26L982.783 146.252C982.775 146.245 982.764 146.236 982.751 146.225C982.724 146.201 982.687 146.169 982.641 146.127C982.549 146.043 982.42 145.922 982.268 145.767C981.965 145.459 981.562 145.014 981.164 144.462C980.381 143.375 979.545 141.776 979.647 139.946C979.755 137.997 981.212 136.86 982.399 136.252C983.01 135.939 983.608 135.733 984.05 135.606C984.272 135.542 984.458 135.497 984.59 135.467C984.657 135.452 984.71 135.441 984.748 135.434C984.767 135.43 984.782 135.427 984.793 135.425L984.807 135.423L984.811 135.422L984.814 135.421C984.814 135.421 984.814 135.421 984.955 136.227"
          fill="white"/>
    <path fill-rule="evenodd" clip-rule="evenodd"
          d="M983.433 112.719C983.433 112.719 983.433 112.719 983.433 112.719L983.434 112.719L983.434 112.719L983.434 112.718L983.429 112.723C983.423 112.728 983.413 112.737 983.398 112.75C983.37 112.775 983.325 112.816 983.266 112.872C983.149 112.984 982.978 113.157 982.774 113.388C982.364 113.85 981.825 114.543 981.321 115.453C980.316 117.267 979.445 119.946 980.013 123.413C980.086 123.859 979.784 124.28 979.338 124.353C978.892 124.426 978.471 124.124 978.398 123.678C977.76 119.781 978.742 116.733 979.89 114.66C980.462 113.627 981.075 112.838 981.548 112.303C981.785 112.035 981.988 111.83 982.135 111.69C982.208 111.62 982.267 111.566 982.31 111.528C982.331 111.509 982.349 111.494 982.361 111.483L982.377 111.47L982.382 111.465L982.384 111.464L982.385 111.463C982.385 111.463 982.385 111.462 982.909 112.091L982.385 111.462C982.732 111.173 983.248 111.22 983.538 111.567C983.827 111.914 983.78 112.429 983.434 112.718M983.433 112.719C983.434 112.719 983.434 112.719 983.434 112.719L983.433 112.719Z"
          fill="white"/>
    <path d="M1008.59 27C1008.59 38.9243 998.924 48.5909 987 48.5909C975.076 48.5909 965.409 38.9243 965.409 27C965.409 15.0757 975.076 5.40909 987 5.40909C998.924 5.40909 1008.59 15.0757 1008.59 27Z"
          stroke="url(#paint46_linear)"/>
    <path fill-rule="evenodd" clip-rule="evenodd"
          d="M986.949 12.6818C991.891 12.6818 995.898 17.5565 995.898 23.5696C995.898 28.7302 992.947 33.0523 988.986 34.1741L989.91 36.6275C990.083 37.0886 989.67 37.5559 989.191 37.4402L987.071 36.9278L984.671 37.3574C984.194 37.4426 983.819 36.9722 983.989 36.534L984.01 36.4854L984.587 35.2974C983.409 35.6815 982.846 36.3236 982.796 37.2358C982.723 38.5434 983.326 39.7355 984.66 40.8468C984.92 41.0638 984.955 41.4508 984.738 41.7111C984.521 41.9714 984.134 42.0065 983.874 41.7895C982.26 40.4445 981.474 38.8922 981.57 37.1677C981.657 35.6046 982.678 34.5585 984.5 34.0446C980.748 32.7485 978 28.5495 978 23.5696C978 17.5565 982.007 12.6818 986.949 12.6818ZM986.949 13.9091C982.743 13.9091 979.227 18.187 979.227 23.5696C979.227 28.9523 982.743 33.2301 986.949 33.2301C991.154 33.2301 994.67 28.9523 994.67 23.5696C994.67 18.187 991.154 13.9091 986.949 13.9091ZM987.788 34.4741L988.352 35.975L987.233 35.7049L987.171 35.6932C987.108 35.6848 987.044 35.6861 986.981 35.6973L985.641 35.937L986.35 34.4741H987.788ZM984.437 16.4651C984.22 16.2048 983.833 16.1696 983.573 16.3866C981.011 18.5214 980.04 21.5247 980.66 25.3094C980.715 25.6438 981.03 25.8706 981.364 25.8158C981.699 25.7611 981.926 25.4456 981.871 25.1111C981.318 21.7367 982.148 19.1718 984.359 17.3294C984.619 17.1124 984.654 16.7255 984.437 16.4651Z"
          fill="url(#paint47_linear)"/>
    <defs>
        <linearGradient id="paint0_linear" x1="62.2207" y1="17.2503" x2="81.7055" y2="51.6681"
                        gradientUnits="userSpaceOnUse">
            <stop stop-color="#35DFFF"/>
            <stop offset="1" stop-color="#3B7BFF"/>
        </linearGradient>
        <linearGradient id="paint1_linear" x1="74.6982" y1="23.994" x2="77.097" y2="35.9416"
                        gradientUnits="userSpaceOnUse">
            <stop stop-color="#35DFFF"/>
            <stop offset="1" stop-color="#3B7BFF"/>
        </linearGradient>
        <linearGradient id="paint2_linear" x1="699.436" y1="33.6191" x2="673.367" y2="-4.18991"
                        gradientUnits="userSpaceOnUse">
            <stop stop-color="#FF5557"/>
            <stop offset="1" stop-color="#FF8D5C"/>
        </linearGradient>
        <linearGradient id="paint3_linear" x1="686.726" y1="28.369" x2="684.826" y2="18.9383"
                        gradientUnits="userSpaceOnUse">
            <stop stop-color="#FF5557"/>
            <stop offset="1" stop-color="#FF8D5C"/>
        </linearGradient>
        <linearGradient id="paint4_linear" x1="-8.45322" y1="16.5729" x2="14.8745" y2="60.7548"
                        gradientUnits="userSpaceOnUse">
            <stop stop-color="#E8EDEF"/>
            <stop offset="1" stop-color="#8595A3"/>
        </linearGradient>
        <linearGradient id="paint5_linear" x1="9.92996" y1="26.4207" x2="10.1205" y2="29.5479"
                        gradientUnits="userSpaceOnUse">
            <stop stop-color="#E8EDEF"/>
            <stop offset="1" stop-color="#8595A3"/>
        </linearGradient>
        <linearGradient id="paint6_linear" x1="570.15" y1="38.0467" x2="548.061" y2="-4.08629"
                        gradientUnits="userSpaceOnUse">
            <stop stop-color="#192675"/>
            <stop offset="1" stop-color="#22C9C7"/>
        </linearGradient>
        <linearGradient id="paint7_linear" x1="558.837" y1="29.6909" x2="554.066" y2="12.7476"
                        gradientUnits="userSpaceOnUse">
            <stop stop-color="#192675"/>
            <stop offset="1" stop-color="#22C9C7"/>
        </linearGradient>
        <linearGradient id="paint8_linear" x1="312.411" y1="19.853" x2="338.396" y2="62.0834"
                        gradientUnits="userSpaceOnUse">
            <stop stop-color="#FF472A"/>
            <stop offset="1" stop-color="#D8206B"/>
        </linearGradient>
        <linearGradient id="paint9_linear" x1="326.182" y1="24.2746" x2="331.815" y2="41.2767"
                        gradientUnits="userSpaceOnUse">
            <stop stop-color="#FF472A"/>
            <stop offset="1" stop-color="#D8206B"/>
        </linearGradient>
        <linearGradient id="paint10_linear" x1="254.914" y1="15.5597" x2="276.216" y2="54.0279"
                        gradientUnits="userSpaceOnUse">
            <stop stop-color="#FFCB06"/>
            <stop offset="1" stop-color="#F68D1C"/>
        </linearGradient>
        <linearGradient id="paint11_linear" x1="263.194" y1="25.55" x2="267.076" y2="40.8924"
                        gradientUnits="userSpaceOnUse">
            <stop stop-color="#FFCB06"/>
            <stop offset="1" stop-color="#F68D1C"/>
        </linearGradient>
        <linearGradient id="paint12_linear" x1="572.419" y1="17.452" x2="594.209" y2="56.1154"
                        gradientUnits="userSpaceOnUse">
            <stop stop-color="#5F88FF"/>
            <stop offset="1" stop-color="#4E16BA"/>
        </linearGradient>
        <linearGradient id="paint13_linear" x1="582.439" y1="21.5804" x2="593.242" y2="43.1908"
                        gradientUnits="userSpaceOnUse">
            <stop stop-color="#5F88FF"/>
            <stop offset="1" stop-color="#4E16BA"/>
        </linearGradient>
        <linearGradient id="paint14_linear" x1="189.126" y1="20.039" x2="214.188" y2="56.647"
                        gradientUnits="userSpaceOnUse">
            <stop stop-color="#8489FA"/>
            <stop offset="1" stop-color="#464CC2"/>
        </linearGradient>
        <linearGradient id="paint15_linear" x1="199.63" y1="23.5083" x2="209.763" y2="43.8501"
                        gradientUnits="userSpaceOnUse">
            <stop stop-color="#8489FA"/>
            <stop offset="1" stop-color="#464CC2"/>
        </linearGradient>
        <linearGradient id="paint16_linear" x1="884.037" y1="28.0909" x2="861.251" y2="-3.76653"
                        gradientUnits="userSpaceOnUse">
            <stop stop-color="#763FEB"/>
            <stop offset="1" stop-color="#CF6BFF"/>
        </linearGradient>
        <linearGradient id="paint17_linear" x1="872.214" y1="27.851" x2="858.282" y2="10.5024"
                        gradientUnits="userSpaceOnUse">
            <stop stop-color="#763FEB"/>
            <stop offset="1" stop-color="#CF6BFF"/>
        </linearGradient>
        <linearGradient id="paint18_linear" x1="699.782" y1="16.3443" x2="722.652" y2="55.3631"
                        gradientUnits="userSpaceOnUse">
            <stop stop-color="#D7DE51"/>
            <stop offset="1" stop-color="#3DAD40"/>
        </linearGradient>
        <linearGradient id="paint19_linear" x1="711.259" y1="23.4481" x2="716.146" y2="39.4284"
                        gradientUnits="userSpaceOnUse">
            <stop stop-color="#D7DE51"/>
            <stop offset="1" stop-color="#3DAD40"/>
        </linearGradient>
        <linearGradient id="paint20_linear" x1="692.845" y1="112.976" x2="720.797" y2="160.666"
                        gradientUnits="userSpaceOnUse">
            <stop stop-color="#D7DE51"/>
            <stop offset="1" stop-color="#3DAD40"/>
        </linearGradient>
        <linearGradient id="paint21_linear" x1="763.41" y1="16.5622" x2="786.716" y2="56.3244"
                        gradientUnits="userSpaceOnUse">
            <stop stop-color="#32EC72"/>
            <stop offset="1" stop-color="#128E83"/>
        </linearGradient>
        <linearGradient id="paint22_linear" x1="774.525" y1="22.6621" x2="782.448" y2="42.7931"
                        gradientUnits="userSpaceOnUse">
            <stop stop-color="#32EC72"/>
            <stop offset="1" stop-color="#128E83"/>
        </linearGradient>
        <linearGradient id="paint23_linear" x1="446.221" y1="17.2504" x2="465.706" y2="51.6682"
                        gradientUnits="userSpaceOnUse">
            <stop stop-color="#FF8E5B"/>
            <stop offset="1" stop-color="#5225BA"/>
        </linearGradient>
        <linearGradient id="paint24_linear" x1="461.085" y1="22.0589" x2="471.744" y2="39.5494"
                        gradientUnits="userSpaceOnUse">
            <stop stop-color="#FF8E5B"/>
            <stop offset="1" stop-color="#5225BA"/>
        </linearGradient>
        <linearGradient id="paint25_linear" x1="381.278" y1="19.8384" x2="402.264" y2="54.8902"
                        gradientUnits="userSpaceOnUse">
            <stop stop-color="#ED3E33"/>
            <stop offset="1" stop-color="#8A0C8D"/>
        </linearGradient>
        <linearGradient id="paint26_linear" x1="393.921" y1="23.7367" x2="403.472" y2="42.3519"
                        gradientUnits="userSpaceOnUse">
            <stop stop-color="#ED3E33"/>
            <stop offset="1" stop-color="#8A0C8D"/>
        </linearGradient>
        <linearGradient id="paint27_linear" x1="125.311" y1="17.6192" x2="147.434" y2="54.5005"
                        gradientUnits="userSpaceOnUse">
            <stop stop-color="#FE8005"/>
            <stop offset="1" stop-color="#F72E04"/>
        </linearGradient>
        <linearGradient id="paint28_linear" x1="136.236" y1="23.8205" x2="140.845" y2="38.8187"
                        gradientUnits="userSpaceOnUse">
            <stop stop-color="#FE8005"/>
            <stop offset="1" stop-color="#F72E04"/>
        </linearGradient>
        <linearGradient id="paint29_linear" x1="54.1467" y1="110.406" x2="76.9583" y2="161.542"
                        gradientUnits="userSpaceOnUse">
            <stop stop-color="#35DFFF"/>
            <stop offset="1" stop-color="#3B7BFF"/>
        </linearGradient>
        <linearGradient id="paint30_linear" x1="118.713" y1="114.535" x2="145.753" y2="159.612"
                        gradientUnits="userSpaceOnUse">
            <stop stop-color="#FE8005"/>
            <stop offset="1" stop-color="#F72E04"/>
        </linearGradient>
        <linearGradient id="paint31_linear" x1="706.645" y1="134.09" x2="674.782" y2="87.879"
                        gradientUnits="userSpaceOnUse">
            <stop stop-color="#FF5557"/>
            <stop offset="1" stop-color="#FF8D5C"/>
        </linearGradient>
        <linearGradient id="paint32_linear" x1="439.825" y1="114.084" x2="463.64" y2="156.15"
                        gradientUnits="userSpaceOnUse">
            <stop stop-color="#FF8E5B"/>
            <stop offset="1" stop-color="#5225BA"/>
        </linearGradient>
        <linearGradient id="paint33_linear" x1="374.673" y1="117.247" x2="400.323" y2="160.088"
                        gradientUnits="userSpaceOnUse">
            <stop stop-color="#ED3E33"/>
            <stop offset="1" stop-color="#8A0C8D"/>
        </linearGradient>
        <linearGradient id="paint34_linear" x1="-16.3317" y1="113.256" x2="12.18" y2="167.256"
                        gradientUnits="userSpaceOnUse">
            <stop stop-color="#E8EDEF"/>
            <stop offset="1" stop-color="#8595A3"/>
        </linearGradient>
        <linearGradient id="paint35_linear" x1="577.072" y1="139.502" x2="550.075" y2="88.0057"
                        gradientUnits="userSpaceOnUse">
            <stop stop-color="#192675"/>
            <stop offset="1" stop-color="#22C9C7"/>
        </linearGradient>
        <linearGradient id="paint36_linear" x1="304.724" y1="117.265" x2="336.484" y2="168.88"
                        gradientUnits="userSpaceOnUse">
            <stop stop-color="#FF472A"/>
            <stop offset="1" stop-color="#D8206B"/>
        </linearGradient>
        <linearGradient id="paint37_linear" x1="248.673" y1="112.017" x2="274.708" y2="159.034"
                        gradientUnits="userSpaceOnUse">
            <stop stop-color="#FFCB06"/>
            <stop offset="1" stop-color="#F68D1C"/>
        </linearGradient>
        <linearGradient id="paint38_linear" x1="565.624" y1="114.33" x2="592.255" y2="161.586"
                        gradientUnits="userSpaceOnUse">
            <stop stop-color="#5F88FF"/>
            <stop offset="1" stop-color="#4E16BA"/>
        </linearGradient>
        <linearGradient id="paint39_linear" x1="182.487" y1="117.492" x2="213.118" y2="162.235"
                        gradientUnits="userSpaceOnUse">
            <stop stop-color="#8489FA"/>
            <stop offset="1" stop-color="#464CC2"/>
        </linearGradient>
        <linearGradient id="paint40_linear" x1="756.39" y1="113.243" x2="784.876" y2="161.841"
                        gradientUnits="userSpaceOnUse">
            <stop stop-color="#32EC72"/>
            <stop offset="1" stop-color="#128E83"/>
        </linearGradient>
        <linearGradient id="paint41_linear" x1="889.601" y1="127.333" x2="861.752" y2="88.3965"
                        gradientUnits="userSpaceOnUse">
            <stop stop-color="#763FEB"/>
            <stop offset="1" stop-color="#CF6BFF"/>
        </linearGradient>
        <linearGradient id="paint42_linear" x1="882.227" y1="112.608" x2="909.442" y2="168.39"
                        gradientUnits="userSpaceOnUse">
            <stop stop-color="#FFC05E"/>
            <stop offset="1" stop-color="#9F041B"/>
        </linearGradient>
        <linearGradient id="paint43_linear" x1="889.64" y1="16.0426" x2="911.907" y2="61.6829"
                        gradientUnits="userSpaceOnUse">
            <stop stop-color="#FFC05E"/>
            <stop offset="1" stop-color="#9F041B"/>
        </linearGradient>
        <linearGradient id="paint44_linear" x1="906.015" y1="19.4824" x2="919.98" y2="43.95"
                        gradientUnits="userSpaceOnUse">
            <stop stop-color="#FFC05E"/>
            <stop offset="1" stop-color="#9F041B"/>
        </linearGradient>
        <linearGradient id="paint45_linear" x1="946.227" y1="112.608" x2="973.442" y2="168.39"
                        gradientUnits="userSpaceOnUse">
            <stop stop-color="#5EF8FF"/>
            <stop offset="1" stop-color="#044E9F"/>
        </linearGradient>
        <linearGradient id="paint46_linear" x1="953.64" y1="16.0426" x2="975.907" y2="61.6829"
                        gradientUnits="userSpaceOnUse">
            <stop stop-color="#5EF8FF"/>
            <stop offset="1" stop-color="#044E9F"/>
        </linearGradient>
        <linearGradient id="paint47_linear" x1="973.435" y1="20.0526" x2="991.669" y2="42.9215"
                        gradientUnits="userSpaceOnUse">
            <stop stop-color="#5EF8FF"/>
            <stop offset="1" stop-color="#044E9F"/>
        </linearGradient>
    </defs>
</svg>
