<svg width="116" height="73" viewBox="0 0 116 73" fill="none" xmlns="http://www.w3.org/2000/svg">
<path fill-rule="evenodd" clip-rule="evenodd" d="M115.822 0H0.178214C3.05565 12.6436 11.193 26.6835 24.475 41.8842C35.5926 54.6079 52.1926 68.1942 56.7849 71.8762C57.5028 72.4517 58.4972 72.4517 59.215 71.8761C63.8072 68.1941 80.4067 54.6077 91.5239 41.8847C104.807 26.6839 112.944 12.6439 115.822 0Z" fill="#2B3640" fill-opacity="0.5"/>
<mask id="mask0" mask-type="alpha" maskUnits="userSpaceOnUse" x="0" y="0" width="116" height="73">
<path fill-rule="evenodd" clip-rule="evenodd" d="M115.822 0H0.178214C3.05565 12.6436 11.193 26.6835 24.475 41.8842C35.5926 54.6079 52.1926 68.1942 56.7849 71.8762C57.5028 72.4517 58.4972 72.4517 59.215 71.8761C63.8072 68.1941 80.4067 54.6077 91.5239 41.8847C104.807 26.6839 112.944 12.6439 115.822 0Z" fill="white"/>
</mask>
<g mask="url(#mask0)">
</g>
</svg>
