<svg width="34" height="34" viewBox="0 0 34 34" fill="none" xmlns="http://www.w3.org/2000/svg">
    <rect width="34" height="34" rx="4" fill="#E451B6"/>
    <path fill-rule="evenodd" clip-rule="evenodd"
          d="M10.3189 7.33559C10.9669 7.08345 11.7089 6.91127 12.7948 6.86182H12.7952C13.8834 6.81155 14.2317 6.80005 17.0014 6.80005C19.7711 6.80005 20.1187 6.81213 21.2065 6.86182C22.2915 6.91045 23.0331 7.08345 23.6824 7.33559C24.3523 7.59598 24.9217 7.94441 25.4885 8.5121C26.0553 9.07979 26.4039 9.6483 26.6651 10.319C26.9172 10.967 27.0894 11.7089 27.1388 12.7948C27.1883 13.8824 27.1998 14.2301 27.1998 17C27.1998 19.77 27.1883 20.1169 27.1388 21.2053C27.0902 22.2912 26.9172 23.0327 26.6651 23.6811C26.4039 24.3518 26.0562 24.9212 25.4885 25.488C24.9208 26.0548 24.3523 26.4034 23.6816 26.6645C23.0331 26.9167 22.2916 27.0888 21.2056 27.1383C20.118 27.1885 19.7703 27.2 17.0002 27.2C14.2301 27.2 13.883 27.1877 12.7948 27.1383C11.7089 27.0888 10.9681 26.9167 10.3189 26.6645C9.64735 26.4034 9.07956 26.0545 8.51192 25.488C7.94429 24.9214 7.59576 24.3518 7.33537 23.6811C7.08321 23.0327 6.91103 22.2912 6.86158 21.2053C6.81131 20.1177 6.7998 19.77 6.7998 17C6.7998 14.2301 6.81131 13.8824 6.86158 12.7948C6.91103 11.7089 7.08321 10.9674 7.33537 10.319C7.59576 9.64748 7.94421 9.07889 8.51192 8.5121C9.07964 7.9453 9.64817 7.59598 10.3189 7.33559ZM12.8797 25.3028C11.8852 25.2576 11.3447 25.0919 10.9855 24.952C10.5092 24.7666 10.1694 24.5458 9.81217 24.189C9.45491 23.8323 9.23376 23.4928 9.04918 23.0166C8.90915 22.6575 8.74349 22.1169 8.69828 21.1224C8.64883 20.0472 8.63896 19.7243 8.63896 17.0004C8.63896 14.2765 8.64965 13.9544 8.69828 12.8784C8.74357 11.8839 8.91045 11.3443 9.04918 10.9842C9.23458 10.508 9.4554 10.1682 9.81217 9.81093C10.1689 9.45368 10.5084 9.23255 10.9855 9.04797C11.3445 8.90794 11.8852 8.74229 12.8797 8.69709C13.9549 8.64764 14.2779 8.63776 17.0007 8.63776C19.7235 8.63776 20.0468 8.64829 21.1229 8.69725C22.1174 8.74254 22.657 8.90941 23.0171 9.04813C23.4934 9.23271 23.8332 9.45433 24.1904 9.81109C24.5477 10.1678 24.768 10.5081 24.9534 10.9843C25.0934 11.3434 25.2591 11.8841 25.3043 12.8785C25.3538 13.9546 25.3636 14.2766 25.3636 17.0005C25.3636 19.7244 25.3538 20.0465 25.3043 21.1226C25.259 22.117 25.0925 22.6575 24.9534 23.0167C24.768 23.493 24.5472 23.8327 24.1904 24.1892C23.8336 24.5456 23.4934 24.7667 23.0171 24.9521C22.6581 25.0922 22.1174 25.2578 21.1229 25.303C20.0477 25.3525 19.7247 25.3623 17.0007 25.3623C14.2767 25.3623 13.9546 25.3525 12.8797 25.303V25.3028ZM22.4454 12.7791C21.7694 12.7789 21.2216 12.2306 21.2219 11.5546C21.2225 10.879 21.7702 10.3314 22.4459 10.3311H22.4464C23.1224 10.3314 23.6702 10.8796 23.67 11.5556C23.6697 12.2316 23.1215 12.7794 22.4454 12.7791ZM11.7616 16.9999C11.7616 19.8926 14.1065 22.2375 16.9994 22.2375C19.8922 22.2375 22.2372 19.8926 22.2372 16.9999C22.2372 14.1072 19.8922 11.7623 16.9994 11.7623C14.1065 11.7623 11.7617 14.107 11.7617 16.9999H11.7616ZM13.6002 16.9999C13.6002 15.1222 15.122 13.5996 16.9998 13.5996C18.8776 13.5996 20.4002 15.1222 20.4002 16.9999C20.4002 18.8776 18.8776 20.4002 16.9998 20.4002C15.122 20.4002 13.6002 18.8776 13.6002 16.9999Z"
          fill="url(#paint0_linear)"/>
    <path fill-rule="evenodd" clip-rule="evenodd"
          d="M10.3189 7.33559C10.9669 7.08345 11.7089 6.91127 12.7948 6.86182H12.7952C13.8834 6.81155 14.2317 6.80005 17.0014 6.80005C19.7711 6.80005 20.1187 6.81213 21.2065 6.86182C22.2915 6.91045 23.0331 7.08345 23.6824 7.33559C24.3523 7.59598 24.9217 7.94441 25.4885 8.5121C26.0553 9.07979 26.4039 9.6483 26.6651 10.319C26.9172 10.967 27.0894 11.7089 27.1388 12.7948C27.1883 13.8824 27.1998 14.2301 27.1998 17C27.1998 19.77 27.1883 20.1169 27.1388 21.2053C27.0902 22.2912 26.9172 23.0327 26.6651 23.6811C26.4039 24.3518 26.0562 24.9212 25.4885 25.488C24.9208 26.0548 24.3523 26.4034 23.6816 26.6645C23.0331 26.9167 22.2916 27.0888 21.2056 27.1383C20.118 27.1885 19.7703 27.2 17.0002 27.2C14.2301 27.2 13.883 27.1877 12.7948 27.1383C11.7089 27.0888 10.9681 26.9167 10.3189 26.6645C9.64735 26.4034 9.07956 26.0545 8.51192 25.488C7.94429 24.9214 7.59576 24.3518 7.33537 23.6811C7.08321 23.0327 6.91103 22.2912 6.86158 21.2053C6.81131 20.1177 6.7998 19.77 6.7998 17C6.7998 14.2301 6.81131 13.8824 6.86158 12.7948C6.91103 11.7089 7.08321 10.9674 7.33537 10.319C7.59576 9.64748 7.94421 9.07889 8.51192 8.5121C9.07964 7.9453 9.64817 7.59598 10.3189 7.33559ZM12.8797 25.3028C11.8852 25.2576 11.3447 25.0919 10.9855 24.952C10.5092 24.7666 10.1694 24.5458 9.81217 24.189C9.45491 23.8323 9.23376 23.4928 9.04918 23.0166C8.90915 22.6575 8.74349 22.1169 8.69828 21.1224C8.64883 20.0472 8.63896 19.7243 8.63896 17.0004C8.63896 14.2765 8.64965 13.9544 8.69828 12.8784C8.74357 11.8839 8.91045 11.3443 9.04918 10.9842C9.23458 10.508 9.4554 10.1682 9.81217 9.81093C10.1689 9.45368 10.5084 9.23255 10.9855 9.04797C11.3445 8.90794 11.8852 8.74229 12.8797 8.69709C13.9549 8.64764 14.2779 8.63776 17.0007 8.63776C19.7235 8.63776 20.0468 8.64829 21.1229 8.69725C22.1174 8.74254 22.657 8.90941 23.0171 9.04813C23.4934 9.23271 23.8332 9.45433 24.1904 9.81109C24.5477 10.1678 24.768 10.5081 24.9534 10.9843C25.0934 11.3434 25.2591 11.8841 25.3043 12.8785C25.3538 13.9546 25.3636 14.2766 25.3636 17.0005C25.3636 19.7244 25.3538 20.0465 25.3043 21.1226C25.259 22.117 25.0925 22.6575 24.9534 23.0167C24.768 23.493 24.5472 23.8327 24.1904 24.1892C23.8336 24.5456 23.4934 24.7667 23.0171 24.9521C22.6581 25.0922 22.1174 25.2578 21.1229 25.303C20.0477 25.3525 19.7247 25.3623 17.0007 25.3623C14.2767 25.3623 13.9546 25.3525 12.8797 25.303V25.3028ZM22.4454 12.7791C21.7694 12.7789 21.2216 12.2306 21.2219 11.5546C21.2225 10.879 21.7702 10.3314 22.4459 10.3311H22.4464C23.1224 10.3314 23.6702 10.8796 23.67 11.5556C23.6697 12.2316 23.1215 12.7794 22.4454 12.7791ZM11.7616 16.9999C11.7616 19.8926 14.1065 22.2375 16.9994 22.2375C19.8922 22.2375 22.2372 19.8926 22.2372 16.9999C22.2372 14.1072 19.8922 11.7623 16.9994 11.7623C14.1065 11.7623 11.7617 14.107 11.7617 16.9999H11.7616ZM13.6002 16.9999C13.6002 15.1222 15.122 13.5996 16.9998 13.5996C18.8776 13.5996 20.4002 15.1222 20.4002 16.9999C20.4002 18.8776 18.8776 20.4002 16.9998 20.4002C15.122 20.4002 13.6002 18.8776 13.6002 16.9999Z"
          fill="white"/>
    <defs>
        <linearGradient id="paint0_linear" x1="6.7998" y1="6.80005" x2="27.1998" y2="27.2"
                        gradientUnits="userSpaceOnUse">
            <stop stop-color="#5442D6"/>
            <stop offset="0.367617" stop-color="#C02595"/>
            <stop offset="0.725817" stop-color="#E92150"/>
            <stop offset="1" stop-color="#FEC053"/>
        </linearGradient>
    </defs>
</svg>
