<svg width="34" height="34" viewBox="0 0 34 34" fill="none" xmlns="http://www.w3.org/2000/svg">
    <rect width="34" height="34" rx="4" fill="#37AEE2"/>
    <path d="M15.1628 22.7238C14.6879 22.7238 14.7731 22.5411 14.6026 22.0905L13.2142 17.5113L21.8368 12.1282L22.8476 12.3962L22.0073 14.6858L15.1628 22.7238Z"
          fill="#C8D9E9"/>
    <path d="M15.1628 22.7237C15.5282 22.7237 15.6865 22.5532 15.8936 22.3584C16.2102 22.0539 20.2779 18.0958 20.2779 18.0958L17.7813 17.4869L15.4673 18.9483L15.1628 22.602V22.7237Z"
          fill="#C8D9E9"/>
    <path d="M15.4065 18.997L21.3011 23.3448C21.9709 23.7102 22.458 23.5275 22.6285 22.7237L25.0278 11.4218C25.2713 10.4353 24.6502 9.99687 24.0047 10.2892L9.92609 15.7209C8.96397 16.1106 8.97615 16.6465 9.75559 16.8779L13.3727 18.0105L21.7395 12.7371C22.1292 12.4935 22.4946 12.6275 22.2023 12.8954L15.4065 18.997Z"
          fill="url(#paint0_linear)"/>
    <defs>
        <linearGradient id="paint0_linear" x1="18.9373" y1="16.4827" x2="21.982" y2="21.3542"
                        gradientUnits="userSpaceOnUse">
            <stop stop-color="#EFF7FC"/>
            <stop offset="1" stop-color="white"/>
        </linearGradient>
    </defs>
</svg>
