<svg width="34" height="34" viewBox="0 0 34 34" fill="none" xmlns="http://www.w3.org/2000/svg">
    <rect width="34" height="34" rx="4" fill="#7E57C2"/>
    <path fill-rule="evenodd" clip-rule="evenodd"
          d="M22.303 20.1617C23.232 20.7106 23.6114 20.9348 24.3611 21.5577C24.6375 21.7877 24.764 22.0495 24.7648 22.3237C24.7655 22.7878 24.5324 23.3956 24.2214 23.8076C23.753 24.427 23.1155 25.0754 22.3213 25.2481C22.2044 25.2734 22.0875 25.2865 21.9706 25.2901C21.1515 25.3133 20.3221 24.9986 19.6176 24.6562C17.9419 23.8417 16.3198 22.7639 14.8713 21.5911C14.408 21.2154 13.9771 20.8071 13.561 20.3849C13.1323 19.9744 12.7183 19.5494 12.3382 19.0925C11.1492 17.6636 10.0565 16.0636 9.23077 14.4107C8.88003 13.7093 8.55503 12.881 8.58885 12.065C8.59326 11.9577 8.60724 11.8504 8.63076 11.7437C8.8065 10.9604 9.46313 10.3316 10.0911 9.86957C10.5087 9.56277 11.1256 9.33285 11.5955 9.33357C11.8734 9.3343 12.1389 9.45905 12.372 9.73176C13.003 10.4691 13.23 10.8433 13.7841 11.7564C13.835 11.8403 13.8886 11.9286 13.9455 12.0223C14.2271 12.4857 14.4705 13.1813 14.4705 13.5519C14.4705 13.805 14.2632 14.1082 14.0749 14.2932C13.9497 14.4169 13.817 14.5198 13.6892 14.6188C13.3247 14.9013 12.9999 15.1531 12.9999 15.7706C12.9999 16.5866 13.8418 18.0118 14.9301 19.0344C15.9669 20.1079 17.4117 20.9383 18.239 20.9383C18.8596 20.9383 19.1099 20.6176 19.3898 20.2588C19.4913 20.1287 19.5967 19.9937 19.725 19.8671C19.9132 19.6814 20.2206 19.4877 20.4772 19.4877C20.853 19.4877 21.5691 19.7278 22.039 20.0056C22.1319 20.0606 22.2196 20.1125 22.303 20.1617ZM24.0295 17.3118C24.0295 17.7122 24.3589 18.0371 24.7648 18.0371C25.1706 18.0371 25.5001 17.7122 25.5001 17.3118V16.5866C25.5001 12.1876 21.8713 8.60828 17.4117 8.60828C17.0059 8.60828 16.6764 8.93321 16.6764 9.33357C16.6764 9.73394 17.0059 10.0589 17.4117 10.0589C21.0603 10.0589 24.0295 12.9876 24.0295 16.5866V17.3118ZM19.5375 16.044C19.6235 16.3704 19.9221 16.5866 20.2485 16.5866C20.3096 16.5866 20.3721 16.5786 20.4346 16.5626C20.8272 16.4611 21.0625 16.0658 20.9603 15.6778C20.6243 14.407 19.6169 13.4141 18.3316 13.0855C17.9367 12.9862 17.5367 13.219 17.4353 13.6063C17.3338 13.9943 17.5698 14.3896 17.9632 14.4904C18.7331 14.6863 19.336 15.2817 19.5375 16.044ZM21.8244 16.587C21.8244 16.9873 22.1538 17.3123 22.5597 17.3123C22.9656 17.3123 23.295 16.9873 23.295 16.587C23.295 13.503 20.8494 10.9594 17.7265 10.7969C17.3273 10.7752 16.9751 11.0827 16.9537 11.4831C16.9324 11.8827 17.2434 12.2243 17.6493 12.2453C19.9905 12.3672 21.8244 14.2747 21.8244 16.587Z"
          fill="white"/>
</svg>
