<svg width="34" height="34" viewBox="0 0 34 34" fill="none" xmlns="http://www.w3.org/2000/svg">
    <rect width="34" height="34" rx="4" fill="#4C75A3"/>
    <path d="M16.7946 22.0572H17.9377C17.9377 22.0572 18.2829 22.0217 18.4594 21.8441C18.6216 21.6809 18.6165 21.3747 18.6165 21.3747C18.6165 21.3747 18.5941 19.9408 19.3059 19.7296C20.0078 19.5215 20.909 21.1154 21.8641 21.7284C22.5863 22.1921 23.1352 22.0906 23.1352 22.0906L25.6893 22.0572C25.6893 22.0572 27.0253 21.9802 26.3918 20.9981C26.3399 20.918 26.0227 20.2717 24.4927 18.9441C22.8911 17.5545 23.1058 17.7793 25.0349 15.3756C26.2097 13.9117 26.6793 13.0181 26.5326 12.6354C26.3928 12.2708 25.5286 12.3671 25.5286 12.3671L22.653 12.3837C22.653 12.3837 22.4396 12.3565 22.2816 12.4449C22.1271 12.5314 22.0279 12.7334 22.0279 12.7334C22.0279 12.7334 21.5725 13.866 20.9658 14.8295C19.6853 16.8621 19.1732 16.9698 18.9639 16.8433C18.4769 16.5491 18.5986 15.6617 18.5986 15.031C18.5986 13.061 18.9182 12.2397 17.9762 12.0271C17.6636 11.9565 17.4334 11.9099 16.6339 11.9023C15.6078 11.8925 14.7395 11.9052 14.2477 12.1304C13.9206 12.2802 13.6682 12.6139 13.822 12.6331C14.0121 12.6568 14.4424 12.7417 14.6706 13.0319C14.9654 13.4068 14.9551 14.2485 14.9551 14.2485C14.9551 14.2485 15.1244 16.5675 14.5596 16.8554C14.172 17.053 13.6402 16.6497 12.4986 14.8055C11.9138 13.8609 11.4721 12.8166 11.4721 12.8166C11.4721 12.8166 11.387 12.6215 11.2351 12.517C11.0508 12.3905 10.7933 12.3504 10.7933 12.3504L8.06062 12.367C8.06062 12.367 7.65046 12.3778 7.49976 12.5445C7.36568 12.6929 7.48904 12.9996 7.48904 12.9996C7.48904 12.9996 9.62833 17.6788 12.0509 20.0369C14.2724 22.1991 16.7946 22.0572 16.7946 22.0572Z"
          fill="white"/>
</svg>
