<svg width="34" height="34" viewBox="0 0 34 34" fill="none" xmlns="http://www.w3.org/2000/svg">
    <rect width="34" height="34" rx="4" fill="#E62117"/>
    <path d="M8.57292 24.036C7.97511 23.9212 7.45562 23.6662 7.07471 23.2965C6.78032 23.0166 6.5462 22.5897 6.36456 21.9973C6.20875 21.5038 6.14807 21.0932 6.06155 20.0902C5.92912 17.8266 5.89755 15.9759 6.06155 13.9081C6.19686 12.7661 6.26246 11.4105 7.16123 10.6197C7.5856 10.2495 8.07926 10.0113 8.6336 9.91287C9.49957 9.7568 13.1889 9.63342 17.0083 9.63342C20.819 9.63342 24.5165 9.7568 25.3833 9.91287C26.0758 10.0363 26.7253 10.406 27.1066 10.8828C27.9267 12.1072 27.941 13.6298 28.0242 14.8208C28.0587 15.3882 28.0587 18.6104 28.0242 19.1779C27.8947 21.0601 27.7905 21.726 27.4961 22.4165C27.3141 22.8524 27.1587 23.0824 26.8897 23.3373C26.4679 23.7296 25.9301 23.9906 25.348 24.0854C21.7058 24.3454 18.6131 24.4018 15.1029 24.3485C10.894 24.2749 9.45651 24.2088 8.57292 24.036Z"
          fill="white"/>
    <path d="M20.4003 17.4249C18.3739 16.4271 16.4337 15.5019 14.4503 14.5442V20.2738C16.5374 19.2285 20.4003 17.4249 20.4003 17.4249Z"
          fill="#E62117"/>
</svg>
