<svg width="132" height="110" viewBox="0 0 132 110" fill="#6dc3f5" xmlns="http://www.w3.org/2000/svg">
<path fill-rule="evenodd" clip-rule="evenodd" d="M5.84766 0C2.61809 0 0 2.62203 0 5.85647V104.115C0 107.349 2.61809 109.971 5.84766 109.971H72.771C76.0005 109.971 78.6186 107.349 78.6186 104.115V5.85647C78.6186 2.62203 76.0005 0 72.771 0H5.84766ZM4.19618 2.90106C3.4785 2.90106 2.8967 3.48373 2.8967 4.2025V105.769C2.8967 106.488 3.4785 107.07 4.19618 107.07H74.4225C75.1401 107.07 75.7219 106.476 75.7219 105.758V4.21389C75.7219 3.49513 75.1401 2.90106 74.4225 2.90106H4.19618ZM39.1167 2.81439C38.8308 2.81439 38.5991 2.5743 38.5991 2.27812C38.5991 1.98195 38.8308 1.74186 39.1167 1.74186C39.4025 1.74186 39.6342 1.98195 39.6342 2.27812C39.6342 2.5743 39.4025 2.81439 39.1167 2.81439ZM78.943 9.10897C78.943 8.92986 78.7978 8.78467 78.6187 8.78467V13.3397C78.7978 13.3397 78.943 13.1945 78.943 13.0154V9.10897ZM78.6187 14.9666C78.7978 14.9666 78.943 15.1117 78.943 15.2909V19.1973C78.943 19.3764 78.7978 19.5216 78.6187 19.5216V14.9666ZM131.602 43.7504V48.4531H132V51.2582H131.602V53.6507H132V58.6009H131.602V60.0859H132V65.0361H131.602V104.967C131.602 107.747 129.427 110 126.745 110H102.938C100.256 110 98.0815 107.747 98.0815 104.967V63.4686H97.6834V55.3008H98.0815V43.7504C98.0815 40.971 100.256 38.7178 102.938 38.7178H126.745C129.427 38.7178 131.602 40.971 131.602 43.7504ZM110.661 41.6466C110.661 41.9427 110.893 42.1828 111.179 42.1828C111.465 42.1828 111.697 41.9427 111.697 41.6466C111.697 41.3504 111.465 41.1103 111.179 41.1103C110.893 41.1103 110.661 41.3504 110.661 41.6466ZM116.792 41.6877C116.792 41.5054 116.649 41.3577 116.474 41.3577H113.209C113.033 41.3577 112.891 41.5054 112.891 41.6877C112.891 41.87 113.033 42.0177 113.209 42.0177H116.474C116.649 42.0177 116.792 41.87 116.792 41.6877ZM129.691 43.4411C129.691 42.0061 128.585 40.8338 127.2 40.8017C125.36 40.7589 124.131 40.7375 123.516 40.7375C122.991 40.7375 122.935 41.1284 122.87 41.5915C122.774 42.2662 122.657 43.0942 121.034 43.0905C118.903 43.0856 113.185 43.0883 110.145 43.0898C109.279 43.0902 108.631 43.0905 108.344 43.0905C106.873 43.0905 106.767 42.2844 106.679 41.6158C106.617 41.1421 106.564 40.7375 106.041 40.7375C105.437 40.7375 104.198 40.7591 102.324 40.8023C100.94 40.8342 99.8331 42.0065 99.8331 43.4417V105.215C99.8331 106.673 100.974 107.855 102.381 107.855H127.143C128.55 107.855 129.691 106.673 129.691 105.215L129.691 43.4411Z" fill="#6dc3f5"/>
</svg>
