<svg width="164" height="110" viewBox="0 0 164 110" fill="none" xmlns="http://www.w3.org/2000/svg">
<path fill-rule="evenodd" clip-rule="evenodd" d="M152.286 2H150.121C145.58 2 141.719 4.92006 140.982 9.07402C140.649 10.9538 140.42 12.8131 140.408 14.3813L161.999 14.3839C161.987 12.8151 161.758 10.9548 161.425 9.07403C160.688 4.92006 156.827 2 152.286 2ZM141.119 29.0357C141.119 29.0357 138.91 21.9086 138.48 16.2794L138.431 16.2284L138.435 15.569C138.417 15.2098 138.407 14.8586 138.407 14.5179C138.407 12.754 138.661 10.7111 139.013 8.72483C139.945 3.46781 144.769 0 150.121 0H152.286C157.638 0 162.462 3.46781 163.394 8.72484C163.746 10.7111 164 12.754 164 14.5179C164 20.2851 161.288 29.0357 161.288 29.0357H141.119ZM161.886 16.6725L140.52 16.67C140.732 18.8772 141.21 21.3369 141.711 23.4854C142.042 24.9029 142.372 26.1465 142.621 27.0357H159.786C160.035 26.1465 160.366 24.9029 160.696 23.4854C161.197 21.3377 161.675 18.8791 161.886 16.6725ZM116.472 2.30469H118.637C123.178 2.30469 127.039 5.22475 127.775 9.37871C128.109 11.2593 128.338 13.1193 128.35 14.6879L106.759 14.6854C106.771 13.1173 107 11.2582 107.333 9.37871C108.07 5.22474 111.931 2.30469 116.472 2.30469ZM104.83 16.5836C105.261 22.2129 107.47 29.3404 107.47 29.3404H127.638C127.638 29.3404 130.351 20.5897 130.351 14.8226C130.351 13.0587 130.097 11.0158 129.745 9.02952C128.813 3.7725 123.989 0.304688 118.637 0.304688H116.472C111.12 0.304688 106.296 3.7725 105.364 9.02952C105.012 11.0158 104.758 13.0587 104.758 14.8226C104.758 15.1645 104.768 15.5169 104.786 15.8774L104.782 16.5325L104.83 16.5836ZM106.871 16.974L128.237 16.9766C128.026 19.1834 127.548 21.6422 127.047 23.7901C126.716 25.2076 126.386 26.4511 126.137 27.3404H108.971C108.723 26.4511 108.392 25.2076 108.062 23.7901C107.561 21.6414 107.082 19.1815 106.871 16.974ZM111.728 48.1548L111.728 48.1754L112.04 92.7952L123.275 92.901L123.638 48.2704L123.638 48.2505C123.696 45.0257 124.325 40.6602 124.931 36.4536L124.965 36.2169L124.966 36.2125C125.098 35.3102 125.228 34.4126 125.353 33.5228L110.035 33.4397C110.157 34.3192 110.285 35.2102 110.413 36.1052L110.418 36.1416L110.418 36.142V36.142L110.418 36.1421C111.032 40.4221 111.672 44.8881 111.728 48.1548ZM108.433 36.3889C108.291 35.3988 108.149 34.4077 108.014 33.4287C107.921 32.7543 107.831 32.0858 107.747 31.4272L127.638 31.5351C127.553 32.1968 127.464 32.8637 127.371 33.5337C127.234 34.5187 127.09 35.5103 126.945 36.5019L126.925 36.6364L126.925 36.6366C126.308 40.9229 125.694 45.1887 125.638 48.2867L125.259 94.9197L110.054 94.7766L109.729 48.1894C109.675 45.0676 109.055 40.7297 108.433 36.3889ZM110.637 108.26L110.637 108.258L110.625 107.803L110.048 96.9692L125.217 97.1219L124.631 107.926L124.62 108.299C124.606 109.123 124.589 109.994 117.634 109.957C110.678 109.918 110.661 109.22 110.637 108.26ZM112.62 107.67L112.158 98.9906L123.107 99.1008L122.642 107.679C121.919 107.829 120.459 107.972 117.644 107.957C114.833 107.941 113.364 107.812 112.62 107.67ZM122.617 108.352C122.616 108.365 122.615 108.37 122.615 108.37C122.615 108.37 122.615 108.363 122.617 108.352ZM117.627 54.8551C118.141 54.8577 118.603 55.0666 118.937 55.4047L118.941 55.4092C119.268 55.7427 119.472 56.2053 119.47 56.7154V56.7222L119.475 56.7222L119.468 56.822C119.441 57.289 119.242 57.7083 118.934 58.0187C118.598 58.354 118.13 58.5623 117.618 58.5596L117.611 58.5596L117.611 58.5642L117.511 58.5573C117.04 58.5298 116.614 58.3255 116.306 58.0101L116.303 58.0079C115.974 57.6721 115.77 57.2095 115.77 56.7016C115.772 56.1915 115.98 55.7292 116.311 55.3984C116.647 55.0608 117.113 54.8525 117.627 54.8551ZM117.663 44.2381C118.28 44.2407 119.06 44.3652 119.585 44.5867C120.074 44.7901 120.409 44.9342 120.923 45.3639C121.295 45.6747 121.477 45.933 121.732 46.3033C122.021 46.721 122.192 47.2289 122.19 47.7774C122.187 48.8897 122.187 50.0033 122.188 51.1172V51.1173V51.1174V51.1174V51.1175V51.1176V51.1176V51.1177C122.188 53.2606 122.188 55.4048 122.164 57.543L122.167 57.543L122.162 57.6378C122.131 58.8407 121.626 59.9305 120.828 60.7222C120.005 61.5387 118.866 62.0436 117.614 62.0406L117.608 62.0406L117.608 62.0428L117.512 62.0383C116.304 62.0059 115.209 61.4997 114.415 60.7003C113.595 59.8783 113.09 58.745 113.093 57.4992L113.093 57.4924H113.089L113.093 57.4112L113.117 47.7403C113.119 47.1964 113.289 46.691 113.583 46.2736C113.842 45.9082 114.046 45.6709 114.419 45.3639C114.897 44.9699 115.31 44.7895 115.803 44.5867C116.333 44.3703 117.049 44.2355 117.663 44.2381ZM145.378 47.8713L145.377 47.8508C145.321 44.5839 144.681 40.1179 144.067 35.8379L144.067 35.8375L144.062 35.8011C143.934 34.9062 143.806 34.0152 143.684 33.1356L159.002 33.2187C158.877 34.1085 158.747 35.0061 158.615 35.9084L158.614 35.9128L158.58 36.1495L158.58 36.15C157.974 40.3564 157.345 44.7217 157.287 47.9464L157.287 47.9663L156.924 92.5969L145.689 92.4911L145.378 47.8713ZM141.663 33.1246C141.799 34.1036 141.94 35.0947 142.082 36.0849C142.704 40.4256 143.324 44.7635 143.378 47.8853L143.703 94.4725L158.908 94.6157L159.287 47.9826C159.343 44.8846 159.957 40.6187 160.574 36.3323L160.594 36.1978C160.739 35.2062 160.883 34.2146 161.02 33.2296C161.113 32.5596 161.203 31.8927 161.287 31.2311L141.396 31.1232C141.48 31.7817 141.57 32.4503 141.663 33.1246ZM144.286 107.954L144.286 107.956C144.31 108.916 144.327 109.614 151.283 109.653C158.238 109.69 158.255 108.819 158.269 107.995L158.28 107.622L158.866 96.818L143.697 96.6653L144.274 107.499L144.286 107.954ZM145.807 98.6866L146.269 107.366C147.013 107.508 148.482 107.637 151.293 107.653C154.108 107.668 155.568 107.525 156.291 107.375L156.756 98.7969L145.807 98.6866ZM156.266 108.048C156.265 108.061 156.264 108.066 156.264 108.066C156.264 108.066 156.265 108.059 156.266 108.048ZM152.586 55.1008C152.252 54.7627 151.79 54.5539 151.276 54.5512C150.761 54.5486 150.295 54.7569 149.96 55.0945C149.629 55.4253 149.421 55.8876 149.419 56.3977C149.419 56.9056 149.623 57.3682 149.952 57.704L149.955 57.7062C150.263 58.0216 150.689 58.2259 151.159 58.2534L151.26 58.2603V58.2557L151.267 58.2558C151.779 58.2584 152.247 58.0501 152.583 57.7148C152.891 57.4044 153.09 56.9851 153.117 56.5181L153.124 56.4183L153.119 56.4183V56.4115C153.121 55.9014 152.917 55.4388 152.59 55.1053L152.586 55.1008ZM153.234 44.2827C152.708 44.0612 151.928 43.9367 151.312 43.9341C150.698 43.9315 149.982 44.0664 149.452 44.2827C148.959 44.4855 148.546 44.666 148.068 45.06C147.695 45.367 147.491 45.6042 147.232 45.9697C146.938 46.387 146.768 46.8925 146.766 47.4364L146.742 57.1072L146.738 57.1885H146.742V57.1953C146.739 58.4411 147.244 59.5743 148.064 60.3964C148.858 61.1958 149.953 61.702 151.161 61.7343L151.257 61.7389V61.7366L151.263 61.7366C152.515 61.7396 153.654 61.2348 154.477 60.4183C155.275 59.6266 155.78 58.5368 155.811 57.3339L155.815 57.2391L155.813 57.2391C155.837 55.1011 155.837 52.9572 155.836 50.8146C155.836 49.7002 155.836 48.5862 155.839 47.4734C155.841 46.925 155.67 46.4171 155.381 45.9994C155.126 45.6291 154.943 45.3707 154.572 45.06C154.058 44.6302 153.723 44.4861 153.234 44.2827ZM66.3386 32.1034C65.6837 31.817 64.9537 32.0823 64.6031 32.6593L63.2613 34.8672C62.8203 35.5929 62.0775 36.0073 61.3058 36.0073H26.3641C25.6727 36.0073 25.0016 35.675 24.5498 35.0754L22.7012 32.6223C22.2832 32.0675 21.5092 31.8924 20.8889 32.2633L5.82265 41.2726C5.45549 41.4921 5.22004 41.8611 5.15534 42.2623L0.0183214 74.1116C-0.0223934 74.3641 0.00487308 74.6242 0.0988974 74.8639L7.55261 93.8652C7.66167 94.1432 7.85812 94.3865 8.12237 94.5497L32.7672 109.77C32.8662 109.823 33.0203 109.88 33.0707 109.892C33.0995 109.897 33.1468 109.905 33.1657 109.907C33.2005 109.911 33.2285 109.912 33.2395 109.913C33.255 109.913 33.2695 109.913 33.2811 109.913L33.2995 109.913C33.3266 109.913 33.3576 109.912 33.3877 109.911C33.4502 109.909 33.5371 109.906 33.6441 109.901C33.7768 109.895 33.9459 109.887 34.148 109.877L34.2911 110L34.4095 109.863L34.5627 109.855C35.3474 109.814 36.4633 109.753 37.7988 109.679C40.4703 109.53 44.0248 109.328 47.5764 109.124C51.1281 108.92 54.6775 108.714 57.3388 108.56L59.61 108.428L60.5543 108.373L61.7725 108.302L61.7735 108.302C61.7736 108.302 61.7737 108.302 61.7679 108.203L61.7747 108.302C61.8643 108.293 61.9976 108.262 62.0422 108.247C62.0539 108.243 62.0687 108.237 62.0832 108.231C62.1019 108.223 62.12 108.215 62.1298 108.211C62.1447 108.204 62.158 108.197 62.1691 108.191C62.1826 108.184 62.1928 108.178 62.1985 108.175C62.21 108.168 62.2206 108.162 62.2294 108.156C62.2387 108.151 62.246 108.146 62.2507 108.143C62.2627 108.135 62.2751 108.127 62.287 108.119L62.3134 108.101C62.3538 108.073 62.4079 108.035 62.4723 107.99C62.6023 107.898 62.7883 107.764 63.0209 107.596C63.4868 107.26 64.1468 106.781 64.9352 106.207C66.5123 105.06 68.607 103.53 70.6987 102.001C72.7905 100.472 74.8798 98.9429 76.446 97.7962L79.0557 95.8851L79.0565 95.8844C79.1311 95.8236 79.2256 95.7252 79.2509 95.6934C79.2641 95.6756 79.2846 95.6462 79.2924 95.6344L79.3028 95.6181C79.3115 95.6041 79.3178 95.5932 79.3207 95.5881L79.3319 95.5683L79.3423 95.5491C79.3521 95.5309 79.3631 95.5094 79.3741 95.488C79.387 95.4626 79.4028 95.4314 79.4212 95.3949C79.4349 95.3676 79.45 95.3373 79.4665 95.3043C79.544 95.1491 79.6553 94.924 79.7953 94.64C80.0755 94.0715 80.4727 93.2621 80.9475 92.2928C81.8972 90.3538 83.1585 87.7723 84.4182 85.1924C85.6778 82.6123 86.9359 80.0334 87.8791 78.0996L89.4487 74.8806L89.4504 74.8771L89.4489 74.8763C89.4987 74.7516 89.5397 74.5745 89.5452 74.5133C89.5459 74.4941 89.546 74.4686 89.5458 74.4451C89.5456 74.4233 89.545 74.4032 89.5443 74.3917C89.5428 74.3692 89.5405 74.3491 89.5384 74.3331C89.5364 74.3175 89.5345 74.3057 89.5334 74.2991C89.5306 74.2816 89.5275 74.2653 89.5247 74.2518C89.5231 74.244 89.5216 74.2371 89.5204 74.2314L89.5191 74.2254C89.5117 74.1925 89.5024 74.1548 89.4931 74.1184C89.4737 74.0427 89.4455 73.9375 89.4101 73.8081C89.3388 73.5476 89.2334 73.1712 89.0994 72.6974C88.8311 71.7489 88.4454 70.4007 87.9815 68.7874C87.0536 65.5603 85.8117 61.2675 84.5683 56.9785C83.3249 52.6893 82.0798 48.4034 81.1457 45.1898C80.6786 43.583 80.2892 42.2442 80.0166 41.3072L79.6035 39.8873C79.5256 39.4576 79.3273 38.9751 78.8077 38.7243L66.404 32.135C66.3932 32.1293 66.3824 32.1238 66.3714 32.1185C66.3606 32.1133 66.3496 32.1082 66.3386 32.1034ZM36.1389 107.866C36.6124 107.84 37.133 107.811 37.6926 107.78C40.3623 107.631 43.9154 107.429 47.4668 107.225C51.0081 107.021 54.5471 106.817 57.2058 106.662L56.1153 106.109L44.8326 100.967C43.6763 100.44 42.3101 100.738 41.4792 101.698L36.1389 107.866ZM61.385 106.42L56.9441 104.396L47.9675 99.8415C46.6568 99.1766 46.562 97.3445 47.7971 96.5484L66.999 84.1726C68.359 83.296 70.1766 83.7194 71.0069 85.1061L76.9645 95.0568L75.3178 96.2627C73.7517 97.4093 71.6629 98.9379 69.5716 100.467C67.4801 101.996 65.3867 103.524 63.8113 104.671C63.0234 105.244 62.366 105.721 61.9035 106.055C61.6894 106.21 61.5186 106.332 61.3965 106.419L61.385 106.42ZM70.5535 82.2529C70.577 82.2495 70.6003 82.2456 70.6235 82.2414L70.6169 82.2826C70.5959 82.2726 70.5747 82.2626 70.5535 82.2529ZM25.731 37.8601L23.3259 45.982C22.965 47.2008 23.8807 48.423 25.1547 48.423H60.7148C62.6628 48.423 64.0409 46.523 63.4316 44.6773L63.0306 43.4626L62.7173 42.6814L62.7127 42.6697L62.7065 42.6532L60.9772 37.9094H26.3641C26.1502 37.9094 25.9387 37.8927 25.731 37.8601ZM64.8231 42.8112L63.0725 37.5085C63.813 37.1551 64.4483 36.5833 64.892 35.8532L65.9791 34.0643L76.5704 39.6909L70.7031 44.7457L68.8773 46.2454C67.8809 47.0639 66.3741 46.679 65.8947 45.4835L64.8231 42.8112ZM2.01026 73.7362L6.86441 43.6406L17.8211 49.6708C18.8288 50.2254 19.4051 51.3284 19.2837 52.4699L16.7649 76.1601C16.5605 78.0825 14.5391 79.25 12.766 78.4696L3.07204 74.2035L2.03558 73.7169L2.0237 73.7421L2.01026 73.7362ZM10.0677 93.5139L16.4378 85.5483C17.3519 84.4052 18.9844 84.1365 20.2182 84.9261L39.7271 97.4102C40.7233 98.0477 40.9028 99.4271 40.1026 100.297L33.2014 107.801L10.0677 93.5139ZM23.0255 36.2184C23.2917 36.5716 23.6057 36.8775 23.9549 37.1283L21.4219 45.3642C20.8944 47.0796 18.9288 47.8889 17.3412 47.0444L8.1003 42.1283L21.4594 34.1399L23.0255 36.2184ZM8.8569 91.9702L2.63089 76.0986L13.0809 81.0041C14.7484 81.7868 15.2495 83.9153 14.1056 85.3567L8.8569 91.9702ZM75.1731 43.5379L71.9325 46.1998L67.3024 50.1887C66.5371 50.8481 66.1776 51.8616 66.3571 52.8544L70.4538 75.5163C70.7577 77.1971 72.4637 78.2369 74.1016 77.7396L87.4016 73.7014C87.3602 73.5538 87.3143 73.3911 87.2642 73.2139C86.9971 72.2695 86.6123 70.9246 86.1486 69.3118C85.2213 66.0868 83.9798 61.7956 82.7365 57.5069C81.4932 53.2184 80.2483 48.9329 79.3142 45.7195C78.8472 44.1129 78.4579 42.7742 78.1853 41.8373L77.9647 41.0792L75.1981 43.5165C75.1899 43.5238 75.1815 43.5309 75.1731 43.5379ZM78.247 93.4699C78.5093 92.9367 78.8455 92.2513 79.2342 91.4577C80.1833 89.5199 81.4443 86.9393 82.7038 84.3595C83.9633 81.7798 85.2213 79.2012 86.1644 77.2675L86.796 75.9722L74.3858 80.3051C72.6627 80.9066 71.9379 82.9426 72.8947 84.4934L74.2261 86.6517L74.2359 86.6679L78.247 93.4699ZM21.294 52.9729C21.4441 51.5179 22.6729 50.4119 24.1392 50.4119H61.3332C62.7287 50.4119 63.9205 51.4164 64.1534 52.789L68.4451 78.0863C68.634 79.2001 68.1465 80.3202 67.2017 80.9429L44.6305 95.8191C43.6933 96.4368 42.4803 96.4501 41.5297 95.8531L19.8731 82.2512C18.9526 81.673 18.4405 80.6239 18.5519 79.5445L21.294 52.9729Z" fill="#2B3640"/>
</svg>
