<svg width="163" height="100" viewBox="0 0 163 100" fill="none" xmlns="http://www.w3.org/2000/svg">
<path fill-rule="evenodd" clip-rule="evenodd" d="M132.724 0C127.753 0 123.724 4.02944 123.724 9V29.667C123.724 34.6376 127.753 38.667 132.724 38.667H154C158.97 38.667 163 34.6376 163 29.667V9C163 4.02944 158.97 0 154 0H132.724ZM125.724 9C125.724 5.13401 128.858 2 132.724 2H154C157.866 2 161 5.13401 161 9V29.667C161 33.533 157.866 36.667 154 36.667H132.724C128.858 36.667 125.724 33.533 125.724 29.667V9ZM120.241 12.7312H1.00201C0.448615 12.7312 0 13.1787 0 13.7307V91.6008C0 92.1529 0.448615 92.6004 1.00201 92.6004H26.4359L27.022 93.5944C29.3624 97.5632 33.6337 100 38.2497 100H98.8255C103.442 100 107.713 97.5632 110.053 93.5944L110.639 92.6004H137.882C138.436 92.6004 138.884 92.1529 138.884 91.6008V41.7171H136.88V90.6013H2.00402V14.7302H120.241V12.7312ZM71.5334 92.6004H105.888C104.192 94.7316 101.599 96.002 98.8255 96.002H38.2497C35.4767 96.002 32.8833 94.7316 31.1872 92.6004H65.541L65.8358 93.1887H71.2386L71.5334 92.6004ZM22.3192 57.7359C23.9239 59.3675 26.0996 60.1832 28.8462 60.1832C30.8521 60.1832 32.3797 59.7292 33.429 58.8211C34.4936 57.9129 35.026 56.7201 35.026 55.2424C35.026 54.3497 34.8022 53.5878 34.3548 52.9568C33.9227 52.3103 33.3749 51.8408 32.7114 51.5484C32.0634 51.2406 31.3536 50.9712 30.5821 50.7403C29.826 50.4941 29.1162 50.3094 28.4527 50.1862C27.8046 50.0631 27.2568 49.8784 26.8094 49.6321C26.3773 49.3705 26.1613 49.0549 26.1613 48.6855C26.1613 48.2084 26.3542 47.8313 26.7399 47.5542C27.1257 47.2772 27.6657 47.1386 28.3601 47.1386C30.1346 47.1386 31.6313 47.7004 32.8503 48.824L34.6788 46.4229C33.1203 44.9915 31.1144 44.2758 28.661 44.2758C26.8865 44.2758 25.4669 44.7298 24.4022 45.6379C23.3376 46.5307 22.8052 47.6389 22.8052 48.9626C22.8052 49.8707 23.0212 50.6403 23.4533 51.2714C23.9008 51.9024 24.4485 52.3642 25.0966 52.6566C25.7601 52.9491 26.4776 53.2107 27.2491 53.4416C28.0206 53.6725 28.7304 53.8495 29.3785 53.9726C30.042 54.0958 30.5898 54.2958 31.0218 54.5729C31.4693 54.85 31.693 55.1963 31.693 55.6119C31.693 56.089 31.4539 56.4969 30.9755 56.8355C30.5126 57.1587 29.8568 57.3203 29.0082 57.3203C27.064 57.3203 25.4284 56.6277 24.1014 55.2424L22.3192 57.7359ZM51.0336 59.9062H53.9962V51.8485C53.9962 50.7249 53.7107 49.8861 53.1398 49.332C52.5689 48.7625 51.7588 48.4777 50.7095 48.4777C49.9071 48.4777 49.1511 48.6778 48.4413 49.078C47.7469 49.4782 47.2223 49.9553 46.8674 50.5095C46.4199 49.155 45.3861 48.4777 43.7659 48.4777C42.9944 48.4777 42.2615 48.6701 41.5671 49.0549C40.8727 49.4243 40.3867 49.8091 40.1089 50.2093V48.7548H37.1695V59.9062H40.1089V52.4027C40.3558 52.0486 40.6876 51.7408 41.1042 51.4791C41.5208 51.2175 41.9606 51.0866 42.4235 51.0866C43.5344 51.0866 44.0899 51.6792 44.0899 52.8644V59.9062H47.0525V52.3796C47.2994 52.0409 47.6235 51.7408 48.0247 51.4791C48.4413 51.2175 48.8887 51.0866 49.3671 51.0866C50.4781 51.0866 51.0336 51.6792 51.0336 52.8644V59.9062ZM66.5308 59.9062H63.5914V58.7518C62.789 59.7061 61.6086 60.1832 60.0501 60.1832C59.0472 60.1832 58.1445 59.86 57.3421 59.2135C56.5552 58.5517 56.1617 57.6436 56.1617 56.4892C56.1617 55.2886 56.5475 54.3882 57.319 53.7879C58.1059 53.1876 59.0163 52.8875 60.0501 52.8875C61.6395 52.8875 62.8199 53.3416 63.5914 54.2497V52.749C63.5914 52.1795 63.3676 51.7254 62.9202 51.3868C62.4727 51.0482 61.8786 50.8789 61.138 50.8789C59.919 50.8789 58.8311 51.3175 57.8745 52.1949L56.7635 50.2324C58.0905 49.0626 59.7184 48.4777 61.6472 48.4777C63.0822 48.4777 64.2549 48.8087 65.1653 49.4705C66.0757 50.1324 66.5308 51.2098 66.5308 52.7028V59.9062ZM61.2305 58.1977C62.3261 58.1977 63.113 57.8745 63.5914 57.228V55.8427C63.113 55.1963 62.3261 54.873 61.2305 54.873C60.6288 54.873 60.1273 55.027 59.7261 55.3348C59.3249 55.6272 59.1243 56.0351 59.1243 56.5584C59.1243 57.0664 59.3249 57.4666 59.7261 57.759C60.1273 58.0515 60.6288 58.1977 61.2305 58.1977ZM69.4464 59.9062H72.3859V52.5412C72.6174 52.1872 73.0108 51.887 73.5663 51.6408C74.1218 51.3945 74.6464 51.2714 75.1402 51.2714C75.4797 51.2714 75.7497 51.2944 75.9503 51.3406V48.4777C75.2868 48.4777 74.631 48.647 73.9829 48.9857C73.3349 49.3243 72.8025 49.7553 72.3859 50.2786V48.7548H69.4464V59.9062ZM81.5365 60.1832C80.5026 60.1832 79.7157 59.9216 79.1756 59.3982C78.6356 58.8749 78.3655 58.1207 78.3655 57.1356V51.3175H76.5139V48.7548H78.3655V45.7072H81.3282V48.7548H83.5964V51.3175H81.3282V56.3507C81.3282 56.7047 81.4207 56.9971 81.6059 57.228C81.7911 57.4589 82.038 57.5743 82.3466 57.5743C82.8095 57.5743 83.1489 57.4666 83.365 57.2511L83.9899 59.4675C83.4498 59.9447 82.632 60.1832 81.5365 60.1832ZM95.1633 59.9062H98.4731V47.3926H102.963V44.5066H90.65V47.3926H95.1633V59.9062ZM109.398 59.9062L103.427 44.5066H107.176L111.458 56.3507L115.717 44.5066H119.467L113.518 59.9062H109.398ZM143.697 30.3794H139.817C139.773 30.3794 139.738 30.414 139.738 30.4566V35.093C139.738 35.1353 139.773 35.1699 139.817 35.1699H140.836C140.879 35.1699 140.915 35.1353 140.915 35.093V31.4542C140.915 31.4121 140.95 31.3773 140.994 31.3773H143.188C143.806 31.3773 143.981 31.8488 143.981 32.153V35.093C143.981 35.1353 144.016 35.1699 144.06 35.1699H145.078C145.121 35.1699 145.157 35.1353 145.157 35.093V31.804C145.157 31.5326 145.124 31.1425 144.773 30.7992C144.406 30.4407 144.071 30.3794 143.697 30.3794ZM147.174 30.3794H146.156C146.112 30.3794 146.077 30.414 146.077 30.4567V35.093C146.077 35.1353 146.112 35.1699 146.156 35.1699H147.174C147.218 35.1699 147.253 35.1353 147.253 35.093V30.4567C147.253 30.414 147.218 30.3794 147.174 30.3794ZM141.913 32.2261H142.983C143.026 32.2261 143.062 32.2607 143.062 32.3032V35.0934C143.062 35.1356 143.026 35.1702 142.983 35.1702H141.913C141.87 35.1702 141.834 35.1356 141.834 35.0934V32.3032C141.834 32.2607 141.87 32.2261 141.913 32.2261Z" fill="#2B3640"/>
</svg>
