<svg width="2560" height="1080" viewBox="0 0 2560 1080" fill="none" xmlns="http://www.w3.org/2000/svg">
<rect width="2560" height="1080" fill="white"/>
<rect width="2560" height="1080" fill="#EDF6FD"/>
<rect width="2560" height="1080" fill="#EDF6FD"/>
<mask id="mask0" mask-type="alpha" maskUnits="userSpaceOnUse" x="0" y="0" width="2560" height="1080">
<rect width="2560" height="1080" fill="white"/>
</mask>
<g mask="url(#mask0)">
<path fill-rule="evenodd" clip-rule="evenodd" d="M1563.16 674.769C1597.23 656.722 1639.6 669.675 1657.76 703.689C1675.95 737.682 1663.05 779.871 1628.96 797.88C1561.75 833.456 1572.81 827.584 1505.57 863.151C1471.5 881.198 1429.13 868.244 1410.98 834.231C1392.78 800.238 1405.68 758.049 1439.77 740.04C1499.86 708.23 1503.13 706.5 1563.16 674.769Z" fill="url(#paint0_linear)"/>
<path fill-rule="evenodd" clip-rule="evenodd" d="M1184.73 559.071C1308.79 493.425 1430.92 428.797 1554.95 363.209C1589.05 345.171 1631.39 358.115 1649.57 392.138C1667.74 426.122 1654.84 468.311 1620.78 486.329C1496.81 551.905 1374.41 616.676 1250.53 682.182C1216.47 700.2 1174.1 687.246 1155.94 653.262C1137.74 619.269 1150.64 577.08 1184.73 559.071Z" fill="url(#paint1_linear)"/>
<path fill-rule="evenodd" clip-rule="evenodd" d="M921.489 66.5135C1045.56 0.905579 1167.69 -63.7229 1291.74 -129.34C1325.83 -147.349 1368.17 -134.404 1386.36 -100.411C1404.51 -66.3974 1391.61 -24.2084 1357.55 -6.19072C1233.55 59.3765 1111.19 124.156 987.305 189.663C953.244 207.68 910.875 194.727 892.683 160.734C874.529 126.72 887.419 84.5606 921.489 66.5135Z" fill="url(#paint2_linear)"/>
<path fill-rule="evenodd" clip-rule="evenodd" d="M289.574 81.4104C415.546 14.7986 539.543 -50.8187 665.485 -117.44C700.097 -135.724 743.085 -122.581 761.555 -88.0681C779.987 -53.5342 766.891 -10.6997 732.308 7.5937C606.415 74.1642 482.174 139.935 356.397 206.444C321.815 224.737 278.797 211.585 260.327 177.072C241.896 142.538 254.982 99.7336 289.574 81.4104Z" fill="url(#paint3_linear)"/>
<path fill-rule="evenodd" clip-rule="evenodd" d="M-335.841 97.8241C-209.869 31.2123 -85.8719 -34.405 40.0701 -101.026C74.6824 -119.31 117.67 -106.168 136.14 -71.6544C154.572 -37.1205 141.476 5.71402 106.893 24.0074C-19.0004 90.5779 -143.241 156.349 -269.018 222.857C-303.6 241.151 -346.618 227.999 -365.088 193.486C-383.519 158.952 -370.433 116.147 -335.841 97.8241Z" fill="url(#paint4_linear)"/>
<path fill-rule="evenodd" clip-rule="evenodd" d="M822.709 1066.45C946.753 1000.84 1068.88 936.209 1192.96 870.601C1227.02 852.584 1269.36 865.528 1287.55 899.521C1305.71 933.505 1292.81 975.694 1258.75 993.712C1134.78 1059.29 1012.39 1124.06 888.505 1189.57C854.414 1207.57 812.075 1194.63 793.912 1160.65C775.72 1126.65 788.619 1084.46 822.709 1066.45Z" fill="url(#paint5_linear)"/>
<path fill-rule="evenodd" clip-rule="evenodd" d="M197.296 1082.87C321.34 1017.25 443.469 952.623 567.542 887.015C601.603 868.998 643.943 881.942 662.135 915.935C680.298 949.919 667.399 992.109 633.338 1010.13C509.371 1075.7 386.973 1140.47 263.092 1205.98C229.001 1223.99 186.661 1211.04 168.499 1177.06C150.307 1143.07 163.205 1100.88 197.296 1082.87Z" fill="url(#paint6_linear)"/>
<path fill-rule="evenodd" clip-rule="evenodd" d="M2615.32 1078.88C2739.36 1013.26 2861.49 948.634 2985.57 883.026C3019.63 865.009 3061.97 877.953 3080.16 911.946C3098.32 945.93 3085.42 988.119 3051.36 1006.14C2927.4 1071.71 2805 1136.48 2681.12 1201.99C2647.03 1220 2604.69 1207.05 2586.52 1173.07C2568.33 1139.08 2581.23 1096.89 2615.32 1078.88Z" fill="url(#paint7_linear)"/>
<path fill-rule="evenodd" clip-rule="evenodd" d="M937.924 689.603C971.986 671.586 1014.33 684.53 1032.52 718.523C1050.67 752.537 1037.77 794.726 1003.71 812.743C936.474 848.311 947.559 842.447 880.321 878.014C846.222 896.052 803.853 883.099 785.699 849.085C767.537 815.101 780.435 772.912 814.496 754.895C874.604 723.123 877.846 721.384 937.924 689.603Z" fill="url(#paint8_linear)"/>
<path fill-rule="evenodd" clip-rule="evenodd" d="M312.511 706.018C346.573 688 388.912 700.945 407.104 734.938C425.258 768.951 412.359 811.14 378.298 829.158C311.061 864.725 322.146 858.862 254.908 894.429C220.809 912.467 178.44 899.514 160.286 865.5C142.124 831.516 155.022 789.327 189.083 771.309C249.191 739.538 252.433 737.798 312.511 706.018Z" fill="url(#paint9_linear)"/>
<path fill-rule="evenodd" clip-rule="evenodd" d="M2730.54 702.029C2764.6 684.011 2806.94 696.955 2825.13 730.949C2843.28 764.962 2830.38 807.151 2796.32 825.169C2729.09 860.736 2740.17 854.873 2672.93 890.44C2638.83 908.478 2596.47 895.524 2578.31 861.511C2560.15 827.527 2573.05 785.338 2607.11 767.32C2667.22 735.549 2670.46 733.809 2730.54 702.029Z" fill="url(#paint10_linear)"/>
<path fill-rule="evenodd" clip-rule="evenodd" d="M559.466 573.898C683.51 508.281 805.659 443.691 929.703 378.074C963.803 360.035 1006.14 372.98 1024.33 407.002C1042.48 441.016 1029.59 483.176 995.52 501.223C871.532 566.761 749.134 631.531 625.282 697.047C591.221 715.064 548.852 702.111 530.66 668.118C512.497 634.134 525.396 591.945 559.466 573.898Z" fill="url(#paint11_linear)"/>
<path fill-rule="evenodd" clip-rule="evenodd" d="M-65.9476 590.311C58.0965 524.695 180.246 460.104 304.29 394.487C338.389 376.449 380.729 389.394 398.912 423.416C417.066 457.43 404.176 499.59 370.106 517.637C246.118 583.174 123.72 647.945 -0.131309 713.461C-34.1924 731.478 -76.5615 718.525 -94.7536 684.532C-112.916 650.548 -100.018 608.359 -65.9476 590.311Z" fill="url(#paint12_linear)"/>
<path fill-rule="evenodd" clip-rule="evenodd" d="M2364.35 548.112C2488.4 482.495 2610.55 417.905 2734.59 352.288C2768.69 334.25 2811.03 347.194 2829.21 381.217C2847.37 415.23 2834.48 457.39 2800.41 475.437C2676.42 540.975 2554.02 605.746 2430.17 671.261C2396.11 689.279 2353.74 676.325 2335.55 642.332C2317.38 608.348 2330.28 566.159 2364.35 548.112Z" fill="url(#paint13_linear)"/>
<path fill-rule="evenodd" clip-rule="evenodd" d="M1547.24 53.5849C1671.29 -12.0321 1793.44 -76.6222 1917.48 -142.239C1951.58 -160.277 1993.92 -147.333 2012.1 -113.31C2030.26 -79.2967 2017.37 -37.1371 1983.3 -19.09C1859.31 46.4479 1736.91 111.219 1613.06 176.734C1579 194.752 1536.63 181.798 1518.44 147.805C1500.27 113.821 1513.17 71.6319 1547.24 53.5849Z" fill="url(#paint14_linear)"/>
<path fill-rule="evenodd" clip-rule="evenodd" d="M1802.25 232.589C1926.3 166.972 2000.85 132.59 2124.89 66.9728C2158.99 48.9347 2201.33 61.8792 2219.51 95.9017C2237.67 129.915 2224.78 172.075 2190.71 190.122C2066.72 255.66 1991.92 290.223 1868.07 355.738C1834.01 373.756 1791.64 360.802 1773.45 326.809C1755.29 292.825 1768.18 250.636 1802.25 232.589Z" fill="url(#paint15_linear)"/>
<path fill-rule="evenodd" clip-rule="evenodd" d="M1810.24 542.585C1934.29 476.968 2020.85 431.59 2144.89 365.973C2178.99 347.935 2221.33 360.879 2239.51 394.902C2257.67 428.915 2244.78 471.075 2210.71 489.122C2086.72 554.66 1999.91 600.219 1876.06 665.734C1842 683.752 1799.63 670.798 1781.44 636.805C1763.27 602.821 1776.17 560.632 1810.24 542.585Z" fill="url(#paint16_linear)"/>
<path fill-rule="evenodd" clip-rule="evenodd" d="M2017.35 1074.59C2141.4 1008.97 2227.96 963.596 2352 897.979C2386.1 879.941 2428.44 892.886 2446.62 926.908C2464.78 960.922 2451.89 1003.08 2417.82 1021.13C2293.83 1086.67 2207.02 1132.23 2083.17 1197.74C2049.11 1215.76 2006.74 1202.8 1988.55 1168.81C1970.38 1134.83 1983.28 1092.64 2017.35 1074.59Z" fill="url(#paint17_linear)"/>
<path fill-rule="evenodd" clip-rule="evenodd" d="M1392.24 1078.58C1516.29 1012.97 1638.44 948.377 1762.48 882.76C1796.58 864.722 1838.92 877.667 1857.1 911.689C1875.26 945.702 1862.37 987.862 1828.3 1005.91C1704.31 1071.45 1581.91 1136.22 1458.06 1201.73C1424 1219.75 1381.63 1206.8 1363.44 1172.8C1345.27 1138.82 1358.17 1096.63 1392.24 1078.58Z" fill="url(#paint18_linear)"/>
<path fill-rule="evenodd" clip-rule="evenodd" d="M674.672 197.076C708.763 179.067 751.132 192.021 769.295 226.005C787.457 259.989 774.559 302.178 740.489 320.225C673.26 355.763 684.306 349.92 617.06 385.516C582.999 403.534 540.63 390.58 522.467 356.596C504.284 322.574 517.183 280.385 551.273 262.376C611.361 230.566 614.632 228.836 674.672 197.076Z" fill="url(#paint19_linear)"/>
<path fill-rule="evenodd" clip-rule="evenodd" d="M49.2582 213.49C83.3489 195.481 125.718 208.435 143.881 242.419C162.043 276.403 149.145 318.592 115.075 336.639C47.8465 372.177 58.8923 366.334 -8.35377 401.93C-42.4149 419.948 -84.784 406.995 -102.947 373.011C-121.13 338.988 -108.231 296.799 -74.1406 278.79C-14.0531 246.981 -10.7817 245.25 49.2582 213.49Z" fill="url(#paint20_linear)"/>
<path fill-rule="evenodd" clip-rule="evenodd" d="M2542.77 176.415C2576.86 158.406 2619.23 171.36 2637.4 205.344C2655.56 239.328 2642.66 281.517 2608.59 299.564C2541.36 335.102 2552.41 329.259 2485.16 364.855C2451.1 382.873 2408.73 369.919 2390.57 335.935C2372.38 301.913 2385.28 259.724 2419.37 241.715C2479.46 209.905 2482.73 208.175 2542.77 176.415Z" fill="url(#paint21_linear)"/>
<path fill-rule="evenodd" clip-rule="evenodd" d="M2509.77 -130.585C2543.86 -148.594 2586.23 -135.64 2604.4 -101.656C2622.56 -67.6723 2609.66 -25.4832 2575.59 -7.43615C2508.36 28.1016 2519.41 22.2586 2452.16 57.8551C2418.1 75.8728 2375.73 62.9193 2357.57 28.9352C2339.38 -5.08731 2352.28 -47.2763 2386.37 -65.285C2446.46 -97.0948 2449.73 -98.8253 2509.77 -130.585Z" fill="url(#paint22_linear)"/>
<path fill-rule="evenodd" clip-rule="evenodd" d="M2121.66 670.888C2155.75 652.879 2198.12 665.833 2216.29 699.817C2234.45 733.801 2221.55 775.99 2187.48 794.037C2120.25 829.575 2131.3 823.732 2064.05 859.328C2029.99 877.346 1987.62 864.392 1969.46 830.408C1951.28 796.386 1964.17 754.197 1998.26 736.188C2058.35 704.378 2061.62 702.648 2121.66 670.888Z" fill="url(#paint23_linear)"/>
</g>
<defs>
<linearGradient id="paint0_linear" x1="1622.23" y1="859.416" x2="1429.98" y2="628.283" gradientUnits="userSpaceOnUse">
<stop stop-color="#6CE0F5"/>
<stop offset="1" stop-color="#EDF6FD" stop-opacity="0"/>
</linearGradient>
<linearGradient id="paint1_linear" x1="1563.4" y1="688.083" x2="1211.88" y2="265.461" gradientUnits="userSpaceOnUse">
<stop stop-color="#6CE0F5"/>
<stop offset="1" stop-color="#EDF6FD" stop-opacity="0"/>
</linearGradient>
<linearGradient id="paint2_linear" x1="1300.18" y1="195.562" x2="948.65" y2="-227.068" gradientUnits="userSpaceOnUse">
<stop stop-color="#6CE0F5"/>
<stop offset="1" stop-color="#EDF6FD" stop-opacity="0"/>
</linearGradient>
<linearGradient id="paint3_linear" x1="674.056" y1="212.433" x2="317.151" y2="-216.663" gradientUnits="userSpaceOnUse">
<stop stop-color="#6CE0F5"/>
<stop offset="1" stop-color="#EDF6FD" stop-opacity="0"/>
</linearGradient>
<linearGradient id="paint4_linear" x1="48.6412" y1="228.847" x2="-308.264" y2="-200.25" gradientUnits="userSpaceOnUse">
<stop stop-color="#6CE0F5"/>
<stop offset="1" stop-color="#EDF6FD" stop-opacity="0"/>
</linearGradient>
<linearGradient id="paint5_linear" x1="1201.38" y1="1195.47" x2="849.871" y2="772.847" gradientUnits="userSpaceOnUse">
<stop stop-color="#6CE0F5"/>
<stop offset="1" stop-color="#EDF6FD" stop-opacity="0"/>
</linearGradient>
<linearGradient id="paint6_linear" x1="575.962" y1="1211.89" x2="224.457" y2="789.262" gradientUnits="userSpaceOnUse">
<stop stop-color="#6CE0F5"/>
<stop offset="1" stop-color="#EDF6FD" stop-opacity="0"/>
</linearGradient>
<linearGradient id="paint7_linear" x1="2993.99" y1="1207.9" x2="2642.48" y2="785.272" gradientUnits="userSpaceOnUse">
<stop stop-color="#6CE0F5"/>
<stop offset="1" stop-color="#EDF6FD" stop-opacity="0"/>
</linearGradient>
<linearGradient id="paint8_linear" x1="996.96" y1="874.271" x2="804.709" y2="643.155" gradientUnits="userSpaceOnUse">
<stop stop-color="#6CE0F5"/>
<stop offset="1" stop-color="#EDF6FD" stop-opacity="0"/>
</linearGradient>
<linearGradient id="paint9_linear" x1="371.547" y1="890.686" x2="179.296" y2="659.569" gradientUnits="userSpaceOnUse">
<stop stop-color="#6CE0F5"/>
<stop offset="1" stop-color="#EDF6FD" stop-opacity="0"/>
</linearGradient>
<linearGradient id="paint10_linear" x1="2789.57" y1="886.697" x2="2597.32" y2="655.58" gradientUnits="userSpaceOnUse">
<stop stop-color="#6CE0F5"/>
<stop offset="1" stop-color="#EDF6FD" stop-opacity="0"/>
</linearGradient>
<linearGradient id="paint11_linear" x1="938.154" y1="702.947" x2="586.632" y2="280.317" gradientUnits="userSpaceOnUse">
<stop stop-color="#6CE0F5"/>
<stop offset="1" stop-color="#EDF6FD" stop-opacity="0"/>
</linearGradient>
<linearGradient id="paint12_linear" x1="312.74" y1="719.361" x2="-38.7813" y2="296.731" gradientUnits="userSpaceOnUse">
<stop stop-color="#6CE0F5"/>
<stop offset="1" stop-color="#EDF6FD" stop-opacity="0"/>
</linearGradient>
<linearGradient id="paint13_linear" x1="2743.04" y1="677.162" x2="2391.52" y2="254.531" gradientUnits="userSpaceOnUse">
<stop stop-color="#6CE0F5"/>
<stop offset="1" stop-color="#EDF6FD" stop-opacity="0"/>
</linearGradient>
<linearGradient id="paint14_linear" x1="1925.93" y1="182.635" x2="1574.41" y2="-239.996" gradientUnits="userSpaceOnUse">
<stop stop-color="#6CE0F5"/>
<stop offset="1" stop-color="#EDF6FD" stop-opacity="0"/>
</linearGradient>
<linearGradient id="paint15_linear" x1="2144.11" y1="361.313" x2="1826.49" y2="-26.2763" gradientUnits="userSpaceOnUse">
<stop stop-color="#6CE0F5"/>
<stop offset="1" stop-color="#EDF6FD" stop-opacity="0"/>
</linearGradient>
<linearGradient id="paint16_linear" x1="2160.72" y1="670.36" x2="1832.4" y2="275.193" gradientUnits="userSpaceOnUse">
<stop stop-color="#6CE0F5"/>
<stop offset="1" stop-color="#EDF6FD" stop-opacity="0"/>
</linearGradient>
<linearGradient id="paint17_linear" x1="2367.83" y1="1202.37" x2="2039.51" y2="807.2" gradientUnits="userSpaceOnUse">
<stop stop-color="#6CE0F5"/>
<stop offset="1" stop-color="#EDF6FD" stop-opacity="0"/>
</linearGradient>
<linearGradient id="paint18_linear" x1="1770.93" y1="1207.63" x2="1419.41" y2="785.003" gradientUnits="userSpaceOnUse">
<stop stop-color="#6CE0F5"/>
<stop offset="1" stop-color="#EDF6FD" stop-opacity="0"/>
</linearGradient>
<linearGradient id="paint19_linear" x1="733.734" y1="381.758" x2="541.475" y2="150.618" gradientUnits="userSpaceOnUse">
<stop stop-color="#6CE0F5"/>
<stop offset="1" stop-color="#EDF6FD" stop-opacity="0"/>
</linearGradient>
<linearGradient id="paint20_linear" x1="108.32" y1="398.172" x2="-83.9387" y2="167.032" gradientUnits="userSpaceOnUse">
<stop stop-color="#6CE0F5"/>
<stop offset="1" stop-color="#EDF6FD" stop-opacity="0"/>
</linearGradient>
<linearGradient id="paint21_linear" x1="2601.83" y1="361.097" x2="2409.58" y2="129.957" gradientUnits="userSpaceOnUse">
<stop stop-color="#6CE0F5"/>
<stop offset="1" stop-color="#EDF6FD" stop-opacity="0"/>
</linearGradient>
<linearGradient id="paint22_linear" x1="2568.83" y1="54.097" x2="2376.58" y2="-177.043" gradientUnits="userSpaceOnUse">
<stop stop-color="#6CE0F5"/>
<stop offset="1" stop-color="#EDF6FD" stop-opacity="0"/>
</linearGradient>
<linearGradient id="paint23_linear" x1="2180.73" y1="855.57" x2="1988.47" y2="624.43" gradientUnits="userSpaceOnUse">
<stop stop-color="#6CE0F5"/>
<stop offset="1" stop-color="#EDF6FD" stop-opacity="0"/>
</linearGradient>
</defs>
</svg>
