<svg width="210" height="42" viewBox="0 0 210 42" fill="none" xmlns="http://www.w3.org/2000/svg">
<path d="M170.197 11.4914L188.819 21.9825L198.129 16.737M207.44 11.4914L198.129 16.737M179.508 6.24582L198.129 16.737" stroke="#25A5F0" stroke-width="1.50095"/>
<path d="M188.819 41.9158V21.9827" stroke="#25A5F0" stroke-width="1.50095"/>
<path d="M170.197 14.1226C170.197 12.4969 171.073 10.9975 172.49 10.1995L179.508 6.24557L186.609 2.24518C187.981 1.47217 189.657 1.47218 191.029 2.24518L205.148 10.1995C206.564 10.9975 207.441 12.4969 207.441 14.1226V28.7929C207.441 30.4185 206.564 31.918 205.148 32.7159L191.029 40.6703C189.657 41.4433 187.981 41.4433 186.609 40.6703L172.49 32.7159C171.073 31.918 170.197 30.4185 170.197 28.7929V14.1226Z" stroke="#25A5F0" stroke-width="1.50095"/>
<rect x="116.303" y="6.59991" width="33" height="32.4" rx="1.50095" stroke="#25A5F0" stroke-width="1.50095" stroke-linecap="round" stroke-linejoin="round"/>
<path d="M140.136 3V10.2" stroke="#25A5F0" stroke-width="1.50095" stroke-linecap="round" stroke-linejoin="round"/>
<path d="M125.469 3V10.2" stroke="#25A5F0" stroke-width="1.50095" stroke-linecap="round" stroke-linejoin="round"/>
<path d="M116.303 17.4001H149.303" stroke="#25A5F0" stroke-width="1.50095" stroke-linecap="round" stroke-linejoin="round"/>
<path d="M37.8507 28.0072C34.7005 35.4587 26.968 39.8933 18.9475 38.8482C10.9269 37.8031 4.58834 31.5349 3.45194 23.5248C2.31555 15.5147 6.66046 7.73005 14.0737 4.49423" stroke="#25A5F0" stroke-width="1.50095" stroke-linecap="round" stroke-linejoin="round"/>
<path fill-rule="evenodd" clip-rule="evenodd" d="M39.2726 21.0038C39.2726 16.2289 37.3762 11.6495 34.0007 8.27318C30.6252 4.89682 26.047 3 21.2733 3V21.0038H39.2726Z" stroke="#25A5F0" stroke-width="1.50095" stroke-linecap="round" stroke-linejoin="round"/>
<path fill-rule="evenodd" clip-rule="evenodd" d="M76.8999 39C86.841 39 94.8999 30.9411 94.8999 21C94.8999 11.0589 86.841 3 76.8999 3C66.9588 3 58.8999 11.0589 58.8999 21C58.8999 30.9411 66.9588 39 76.8999 39Z" stroke="#25A5F0" stroke-width="1.50095" stroke-linecap="round" stroke-linejoin="round"/>
<path d="M76.8999 13.2856V20.9999L80.757 24.857" stroke="#25A5F0" stroke-width="1.50095" stroke-linecap="round" stroke-linejoin="round"/>
</svg>
