<svg width="24" height="16" viewBox="0 0 24 16" fill="none" xmlns="http://www.w3.org/2000/svg">
<path d="M17.6568 15.0708C18.0473 15.4613 18.6805 15.4613 19.071 15.0708C19.4615 14.6802 19.4615 14.0471 19.071 13.6566L13.4142 7.9997L19.071 2.34285C19.4615 1.95233 19.4615 1.31916 19.071 0.928636C18.6805 0.538111 18.0473 0.538112 17.6568 0.928636L11.9999 6.58549L6.34309 0.928636C5.95257 0.538111 5.3194 0.538111 4.92888 0.928636C4.53836 1.31916 4.53836 1.95232 4.92888 2.34285L10.5857 7.9997L4.92888 13.6566C4.53836 14.0471 4.53836 14.6802 4.92888 15.0708C5.3194 15.4613 5.95257 15.4613 6.34309 15.0708L11.9999 9.41392L17.6568 15.0708Z" fill="#EBF7FF"/>
</svg>
