<?xml version="1.0" encoding="UTF-8"?>
<svg width="23px" height="23px" viewBox="0 0 23 23" version="1.1" xmlns="http://www.w3.org/2000/svg"
     xmlns:xlink="http://www.w3.org/1999/xlink">
    <!-- Generator: Sketch 53.2 (72643) - https://sketchapp.com -->
    <title>ic-instagram-hover</title>
    <desc>Created with Sketch.</desc>
    <defs>
        <linearGradient x1="0%" y1="0%" x2="100%" y2="100%" id="linearGradient-1">
            <stop stop-color="#5442D6" offset="0%"></stop>
            <stop stop-color="#C02595" offset="36.761651%"></stop>
            <stop stop-color="#E92150" offset="72.5817377%"></stop>
            <stop stop-color="#FEC053" offset="100%"></stop>
        </linearGradient>
    </defs>
    <g id="ic-instagram-hover" stroke="none" stroke-width="1" fill="none" fill-rule="evenodd">
        <g id="Instagram" fill="url(#linearGradient-1)">
            <g id="ic-instagram">
                <path d="M7.66666667,11.5 C7.66666667,13.6168427 9.3824433,15.3333333 11.5,15.3333333 C13.6166367,15.3333333 15.3333333,13.6168427 15.3333333,11.5 C15.3333333,9.38315735 13.6166367,7.66666667 11.5,7.66666667 C9.3824433,7.66666667 7.66666667,9.38315735 7.66666667,11.5 Z M5.75,11.5 C5.75008958,8.32408937 8.32426853,5.75 11.5,5.75 C14.6757315,5.75 17.25,8.32426853 17.25,11.5 C17.25,14.6757315 14.6757315,17.25 11.5,17.25 C8.32426853,17.25 5.75,14.6757315 5.75,11.5 Z M16.2916667,4.79166667 C16.2923541,4.47672697 16.9356352,3.83370318 18.2083333,3.83333333 C18.523651,3.83365096 19.1669841,4.47749905 19.1666667,5.75 C19.166349,6.06531758 18.5225009,6.70865076 17.25,6.70833333 C16.9346825,6.70801567 16.2913493,6.06416766 16.2916667,4.79166667 Z M7,2 C4.23857625,2 2,4.23857625 2,7 L2,16 C2,18.7614237 4.23857625,21 7,21 L16,21 C18.7614237,21 21,18.7614237 21,16 L21,7 C21,4.23857625 18.7614237,2 16,2 L7,2 Z M7,0 L16,0 C19.8659932,-7.10171439e-16 23,3.13400675 23,7 L23,16 C23,19.8659932 19.8659932,23 16,23 L7,23 C3.13400675,23 4.73447626e-16,19.8659932 0,16 L0,7 C-4.73447626e-16,3.13400675 3.13400675,7.10171439e-16 7,0 Z"
                      id="Combined-Shape"></path>
            </g>
        </g>
    </g>
</svg>