<svg width="20" height="20" viewBox="0 0 20 20" fill="none" xmlns="http://www.w3.org/2000/svg">
<path d="M11.6434 4.62115V8.34821H15.3776" stroke="#25A5F0" stroke-width="1.2381" stroke-linecap="round" stroke-linejoin="round"/>
<path d="M16 4L11.6434 8.34823" stroke="#25A5F0" stroke-width="1.2381" stroke-linecap="round" stroke-linejoin="round"/>
<path fill-rule="evenodd" clip-rule="evenodd" d="M15.3777 13.8892V15.7527C15.3791 16.1025 15.2327 16.4367 14.9744 16.6732C14.7162 16.9097 14.37 17.0265 14.0209 16.995C12.1058 16.7873 10.2662 16.1342 8.64991 15.088C7.14617 14.1343 5.87126 12.8618 4.91572 11.361C3.86391 9.74045 3.20934 7.89543 3.00506 5.97538C2.97361 5.62806 3.08987 5.28355 3.32543 5.02599C3.56099 4.76843 3.89416 4.62154 4.24356 4.62122H6.11066C6.73543 4.61508 7.26795 5.07217 7.35539 5.68964C7.43419 6.28601 7.58034 6.87157 7.79104 7.43514C7.96203 7.88914 7.85267 8.40095 7.51098 8.74582L6.72058 9.53471C7.60655 11.0899 8.89665 12.3775 10.4548 13.2618L11.2452 12.4729C11.5907 12.1318 12.1035 12.0227 12.5584 12.1933C13.123 12.4036 13.7097 12.5495 14.3072 12.6282C14.933 12.7163 15.3934 13.2585 15.3777 13.8892Z" stroke="#25A5F0" stroke-width="1.2381" stroke-linecap="round" stroke-linejoin="round"/>
</svg>
