<svg width="107" height="16" viewBox="0 0 107 16" fill="none" xmlns="http://www.w3.org/2000/svg">
<path fill-rule="evenodd" clip-rule="evenodd" d="M15.5393 0.43151C14.9383 -0.151945 13.9749 -0.142104 13.3867 0.451193C11.3267 2.51291 9.27261 4.57526 7.21859 6.63749L7.21815 6.63794L7.21793 6.63816L7.21784 6.63824L7.21775 6.63833L7.21767 6.63842L7.21758 6.6385L7.2175 6.63859L7.21741 6.63867C4.95916 8.90595 2.70106 11.1731 0.435557 13.4391C-0.152679 14.0324 -0.144153 14.987 0.455449 15.569C1.05505 16.1511 2.01839 16.1426 2.60805 15.5493L8.16929 9.98331L13.7419 15.5367C14.3316 16.13 15.2935 16.137 15.8931 15.5522C16.4927 14.9701 16.4998 14.0155 15.9101 13.4236L10.2949 7.82804L15.5592 2.56007C16.1474 1.96818 16.1389 1.01356 15.5393 0.43151ZM0.779405 0.446975C0.181223 1.03043 0.174119 1.98364 0.763776 2.57694L3.30427 5.11743C3.89251 5.70932 4.85727 5.71495 5.45545 5.13149C6.05363 4.54804 6.06074 3.59482 5.4725 3.00434L2.93201 0.462441C2.34093 -0.129451 1.37759 -0.13648 0.779405 0.446975ZM97.8468 6.48398L102.277 6.47977C102.749 6.47836 103.179 6.28716 103.49 5.97645C103.803 5.66715 103.996 5.24256 103.996 4.77579C103.996 4.31044 103.802 3.88444 103.488 3.57514C103.176 3.26725 102.746 3.07604 102.274 3.07604L93.7746 3.08448C92.9449 3.08588 92.2714 2.42088 92.2714 1.59842C92.27 0.780178 92.942 0.113773 93.7718 0.112367L102.271 0.103932C103.571 0.102526 104.754 0.626933 105.61 1.47189C106.466 2.31825 107 3.48657 107 4.77298C107.001 6.0594 106.471 7.22912 105.616 8.07689C104.762 8.92325 103.581 9.45047 102.281 9.45188L100.217 9.45328L102.683 13.5923C103.103 14.2967 102.862 15.2049 102.151 15.6182C101.437 16.0316 100.521 15.7968 100.103 15.0924L96.3038 8.7208C95.886 8.01503 96.1233 7.10821 96.8352 6.69487C97.0739 6.55569 97.3353 6.48961 97.5925 6.48961V6.48398H97.8468ZM60.042 15.8643C60.869 15.8629 61.5382 15.2007 61.5368 14.381L61.5567 6.51773C61.5552 5.69948 60.8832 5.0373 60.0577 5.0387C59.2307 5.04011 58.5615 5.70229 58.5629 6.52054L58.5444 14.3852C58.5459 15.2035 59.2165 15.8657 60.042 15.8643ZM81.3052 1.35379C80.8917 0.643804 79.9753 0.40058 79.2577 0.809702C78.5416 1.21742 78.2958 2.12564 78.7093 2.83422L82.2955 8.96684C82.3111 8.99495 82.3282 9.02167 82.3467 9.04697L84.5888 12.8837L80.0207 12.8879H80.0165L80.015 12.8851L75.4555 12.8879L77.7346 8.97527C78.148 8.26388 77.9022 7.35565 77.1818 6.94513C76.4643 6.53741 75.545 6.78063 75.1315 7.49203L71.5567 13.6317L71.5609 13.6345C71.4331 13.8524 71.3592 14.1069 71.3606 14.3768C71.362 15.1965 72.0341 15.8586 72.861 15.8558L80.0221 15.8488L80.0236 15.846L87.1634 15.839C87.4248 15.8418 87.6891 15.7785 87.9306 15.6393C88.6453 15.2288 88.8883 14.322 88.4734 13.6162L84.9341 7.56514C84.9213 7.53842 84.9071 7.51171 84.8914 7.4864L81.3052 1.35379ZM67.655 1.62373C67.655 0.804078 66.9815 0.13908 66.1517 0.140485L53.9281 0.153139C53.0969 0.153139 52.4248 0.819544 52.4262 1.6406C52.4276 2.46166 53.0997 3.12525 53.9295 3.12384L66.1546 3.11259C66.9843 3.11119 67.6564 2.44619 67.655 1.62373ZM40.9457 9.51233L37.2784 9.51655L36.7698 9.51795C35.4697 9.51795 34.2875 8.99495 33.4322 8.14859C32.5754 7.30223 32.0426 6.13532 32.0411 4.8489C32.0397 3.56249 32.5711 2.39277 33.4251 1.545C34.279 0.697229 35.4612 0.171416 36.7612 0.17001L43.31 0.16298C44.1398 0.16298 44.8133 0.826573 44.8147 1.64763C44.8147 2.46868 44.1426 3.13368 43.3128 3.13509L36.7641 3.14212C36.2924 3.14353 35.8618 3.33473 35.5493 3.64403C35.2381 3.95333 35.0448 4.37933 35.0448 4.84469C35.0448 5.31145 35.2395 5.73604 35.5535 6.04534C35.8647 6.35464 36.2952 6.54585 36.7669 6.54444H37.2756L40.9428 6.54022L42.7232 6.53882C44.0247 6.53882 45.2054 7.06322 46.0622 7.90818C46.9175 8.75314 47.4504 9.92145 47.4518 11.2079C47.4532 12.4943 46.9232 13.664 46.0679 14.5118C45.2154 15.3595 44.0346 15.8854 42.7331 15.8868L33.4705 15.8966C32.6408 15.8966 31.9687 15.2316 31.9673 14.412C31.9658 13.5909 32.6379 12.9245 33.4663 12.9245L42.7303 12.9147C43.202 12.9147 43.6311 12.722 43.9437 12.4127C44.2563 12.102 44.4481 11.6774 44.4481 11.2121C44.4467 10.7453 44.2534 10.3207 43.9408 10.0114C43.6283 9.70213 43.1977 9.51093 42.7274 9.51093L40.9457 9.51233ZM20.5762 8.02628C20.5706 8.85858 21.2483 9.53623 22.0895 9.54185L25.7013 9.55451C26.541 9.56013 27.2259 8.88951 27.2301 8.05861C27.2358 7.22631 26.5595 6.54866 25.7183 6.54303L22.1065 6.52897C21.2654 6.52616 20.5805 7.19538 20.5762 8.02628Z" fill="#EBF7FF"/>
</svg>
